<svg version="1.1" xmlns="http://www.w3.org/2000/svg" xmlns:xlink="http://www.w3.org/1999/xlink" width="41.12517" height="38.34422" viewBox="0,0,41.12517,38.34422"><g transform="translate(-219.43742,-160.82789)"><g data-paper-data="{&quot;isPaintingLayer&quot;:true}" fill="#ff0000" fill-rule="nonzero" stroke="none" stroke-width="0.5" stroke-linecap="butt" stroke-linejoin="miter" stroke-miterlimit="10" stroke-dasharray="" stroke-dashoffset="0" style="mix-blend-mode: normal"><path d="M238.43011,171.26951c1.77142,-3.04691 3.10841,-6.30872 6.10665,-8.56181c6.96577,-5.23457 16.459,1.29378 16.01051,9.38172c-0.20706,3.73405 -2.58776,5.74207 -4.80999,8.43908c-2.65988,3.22817 -5.73226,5.76483 -8.67626,8.694c-3.02579,3.01055 -5.35961,6.71443 -8.16004,9.94961c-3.65642,-2.18251 -5.00358,-3.92407 -8.01694,-6.61261c-4.24494,-3.78737 -8.73055,-7.99066 -10.69817,-13.55379c-1.85138,-5.23449 -0.51602,-17.06681 6.81449,-17.80851c1.4402,-0.14572 2.65258,1.20036 3.83952,2.02897c2.86355,1.99906 5.24785,5.20674 7.59023,8.04335z"/></g></g></svg>