<svg version="1.1" xmlns="http://www.w3.org/2000/svg" xmlns:xlink="http://www.w3.org/1999/xlink" width="147.00002" height="183" viewBox="0,0,147.00002,183"><g transform="translate(-166.5,-88.50001)"><g data-paper-data="{&quot;isPaintingLayer&quot;:true}" fill="#ffffff" fill-rule="nonzero" stroke="#000000" stroke-width="5" stroke-linecap="butt" stroke-linejoin="miter" stroke-miterlimit="10" stroke-dasharray="" stroke-dashoffset="0" style="mix-blend-mode: normal"><path d="M169,269v-65.50926c1.84021,0.19309 3.67934,0.3698 5.51498,0.53381c13.20468,1.17981 27.21229,3.50354 40.47288,1.32329c1.86859,-0.30723 5.3351,-0.667 8.41913,-1.48448c1.20774,-0.2014 2.34223,-0.61925 3.36224,-1.21233c0.12665,-0.06377 0.25023,-0.12917 0.37048,-0.19624c6.92642,0.50467 13.8529,1.0086 20.77947,1.51119c0.14514,0.01194 0.29116,0.02077 0.43799,0.02645c2.13542,0.10188 3.57803,-0.24134 4.67153,-0.95143c3.38228,-1.60351 5.7213,-5.0491 5.7213,-9.041c0,-5.20465 -3.97612,-9.48063 -9.05648,-9.95607c-0.09993,-0.00935 -0.20029,-0.01723 -0.30106,-0.02362c-26.14309,-2.1905 -53.62361,-4.15219 -80.39244,-5.96554v-87.05476h142v178z"/></g></g></svg>