<svg version="1.1" xmlns="http://www.w3.org/2000/svg" xmlns:xlink="http://www.w3.org/1999/xlink" width="147.00002" height="183" viewBox="0,0,147.00002,183"><g transform="translate(-166.5,-88.50001)"><g data-paper-data="{&quot;isPaintingLayer&quot;:true}" fill="#ffffff" fill-rule="nonzero" stroke="#000000" stroke-width="5" stroke-linecap="butt" stroke-linejoin="miter" stroke-miterlimit="10" stroke-dasharray="" stroke-dashoffset="0" style="mix-blend-mode: normal"><path d="M169,269v-65.50926c1.84021,0.19309 3.67934,0.3698 5.51498,0.53381c11.98456,1.07079 24.63052,3.08388 36.77911,1.81675c0.23253,0.02687 0.46494,0.05444 0.69723,0.0827c24.44575,2.97508 51.30174,7.31129 74.70221,-3.36425c4.08625,-1.2567 7.05648,-5.06136 7.05648,-9.55975c0,-5.52285 -4.47715,-10 -10,-10c-1.18764,0 -2.32692,0.20703 -3.38372,0.58698c-7.53772,2.51257 -15.03449,4.29293 -22.86389,5.57232c-1.56119,-2.81674 -4.44263,-4.80034 -7.80887,-5.11537c-0.09993,-0.00935 -0.20029,-0.01723 -0.30106,-0.02362c-26.14309,-2.1905 -53.62361,-4.15219 -80.39244,-5.96554v-87.05476h142v178z"/></g></g></svg>