<svg version="1.1" xmlns="http://www.w3.org/2000/svg" xmlns:xlink="http://www.w3.org/1999/xlink" width="623" height="140" viewBox="0,0,623,140"><g transform="translate(77,-110)"><g data-paper-data="{&quot;isPaintingLayer&quot;:true}" fill="#ffffff" fill-rule="nonzero" stroke="none" stroke-width="0" stroke-linecap="butt" stroke-linejoin="miter" stroke-miterlimit="10" stroke-dasharray="" stroke-dashoffset="0" style="mix-blend-mode: normal"><path d="M546,110v140l-24.89214,0c-25.03756,-13.45095 -50.86547,-25.6323 -78.27848,-42.15678c-20.26318,-12.21459 -38.40044,-26.69043 -57.61981,-40.01664c-18.98756,-13.16547 -39.16594,-25.10052 -58.77114,-37.62683c-10.91367,-6.97305 -22.13448,-13.60487 -33.38779,-20.19975z"/><path d="M-77,250v-140l273.03523,0c-18.06016,18.04387 -35.30455,36.80581 -54.54066,53.79617c-39.72772,35.08964 -47.1867,37.1357 -85.55944,59.00388c-8.7597,4.99205 -17.50861,9.99986 -26.27683,14.97943c-7.20018,4.08906 -14.42448,8.14284 -21.63241,12.22053z"/></g></g></svg>