<svg version="1.1" xmlns="http://www.w3.org/2000/svg" xmlns:xlink="http://www.w3.org/1999/xlink" width="114.1597" height="115.73884" viewBox="0,0,114.1597,115.73884"><g transform="translate(-159.51426,-150.30311)"><g data-paper-data="{&quot;isPaintingLayer&quot;:true}" fill-rule="nonzero" stroke-linejoin="miter" stroke-miterlimit="10" stroke-dasharray="" stroke-dashoffset="0" style="mix-blend-mode: normal"><path d="M230.53388,239.86957c-6.13787,0.30473 -12.43034,-1.06908 -18.59585,-1.07591c-3.04856,-0.00338 -6.17321,0.56212 -9.2443,1.06313c0.5003,1.58657 -0.16946,3.38998 -0.17315,5.08269c-0.00852,3.90947 0.52454,7.67948 0.61118,11.54159c0.02166,0.96524 -0.08127,1.92598 -0.21688,2.86816c-0.05528,0.38407 -0.56132,0.76709 -0.35124,1.07889c0.23791,0.35314 0.73469,-0.01523 1.10112,0.03416c2.78431,0.37533 4.88664,0.43998 7.63724,0.24956c3.59254,-0.2487 8.10459,0.57479 11.56883,-0.71181c3.05941,-1.13625 6.21364,-2.61459 9.29227,-3.85455c2.68611,-0.34717 5.31936,-0.6679 7.96102,-1.29233c0.39338,-0.09299 0.87857,0.04926 1.18501,-0.25351c0.67464,-0.66653 -0.21412,-2.15908 -0.29465,-3.24029c-0.3239,-4.34913 -0.16634,-8.97269 0.63165,-13.18528c-3.71573,0.49171 -7.36035,1.50921 -11.11222,1.69549zM198.76628,235.38398c4.2259,-0.51955 8.62589,-1.56663 12.89881,-1.57724c6.13492,-0.01524 12.40893,1.39477 18.5123,1.07875c3.77991,-0.19572 7.45649,-1.25743 11.20844,-1.71871l1.34338,-0.16516c0.33401,-0.34962 0.82767,-0.57983 1.55544,-0.45187c0.61773,0.10861 1.03088,0.40964 1.30669,0.77691c3.6133,-0.38356 7.57358,-0.31362 11.02285,-1.33373c2.6737,-0.79074 5.42989,-2.63858 7.83159,-4.174c1.57018,-1.00382 3.58616,-1.24764 4.80253,-2.80431c0.56614,-0.72453 0.19001,-3.86152 0.19475,-4.27417c0.04407,-3.84188 0.41433,-6.94926 -0.25411,-10.81802c-0.15243,-0.88221 -0.54295,-1.72009 -0.59625,-2.61344c-0.02617,-0.43854 0.72169,-1.10517 0.36783,-1.21468c-0.83149,-0.25733 -1.65286,0.37415 -2.47929,0.56122c-2.03367,0.5794 -8.16965,3.7154 -10.24082,1.88883c-1.15427,-1.01796 -1.42112,-3.11913 -1.53432,-4.81168c-0.08844,-1.32236 0.82792,-2.42832 0.96295,-3.73164c0.11646,-1.1241 -0.59009,-6.67012 -0.72138,-7.50183c-0.63359,-4.01362 -1.98181,-7.8744 -2.80945,-11.83351c-0.31943,-1.52799 -1.07924,-3.17099 -0.70096,-4.63756c1.10666,-4.29038 6.31699,-5.81626 9.27533,-7.52286c0.45707,-0.26367 1.1181,-0.1498 1.43272,-0.62732c0.29112,-0.44185 0.05897,-1.15318 0.11686,-1.72459c0.32216,-3.17974 0.7987,-6.04852 0.68664,-9.28371c0.13261,-0.58064 0.70273,-1.23862 0.39784,-1.74191c-0.26906,-0.44413 -0.86743,0.18073 -1.30526,0.24404c-1.19979,0.1735 -2.39694,0.37975 -3.60656,0.46624c-2.68017,0.19165 -5.46474,-0.00749 -8.10456,0.64937c-1.77648,0.44205 -3.42217,1.399 -5.16997,1.96495c-11.15536,3.61209 -22.65739,3.90808 -34.03747,6.2007c-6.57568,1.48291 -13.1665,2.31854 -19.84167,3.13921c-3.09101,0.38002 -6.93686,0.35129 -9.87319,1.50423c-1.6484,0.64724 -3.04574,1.95941 -4.61345,2.83429c-2.7514,1.53545 -5.81298,2.59216 -8.27213,4.7702c-2.69196,2.38423 -4.34454,7.24596 -4.90904,11.12158c0.54152,15.15309 3.17761,33.1296 14.88689,42.00888c1.6389,1.24279 3.07626,2.9577 4.84946,3.86204c2.1306,1.0866 4.42121,-0.023 6.5506,-0.10135c2.6677,-0.09816 4.60722,0.75533 7.04968,2.05396c0.1946,0.06415 0.39742,0.12676 0.60587,0.19028c0.51587,-0.56699 1.21042,-0.65238 1.21042,-0.65238zM245.88589,238.32394c-0.88888,4.07164 -1.07093,8.57052 -0.77854,12.84526c0.1751,2.56002 1.00242,4.55743 -0.69952,6.88478c-2.17947,2.98034 -8.1837,2.62307 -11.19494,2.97001c-2.95592,1.22318 -6.05485,2.71826 -9.01683,3.76993c-4.49105,1.59456 -10.22495,0.9582 -14.90706,1.1976c-2.6308,0.13452 -8.12462,0.21836 -10.01957,-2.78135c-1.16816,-1.84919 -0.209,-4.84834 -0.2446,-6.83971c-0.07049,-3.94255 -0.9066,-7.82078 -0.61093,-11.81717c0.07309,-0.98781 0.69135,-1.89821 0.53502,-2.88534c-0.07118,-0.44944 -0.70447,-0.35222 -1.06802,-0.48023c-0.69576,-0.245 -1.40352,-0.4248 -2.10529,-0.6372c-0.78493,-0.41411 -2.75166,-1.55203 -3.72636,-1.74165c-3.53625,-0.68794 -6.47999,1.38286 -10.11205,-0.32088c-2.01735,-0.94631 -3.65919,-2.85924 -5.49852,-4.26935c-13.09073,-10.03597 -16.4422,-29.63245 -16.92441,-46.77281c0.75461,-5.21596 2.75481,-11.23862 6.35473,-14.50519c2.78127,-2.52372 3.87722,-2.59779 6.79746,-4.09512c2.43073,-1.24634 4.88678,-3.35165 7.37414,-4.32766c3.19286,-1.25284 7.27561,-1.27578 10.63049,-1.68824c6.57835,-0.80876 13.07119,-1.62946 19.55113,-3.09046c8.41079,-1.68972 17.00424,-2.16925 25.41824,-3.77848c5.7396,-1.09774 11.0696,-4.04055 16.83932,-4.76016c2.72732,-0.34015 6.86681,-1.16425 9.54799,-0.81132c1.493,0.19653 3.30812,0.20691 4.35591,1.56309c0.95687,1.23849 0.44641,3.29436 0.66962,4.94154c0.10206,3.51249 -0.14707,6.95827 -0.7462,10.37135c-0.22432,1.27786 -0.21799,2.73894 -0.85747,3.76869c-1.16758,1.88015 -4.90596,3.2686 -6.69556,4.14722c-0.36093,0.1772 -3.14527,1.4888 -3.34225,2.34353c-0.14867,0.64514 0.45477,1.26715 0.65425,1.91268c0.34415,1.11368 0.7333,2.216 0.97602,3.36299c0.93838,4.43415 2.10213,8.89178 2.49043,13.48041c0.12899,1.52425 0.35219,3.07219 0.21324,4.57931c-0.10519,1.14103 -0.56609,2.17426 -0.93211,3.2182c-0.06354,0.18122 -0.4851,0.50653 -0.34181,0.4152c2.39254,-1.52485 4.64996,-2.04427 7.38604,-2.79885c1.9111,0.24291 4.04795,-0.47126 5.7333,0.72875c0.03731,0.02657 1.46932,5.84346 1.61488,6.69224c0.72468,4.22559 0.40778,7.75958 0.34493,11.94566c-0.0436,2.9042 0.58321,4.70949 -1.13086,7.30746c-1.39852,2.11969 -3.93501,2.62052 -5.92261,3.88776c-2.66633,1.69999 -5.72164,3.69727 -8.68966,4.57403c-3.74897,1.10746 -8.02601,1.04329 -11.92194,1.4935z" fill="#000000" stroke="none" stroke-width="0.5" stroke-linecap="butt"/><path d="M241.68288,238.15406c-0.79798,4.21259 -0.95132,8.8616 -0.62741,13.21072c0.08053,1.08121 0.96858,2.58036 0.29394,3.2469c-0.30645,0.30277 -0.79185,0.16179 -1.18524,0.25478c-2.64167,0.62442 -5.27892,0.95785 -7.96503,1.30501c-3.07863,1.23997 -6.26519,2.74215 -9.3246,3.87841c-3.46423,1.28661 -8.00968,0.44603 -11.60221,0.69473c-2.7506,0.19041 -4.85898,0.11558 -7.64329,-0.25976c-0.36643,-0.0494 -0.86368,0.31793 -1.10159,-0.03521c-0.21007,-0.31182 0.29541,-0.69617 0.35069,-1.08023c0.13561,-0.94218 0.23689,-1.90758 0.21523,-2.87283c-0.08664,-3.86211 -0.62212,-7.6558 -0.6136,-11.56526c0.00369,-1.6927 0.6753,-3.50605 0.175,-5.09262c3.07109,-0.501 6.20219,-1.08077 9.25075,-1.07739c6.16552,0.00683 12.5207,1.38109 18.65859,1.07635c3.75187,-0.18627 7.40305,-1.19185 11.11877,-1.68357z" data-paper-data="{&quot;noHover&quot;:false,&quot;origItem&quot;:[&quot;Path&quot;,{&quot;applyMatrix&quot;:true,&quot;selected&quot;:true,&quot;segments&quot;:[[[216.6715,169.34887],[-0.27294,3.74656],[0.44652,-6.12919],7],[[220.00852,151.02327],[-0.75912,6.11861],[0.37535,-3.02537],7],[[220.08137,141.71832],[0.12251,3.10927],[-1.63576,0.30296],7],[[215.05779,140.92625],[1.6796,0.21021],[-3.87921,-0.48551],7],[[203.52788,140.12451],[3.84382,0.38528],[-0.96067,-0.09629],7],[[200.70762,139.55925],[0.91859,0.24957],[-0.37445,-0.10173],7],[[199.67964,139.07898],[0.33512,-0.17045],[-0.37953,0.19304],7],[[199.51138,140.1677],[0.09374,-0.35766],[-0.71228,2.7177],7],[[198.33174,147.71741],[0.14665,-2.75328],[-0.19154,3.59604],7],[[197.62655,159.28665],[-0.85427,-3.59534],[0.75444,3.1752],7],[[200.31841,168.97982],[-0.85503,-3.20693],[0.0168,2.7084],7],[[200.62964,177.03905],[-0.29741,-2.69812],[0.04429,0.40179],7],[[200.73665,178.24613],[-0.26311,-0.3411],[0.57923,0.75093],7],[[203.98868,178.34909],[-1.08296,-0.05201],[4.35615,0.20922],7],[[216.99835,180.58494],[-4.08374,-1.30606],[-0.03463,-3.74796],7]],&quot;closed&quot;:true}]}" fill="#ff0000" stroke="none" stroke-width="0.5" stroke-linecap="butt"/><path d="M197.53466,236.07778c-0.20845,-0.06352 -0.41182,-0.12657 -0.60642,-0.19073c-2.44245,-1.29864 -4.38747,-2.15743 -7.05516,-2.05926c-2.12939,0.07835 -4.42301,1.1842 -6.55362,0.09758c-1.7732,-0.90433 -3.21359,-2.6239 -4.85249,-3.8667c-11.70927,-8.87928 -14.35288,-26.89137 -14.8944,-42.04446c0.5645,-3.87562 2.21883,-8.74684 4.91079,-11.13107c2.45915,-2.17804 5.52309,-3.24155 8.2745,-4.777c1.5677,-0.87488 2.96718,-2.19144 4.61558,-2.83868c2.93632,-1.15295 6.78714,-1.13151 9.87813,-1.51153c6.67517,-0.82067 13.28769,-1.66934 19.86336,-3.15226c11.38008,-2.29262 22.9161,-2.57617 34.07146,-6.18826c1.7478,-0.56593 3.39524,-1.52096 5.17172,-1.963c2.63981,-0.65687 5.42711,-0.4542 8.1073,-0.64585c1.20962,-0.08649 2.40767,-0.29143 3.60746,-0.46493c0.43782,-0.06331 1.03647,-0.68774 1.30553,-0.24362c0.3049,0.5033 -0.26484,1.16187 -0.39745,1.74251c0.11205,3.23519 -0.36202,6.10829 -0.68417,9.28804c-0.05789,0.5714 0.17472,1.28367 -0.1164,1.72552c-0.31462,0.47752 -1.0457,0.41157 -1.50277,0.67524c-2.95834,1.70659 -8.0983,3.18522 -9.20495,7.4756c-0.37829,1.46658 0.38331,3.11375 0.70273,4.64174c0.82764,3.9591 2.1791,7.83222 2.81268,11.84584c0.13129,0.83171 0.83851,6.38563 0.72206,7.50973c-0.13502,1.30332 -1.05144,2.41333 -0.963,3.73569c0.1132,1.69255 0.37963,3.79839 1.53391,4.81636c2.07118,1.82658 8.12559,-1.32575 10.15925,-1.90516c0.82643,-0.18707 1.72974,-0.80649 2.56124,-0.54916c0.35387,0.10952 -0.39406,0.77713 -0.36789,1.21568c0.05331,0.89335 0.44366,1.73315 0.59608,2.61537c0.66844,3.86876 0.29685,6.9839 0.25278,10.82577c-0.00473,0.41266 0.37061,3.55251 -0.19554,4.27705c-1.21638,1.55667 -3.23354,1.80396 -4.80372,2.80779c-2.40171,1.53542 -5.16066,3.38933 -7.83435,4.18006c-3.44927,1.02011 -7.41419,0.95718 -11.02748,1.34073c-0.27581,-0.36727 -0.68931,-0.66788 -1.30704,-0.77649c-0.72777,-0.12796 -1.22252,0.1035 -1.55653,0.45312l-1.34427,0.16614c-3.75195,0.46128 -7.43886,1.53076 -11.21878,1.72648c-6.10338,0.31601 -12.40165,-1.09143 -18.53657,-1.07619c-4.27292,0.01061 -8.68652,1.05095 -12.91242,1.5705c0,0 -0.69527,0.08483 -1.21114,0.65182z" data-paper-data="{&quot;noHover&quot;:false,&quot;origItem&quot;:[&quot;Path&quot;,{&quot;applyMatrix&quot;:true,&quot;selected&quot;:true,&quot;segments&quot;:[[[225,138.36602],[0,0],[0,4.25772],7],[[224.99148,151.3609],[0.51087,-4.24228],[-0.73349,6.09093],7],[[221.66184,169.60322],[0.43111,-6.09633],[-0.26699,3.77555],7],[[222,180.93763],[0,-3.7802],[0,0],7],[[222,182.29113],[0,0],[0.30625,0.37418],7],[[222.25869,183.89009],[0.21581,-0.70672],[-0.18318,0.59986],7],[[221.32814,185.09221],[0.39818,-0.22893],[-0.06022,3.6331],7],[[221.30683,196.19544],[-0.59159,-3.54797],[0.45857,2.75021],7],[[224.494,204.47784],[-1.23088,-2.57112],[0.80472,1.68094],7],[[226.69133,209.58668],[-1.39661,-1.39724],[0.65003,0.65032],7],[[230.9098,210.30153],[-0.409,-0.05505],[3.80779,0.51254],7],[[241.67799,211.36938],[-3.92142,0.19136],[0.89422,-0.04364],7],[[244.34466,211.09648],[-0.89318,-0.0561],[0.43846,0.02754],7],[[245.50538,211.60978],[-0.15188,0.33786],[0.35687,-0.79388],7],[[245.25089,209.08054],[0.08483,0.84308],[-0.32691,-2.08917],7],[[244.6258,198.68576],[-2.06566,1.83281],[1.1512,-1.02143],7],[[249.58875,197.75006],[-1.69371,-0.09418],[1.32327,0.07358],7],[[253.175,199.16116],[-1.2771,-0.29305],[1.10149,0.25276],7],[[260.7088,199.36058],[-0.84152,0.02882],[4.06094,-0.13909],7],[[272.7967,198.0161],[-4.03051,0.33835],[1.55555,-0.13059],7],[[277.48514,197.88628],[-1.40946,-0.55442],[4.12328,1.62192],7],[[283.81996,208.01027],[-1.33285,-3.14448],[0.20593,0.48583],7],[[284.26777,209.50883],[-0.43556,-0.37054],[0.40302,0.34286],7],[[285.96521,209.83527],[-0.56007,-0.12718],[3.11667,0.70776],7],[[295.09576,211.64962],[-3.22469,-0.28356],[0.56012,0.20247],7],[[296.77611,212.25704],[-0.53674,0.24121],[0.47364,-0.21285],7],[[296.69317,210.93176],[0.00941,0.44227],[-0.0258,-1.212],7],[[296.67049,207.29526],[-0.06176,1.21113],[0.13683,-2.68353],7],[[297.01493,199.17203],[0.32984,2.70024],[-0.22197,-1.81715],7],[[295.69553,193.80092],[0.34843,1.8038],[-2.22387,-11.51276],7],[[293.69458,159.26117],[0.88684,11.57479],[-0.66943,-6.70749],7],[[293,139.18471],[0,6.72543],[0,-3.11428],7],[[292.71178,129.20175],[0.78603,3.05507],[-0.44126,-1.71506],7],[[290.46163,124.27692],[0.67704,1.66274],[-1.18824,-2.9182],7],[[286.73648,115.48453],[1.86169,2.70655],[-2.03793,-2.96278],7],[[276.29702,109.25506],[3.77778,1.0332],[-15.10593,-1.31158],7],[[232.78551,118.90458],[10.24175,-10.53828],[-1.43349,1.475],7],[[228.36057,123.24654],[1.11395,-1.6496],[-1.33847,1.98209],7],[[227.66184,129.76056],[0.18207,-2.12304],[-0.2281,2.65974],7],[[224.76299,136.50692],[1.58697,-2.26573],[-0.08742,0.18532],7],[[224.5002,137.08504],[0.08848,-0.19914],[0.4998,0.5812],7]],&quot;closed&quot;:true}]}" fill="#ff0000" stroke="none" stroke-width="0.5" stroke-linecap="butt"/><path d="M185.96262,178.1016c0.03744,0.15072 0.04914,0.24585 0.04914,0.24585c0.57599,4.68501 1.79141,9.77679 1.7676,14.50895c-0.02237,4.44525 -0.93122,8.74722 -0.37664,13.195c0.45776,3.67131 1.09719,6.59831 1.87971,10.103c0.13422,0.60112 -0.33048,1.35313 0.03701,1.8474c0.25516,0.34319 0.8642,0.0217 1.28076,-0.07505c1.35141,-0.31386 2.66144,-0.78552 3.99972,-1.15132c4.72744,-1.29216 9.49617,-1.86435 14.3483,-2.45487c0.92708,-0.20039 1.84804,-0.43166 2.78127,-0.60118c0.28579,-0.05191 0.85526,0.22824 0.8692,-0.06189c0.04389,-0.91357 -0.61808,-1.73586 -0.73928,-2.64243c-0.36443,-2.72604 -0.34063,-5.49341 -0.67674,-8.22309c-0.83834,-6.80846 -1.34871,-13.42393 -3.41616,-19.93977c-0.75053,-2.36539 -1.70684,-4.6607 -2.52515,-7.00351c-0.35159,-1.00659 -0.93982,-1.957 -1.06631,-3.0157c-0.06049,-0.5063 1.04038,-1.49907 0.53475,-1.43318c-0.78448,0.10224 -1.07358,1.19858 -1.75948,1.59279c-1.09838,0.63128 -2.34053,0.9706 -3.51724,1.43995c-3.79917,1.51537 -7.4407,2.67254 -11.50914,3.17117zM182.4258,176.37583c-0.57663,-2.3935 1.82297,-2.99775 1.82297,-2.99775l2.75788,-0.68949c5.15028,-0.63515 9.21502,-2.89236 14.09863,-4.34311c1.94671,-0.5783 4.04507,-2.10732 5.93669,-1.36846c1.50318,0.58714 1.32374,2.94448 1.92859,4.44063c0.96042,2.37566 1.67212,4.8446 2.5401,7.25557c3.16127,8.7809 4.31934,17.90941 5.09138,27.23654c0.03651,0.44114 0.50018,9.91173 0.47553,9.97026c-1.01448,2.40831 -5.29436,2.90603 -7.27278,3.36662c-3.83483,0.4758 -7.63109,0.87385 -11.40671,1.7278c-1.36762,0.30933 -7.47269,1.94995 -7.6359,1.94968c-1.69818,-0.00288 -3.62661,-0.22569 -4.91845,-1.32795c-1.0774,-0.91929 -0.89735,-2.68672 -1.35681,-4.02641c-0.69727,-2.03308 -1.21112,-4.14366 -1.4774,-6.27642c-0.79745,-6.38712 -0.2935,-12.0301 -0.22997,-18.39227c0.04527,-4.53287 -1.17866,-9.45537 -1.73044,-13.94348c0,0 -0.23418,-1.90477 1.37668,-2.58174z" fill="#000000" stroke="none" stroke-width="0.5" stroke-linecap="butt"/><path d="M187.89827,177.56084c4.06844,-0.49862 7.73884,-1.66281 11.53801,-3.17817c1.17671,-0.46936 2.42652,-0.80759 3.52488,-1.43887c0.6859,-0.39421 0.97776,-1.48986 1.76223,-1.5921c0.50563,-0.06589 -0.59552,0.92681 -0.53502,1.43311c0.12649,1.05869 0.71905,2.01052 1.07063,3.01711c0.81832,2.34281 1.78855,4.64613 2.53908,7.01153c2.06746,6.51584 2.58869,13.19653 3.42702,20.00499c0.33611,2.72968 0.30201,5.50891 0.66644,8.23495c0.12119,0.90657 0.78131,1.73033 0.73742,2.6439c-0.01394,0.29013 -0.58467,0.01091 -0.87046,0.06282c-0.93323,0.16951 -1.85912,0.40389 -2.7862,0.60428c-4.85213,0.59052 -9.65286,1.16826 -14.3803,2.46043c-1.33828,0.3658 -2.65583,0.83565 -4.00723,1.14951c-0.41657,0.09674 -1.02785,0.41744 -1.28303,0.07426c-0.3675,-0.49427 0.09582,-1.24682 -0.03839,-1.84793c-0.78253,-3.50468 -1.4372,-6.44154 -1.89496,-10.11285c-0.55458,-4.4478 0.33933,-8.79472 0.3617,-13.23996c0.02381,-4.73217 -1.17219,-9.85548 -1.74818,-14.54049c0,0 -0.01148,-0.09529 -0.04892,-0.24601z" data-paper-data="{&quot;noHover&quot;:false,&quot;origItem&quot;:[&quot;Path&quot;,{&quot;applyMatrix&quot;:true,&quot;segments&quot;:[[[283.41668,132.6479],[0,0],[-0.15416,0.01877]],[[283.16667,132.66667],[0,0],[-4.72028,0]],[[268.55044,132.65061],[4.6939,0.60107],[-4.4093,-0.56463]],[[255.5,130.66667],[4.48223,-0.00769],[-3.69973,0.00635]],[[245.24313,131.29952],[3.57398,-0.34902],[-0.61301,0.05986]],[[243.40503,131.11083],[0.53542,-0.30444],[-0.37176,0.21138]],[[243.32323,132.39118],[-0.04519,-0.42526],[0.14661,1.37961]],[[243.97788,136.5015],[-0.19976,-1.37292],[0.70564,4.84979]],[[244.66356,151.04213],[0.00597,-4.88793],[0.08577,0.94461]],[[244.92086,153.87597],[-0.05437,-0.94694],[0.01665,0.28999]],[[244.87623,154.74623],[-0.28626,-0.04924],[0.90139,0.15504]],[[247.58912,154.33492],[-0.91458,0.00966],[2.75014,-0.02906]],[[255.83333,154.66667],[-2.7503,0.00051],[6.85988,-0.00127]],[[276.04095,153.70917],[-6.71943,1.25692],[2.4393,-0.45629]],[[283.30026,152.0575],[-2.42516,0.52632],[1.04197,-0.22613]],[[286.42353,151.36715],[-1.06621,-0.00364],[0.5099,0.00174]],[[287.78075,152.07279],[0.0037,0.50989],[-0.00575,-0.79109]],[[286.41456,150.1321],[0.30757,0.72888],[-0.49253,-1.1672]],[[285.41456,146.46544],[0.32226,1.22519],[-1.04045,-3.95569]],[[283.6715,134.65534],[-0.00156,4.09888],[0,0]]],&quot;closed&quot;:true}]}" fill="#00bfff" stroke="none" stroke-width="0.5" stroke-linecap="butt"/><path d="M186.83598,200.07592l6.98292,2.16408l1.51328,-12.2764l8.16794,9.0711l1.1011,-12.89741l7.00727,10.55717" fill="none" stroke="#000000" stroke-width="1.5" stroke-linecap="round"/></g></g></svg>