<svg version="1.1" xmlns="http://www.w3.org/2000/svg" xmlns:xlink="http://www.w3.org/1999/xlink" width="205.42783" height="148.15888" viewBox="0,0,205.42783,148.15888"><g transform="translate(-117.44495,-45.80357)"><g data-paper-data="{&quot;isPaintingLayer&quot;:true}" fill-rule="nonzero" stroke="none" stroke-width="0.5" stroke-linecap="butt" stroke-linejoin="miter" stroke-miterlimit="10" stroke-dasharray="" stroke-dashoffset="0" style="mix-blend-mode: normal"><path d="M259.03885,132.03824l0.07464,-0.69867c-0.69041,-2.76468 -0.64325,-5.88808 -1.31278,-8.51454c-0.22597,-0.88645 -1.01808,-1.55626 -1.25817,-2.43899c-1.92268,-7.06882 -3.18336,-14.54764 -4.62036,-21.72966c-0.51071,-2.05684 -1.37164,-4.01124 -1.99453,-6.03693c-0.10651,-0.34637 -2.0258,-8.29871 -2.37306,-9.05981c-2.18798,-4.79547 -6.52011,-8.44028 -9.82555,-12.40816c-3.10358,-3.72557 -4.89549,-5.78962 -8.61217,-9.00664c-5.2424,-4.53763 -11.632,-10.25824 -18.77899,-11.14615c-7.55945,-0.93915 -14.86502,1.95806 -21.85981,4.28088c-4.57845,2.60162 -11.1837,5.12611 -14.27383,9.66374c-1.42314,2.08976 -1.8438,5.22932 -2.21296,7.56157c-0.77045,4.86755 -1.19869,9.53414 -1.05043,14.45106c0.14744,4.88965 -0.02536,9.93108 0.42786,14.80084c0.84219,9.04915 3.36538,18.26381 5.0698,27.21702c1.4695,0.41914 2.92532,0.86874 4.362,1.357c9.08675,3.08815 17.91728,7.93663 26.69438,11.82893c8.51125,3.77441 17.66444,7.2924 25.66705,12.27197c1.56041,-1.20798 3.03151,-2.5361 4.42392,-3.9335c2.36784,-2.35637 4.12355,-5.07367 6.65483,-7.29844c2.46375,-2.16542 5.46734,-3.4519 8.00631,-5.35952c1.01092,-0.75954 1.6432,-1.96804 2.69557,-2.66902c1.01263,-0.67451 2.32452,-0.77276 3.38006,-1.37793c0.33242,-0.19058 0.66086,-0.38928 0.98569,-0.59532c-0.26946,-0.5935 -0.26946,-1.15971 -0.26946,-1.15971zM166.42796,76.7624c0.60134,-4.88102 0.80005,-10.41567 3.65872,-14.65558c3.63279,-5.38806 10.92103,-8.33845 16.35864,-11.3954c7.82992,-2.64005 16.03654,-5.79643 24.50348,-4.67528c8.26255,1.09408 15.34159,7.05738 21.4389,12.32693c3.79574,3.28043 6.00383,5.77258 9.18284,9.58795c3.55449,4.26601 8.12101,8.21789 10.46233,13.38485c0.98749,2.17925 1.94656,7.45201 2.66233,9.77671c0.66522,2.16053 1.55391,4.25448 2.10518,6.44686c1.40946,7.05001 2.61979,14.40677 4.51473,21.33576c0.2719,0.99423 1.10569,1.78015 1.35185,2.78106c0.62374,2.53616 0.60775,5.39521 1.20288,8.05224c3.56902,-3.1049 6.86591,-6.70865 10.49677,-9.45702c0.21526,-0.16294 8.06325,-4.73459 8.07654,-4.74324c8.18111,-5.32007 15.94884,-11.48171 23.75374,-17.33538c3.28691,-2.46518 10.67288,-9.95899 15.44377,-8.04462c1.64195,0.65885 1.22081,3.43497 1.07309,5.19799c-0.13735,1.63924 -1.25199,3.04248 -1.89058,4.55846c-1.25384,2.97654 -2.3615,6.02135 -3.27456,9.11945c-1.69386,5.74743 -4.33167,10.73882 -7.0179,16.08253c-7.49611,14.91197 -17.00657,27.69044 -27.54097,40.55719c-6.76702,7.14087 -13.51853,14.29714 -20.3081,21.41657c-2.96643,3.11055 -4.72269,5.72901 -9.29867,6.81446c-1.21235,0.28758 -2.46078,-0.4161 -3.66414,-0.73923c-4.05576,-1.08906 -7.62733,-3.38145 -11.69484,-4.55283c-2.53914,-0.73123 -6.25082,-1.2165 -8.62641,-2.00271c-10.01957,-3.31602 -19.75412,-9.66767 -29.09072,-14.52409c-19.18115,-11.05578 -38.15042,-22.37431 -56.758,-34.37067c-4.20236,-2.70927 -8.40472,-5.41855 -12.60708,-8.12782c-0.07211,-0.04649 -8.48687,-5.47056 -8.49624,-5.48046c-0.02564,-0.02707 -0.05115,-0.05424 -0.07655,-0.08151l-0.01215,0.01562l-3.92642,-3.05388c-0.59896,-0.45673 -0.98549,-1.17783 -0.98549,-1.9892c0,-1.38071 1.11929,-2.5 2.5,-2.5c0.51294,0 0.9898,0.15448 1.3866,0.41945l3.00488,1.94006c10.07014,4.01699 21.31265,3.3498 31.85185,5.55554c4.91306,1.03144 9.94583,1.99084 14.90006,3.1767c-3.19226,-16.80116 -6.77687,-33.63815 -4.66038,-50.81746zM237.48466,157.36426c0.03552,0.02638 0.071,0.0528 0.10645,0.07925c0,0 2,1.5 0.5,3.5c-1.5,2 -3.5,0.5 -3.5,0.5c-8.56293,-6.45764 -19.37246,-10.38903 -29.12314,-14.71308c-8.64939,-3.83567 -17.36175,-8.64435 -26.31739,-11.67973c-7.72386,-2.61789 -16.02303,-4.08173 -23.98959,-5.75422c-6.47629,-1.36404 -13.07942,-1.74437 -19.56822,-2.6695c3.55513,2.292 7.11026,4.584 10.66539,6.876c18.50795,11.93212 37.37702,23.18493 56.45149,34.1882c6.87354,3.57319 13.69858,7.23991 20.70019,10.55609c2.54535,1.20556 4.95413,2.75051 7.62966,3.63011c0.37953,0.12477 7.50355,1.67017 8.33876,1.91233c3.28851,0.95348 6.40629,2.42532 9.55323,3.77447c1.23736,0.53048 2.50437,1.7461 3.79808,1.37357c3.91384,-1.12702 7.14388,-6.16237 9.76471,-8.92592c5.58096,-5.88491 11.16086,-11.77083 16.74409,-17.65359c3.84606,-4.70401 8.03998,-9.27402 11.61091,-14.18904c6.50461,-8.95294 11.79732,-18.47971 16.74021,-28.34403c1.27378,-2.54202 2.81788,-4.96544 3.8235,-7.62497c1.17008,-3.09448 1.67712,-6.40953 2.79516,-9.52319c0.57976,-1.61461 1.33492,-3.1608 2.01643,-4.73516c0.11112,-0.25671 0.21186,-0.51956 0.30912,-0.7845c-2.32617,1.97697 -5.61184,3.74179 -7.33679,5.0355c-7.89421,5.92066 -15.75303,12.14598 -24.02795,17.52705c-2.50511,1.62904 -5.37094,2.69855 -7.74756,4.5099c-5.59918,4.26743 -10.43747,10.30319 -16.58134,13.88348c-0.97279,0.56689 -2.20846,0.60716 -3.14501,1.2321c-0.99512,0.66402 -1.56682,1.83403 -2.52448,2.55103c-2.44144,1.82789 -5.28449,3.01815 -7.65385,5.08058c-2.42542,2.11123 -4.13348,4.78521 -6.3953,7.0567c-1.1635,1.15972 -2.37445,2.27686 -3.63675,3.33055z" fill="#000000"/><path d="M241.08096,154.0043c2.26182,-2.2715 3.96112,-4.925 6.38654,-7.03623c2.36936,-2.06243 5.21165,-3.24172 7.65309,-5.06961c0.95766,-0.71699 1.52966,-1.88317 2.52478,-2.5472c0.93655,-0.62494 2.17237,-0.66401 3.14517,-1.23089c6.14388,-3.58029 10.98472,-9.60589 16.5839,-13.87333c2.37662,-1.81135 5.24289,-2.87971 7.748,-4.50875c8.27492,-5.38107 16.13537,-11.6027 24.02958,-17.52336c1.72494,-1.29371 5.0109,-3.05797 7.33707,-5.03493c-0.09727,0.26494 -0.10871,0.48277 -0.21983,0.73948c-0.68151,1.57436 -1.43592,3.12211 -2.01569,4.73671c-1.11804,3.11366 -1.62351,6.43254 -2.79359,9.52702c-1.00562,2.65953 -2.54865,5.08625 -3.82243,7.62827c-4.94289,9.86431 -10.23383,19.40872 -16.73845,28.36166c-3.57093,4.91502 -7.76768,9.49815 -11.61375,14.20216c-5.58323,5.88276 -11.17502,11.78723 -16.75598,17.67215c-2.62082,2.76356 -5.86084,7.80654 -9.77468,8.93355c-1.29371,0.37253 -2.563,-0.84185 -3.80035,-1.37233c-3.14694,-1.34915 -6.27204,-2.81794 -9.56055,-3.77142c-0.83521,-0.24216 -7.96841,-1.78549 -8.34794,-1.91026c-2.67553,-0.8796 -5.09444,-2.42429 -7.63979,-3.62984c-7.0016,-3.31618 -13.85731,-6.99648 -20.73084,-10.56968c-19.07447,-11.00327 -37.95876,-22.2983 -56.46671,-34.23043c-3.55513,-2.292 -7.10981,-4.58699 -10.66494,-6.87899c6.48879,0.92513 13.09204,1.30486 19.56833,2.6689c7.96656,1.67248 16.36409,3.15431 24.08795,5.7722c8.95564,3.03538 17.66795,7.8269 26.31734,11.66257c9.75068,4.32405 20.48992,8.21881 29.05285,14.67645c0,0 1.99313,1.50387 3.49313,-0.49613c1.5,-2 -0.50337,-3.49752 -0.50337,-3.49752c-0.03545,-0.02646 -0.07086,-0.05293 -0.10638,-0.07931c1.26229,-1.05369 2.46404,-2.16119 3.62754,-3.32091z" data-paper-data="{&quot;noHover&quot;:false,&quot;origItem&quot;:[&quot;Path&quot;,{&quot;applyMatrix&quot;:true,&quot;segments&quot;:[[[237.48466,157.36426],[1.26229,-1.05369],[0.03552,0.02638]],[[237.5911,157.44352],[-0.03545,-0.02646],[0,0]],[[238.0911,160.94352],[1.5,-2],[-1.5,2]],[[234.5911,161.44352],[0,0],[-8.56293,-6.45764]],[[205.46796,146.73044],[9.75068,4.32405],[-8.64939,-3.83567]],[[179.15057,135.05071],[8.95564,3.03538],[-7.72386,-2.61789]],[[155.16098,129.29649],[7.96656,1.67248],[-6.47629,-1.36404]],[[135.59277,126.627],[6.48879,0.92513],[3.55513,2.292]],[[146.25815,133.503],[-3.55513,-2.292],[18.50795,11.93212]],[[202.70964,167.6912],[-19.07447,-11.00327],[6.87354,3.57319]],[[223.40983,178.24729],[-7.0016,-3.31618],[2.54535,1.20556]],[[231.03949,181.8774],[-2.67553,-0.8796],[0.37953,0.12477]],[[239.37825,183.78973],[-0.83521,-0.24216],[3.28851,0.95348]],[[248.93148,187.5642],[-3.14694,-1.34915],[1.23736,0.53048]],[[252.72956,188.93777],[-1.29371,0.37253],[3.91384,-1.12702]],[[262.49426,180.01185],[-2.62082,2.76356],[5.58096,-5.88491]],[[279.23835,162.35826],[-5.58323,5.88276],[3.84606,-4.70401]],[[290.84926,148.16922],[-3.57093,4.91502],[6.50461,-8.95294]],[[307.58947,119.8252],[-4.94289,9.86431],[1.27378,-2.54202]],[[311.41297,112.20022],[-1.00562,2.65953],[1.17008,-3.09448]],[[314.20812,102.67703],[-1.11804,3.11366],[0.57976,-1.61461]],[[316.22455,97.94187],[-0.68151,1.57436],[0.11112,-0.25671]],[[316.53368,97.15737],[-0.09727,0.26494],[-2.32617,1.97697]],[[309.19689,102.19287],[1.72494,-1.29371],[-7.89421,5.92066]],[[285.16894,119.71991],[8.27492,-5.38107],[-2.50511,1.62904]],[[277.42138,124.22981],[2.37662,-1.81135],[-5.59918,4.26743]],[[260.84004,138.1133],[6.14388,-3.58029],[-0.97279,0.56689]],[[257.69503,139.3454],[0.93655,-0.62494],[-0.99512,0.66402]],[[255.17055,141.89643],[0.95766,-0.71699],[-2.44144,1.82789]],[[247.5167,146.97701],[2.36936,-2.06243],[-2.42542,2.11123]],[[241.1214,154.03371],[2.26182,-2.2715],[-1.1635,1.15972]]],&quot;closed&quot;:true}]}" fill="#44cb29"/><path d="M259.34944,133.2264c-0.32482,0.20603 -0.65384,0.40554 -0.98625,0.59612c-1.05554,0.60517 -2.36926,0.7058 -3.38189,1.38031c-1.05237,0.70098 -1.68709,1.91225 -2.69801,2.67179c-2.53897,1.90762 -5.54968,3.20031 -8.01343,5.36573c-2.53127,2.22477 -4.2949,4.94671 -6.66274,7.30308c-1.39241,1.3974 -2.86831,2.72747 -4.42871,3.93546c-8.00261,-4.97957 -17.18171,-8.49568 -25.69296,-12.27008c-8.7771,-3.8923 -17.63707,-8.75846 -26.72382,-11.84661c-1.43668,-0.48826 -2.89491,-0.94112 -4.36442,-1.36026c-1.70441,-8.9532 -4.23628,-18.19702 -5.07847,-27.24616c-0.45322,-4.86976 -0.27755,-9.92691 -0.42499,-14.81656c-0.14826,-4.91691 0.28611,-9.59543 1.05656,-14.46297c0.36915,-2.33225 0.79404,-5.47705 2.21717,-7.56681c3.09013,-4.53763 9.70765,-7.07182 14.28609,-9.67344c6.99478,-2.32282 14.32027,-5.22624 21.87972,-4.28709c7.14699,0.88791 13.55755,6.61106 18.79995,11.14869c3.71668,3.21702 5.52142,5.28773 8.625,9.01329c3.30544,3.96788 7.6515,7.62796 9.83948,12.42343c0.34726,0.76109 2.2715,8.72496 2.378,9.07133c0.62289,2.02569 1.48547,3.98855 1.99618,6.04538c1.437,7.18202 2.69392,14.6859 4.6166,21.75472c0.2401,0.88273 1.03144,1.55423 1.25741,2.44067c0.66953,2.62646 0.61904,5.7558 1.30946,8.52048l-0.07497,0.69917c0,0 -0.00043,0.56684 0.26904,1.16033z" data-paper-data="{&quot;noHover&quot;:false,&quot;origItem&quot;:[&quot;Path&quot;,{&quot;applyMatrix&quot;:true,&quot;segments&quot;:[[259.03885,132.03824],[[259.1135,131.33957],[0,0],[-0.69041,-2.76468]],[[257.80072,122.82503],[0.66953,2.62646],[-0.22597,-0.88645]],[[256.54254,120.38604],[0.2401,0.88273],[-1.92268,-7.06882]],[[251.92219,98.65638],[1.437,7.18202],[-0.51071,-2.05684]],[[249.92766,92.61944],[0.62289,2.02569],[-0.10651,-0.34637]],[[247.55461,83.55964],[0.34726,0.76109],[-2.18798,-4.79547]],[[237.72906,71.15148],[3.30544,3.96788],[-3.10358,-3.72557]],[[229.11689,62.14484],[3.71668,3.21702],[-5.2424,-4.53763]],[[210.33789,50.99868],[7.14699,0.88791],[-7.55945,-0.93915]],[[188.47809,55.27956],[6.99478,-2.32282],[-4.57845,2.60162]],[[174.20425,64.9433],[3.09013,-4.53763],[-1.42314,2.08976]],[[171.99129,72.50487],[0.36915,-2.33225],[-0.77045,4.86755]],[[170.94087,86.95593],[-0.14826,-4.91691],[0.14744,4.88965]],[[171.36873,101.75677],[-0.45322,-4.86976],[0.84219,9.04915]],[[176.43852,128.97379],[-1.70441,-8.9532],[1.4695,0.41914]],[[180.80052,130.33079],[-1.43668,-0.48826],[9.08675,3.08815]],[[207.4949,142.15971],[-8.7771,-3.8923],[8.51125,3.77441]],[[233.16195,154.43168],[-8.00261,-4.97957],[1.56041,-1.20798]],[[237.58587,150.49818],[-1.39241,1.3974],[2.36784,-2.35637]],[[244.2407,143.19974],[-2.53127,2.22477],[2.46375,-2.16542]],[[252.247,137.84022],[-2.53897,1.90762],[1.01092,-0.75954]],[[254.94258,135.17119],[-1.05237,0.70098],[1.01263,-0.67451]],[[258.32263,133.79327],[-1.05554,0.60517],[0.33242,-0.19058]],[[259.30832,133.19795],[-0.32482,0.20603],[-0.26946,-0.5935]]],&quot;closed&quot;:true}]}" fill="#fff632"/></g></g></svg>