<svg version="1.1" xmlns="http://www.w3.org/2000/svg" xmlns:xlink="http://www.w3.org/1999/xlink" width="158.84026" height="146.12733" viewBox="0,0,158.84026,146.12733"><g transform="translate(-177.17288,-109.15608)"><g data-paper-data="{&quot;isPaintingLayer&quot;:true}" fill-rule="nonzero" stroke-linejoin="miter" stroke-miterlimit="10" stroke-dasharray="" stroke-dashoffset="0" style="mix-blend-mode: normal"><g><path d="M210.57924,197.11149c0,0 21.13565,1.07227 30.73556,1.30926c9.46838,0.23374 25.91104,-1.10838 25.91104,-1.10838c0,0 6.87952,26.33816 8.75555,36.75709c0.47127,2.61727 -0.96038,7.53375 -3.36611,10.17995c-3.00714,3.30772 -7.1973,4.08507 -7.1973,4.08507c0,0 -6.63683,0.72833 -9.46573,-0.96318c-1.96648,-1.17584 -5.26955,-3.57666 -6.23938,-8.18103c-0.54985,-2.61048 -3.77971,-2.5065 -3.77971,-2.5065c0,0 -4.41597,2.01799 -5.87977,7.79482c-0.97685,3.85514 -4.72772,5.10248 -7.91394,6.30596c-3.53659,1.33582 -6.42001,2.31285 -10.51329,2.08179c-18.55845,-1.0476 -19.68451,-15.98169 -19.68451,-15.98169l8.6376,-39.77314z" data-paper-data="{&quot;index&quot;:null}" fill="#d90000" stroke="#000000" stroke-width="3" stroke-linecap="round"/><path d="M261.31487,198.94103l2.06201,9.57362l5.74417,-0.29457l6.92246,24.74414l-2.06201,10.45734l-6.18603,4.71317h-8.98448l-6.62789,-3.68217l-3.82945,-7.21704l-4.4186,0.29457l-6.33332,10.31006l-7.80618,4.12403l-12.0775,1.76744l-10.45734,-5.15503l-5.4496,-7.80618l2.50387,-14.87594l2.94573,-11.48835l1.32558,-7.36432c0,0 5.83608,2.97468 8.73993,3.96683c2.98535,1.02 8.93445,2.07192 8.93445,2.07192l-1.76744,-12.96122v-3.38759l11.63564,0.88372v15.61238c0,0 5.37016,-2.7559 10.31177,-2.72421c5.66674,0.03634 8.6882,2.8715 8.6882,2.8715l-2.06201,-15.90695l7.95347,-0.44186z" data-paper-data="{&quot;index&quot;:null}" fill="#0024dd" stroke="#000000" stroke-width="1.5" stroke-linecap="round"/><path d="M252.91954,198.0573l7.06975,-0.73643l1.62015,3.68217l-3.53488,0.88372l0.58915,8.10076l-3.53488,0.44186z" data-paper-data="{&quot;index&quot;:null}" fill="#001eb7" stroke="none" stroke-width="0" stroke-linecap="round"/><path d="M230.97385,233.84794l-2.50387,1.32558l-2.35659,-4.27131l-0.29457,-5.15503l0.73643,-4.4186l3.97674,0.58915z" data-paper-data="{&quot;index&quot;:null}" fill="#001eb7" stroke="none" stroke-width="0" stroke-linecap="round"/><path d="M235.39245,201.73947l-6.18603,0.44186l-0.14729,11.04649l-1.32558,3.68217l-7.80618,1.03101l-2.06201,-6.33331l8.54262,1.91472l-1.91473,-16.34881l4.70556,0.0966l6.78279,0.78712z" data-paper-data="{&quot;index&quot;:null}" fill="#001eb7" stroke="none" stroke-width="0" stroke-linecap="round"/><path d="M263.52417,230.60764l-3.24031,-0.44186l-3.53488,-8.83719l5.15503,-1.03101z" data-paper-data="{&quot;index&quot;:null}" fill="#001eb7" stroke="none" stroke-width="0" stroke-linecap="round"/><path d="M230.97385,233.55337l-0.58915,-11.63564l31.96118,-1.76744l1.17829,9.72091" data-paper-data="{&quot;index&quot;:null}" fill="none" stroke="#000000" stroke-width="3" stroke-linecap="round"/><path d="M225.67154,253.14248c0,0 -5.30015,0.95002 -7.59505,0.65986c-1.90233,-0.24053 -5.21888,-2.28001 -5.21888,-2.28001c0,0 -3.90809,-1.67057 -5.57994,-3.13343c-1.43344,-1.25425 -3.8464,-5.11462 -3.8464,-5.11462c0,0 -1.36353,-2.24762 -1.22514,-3.97467c0.18604,-2.32177 0.636,-9.4284 0.636,-9.4284l2.79845,-0.58915l3.82945,-3.53488l0.88372,3.68217l1.03101,6.33332l2.50387,5.30232l6.03874,6.03874l5.15503,2.65116l0.58915,1.76744z" data-paper-data="{&quot;index&quot;:null}" fill="#001eb7" stroke="none" stroke-width="0" stroke-linecap="round"/><path d="M260.50479,213.81697c-0.69143,0 -1.25194,-0.56052 -1.25194,-1.25194c0,-0.69143 0.56052,-1.25194 1.25194,-1.25194c0.69143,0 1.25194,0.56052 1.25194,1.25194c0,0.69143 -0.56052,1.25194 -1.25194,1.25194z" data-paper-data="{&quot;index&quot;:null}" fill="#000000" stroke="#000000" stroke-width="3" stroke-linecap="butt"/><path d="M231.0475,216.61542c-0.69142,0 -1.25194,-0.56051 -1.25194,-1.25194c0,-0.69143 0.56051,-1.25194 1.25194,-1.25194c0.69142,0 1.25193,0.56051 1.25193,1.25194c0,0.69143 -0.56051,1.25194 -1.25193,1.25194z" data-paper-data="{&quot;index&quot;:null}" fill="#000000" stroke="#000000" stroke-width="3" stroke-linecap="butt"/><path d="M261.31487,198.94104l2.06202,9.57363l5.74417,-0.29458l6.92246,24.74414l-2.06201,10.45735l-6.18603,4.71317h-8.98448l-6.62789,-3.68217l-3.82945,-7.21703l-4.4186,0.29457l-6.33332,10.31006l-7.80618,4.12402l-12.0775,1.76744l-10.45734,-5.15503l-5.4496,-7.80618l2.50387,-14.87595l2.94573,-11.48835l1.32558,-7.36432c0,0 5.83607,2.97467 8.73993,3.96682c2.98535,1.02 8.93445,2.07192 8.93445,2.07192l-1.76744,-12.96121v-3.3876l11.63564,0.88372v15.61238c0,0 5.37015,-2.7559 10.31177,-2.72421c5.66674,0.03634 8.6882,2.8715 8.6882,2.8715l-2.06202,-15.90695l7.95347,-0.44186z" data-paper-data="{&quot;index&quot;:null}" fill="none" stroke="#000000" stroke-width="3" stroke-linecap="round"/></g><path d="M248.75755,162.82197l-2.94236,2.61501l-22.7318,-12.30612l0.32241,-2.23331z" data-paper-data="{&quot;index&quot;:null}" fill="#0a9600" stroke="#000000" stroke-width="0" stroke-linecap="round"/><path d="M276.66173,157.06606l-0.1114,3.40369l-14.90049,5.82834l-2.43186,-0.92104l-0.52752,-2.92598z" data-paper-data="{&quot;index&quot;:null}" fill="#0a9600" stroke="none" stroke-width="0" stroke-linecap="round"/><path d="M288.63323,172.4843c0,0 -0.29992,3.86379 0.53419,8.42399c0.62144,3.39757 2.55539,6.82884 2.05466,11.22619c-0.19939,1.75099 -1.34154,3.61098 -1.81318,5.36983c-2.74431,10.23433 -19.49003,9.01346 -19.49003,9.01346c0,0 -17.1363,-1.32014 -26.00315,-2.63326c-9.26443,-1.37201 -28.443,-5.42989 -28.443,-5.42989c0,0 -8.80352,-5.55501 -12.14183,-8.85222c-6.48629,-6.40641 -3.67642,-13.72711 -3.67642,-13.72711l5.33786,-17.29255c0,0 26.50985,7.38167 42.52815,8.96096c14.86978,1.46604 41.11275,4.9406 41.11275,4.9406z" data-paper-data="{&quot;index&quot;:null}" fill="#fdcc8d" stroke="#000000" stroke-width="3" stroke-linecap="round"/><path d="M289.25245,181.16484l-12.47354,-2.2472l6.65485,-6.92637l4.85268,0.40294z" data-paper-data="{&quot;index&quot;:null}" fill="#e1b47d" stroke="#000000" stroke-width="0" stroke-linecap="round"/><path d="M256.07729,176.97071l-11.45619,-0.01694l4.13766,-9.07553l3.8112,0.40139z" data-paper-data="{&quot;index&quot;:null}" fill="#e1b47d" stroke="#000000" stroke-width="0" stroke-linecap="round"/><path d="M207.46946,171.44151l-5.74837,-0.38343l2.92783,-7.91087z" data-paper-data="{&quot;index&quot;:null}" fill="#e1b47d" stroke="#000000" stroke-width="0" stroke-linecap="round"/><path d="M237.86642,165.70566c-8.45925,-1.50665 -20.67047,-3.6116 -29.20456,-5.72708c-5.75815,-1.42737 -9.68923,-3.27968 -9.68923,-3.27968c0,0 -6.2379,-1.37459 -4.75132,-8.59293c0.85188,-4.13643 7.24839,-8.70382 7.24839,-8.70382c0,0 -3.89175,-4.40257 -2.6465,-12.7551c0.50067,-3.35827 5.3816,-11.81375 5.3816,-11.81375c0,0 18.00779,-6.63413 48.57869,-3.18139c23.1207,2.61129 40.35457,11.35236 40.35457,11.35236c0,0 4.62597,4.47272 3.31096,14.27712c-0.36343,2.70965 -3.33157,6.24521 -5.11266,9.54528c-1.45804,2.70151 -1.82106,5.48927 -1.82106,5.48927c0,0 3.50449,0.48454 11.18722,4.21048c4.60445,2.23306 1.1477,4.78084 2.71543,7.45734c0.86941,1.4843 -2.71317,5.27689 -6.4548,7.06934c-3.69038,1.76789 -7.53466,1.54599 -7.53466,1.54599c0,0 -35.81938,-4.08955 -51.56206,-6.89343z" data-paper-data="{&quot;index&quot;:null}" fill="#0cb500" stroke="#000000" stroke-width="3" stroke-linecap="round"/><path d="M298.56742,168.11297l0.05472,-1.03703l0.89418,-2.24575l-0.43546,-2.24772l-1.43317,-1.91679l-1.63271,-1.85061l-2.76182,-2.58356l-11.12622,-1.89124l-0.17071,-1.44956l11.12721,1.22642l9.06757,3.20893l0.68183,3.61321l0.57949,4.8904l-3.70238,2.92321z" data-paper-data="{&quot;index&quot;:null}" fill="#0a9c00" stroke="none" stroke-width="0" stroke-linecap="round"/><path d="M282.74698,171.5945c0,0 -2.63614,11.19689 -17.65729,9.95121c-10.75801,-0.89215 -12.1861,-13.51553 -12.1861,-13.51553l29.84338,3.56431z" data-paper-data="{&quot;index&quot;:null}" fill="#ffffff" stroke="#000000" stroke-width="3" stroke-linecap="round"/><path d="M249.48763,167.98346c0,0 -5.64603,16.40722 -25.95313,13.81323c-18.41496,-2.35228 -18.56837,-21.87758 -18.56837,-21.87758c0,0 14.56481,3.0923 21.97165,4.43393c7.43357,1.34647 22.54986,3.63043 22.54986,3.63043z" data-paper-data="{&quot;index&quot;:null}" fill="#ffffff" stroke="#000000" stroke-width="3" stroke-linecap="round"/><path d="M274.36695,176.03961c-0.64407,-0.09298 -1.09083,-0.69049 -0.99785,-1.33456c0.09298,-0.64407 0.6905,-1.09083 1.33457,-0.99785c0.64407,0.09298 1.09082,0.6905 0.99784,1.33457c-0.09298,0.64407 -0.69049,1.09082 -1.33456,0.99784z" data-paper-data="{&quot;index&quot;:null}" fill="#000000" stroke="#000000" stroke-width="2" stroke-linecap="butt"/><path d="M238.14693,174.38217c-0.64407,-0.09298 -1.07198,-0.82101 -0.95575,-1.62612c0.11623,-0.80509 0.73258,-1.38237 1.37665,-1.28939c0.64407,0.09298 1.07198,0.821 0.95575,1.62611c-0.11623,0.8051 -0.73258,1.38238 -1.37665,1.2894z" data-paper-data="{&quot;index&quot;:null}" fill="#000000" stroke="#000000" stroke-width="2" stroke-linecap="butt"/><path d="M288.63323,172.4843c0,0 -0.29992,3.86379 0.53419,8.42399c0.62144,3.39757 2.55539,6.82884 2.05466,11.22619c-0.19939,1.75099 -1.34154,3.61098 -1.81318,5.36983c-2.74431,10.23433 -19.49003,9.01346 -19.49003,9.01346c0,0 -17.1363,-1.32014 -26.00315,-2.63326c-9.26443,-1.37201 -28.443,-5.42989 -28.443,-5.42989c0,0 -8.80352,-5.55501 -12.14183,-8.85222c-6.48629,-6.40641 -3.67642,-13.72711 -3.67642,-13.72711l5.33786,-17.29255c0,0 26.50985,7.38167 42.52815,8.96096c14.86978,1.46604 41.11275,4.9406 41.11275,4.9406z" data-paper-data="{&quot;index&quot;:null}" fill="none" stroke="#000000" stroke-width="2" stroke-linecap="round"/><path d="M224.94248,145.24303l-2.31598,2.64192l-16.90992,-2.44123l-5.33672,2.9499l0.55744,3.35437l2.32624,4.50262l0.9347,1.7719l-8.57662,-3.47039l-1.76265,-5.31412l3.02997,-6.55681l6.68924,-2.01057l21.03373,2.73894z" data-paper-data="{&quot;index&quot;:null}" fill="#0a9600" stroke="#000000" stroke-width="0" stroke-linecap="round"/><path d="M223.13313,143.34486l-15.30641,-2.20973l-5.59951,-2.44533l-3.13931,-4.02474l-0.47018,-6.02042l1.86531,-7.76664l4.96714,-6.57477l5.04208,-0.90904l0.12319,1.20829l-3.9,3.30613l-2.79694,3.91181l0.49276,4.83317l2.53362,5.1278l6.28168,5.96653l8.03714,2.05317l3.24607,2.25439z" data-paper-data="{&quot;index&quot;:null}" fill="#0a9600" stroke="#000000" stroke-width="0" stroke-linecap="round"/><path d="M281.88055,151.82602l11.26678,1.32892" data-paper-data="{&quot;index&quot;:null}" fill="none" stroke="#000000" stroke-width="2" stroke-linecap="round"/><path d="M224.32037,143.36745l-22.69885,-3.57458" data-paper-data="{&quot;index&quot;:null}" fill="none" stroke="#000000" stroke-width="2" stroke-linecap="round"/><path d="M237.88747,165.55988c-8.45925,-1.50665 -20.67047,-3.6116 -29.20456,-5.72708c-5.75815,-1.42737 -9.68923,-3.27968 -9.68923,-3.27968c0,0 -6.2379,-1.37459 -4.75132,-8.59293c0.85188,-4.13643 7.24839,-8.70382 7.24839,-8.70382c0,0 -3.89175,-4.40257 -2.6465,-12.7551c0.50067,-3.35827 5.3816,-11.81375 5.3816,-11.81375c0,0 18.00779,-6.63413 48.57869,-3.18139c23.1207,2.61129 40.35457,11.35236 40.35457,11.35236c0,0 4.62597,4.47272 3.31096,14.27712c-0.36343,2.70965 -3.33157,6.24521 -5.11266,9.54528c-1.45804,2.70151 -1.82106,5.48927 -1.82106,5.48927c0,0 3.50449,0.48454 11.18722,4.21048c4.60445,2.23306 1.1477,4.78084 2.71543,7.45734c0.86941,1.4843 -2.71317,5.27689 -6.4548,7.06934c-3.69038,1.76789 -7.53466,1.54599 -7.53466,1.54599c0,0 -35.81938,-4.08955 -51.56206,-6.89343z" data-paper-data="{&quot;index&quot;:null}" fill="none" stroke="#000000" stroke-width="2" stroke-linecap="round"/><g data-paper-data="{&quot;index&quot;:null}" stroke-linecap="round"><path d="M208.33474,229.25829l3.82945,2.2093c0,0 1.02292,3.29361 -1.90845,4.61386c-3.3236,1.49691 -6.63416,-0.78441 -6.63416,-0.78441c0,0 -3.49767,2.43631 -5.22867,0.95736c-1.5252,-1.30311 -5.81782,-4.63953 -5.81782,-4.63953c0,0 -1.73512,0.17934 -2.97311,-0.50994c-0.83719,-0.46613 -1.12733,-1.80907 -1.72272,-2.03886c-1.31625,-0.50801 -3.73525,-0.70521 -3.73525,-0.70521c-7.47401,-1.71525 -5.11929,-10.59091 -5.11929,-10.59091c0,0 7.16018,-12.64322 23.86042,-9.13176c19.83912,4.17146 9.42634,15.61238 9.42634,15.61238z" fill="#fdcc8d" stroke="#000000" stroke-width="3"/><path d="M179.02473,223.07228l-0.44186,-2.94573l3.53488,-6.18603l5.89146,-3.53488l9.27905,-2.50387l12.66664,2.06201l-0.14729,2.2093l-3.24031,-0.14729h-5.30232h-5.74417l-3.53488,0.73644l-3.38759,1.32558l-3.68217,2.50387l-2.06201,2.35659l-0.58915,4.86046z" fill="#e5b780" stroke="none" stroke-width="0"/><path d="M203.76886,219.24283v1.91473l-5.30232,6.62789l1.62015,8.39533l-4.56589,-2.79845c0,0 -1.95779,-2.35075 -1.98099,-3.69625c-0.02565,-1.48772 1.83371,-4.99365 1.83371,-4.99365l4.56589,-5.4496z" fill="#e5b780" stroke="none" stroke-width="0"/><path d="M211.28047,222.04128l-3.82945,4.56588l-0.88372,3.09302l0.73643,6.18603l-3.38759,-0.58915c0,0 -0.53318,-2.67941 -0.67753,-3.85477c-0.18777,-1.52899 0.23566,-5.57157 0.23566,-5.57157l3.97674,-4.4186z" fill="#e5b780" stroke="none" stroke-width="0"/><path d="M187.56733,229.11104c0,0 1.60246,-1.02204 2.60397,-2.4814c0.56264,-0.81984 -1.16352,-2.14002 -0.14614,-3.78949c0.5416,-0.87811 -1.7434,-5.28441 0.54636,-6.56807c3.72831,-2.09013 6.71673,-2.18427 6.71673,-2.18427" fill="none" stroke="#000000" stroke-width="3"/><path d="M193.31152,231.46763c0,0 0.72845,-6.5726 3.58096,-9.21101c3.31351,-3.0648 6.43452,-4.04477 6.43452,-4.04477" fill="none" stroke="#000000" stroke-width="3"/><path d="M203.62158,234.41336c0,0 -2.43779,-5.55212 0.26535,-8.77688c3.44943,-4.11506 6.65711,-4.77349 6.65711,-4.77349" fill="none" stroke="#000000" stroke-width="3"/><path d="M208.33474,229.25829l3.82945,2.2093c0,0 1.02292,3.29361 -1.90845,4.61386c-3.3236,1.49691 -6.63416,-0.78441 -6.63416,-0.78441c0,0 -3.49767,2.43631 -5.22867,0.95736c-1.5252,-1.30311 -5.81782,-4.63953 -5.81782,-4.63953c0,0 -1.73512,0.17934 -2.97311,-0.50994c-0.83719,-0.46613 -1.12733,-1.80907 -1.72272,-2.03886c-1.31625,-0.50801 -3.73525,-0.70521 -3.73525,-0.70521c-7.47401,-1.71525 -5.11929,-10.59091 -5.11929,-10.59091c0,0 7.16018,-12.64322 23.86042,-9.13176c19.83912,4.17146 9.42634,15.61238 9.42634,15.61238z" fill="none" stroke="#000000" stroke-width="2"/></g><g data-paper-data="{&quot;index&quot;:null}" stroke-linecap="round"><path d="M332.65033,197.50095c0,0 7.123,13.73256 -13.12183,12.6657c-17.04176,-0.89807 -20.71245,-14.9567 -20.71245,-14.9567c0,0 0.00522,-9.1827 7.66901,-8.91969c0,0 2.38843,0.43107 3.79103,0.27836c0.63446,-0.06907 1.25995,-1.29236 2.18881,-1.52769c1.37354,-0.34799 3.00431,0.27121 3.00431,0.27121c0,0 5.00583,-2.12125 6.8147,-2.98866c2.05293,-0.98445 4.80706,2.26887 4.80706,2.26887c0,0 3.78563,-1.35396 6.61294,0.94677c2.49366,2.02921 0.65869,4.94934 0.65869,4.94934l-4.26858,1.15102z" fill="#fdcc8d" stroke="#000000" stroke-width="3"/><path d="M303.49938,190.20668l-0.67967,4.84863l1.38717,2.80734l2.91508,3.36602l2.93317,2.15161l3.22692,1.62009l5.55127,1.47613l5.12425,1.36258l3.16935,0.69034l-0.4254,2.17296l-12.77115,-1.26229l-8.32399,-4.8043l-4.78522,-4.93015l-1.82649,-6.88667l1.18401,-2.73326z" fill="#e5b780" stroke="none" stroke-width="0"/><path d="M319.40688,199.16118l-3.01213,-6.43993c0,0 -0.89595,-3.866 -0.48886,-5.29717c0.36818,-1.29435 2.86432,-3.06305 2.86432,-3.06305l5.1317,-1.53114l-3.72316,7.69705l3.42102,7.76789l-0.49205,1.85043z" fill="#e5b780" stroke="none" stroke-width="0"/><path d="M327.23395,198.9564l-2.7077,-5.29215c0,0 0.62964,-4.01562 1.20403,-5.44502c0.44155,-1.09879 1.64537,-3.55121 1.64537,-3.55121l3.42523,0.30118l-2.30138,5.78904l0.0592,3.21625l2.52751,5.39663z" fill="#e5b780" stroke="none" stroke-width="0"/><path d="M315.52002,203.46178c0,0 -2.86387,-0.85894 -5.92985,-3.83697c-1.88299,-1.82897 1.45761,-5.5001 1.15984,-6.4879c-0.55933,-1.85552 1.44812,-2.68779 1.11505,-3.62467c-0.59285,-1.66771 -1.87886,-3.06723 -1.87886,-3.06723" fill="none" stroke="#000000" stroke-width="3"/><path d="M322.41575,201.02808c0,0 -2.76436,-1.74909 -5.17901,-5.56247c-2.0787,-3.28284 -1.09366,-9.82191 -1.09366,-9.82191" fill="none" stroke="#000000" stroke-width="3"/><path d="M330.07172,200.32059c0,0 -2.93076,-1.46062 -5.20686,-6.32391c-1.78368,-3.81112 1.99904,-8.55031 1.99904,-8.55031" fill="none" stroke="#000000" stroke-width="3"/><path d="M332.65033,197.50095c0,0 7.123,13.73256 -13.12183,12.6657c-17.04176,-0.89807 -20.71245,-14.9567 -20.71245,-14.9567c0,0 0.00522,-9.1827 7.66901,-8.91969c0,0 2.38843,0.43107 3.79103,0.27836c0.63446,-0.06907 1.25995,-1.29236 2.18881,-1.52769c1.37354,-0.34799 3.00431,0.27121 3.00431,0.27121c0,0 5.00583,-2.12125 6.8147,-2.98866c2.05293,-0.98445 4.80706,2.26887 4.80706,2.26887c0,0 3.78563,-1.35396 6.61294,0.94677c2.49366,2.02921 0.65869,4.94934 0.65869,4.94934l-4.26858,1.15102z" fill="none" stroke="#000000" stroke-width="2"/></g><path d="M268.56061,194.05967c0,3.82219 -2.75422,6.92069 -6.15173,6.92069c-3.3975,0 -6.15173,-3.0985 -6.15173,-6.92069c0,-3.82219 2.75422,-6.92069 6.15173,-6.92069c3.3975,0 6.15173,3.0985 6.15173,6.92069z" fill="#000000" stroke="#000000" stroke-width="3" stroke-linecap="butt"/></g></g></svg>