<svg version="1.1" xmlns="http://www.w3.org/2000/svg" xmlns:xlink="http://www.w3.org/1999/xlink" width="65.48337" height="147.99905" viewBox="0,0,65.48337,147.99905"><g transform="translate(-204.08012,-105.19696)"><g data-paper-data="{&quot;isPaintingLayer&quot;:true}" fill-rule="nonzero" stroke-linejoin="miter" stroke-miterlimit="10" stroke-dasharray="" stroke-dashoffset="0" style="mix-blend-mode: normal"><g fill="#1d1d1d" stroke="#000000" stroke-linecap="butt"><path d="M236.57582,214.42673v-68.66667h30.98767v68.66667z" data-paper-data="{&quot;index&quot;:null}" stroke-width="4"/><path d="M208.23014,214.42673v-9.66667h58.75v9.66667z" data-paper-data="{&quot;index&quot;:null}" stroke-width="4"/><path d="M236.57582,214.42673v-68.66667h30.98767v68.66667z" data-paper-data="{&quot;index&quot;:null}" stroke-width="0"/><path d="M208.23014,214.42673v-9.66667h58.75v9.66667z" data-paper-data="{&quot;index&quot;:null}" stroke-width="0"/></g><g data-paper-data="{&quot;index&quot;:null}"><g data-paper-data="{&quot;index&quot;:null}" stroke="#000000" stroke-width="2"><path d="M240.76633,198.73816c-6.11741,7.93884 -13.60366,-0.65496 -13.8036,-4.62174c-0.10292,-2.04181 5.09772,-7.4577 7.09674,-7.55845c4.11936,-0.20762 11.52876,5.38314 7.82076,6.80657c-1.30414,0.50063 -3.75495,-2.19406 -3.54253,-1.17885c0.00772,0.03689 5.83343,2.13389 2.42862,6.55247z" fill="#fcdac0" stroke-linecap="butt"/><path d="M234.81817,167.27152c0,0 -0.63088,10.52913 -1.43351,10.9962c-0.12002,0.06984 2.60398,9.04344 2.00563,9.11729c-0.94832,0.11703 -7.05207,9.71119 -7.75735,9.43939c-0.69079,-0.26622 -6.42722,-18.1332 -6.61427,-18.30457c-0.86377,-0.79134 6.36321,-16.47951 6.36321,-16.47951" fill="#3a3eff" stroke-linecap="round"/></g><path d="M225.82163,161.46158c0,-4.30782 3.49218,-7.8 7.8,-7.8c4.30782,0 7.8,3.49218 7.8,7.8c0,4.30782 -3.49218,7.8 -7.8,7.8c-4.30782,0 -7.8,-3.49218 -7.8,-7.8z" data-paper-data="{&quot;index&quot;:null}" fill="#3a3eff" stroke="#000000" stroke-width="2" stroke-linecap="butt"/><path d="M225.66362,169.62691l-0.13025,-4.76891l4.16912,0.52101l1.34454,4.60504z" data-paper-data="{&quot;index&quot;:null}" fill="#3a3eff" stroke="none" stroke-width="0" stroke-linecap="butt"/></g><g data-paper-data="{&quot;index&quot;:null}" stroke="#000000" stroke-width="2" stroke-linecap="butt"><path d="M210.28319,198.45675c0,0 14.20562,-2.97862 18.50703,-3.11697c6.05694,-0.19481 13.83156,2.31993 13.83156,6.62357c0,4.30364 -2.90435,7.79244 -7.20799,7.79244c-3.69594,0 -6.40832,-1.23102 -11.16016,-0.63887c-6.21964,0.77507 -12.5399,3.42313 -12.5399,3.42313l-1.43055,-14.08329z" fill="#0611d7"/><path d="M211.379,237.16145l-6.29888,-6.16987v-28.29627l6.29888,-6.16986l6.29888,6.16986v28.29627z" fill="#5c5c57"/></g><path d="M239.52971,207.74681c-9.56128,0 -19.82626,1.41214 -19.82626,1.41214c0,0 3.36751,-13.40852 3.62342,-25.63567c0.24156,-11.54141 -3.62342,-23.61279 -3.62342,-23.61279c0,0 7.28456,-2.11821 18.74191,-2.11821c10.44385,0 19.42476,2.11821 19.42476,2.11821c0,0 -3.1403,11.11675 -3.1403,24.14234c0,13.88986 3.1403,25.10612 3.1403,25.10612c0,0 -10.09844,-1.41214 -18.34041,-1.41214z" data-paper-data="{&quot;index&quot;:null}" fill="#3a3eff" stroke="#000000" stroke-width="2" stroke-linecap="butt"/><path d="M246.389,148.46968c0,0 0.13466,8.53876 -0.68438,11.19752c-0.82146,2.66664 -4.45986,2.80416 -6.54565,2.84416c-2.69946,0.05177 -6.1255,-0.26326 -6.86398,-2.78169c-1.00294,-3.42031 -0.53099,-11.25998 -0.53099,-11.25998h14.625z" data-paper-data="{&quot;index&quot;:null}" fill="#fc959e" stroke="#000000" stroke-width="2" stroke-linecap="butt"/><g data-paper-data="{&quot;index&quot;:null}" stroke="#000000" stroke-width="2" stroke-linecap="butt"><path d="M238.72235,106.54965c15.37193,0 27.83334,9.51737 27.83334,24.30303c0,14.78566 -12.46141,23.95035 -27.83334,23.95035c-15.37193,0 -27.83333,-9.16469 -27.83333,-23.95035c0,-14.78566 12.4614,-24.30303 27.83333,-24.30303z" fill="#fcdac0"/><path d="M238.72234,106.19697c14.32367,0 26.12024,8.56981 27.66252,21.70102c-0.25641,-0.08545 -3.79012,-1.46819 -7.95735,-2.03502c-3.91317,-0.53227 -8.42716,-0.26069 -10.04807,-0.045c-2.92518,0.38925 4.30688,11.83392 -8.91901,11.87913c-10.21222,0.03491 -4.82058,-11.55272 -6.3906,-12.73894c-2.98721,-2.25697 -7.57498,-2.0162 -12.06763,-1.49258c-4.8155,0.56125 -7.95865,2.23246 -9.96722,2.30266c3.81268,-13.78257 15.55766,-19.57128 27.68737,-19.57128z" fill="#765035"/></g><g data-paper-data="{&quot;index&quot;:null}" stroke="#000000" stroke-width="2" stroke-linecap="butt"><path d="M213.52854,202.80675c0,0 14.20561,-2.97862 18.50703,-3.11697c6.05694,-0.19481 13.83157,2.31993 13.83157,6.62357c0,4.30364 -2.90436,7.79243 -7.208,7.79243c-3.69593,0 -6.40831,-1.23101 -11.16015,-0.63886c-6.21963,0.77506 -12.53989,3.42313 -12.53989,3.42313l-1.43055,-14.08329z" fill="#0611d7"/><path d="M214.62437,241.51144l-6.29888,-6.16986v-28.29627l6.29888,-6.16986l6.29888,6.16986v28.29627z" fill="#5c5c57"/></g><g data-paper-data="{&quot;index&quot;:null}"><g stroke="#000000" stroke-width="2"><path d="M247.30746,195.20732c-0.19994,3.96679 -7.68619,12.56058 -13.80359,4.62174c-3.4048,-4.41858 2.4209,-6.51559 2.42862,-6.55247c0.21242,-1.0152 -2.2384,1.67948 -3.54253,1.17885c-3.70799,-1.42342 3.70141,-7.01419 7.82077,-6.80656c1.99902,0.10076 7.19965,5.51664 7.09674,7.55845z" fill="#fcdac0" stroke-linecap="butt"/><path d="M246.88831,163.13123c0,0 20.07452,15.68817 19.21074,16.47951c-0.18705,0.17137 -18.77101,18.03835 -19.4618,18.30457c-0.70528,0.2718 -6.80904,-9.32236 -7.75735,-9.43939c-0.59835,-0.07384 11.04755,-9.04745 10.92753,-9.11729c-0.80263,-0.46707 -10.35541,-10.9962 -10.35541,-10.9962" fill="#3a3eff" stroke-linecap="round"/></g><path d="M240.64856,170.35249c-4.30782,0 -7.8,-3.49218 -7.8,-7.8c0,-4.30782 3.49218,-7.8 7.8,-7.8c4.30782,0 7.8,3.49218 7.8,7.8c0,4.30782 -3.49218,7.8 -7.8,7.8z" fill="#3a3eff" stroke="#000000" stroke-width="2" stroke-linecap="butt"/><path d="M243.22316,171.07496l1.34454,-4.60504l4.16912,-0.52101l-0.13025,4.76891z" fill="#3a3eff" stroke="none" stroke-width="0" stroke-linecap="butt"/></g><g data-paper-data="{&quot;index&quot;:null}"><g stroke="#000000" stroke-width="2"><path d="M247.30747,195.20732c-0.19994,3.96679 -7.68619,12.56058 -13.80359,4.62174c-3.4048,-4.41858 2.4209,-6.51559 2.42862,-6.55247c0.21242,-1.0152 -2.2384,1.67948 -3.54253,1.17885c-3.70799,-1.42342 3.70141,-7.01419 7.82077,-6.80656c1.99902,0.10076 7.19965,5.51664 7.09674,7.55845z" fill="#fcdac0" stroke-linecap="butt"/><path d="M246.88832,163.13123c0,0 11.5095,15.68817 10.64572,16.47951c-0.18705,0.17137 -10.20599,18.03835 -10.89678,18.30457c-0.70528,0.2718 -6.80904,-9.32236 -7.75735,-9.43939c-0.59835,-0.07384 5.69441,-9.04745 5.57439,-9.11729c-0.80263,-0.46707 -5.00227,-10.9962 -5.00227,-10.9962" fill="#3a3eff" stroke-linecap="round"/></g><path d="M240.64857,170.35249c-4.30782,0 -7.8,-3.49218 -7.8,-7.8c0,-4.30782 3.49218,-7.8 7.8,-7.8c4.30782,0 7.8,3.49218 7.8,7.8c0,4.30782 -3.49218,7.8 -7.8,7.8z" fill="#3a3eff" stroke="#000000" stroke-width="2" stroke-linecap="butt"/><path d="M243.22317,171.07496l1.34454,-4.60504l4.16912,-0.52101l-0.13025,4.76891z" fill="#3a3eff" stroke="none" stroke-width="0" stroke-linecap="butt"/></g><g><path d="M222.23153,127.83176c4.17361,0 7.557,3.23755 7.557,7.23127c0,3.99372 -3.38338,7.23127 -7.557,7.23127c-4.17361,0 -7.557,-3.23755 -7.557,-7.23127c0,-3.99372 3.38338,-7.23127 7.557,-7.23127z" fill="#ffffff" stroke="#000000" stroke-width="2" stroke-linecap="butt"/><path d="M219.57492,137.4132c-1.09378,0 -1.98045,-1.02523 -1.98045,-2.28991c0,-1.26468 0.88667,-2.2899 1.98045,-2.2899c1.09378,0 1.98046,1.02522 1.98046,2.2899c0,1.26468 -0.88668,2.28991 -1.98046,2.28991z" fill="#000000" stroke="none" stroke-width="0.5" stroke-linecap="butt"/><path d="M235.85542,144.4637c0,0 -5.86185,3.52161 -11.49467,4.0007c-1.58852,0.13511 -3.01206,0.17647 -4.27297,0.15623" fill="none" stroke="#000000" stroke-width="2" stroke-linecap="round"/><path d="M219.57356,120.49302c0,0 1.13767,-1.38411 5.57392,-0.80696c3.61286,0.47003 4.95377,2.01217 4.95377,2.01217" fill="none" stroke="#000000" stroke-width="2" stroke-linecap="round"/></g><path d="M224.11903,232.56783c0,-10.84034 8.78783,-19.62818 19.62818,-19.62818c10.84035,0 19.62817,8.78784 19.62817,19.62818c0,10.84034 -8.78783,19.62818 -19.62817,19.62818c-10.84035,0 -19.62818,-8.78784 -19.62818,-19.62818z" fill="#a1a1a1" stroke="#000000" stroke-width="2" stroke-linecap="butt"/></g></g></svg>