<svg version="1.1" xmlns="http://www.w3.org/2000/svg" xmlns:xlink="http://www.w3.org/1999/xlink" width="89.9718" height="44.5227" viewBox="0,0,89.9718,44.5227"><g transform="translate(-194.8637,-157.3993)"><g data-paper-data="{&quot;isPaintingLayer&quot;:true}" fill="#000000" fill-rule="nonzero" stroke="none" stroke-width="1" stroke-linecap="butt" stroke-linejoin="miter" stroke-miterlimit="10" stroke-dasharray="" stroke-dashoffset="0" style="mix-blend-mode: normal"><path d="M264.5492,181.43c5.659,0 10.246,4.586 10.246,10.246c0,5.658 -4.587,10.246 -10.246,10.246c-5.659,0 -10.247,-4.588 -10.247,-10.246c0,-5.66 4.588,-10.246 10.247,-10.246zM264.5492,198.971c4.029,0 7.295,-3.268 7.295,-7.295c0,-4.029 -3.266,-7.297 -7.295,-7.297c-4.029,0 -7.295,3.268 -7.295,7.297c-0.001,4.027 3.265,7.295 7.295,7.295zM263.4132,191.676c0,0.627 0.508,1.135 1.135,1.135c0.626,0 1.135,-0.508 1.135,-1.135c0,-0.627 -0.509,-1.137 -1.135,-1.137c-0.626,0 -1.135,0.51 -1.135,1.137zM262.7562,187.711c0,0.99 0.803,1.793 1.793,1.793c0.99,0 1.793,-0.803 1.793,-1.793c0,-0.99 -0.803,-1.793 -1.793,-1.793c-0.991,0 -1.793,0.803 -1.793,1.793zM267.7632,188.746c-0.941,0.305 -1.457,1.316 -1.151,2.258c0.306,0.942 1.317,1.457 2.259,1.152c0.942,-0.307 1.458,-1.318 1.151,-2.26c-0.305,-0.941 -1.317,-1.457 -2.259,-1.15zM268.3282,193.828c-0.582,-0.801 -1.703,-0.979 -2.504,-0.398c-0.801,0.584 -0.979,1.705 -0.396,2.506c0.583,0.801 1.704,0.979 2.504,0.396c0.8,-0.583 0.978,-1.703 0.396,-2.504zM263.6692,195.936c0.582,-0.801 0.404,-1.922 -0.397,-2.506c-0.8,-0.58 -1.922,-0.402 -2.504,0.398c-0.582,0.801 -0.404,1.922 0.397,2.504c0.801,0.582 1.922,0.404 2.504,-0.396zM260.2252,192.156c0.941,0.305 1.953,-0.211 2.259,-1.152c0.306,-0.941 -0.209,-1.953 -1.151,-2.258c-0.942,-0.307 -1.953,0.209 -2.259,1.15c-0.306,0.942 0.21,1.954 1.151,2.26zM210.8002,181.43c5.659,0 10.246,4.586 10.246,10.246c0,5.658 -4.587,10.246 -10.246,10.246c-5.658,0 -10.246,-4.588 -10.246,-10.246c-0.001,-5.66 4.587,-10.246 10.246,-10.246zM210.8002,198.971c4.03,0 7.296,-3.268 7.296,-7.295c0,-4.029 -3.266,-7.297 -7.296,-7.297c-4.028,0 -7.295,3.268 -7.295,7.297c0,4.027 3.266,7.295 7.295,7.295zM209.0072,187.711c0,0.99 0.803,1.793 1.793,1.793c0.99,0 1.793,-0.803 1.793,-1.793c0,-0.99 -0.803,-1.793 -1.793,-1.793c-0.99,0 -1.793,0.803 -1.793,1.793zM214.0152,188.746c-0.941,0.305 -1.457,1.316 -1.151,2.258c0.307,0.941 1.318,1.457 2.26,1.152c0.941,-0.307 1.457,-1.318 1.151,-2.26c-0.306,-0.941 -1.318,-1.457 -2.26,-1.15zM214.5802,193.828c-0.582,-0.801 -1.702,-0.979 -2.504,-0.398c-0.802,0.584 -0.979,1.705 -0.396,2.506c0.583,0.801 1.703,0.979 2.504,0.396c0.801,-0.583 0.978,-1.703 0.396,-2.504zM209.9212,195.936c0.582,-0.801 0.404,-1.922 -0.396,-2.506c-0.801,-0.58 -1.922,-0.402 -2.504,0.398c-0.582,0.8 -0.405,1.922 0.396,2.504c0.801,0.582 1.922,0.404 2.504,-0.396zM206.4762,192.156c0.941,0.305 1.954,-0.211 2.26,-1.152c0.306,-0.941 -0.21,-1.953 -1.151,-2.258c-0.941,-0.307 -1.953,0.209 -2.259,1.15c-0.307,0.942 0.209,1.954 1.15,2.26zM209.6652,191.676c0,0.627 0.508,1.135 1.135,1.135c0.628,0 1.136,-0.508 1.136,-1.135c0,-0.627 -0.508,-1.137 -1.136,-1.137c-0.627,0 -1.135,0.51 -1.135,1.137zM197.9542,181.257c5.096,-1.686 -0.005,-5.379 0.408,-6.521c0.775,-2.143 4.264,-10.174 7.326,-13.634c1.213,-1.371 22.405,-3.919 30.58,-3.688c12.228,0.346 24.396,11.208 24.396,11.208c0,0 7.667,1.45 12.431,2.242c4.134,0.687 6.061,2.552 7.018,4.437c-1.284,-0.389 -2.732,0.074 -1.241,1.634c0.73,0.763 1.521,1.134 2.125,1.185c0.107,0.612 0.167,1.137 0.249,1.507c0,0 3.933,2.908 3.565,7.373c-0.521,6.332 -2.936,8.578 -4.908,8.633c-0.611,0.018 -1.867,0.055 -3.583,0.109c-0.269,-1.584 -0.464,-2.986 -0.464,-4.066c0,-6.246 -5.063,-11.309 -11.309,-11.309c-6.246,0 -11.309,5.063 -11.309,11.309c0,1.273 0.36,2.994 1.017,4.932c-0.176,0.01 -0.351,0.018 -0.525,0.025l-32.159,0.168c0.361,-1.918 0.535,-3.707 0.535,-5.125c0,-6.246 -5.062,-11.309 -11.309,-11.309c-6.245,0 -11.308,5.063 -11.308,11.309c0,1.096 0.102,2.424 0.314,3.867c-2.731,-0.469 -3.969,-1.111 -4.298,-2.059c-1.756,-5.062 0.437,-11.562 2.449,-12.227zM272.9312,177.511c3.765,3.936 8.385,2.396 4.449,-1.882c-2.136,-2.322 -8.214,-2.053 -4.449,1.882zM235.3112,173.165l-6.128,0.085c0,0 3.082,3.703 6.128,-0.085zM229.3372,168.622l26.436,0.204c0,0 -9.917,-9.069 -19.504,-9.374c-3.428,-0.109 -5.709,0.526 -5.709,0.526c0,0 -2.005,4.114 -1.223,8.644zM225.4662,168.622c-0.429,-3.123 1.154,-8.383 1.154,-8.383c-14.6,1.742 -16.643,9.198 -16.643,9.198z" data-paper-data="{&quot;index&quot;:null}"/></g></g></svg>