<svg version="1.1" xmlns="http://www.w3.org/2000/svg" xmlns:xlink="http://www.w3.org/1999/xlink" width="147.00001" height="183" viewBox="0,0,147.00001,183"><g transform="translate(-166.5,-88.50001)"><g data-paper-data="{&quot;isPaintingLayer&quot;:true}" fill="#ffffff" fill-rule="nonzero" stroke="#000000" stroke-width="5" stroke-linecap="butt" stroke-linejoin="miter" stroke-miterlimit="10" stroke-dasharray="" stroke-dashoffset="0" style="mix-blend-mode: normal"><path d="M169,269v-66.26209c5.90803,-0.74873 11.59542,-2.16704 17.92237,-1.73791c5.53856,0.37566 11.65698,3.6719 17.05615,2.20143c0.42195,-0.11492 0.80941,-0.28066 1.16795,-0.48898c2.95482,-1.71678 3.94634,-6.32532 6.10352,-9.21245l-2.98512,-7.12682c-0.66798,-2.37502 -9.70976,-3.80685 -10.9971,-4.07461c-5.39757,-1.12263 -10.63985,-1.02839 -15.86503,-0.61044c-1.13152,-0.4442 -2.36365,-0.68812 -3.65274,-0.68812c-0.597,0 -1.18177,0.05231 -1.75,0.15261c-0.56823,-0.10029 -1.153,-0.15261 -1.75,-0.15261c-0.74292,0 -1.46692,0.08101 -2.16364,0.23469c-0.80755,0.16151 -1.61698,0.31013 -2.42808,0.44718c-0.21701,-0.04193 -0.43651,-0.07684 -0.65827,-0.1045v-90.57737h142v178z"/></g></g></svg>