<svg version="1.1" xmlns="http://www.w3.org/2000/svg" xmlns:xlink="http://www.w3.org/1999/xlink" width="594" height="140" viewBox="0,0,594,140"><g transform="translate(66,-110)"><g data-paper-data="{&quot;isPaintingLayer&quot;:true}" fill="#ffffff" fill-rule="nonzero" stroke="none" stroke-width="0" stroke-linecap="butt" stroke-linejoin="miter" stroke-miterlimit="10" stroke-dasharray="" stroke-dashoffset="0" style="mix-blend-mode: normal"><path d="M167.12469,250c-0.00342,-0.04426 -0.00675,-0.08846 -0.01001,-0.1326c-0.88873,-12.06365 -1.08828,-45.73708 -0.61469,-51.19581c1.94627,-22.43334 8.09695,-44.46468 8.85926,-66.96938c0.233,-6.87858 -0.14756,-14.30127 -0.79204,-21.70221l149.48108,0c-0.9184,34.89198 -1.2502,69.81166 -3.45231,104.64206c-0.45253,7.15753 -3.01607,14.03553 -5.02113,20.92137c-1.33756,4.5935 -3.52815,9.48233 -4.95973,14.43657z"/><path d="M528,110v140l-93.2222,0c-0.0334,-35.17995 -0.74821,-70.36597 -0.2778,-105.54284c0.15321,-11.45654 0.61149,-22.95369 1.12833,-34.45716z"/><path d="M-66,250v-140h104.02622c-0.01377,21.45934 0.25474,42.95319 0.50281,64.29032c0.16604,14.28109 0.81748,28.7191 0.97097,43.00034c0.11717,10.90256 0.07633,21.80594 0.0372,32.70934z"/></g></g></svg>