<svg version="1.1" xmlns="http://www.w3.org/2000/svg" xmlns:xlink="http://www.w3.org/1999/xlink" width="532.03003" height="525.86992" viewBox="0,0,532.03003,525.86992"><defs><linearGradient x1="238.5" y1="460.86995" x2="238.5" y2="246.00003" gradientUnits="userSpaceOnUse" id="color-1"><stop offset="0" stop-color="#00ff0a"/><stop offset="1" stop-color="#00ff0a" stop-opacity="0"/></linearGradient><linearGradient x1="238.5" y1="-64.99997" x2="238.5" y2="149.86995" gradientUnits="userSpaceOnUse" id="color-2"><stop offset="0" stop-color="#1700ff"/><stop offset="1" stop-color="#1700ff" stop-opacity="0"/></linearGradient></defs><g transform="translate(26.01501,64.99997)"><g data-paper-data="{&quot;isPaintingLayer&quot;:true}" fill-rule="nonzero" stroke-linejoin="miter" stroke-miterlimit="10" stroke-dasharray="" stroke-dashoffset="0" style="mix-blend-mode: normal"><path d="M-25.01501,382.70273v-405.40541h530.03003v405.40541z" fill="#000000" stroke="#000000" stroke-width="2" stroke-linecap="butt"/><path d="M482.5,246.00003v214.86992h-488v-214.86992z" data-paper-data="{&quot;index&quot;:null}" fill="url(#color-1)" stroke="none" stroke-width="0" stroke-linecap="butt"/><path d="M-5.5,149.86995v-214.86992h488v214.86992z" fill="url(#color-2)" stroke="none" stroke-width="0" stroke-linecap="butt"/><text transform="translate(104.40991,92.02927) scale(1.12839,1.12839)" font-size="40" xml:space="preserve" fill="#ffffff" fill-rule="nonzero" stroke="none" stroke-width="1" stroke-linecap="butt" stroke-linejoin="miter" stroke-miterlimit="10" stroke-dasharray="" stroke-dashoffset="0" font-family="Sans Serif" font-weight="normal" text-anchor="start" style="mix-blend-mode: normal"><tspan x="0" dy="0">MAIN MENU</tspan></text><text transform="translate(411.503,348.26125) scale(0.66899,0.5)" font-size="40" xml:space="preserve" fill="#ffffff" fill-rule="nonzero" stroke="none" stroke-width="1" stroke-linecap="butt" stroke-linejoin="miter" stroke-miterlimit="10" stroke-dasharray="" stroke-dashoffset="0" font-family="Sans Serif" font-weight="normal" text-anchor="start" style="mix-blend-mode: normal"><tspan x="0" dy="0">v0.77</tspan></text><g><path d="M96.29007,63.99406c1.80598,6.07494 1.07947,14.66385 -1.92242,22.0909c-5.57272,13.7877 -21.57287,22.61425 -35.48122,24.05849c-21.40041,2.22222 -39.32476,-6.48419 -44.4834,-23.83674c-2.82043,-9.48733 -2.18359,-24.63386 5.4466,-35.03908c6.32564,-8.62624 17.21588,-13.51318 26.91587,-14.52043c13.85411,-1.43862 29.98805,1.95913 39.89815,10.06948c5.398,4.41767 7.80735,11.05849 9.6264,17.17742z" fill="#000000" stroke="#ffffff" stroke-width="2" stroke-linecap="butt"/><path d="M97.00764,63.91954c0.21195,0.71295 0.1247,6.01886 -0.57815,11.44534c-0.77416,5.97706 -2.24417,12.09511 -3.71511,12.26176c-3.21118,0.36381 4.52034,-4.04308 -0.75185,-8.3296c-0.62602,-0.50899 -1.27252,-2.40324 -1.46902,-4.64072c-0.18179,-2.06965 0.07322,-4.4383 -0.14822,-6.14786c-0.32234,-2.48855 -0.9461,-2.56391 -2.20061,-3.258c-10.0526,-5.56176 -27.69023,-1.55251 -32.71876,-1.03035c-1.95737,0.20326 -12.11822,-0.94919 -16.70581,4.68938c-1.93861,2.38272 -1.03338,5.85763 -1.67161,9.19817c-0.99328,5.19896 -2.90079,10.13621 -3.31659,10.61593c-1.32359,1.5271 -3.44581,2.52375 -4.8087,3.27873c-2.95851,1.63888 -5.92445,-1.336 -7.84935,-3.11354c-3.57589,-3.30216 -1.53791,-14.37974 -3.61242,-15.3254c-1.84,-0.83877 -1.73945,3.30258 -0.49068,8.12771c0.33662,1.30066 1.20027,2.6049 1.59998,3.92994c1.92188,6.37119 4.79046,13.30809 4.79046,13.30809c0,0 -2.29058,-2.06192 -4.44048,-5.4444c-1.43227,-2.25343 -2.66908,-5.10674 -3.61137,-8.27641c-1.92896,-6.48863 -2.83885,-13.16337 -0.51961,-18.6619c1.07185,-2.54111 3.32448,-3.356 5.73618,-6.64481c6.32564,-8.62624 57.50383,-14.96701 67.41391,-6.85668c5.398,4.41767 7.2487,4.75576 9.06778,10.87469z" fill="#000000" stroke="#000000" stroke-width="0" stroke-linecap="butt"/><path d="M95.6734,62.11146c0.97474,3.27883 2.23319,12.08181 -0.52355,15.05453c-0.26393,0.28463 -3.71369,1.19048 -3.77633,-1.61177c-0.05272,-2.35835 1.15968,-5.26906 0.97074,-8.08206c-0.07967,-1.18635 -0.86145,-2.51472 -1.36112,-3.51948c-0.18627,-0.37457 -3.08893,-2.9104 -5.63564,-3.32721c-7.73987,-1.26674 -23.89671,-0.61288 -34.74614,1.51671c-14.75656,2.89652 -14.36392,3.39146 -14.57079,3.48653c-2.83378,1.30236 -1.82129,16.02835 -4.62924,17.01225c-0.50763,0.17786 -1.29805,1.82487 -2.61372,2.94544c-1.59671,1.35993 -3.78541,2.16313 -4.85853,1.41975c-1.2478,-0.86439 -3.65159,-5.49202 -2.95416,-10.59222c0.48802,-3.56873 3.27832,-6.70988 4.23551,-9.53945c0.48856,-1.44425 0.05401,-0.80728 -0.2268,-1.58821c-0.81225,-2.25909 -5.9703,-2.40794 -8.68255,-0.91047c-1.99748,1.10284 -1.38585,3.10989 -1.60344,2.37797c-1.69381,-5.69766 2.8234,-15.10879 11.19716,-22.38212c5.56383,-4.83267 14.51461,-8.03232 22.89938,-8.90299c12.2621,-1.2733 28.4927,4.51188 36.81414,10.97544c5.93261,4.60804 8.8917,11.72032 10.06507,15.66734z" fill="#000000" stroke="#ffffff" stroke-width="2.5" stroke-linecap="butt"/><g stroke-linecap="butt"><path d="M85.33225,71.64284c0.64751,2.36014 -0.39608,6.539 -3.70391,8.09726c-0.96648,0.45529 -2.41503,0.90088 -4.0428,1.10303c-1.82379,0.2265 -4.05582,-0.26258 -4.1853,-0.33039c-3.77259,-1.97569 -4.51224,-3.39277 -5.49058,-6.95873c-0.44691,-1.62894 -0.75132,-2.92706 -0.00653,-4.48787c0.51467,-1.07857 1.4764,-2.24356 2.85996,-2.94058c1.31243,-0.66118 3.02801,-0.87871 4.25275,-1.01306c2.18256,-0.23942 5.28282,-0.15981 7.15233,1.2663c1.88597,1.43866 2.63744,3.34449 3.16407,5.26404z" fill="#000000" stroke="#ffffff" stroke-width="2.5"/><path d="M81.04364,72.78703c-0.23047,-0.84008 0.21175,-1.5901 0.98772,-1.67522c0.77599,-0.08512 1.59189,0.52689 1.82236,1.36697c0.23047,0.84008 -0.21175,1.5901 -0.98772,1.67522c-0.77599,0.08512 -1.59189,-0.52689 -1.82236,-1.36697z" fill="#ffffff" stroke="none" stroke-width="0.5"/><path d="M68.39833,72.48248l-0.29211,-1.06475c0,0 0.21033,-2.04471 1.93892,-3.42615c1.39497,-1.11482 4.19554,-1.60298 5.44227,-1.74472c0.86868,-0.09877 3.05146,-0.44367 4.41552,0.1452c0.96074,0.41475 1.89819,1.02555 2.53643,1.61521c0.91223,0.84279 1.27432,1.63571 1.27432,1.63571l0.29826,0.87607z" fill="#000000" stroke="none" stroke-width="0"/></g><path d="M61.77572,66.18505l-2.36346,3.10871l-17.81762,-6.71061" fill="none" stroke="#ffffff" stroke-width="2.5" stroke-linecap="round"/><path d="M77.62571,62.47318l-10.6986,6.98498l-1.65488,-3.42949" fill="none" stroke="#ffffff" stroke-width="2.5" stroke-linecap="round"/><path d="M84.79475,88.47795c0,0 -2.53326,0.82065 -8.02821,3.12131c-4.6517,1.9476 -15.78495,8.60636 -22.34509,12.15265c-2.81128,1.51973 -5.18972,2.09572 -5.18972,2.09572c0,0 -5.64067,-4.9543 -8.32643,-7.81814c-3.23623,-3.45081 -9.74921,-11.456 -9.74921,-11.456c0,0 19.15964,3.97709 28.22555,4.29897c8.80609,0.31266 25.41311,-2.39452 25.41311,-2.39452z" fill="#000000" stroke="#ffffff" stroke-width="2.5" stroke-linecap="round"/><path d="M64.6379,97.5081l-26.41682,-2.64377" fill="none" stroke="#ffffff" stroke-width="2.5" stroke-linecap="round"/><g stroke-linecap="butt"><path d="M61.88475,75.6893c0.91438,2.81068 -0.54847,7.80268 -5.20115,9.68464c-1.35942,0.54988 -3.39721,1.09157 -5.68752,1.3441c-2.56614,0.28296 -5.70772,-0.28472 -5.89003,-0.36472c-5.31147,-2.33019 -6.35425,-4.01529 -7.73581,-8.26201c-0.63111,-1.93991 -1.06124,-3.48619 -0.01529,-5.35323c0.72278,-1.29015 2.07453,-2.68654 4.02054,-3.52767c1.84595,-0.79788 4.25984,-1.06942 5.98313,-1.23827c3.07098,-0.30092 7.43377,-0.22771 10.06649,1.46026c2.65589,1.70282 3.71595,3.97087 4.45965,6.25687z" fill="#000000" stroke="#ffffff" stroke-width="2.5"/><path d="M55.85136,77.08423c-0.32546,-1.00044 0.29581,-1.89821 1.38765,-2.00519c1.09184,-0.10698 2.24082,0.61732 2.5663,1.61775c0.32546,1.00044 -0.29581,1.89821 -1.38765,2.00519c-1.09184,0.10698 -2.24082,-0.61732 -2.5663,-1.61775z" fill="#ffffff" stroke="none" stroke-width="0.5"/><path d="M38.02432,76.21412l-0.41253,-1.26803c0,0 0.29319,-2.44046 2.72377,-4.10042c1.96149,-1.33958 5.90178,-1.94154 7.65598,-2.11937c1.22227,-0.12391 4.29342,-0.55065 6.21372,0.14218c1.35251,0.48797 2.6725,1.20996 3.57147,1.90885c1.28484,0.9989 1.79543,1.94218 1.79543,1.94218l0.42089,1.0429z" fill="#000000" stroke="none" stroke-width="0"/></g></g><path d="M383.52757,102.71907c0,-1.21649 0.8297,-4.80683 2.99924,-8.87932c2.06969,-3.88505 5.43177,-8.2089 7.49389,-11.32918c4.94426,-7.48135 8.58936,-9.84845 18.75144,-9.84845c18.84323,0 52.39656,0.93317 52.39656,6.09262c0,0.24129 0.5014,12.00035 -1.6852,20.60308c-1.40187,5.51539 -5.82238,9.25497 -5.89062,9.40461c-2.10118,4.60758 -21.73731,3.29865 -39.1343,3.29865c-9.92177,0 -20.07291,0.87127 -26.30725,-0.97997c-2.21959,-0.65909 -4.71848,-0.50571 -5.94612,-1.70367c-1.87288,-1.82759 -2.67768,-5.18282 -2.67768,-6.65838z" data-paper-data="{&quot;index&quot;:null}" fill="#000000" stroke="#ffffff" stroke-width="3" stroke-linecap="butt"/><path d="M403.43013,106.78081c0,0 10.29211,-6.62634 17.38356,-7.16721c4.19331,-0.31983 11.97265,-0.71006 18.42431,0.2221c6.77097,0.9783 12.12076,3.28953 12.12076,3.28953" data-paper-data="{&quot;index&quot;:null}" fill="none" stroke="#ffffff" stroke-width="3" stroke-linecap="round"/><path d="M463.13783,81.1918c0,0 -11.23685,16.37846 -21.93344,15.43464c-5.16011,-0.45531 -13.94055,-5.3201 -17.44287,-9.81364c-3.75778,-4.82129 -2.05352,-9.27658 -2.05352,-9.27658c0,0 -0.4449,8.49017 -3.41344,10.99693c-3.11686,2.63201 -8.78737,4.93835 -14.86443,4.43771c-2.4774,-0.20409 -6.72084,-1.72567 -8.47278,-3.93782c-2.54556,-3.21425 -2.08777,-7.43508 -2.08777,-7.43508" data-paper-data="{&quot;index&quot;:null}" fill="#000000" stroke="#ffffff" stroke-width="3" stroke-linecap="round"/><path d="M429.42532,89.92456c-1.68243,0 -3.04631,-1.36388 -3.04631,-3.04631c0,-1.68243 1.36388,-3.04631 3.04631,-3.04631c1.68243,0 3.04631,1.36388 3.04631,3.04631c0,1.68243 -1.36388,3.04631 -3.04631,3.04631z" data-paper-data="{&quot;index&quot;:null}" fill="#ffffff" stroke="none" stroke-width="0.5" stroke-linecap="butt"/><path d="M399.36838,87.48751c-1.68243,0 -3.04631,-1.36388 -3.04631,-3.04631c0,-1.68243 1.36388,-3.04631 3.04631,-3.04631c1.68243,0 3.04631,1.36388 3.04631,3.04631c0,1.68243 -1.36388,3.04631 -3.04631,3.04631z" data-paper-data="{&quot;index&quot;:null}" fill="#ffffff" stroke="none" stroke-width="0.5" stroke-linecap="butt"/><path d="M391.65105,41.99591c0,-5.27162 15.91193,-11.98216 35.5403,-11.98216c10.75832,0 28.975,1.73515 38.46993,6.7411c7.82839,4.12731 8.0371,11.38849 8.0371,13.77073c0,2.26749 0.71356,16.17598 -6.51626,16.01487c-3.60648,-0.08037 -10.61159,0.21045 -16.00937,-2.43459c-2.11283,-1.03534 0.3621,0.63154 4.9816,1.6142c5.97491,1.27099 14.99087,2.21732 16.62129,3.22185c2.89097,1.78118 4.11285,5.2133 0.28139,8.30262c-3.02753,2.44111 -23.1386,7.22419 -42.03874,7.82783c-13.27615,0.42402 -25.95482,-1.64173 -31.69523,-2.14335c-14.97657,-1.3087 -15.61019,-3.54012 -18.30942,-10.48213c-0.31649,-0.81396 -0.82774,-1.74606 -0.15176,-3.36627c0.86166,-2.06522 2.85025,-4.45592 5.76092,-5.32182c7.49972,-2.2311 19.35861,0.37365 19.0413,0.37365c-6.30757,0 -10.41451,0.28931 -12.5325,-2.24945c-2.59556,-3.1112 -3.89587,-10.13437 -3.50728,-14.47605c0.28106,-3.14035 2.02675,-3.90944 2.02675,-5.41102z" data-paper-data="{&quot;index&quot;:null}" fill="#000000" stroke="#ffffff" stroke-width="3" stroke-linecap="butt"/><path d="M446.89084,75.91153c0,0 -9.89937,-1.58616 -14.3966,-1.01509c-3.96531,0.50353 -11.19242,4.26449 -11.19242,4.26449l0.81235,-3.65557" data-paper-data="{&quot;index&quot;:null}" fill="none" stroke="#ffffff" stroke-width="3" stroke-linecap="round"/><path d="M414.80302,75.09918l2.03087,4.46792c0,0 -6.49569,-3.1508 -9.82357,-4.34883c-3.43812,-1.23772 -10.48518,-2.96231 -10.48518,-2.96231" data-paper-data="{&quot;index&quot;:null}" fill="none" stroke="#ffffff" stroke-width="3" stroke-linecap="round"/></g></g></svg>