<svg version="1.1" xmlns="http://www.w3.org/2000/svg" xmlns:xlink="http://www.w3.org/1999/xlink" width="147.00003" height="183" viewBox="0,0,147.00003,183"><g transform="translate(-166.5,-88.50001)"><g data-paper-data="{&quot;isPaintingLayer&quot;:true}" fill="#ffffff" fill-rule="nonzero" stroke="#000000" stroke-width="5" stroke-linecap="butt" stroke-linejoin="miter" stroke-miterlimit="10" stroke-dasharray="" stroke-dashoffset="0" style="mix-blend-mode: normal"><path d="M283.75001,183c-1.18764,0 -2.32692,0.20703 -3.38372,0.58698c-7.53772,2.51257 -15.03449,4.29293 -22.86389,5.57232c-1.56119,-2.81674 -4.44263,-4.80034 -7.80887,-5.11537c-0.09993,-0.00935 -0.20029,-0.01723 -0.30106,-0.02362c-26.14309,-2.1905 -53.62361,-4.15219 -80.39244,-5.96554v-87.05476h142v95.47668c-7.13219,-0.54049 -14.26816,-1.03997 -21.39964,-1.58765c-1.64496,-1.18857 -3.66587,-1.88904 -5.85038,-1.88904z"/><path d="M169,269v-65.50926c1.84021,0.19309 3.67934,0.3698 5.51498,0.53381c11.98456,1.07079 24.63052,3.08388 36.77911,1.81675c0.23253,0.02687 0.46494,0.05444 0.69723,0.0827c22.96991,2.79547 48.06783,6.79268 70.42752,-1.59128c0.21799,0.04034 0.43845,0.07361 0.66115,0.09956c0.15111,0.01761 0.30325,0.03185 0.45633,0.04264c9.14356,0.93856 18.29925,1.77341 27.4637,2.49361v62.03147z"/></g></g></svg>