<svg version="1.1" xmlns="http://www.w3.org/2000/svg" xmlns:xlink="http://www.w3.org/1999/xlink" width="169.11812" height="10.15294" viewBox="0,0,169.11812,10.15294"><g transform="translate(-156.32297,-256.40041)"><g data-paper-data="{&quot;isPaintingLayer&quot;:true}" fill-rule="nonzero" stroke-linejoin="miter" stroke-miterlimit="10" stroke-dasharray="" stroke-dashoffset="0" style="mix-blend-mode: normal"><path d="M291.13284,261.54433v0.19078l-27.44867,0.75517l-2.87254,-0.25437z" fill="#0a9600" stroke="#000000" stroke-width="0" stroke-linecap="round"/><path d="M249.74705,262.08487l-1.0639,0.23847l-2.87253,0.04769l-15.74575,-0.66773l0.42556,-0.28617z" fill="#0a9600" stroke="none" stroke-width="0" stroke-linecap="round"/><path d="M290.23457,259.75875l9.77414,3.36275c0,0 -1.27423,1.26265 -22.27462,1.35122c-4.63188,0.01954 -7.8947,-0.06307 -11.89664,-0.17601c-3.60546,-0.10175 -7.84987,-0.20721 -8.95526,-0.53316c-1.65641,-0.48842 -6.65344,-0.65904 -6.65344,-0.65904c0,0 -3.65485,-0.00879 -4.27705,0.21192c-1.09744,0.38929 -4.83513,0.59228 -7.06036,0.69169c-3.20113,0.14301 -10.71124,0.08144 -10.71124,0.08144c0,0 -4.74151,-0.06572 -8.14433,-0.34539c-2.72228,-0.22373 -4.34231,-0.63941 -3.80903,-0.8607c2.12288,-0.8809 9.90761,-3.10775 9.90761,-3.10775c0,0 18.6062,0.11347 29.32044,0.09371c10.86308,-0.02004 34.77978,-0.1107 34.77978,-0.1107z" fill="#d90000" stroke="#000000" stroke-width="3" stroke-linecap="round"/><path d="M261.43368,262.64596c18.19537,0.06136 49.07913,-0.23609 49.07913,-0.23609l3.18228,1.51154c0,0 -1.03969,-5.29939 -9.33997,-4.84166c-4.27192,0.23558 -15.02977,0.59408 -15.02977,0.59408c0,0 -22.13553,0.10788 -32.73325,0.11077c-10.14292,0.00277 -29.54852,-0.09378 -29.54852,-0.09378c0,0 -18.9521,-0.10014 -20.3709,-0.9897c-0.24384,-0.15288 1.78072,5.62361 1.84052,5.47468c0.15018,-0.37402 2.87093,-0.63779 4.11627,-0.91459c1.67149,-0.37152 1.96032,-0.69847 1.96032,-0.69847c0,0 29.95314,0.02628 46.84389,0.08324z" fill="#fdcc8d" stroke="#000000" stroke-width="3" stroke-linecap="round"/><path d="M214.99275,262.55938l5.5,0.02491l6.33333,0.66l-14.33333,0.03736z" fill="#e1b47d" stroke="#000000" stroke-width="0" stroke-linecap="round"/><path d="M255.65941,262.64655l4.33333,0.01245l3.16667,0.80943l-12.83333,-0.13698z" fill="#e1b47d" stroke="#000000" stroke-width="0" stroke-linecap="round"/><path d="M310.15941,262.79598l2,0.69736l-6.5,-0.03736z" fill="#e1b47d" stroke="#000000" stroke-width="0" stroke-linecap="round"/><path d="M213.68056,262.56273c0,0 -4.34136,-0.02787 -8.18863,-0.22039c-3.9007,-0.19519 -7.29987,-0.55584 -6.08617,-0.66955c2.18856,-0.20503 -1.27096,-0.45999 4.24695,-0.59123c9.20686,-0.21898 13.21013,-0.21719 13.21013,-0.21719c0,0 0.04417,-0.23767 -1.15199,-0.48135c-1.46119,-0.29767 -4.21377,-0.62938 -4.18269,-0.86052c0.11246,-0.83633 6.01659,-1.15472 6.01659,-1.15472c0,0 20.71474,-0.52326 47.03145,-0.46246c34.79675,0.08039 53.8923,0.85308 53.8923,0.85308c0,0 4.09936,0.76653 4.11711,1.0536c0.04415,0.71399 -5.02633,1.03538 -5.02633,1.03538c0,0 6.42543,0.45948 6.7107,0.81591c0.49781,0.622 -6.7107,0.66166 -6.7107,0.66166c0,0 -4.70218,0.10751 -11.38193,0.15739c-9.89997,0.07393 -23.91652,0.10255 -33.63423,0.12644c-18.0847,0.04445 -58.86256,-0.04606 -58.86256,-0.04606z" fill="#0cb500" stroke="#000000" stroke-width="3" stroke-linecap="round"/><path d="M202.78751,262.11667l-3.67392,-0.28934l1.43972,-0.40223l1.34784,-0.29412l10.67425,-0.15898l12.66044,0.0318l-0.42556,0.11924l-12.76683,0.02385l-3.51088,0.18283l-2.1278,0.13514l-1.91502,0.14308l-0.85113,0.18283l0.63835,0.19873l-0.10639,0.08744z" fill="#0a9c00" stroke="none" stroke-width="0" stroke-linecap="round"/><path d="M249.28003,261.82255l-0.21278,0.23847l-19.36302,-0.69952" fill="none" stroke="#000000" stroke-width="3" stroke-linecap="round"/><path d="M290.28173,261.49663l-27.87424,0.66773l2.55336,-0.46105" fill="none" stroke="#000000" stroke-width="3" stroke-linecap="round"/><path d="M221.32608,262.55938l34,0.06226c0,0 -3.64044,1.03908 -15.83334,0.98377c-17.02465,-0.07723 -18.16666,-1.04604 -18.16666,-1.04604z" fill="#ffffff" stroke="#000000" stroke-width="3" stroke-linecap="round"/><path d="M259.15941,262.659c0,0 17.29908,-0.00851 25.84217,-0.03138c8.51236,-0.02279 25.3245,-0.1056 25.3245,-0.1056c0,0 -3.32878,1.63204 -24.33333,1.60641c-23.16276,-0.02826 -26.83333,-1.46943 -26.83333,-1.46943z" fill="#ffffff" stroke="#000000" stroke-width="3" stroke-linecap="round"/><path d="M228.65942,262.93296c0,-0.05502 0.59695,-0.09962 1.33333,-0.09962c0.73638,0 1.33334,0.0446 1.33334,0.09962c0,0.05502 -0.59696,0.09962 -1.33334,0.09962c-0.73638,0 -1.33333,-0.0446 -1.33333,-0.09962z" fill="#000000" stroke="#000000" stroke-width="2" stroke-linecap="butt"/><path d="M269.49275,263.20692c0,-0.06878 0.59695,-0.12453 1.33333,-0.12453c0.73638,0 1.33333,0.05575 1.33333,0.12453c0,0.06878 -0.59695,0.12453 -1.33333,0.12453c-0.73638,0 -1.33333,-0.05575 -1.33333,-0.12453z" fill="#000000" stroke="#000000" stroke-width="2" stroke-linecap="butt"/><path d="M308.82608,263.979c0,0 -12.88496,-4.97662 -35.35247,-4.86381c-18.9874,0.09534 -36.98086,5.11286 -36.98086,5.11286" fill="none" stroke="#000000" stroke-width="3" stroke-linecap="round"/><path d="M261.43368,262.64596c18.19537,0.06136 49.07913,-0.23609 49.07913,-0.23609l3.18228,1.51154c0,0 -1.03969,-5.29939 -9.33997,-4.84166c-4.27192,0.23558 -15.02977,0.59408 -15.02977,0.59408c0,0 -22.13553,0.10788 -32.73325,0.11077c-10.14292,0.00277 -29.54852,-0.09378 -29.54852,-0.09378c0,0 -18.9521,-0.10014 -20.3709,-0.9897c-0.24384,-0.15288 1.78072,5.62361 1.84052,5.47468c0.15018,-0.37402 2.87093,-0.63779 4.11627,-0.91459c1.67149,-0.37152 1.96032,-0.69847 1.96032,-0.69847c0,0 29.95314,0.02628 46.84389,0.08324z" fill="none" stroke="#000000" stroke-width="2" stroke-linecap="round"/><path d="M290.99275,260.90315l24,0.02491l7.16667,0.24906l2.33333,0.58528l-2.83333,0.4234l-10.16667,0.18679l1.33333,-0.13698l3.33333,-0.34868l1.16667,-0.27396l-5.5,-0.31132h-19.33333l-2.16667,-0.24906z" fill="#0a9600" stroke="#000000" stroke-width="0" stroke-linecap="round"/><path d="M291.32608,260.79108l4,-0.14943l9.33333,-0.07472l8,-0.4234l3.66667,-0.39849l1.33333,-0.39849l-2.5,-0.36113l-3.83333,-0.32377l0.33333,-0.09962l5.5,0.13698l4.5,0.61019l0.83333,0.67245l-1.5,0.49811l-4.16667,0.29887l-6.66667,0.13698h-17.5z" fill="#0a9600" stroke="#000000" stroke-width="0" stroke-linecap="round"/><path d="M212.65941,260.8907l12.83333,0.02491" fill="none" stroke="#000000" stroke-width="2" stroke-linecap="round"/><path d="M317.32608,260.87825l-26,0.02491" fill="none" stroke="#000000" stroke-width="2" stroke-linecap="round"/><path d="M213.68056,262.55027c0,0 -4.34136,-0.02787 -8.18863,-0.22039c-3.9007,-0.19519 -7.29987,-0.55584 -6.08617,-0.66955c2.18856,-0.20503 -1.27096,-0.45999 4.24695,-0.59123c9.20686,-0.21898 13.21013,-0.21719 13.21013,-0.21719c0,0 0.04417,-0.23767 -1.15199,-0.48135c-1.46119,-0.29767 -4.21377,-0.62938 -4.18269,-0.86052c0.11246,-0.83633 6.01659,-1.15472 6.01659,-1.15472c0,0 20.71474,-0.52326 47.03145,-0.46246c34.79675,0.08039 53.8923,0.85308 53.8923,0.85308c0,0 4.09936,0.76653 4.11711,1.0536c0.04415,0.71399 -5.02633,1.03538 -5.02633,1.03538c0,0 6.42543,0.45948 6.7107,0.81591c0.49781,0.622 -6.7107,0.66166 -6.7107,0.66166c0,0 -4.70218,0.10751 -11.38193,0.15739c-9.89997,0.07393 -23.91652,0.10255 -33.63423,0.12644c-18.0847,0.04445 -58.86256,-0.04606 -58.86256,-0.04606z" fill="none" stroke="#000000" stroke-width="2" stroke-linecap="round"/><path d="M233.15642,259.75155l9,0.03736l-2.33333,1.3449c0,0 3.41902,-0.23971 9.8314,-0.24278c5.59183,-0.00268 11.6686,0.23033 11.6686,0.23033v-1.32l13.16667,-0.07472v0.28641l-2,1.09585c0,0 6.73189,-0.08894 10.11006,-0.17518c3.28594,-0.08388 9.88994,-0.33539 9.88994,-0.33539l1.5,0.62264l3.33333,0.97132l2.83333,1.25773l-6.16667,0.66l-11.83333,0.43585l-13.66667,-0.14943l-8.83333,-0.34868l-7.16667,-0.8717l-5,-0.02491l-4.33333,0.61019l-7.5,0.31132h-10.16667l-7,-0.39849l-2.33333,-0.88415l7.83333,-2.09207l6.5,0.02491l2.33333,-0.80943z" fill="#0024dd" stroke="#000000" stroke-width="1.5" stroke-linecap="round"/><path d="M239.82308,260.88475l-4,-0.03736l0.66667,-0.6849l-4,-0.07472l1.83333,-0.31132l8,0.06226z" fill="#001eb7" stroke="none" stroke-width="0" stroke-linecap="round"/><path d="M267.65641,261.85607l4.5,-0.04981l0.83333,0.37358l-0.33333,0.43585l-2.66667,0.36113l-2.83333,-0.11208z" fill="#001eb7" stroke="none" stroke-width="0" stroke-linecap="round"/><path d="M261.48974,259.83872l7.67528,-0.06655l5.32472,-0.00817l-2.16667,1.38226l9.66667,-0.16189l-2.33333,0.53547l-8.83333,-0.08717l-1.5,-0.31132l-0.16667,-0.93396l-7,-0.03736z" fill="#001eb7" stroke="none" stroke-width="0" stroke-linecap="round"/><path d="M232.15642,261.71909l5.83333,0.08717l-4,0.74717l-3.66667,0.03736z" fill="#001eb7" stroke="none" stroke-width="0" stroke-linecap="round"/><path d="M230.32308,262.52853l1.33333,-0.82189l36.16667,0.14943l-0.66667,0.98377" fill="none" stroke="#000000" stroke-width="3" stroke-linecap="round"/><path d="M273.15641,264.35909l0.66667,-0.14943l5.83333,-0.22415l6.83333,-0.51057l2.83333,-0.4483l1.16667,-0.53547l1,-0.31132l4.33333,0.29887l3.16667,0.04981c0,0 0.50916,0.60085 0.71968,0.79715c0.1566,0.14602 -1.38635,0.33605 -1.38635,0.33605c0,0 -2.73046,0.32639 -4.35251,0.43243c-1.89184,0.12368 -6.31416,0.26493 -6.31416,0.26493c0,0 -3.75295,0.17243 -5.90559,0.19277c-2.59686,0.02453 -8.59441,-0.05579 -8.59441,-0.05579z" fill="#001eb7" stroke="none" stroke-width="0" stroke-linecap="round"/><path d="M232.32308,261.06532c0,-0.05846 0.63426,-0.10585 1.41667,-0.10585c0.7824,0 1.41667,0.04739 1.41667,0.10585c0,0.05846 -0.63426,0.10585 -1.41667,0.10585c-0.7824,0 -1.41667,-0.04739 -1.41667,-0.10585z" fill="#000000" stroke="#000000" stroke-width="3" stroke-linecap="butt"/><path d="M265.65641,261.30192c0,-0.05846 0.63426,-0.10585 1.41666,-0.10585c0.78241,0 1.41667,0.04739 1.41667,0.10585c0,0.05846 -0.63427,0.10585 -1.41667,0.10585c-0.7824,0 -1.41666,-0.04739 -1.41666,-0.10585z" fill="#000000" stroke="#000000" stroke-width="3" stroke-linecap="butt"/><path d="M233.15642,259.75155l9,0.03736l-2.33334,1.3449c0,0 3.41902,-0.23971 9.8314,-0.24278c5.59184,-0.00268 11.6686,0.23033 11.6686,0.23033v-1.32l13.16667,-0.07472v0.28642l-2,1.09585c0,0 6.73189,-0.08894 10.11006,-0.17518c3.28595,-0.08388 9.88994,-0.33539 9.88994,-0.33539l1.5,0.62264l3.33333,0.97132l2.83333,1.25773l-6.16667,0.66l-11.83333,0.43585l-13.66667,-0.14943l-8.83333,-0.34868l-7.16667,-0.8717l-5,-0.02491l-4.33333,0.61019l-7.5,0.31132h-10.16667l-7,-0.39849l-2.33333,-0.88415l7.83333,-2.09207l6.5,0.02491l2.33334,-0.80943z" fill="none" stroke="#000000" stroke-width="3" stroke-linecap="round"/><path d="M315.32308,262.26702l4.33333,0.18679c0,0 1.15752,0.27847 -2.15957,0.39009c-3.76092,0.12656 -7.50709,-0.06632 -7.50709,-0.06632c0,0 -3.9579,0.20599 -5.91667,0.08094c-1.72589,-0.11018 -6.58333,-0.39226 -6.58333,-0.39226c0,0 -1.96343,0.01516 -3.36431,-0.04311c-0.94735,-0.03941 -1.27566,-0.15295 -1.9494,-0.17238c-1.48944,-0.04295 -4.22674,-0.05962 -4.22674,-0.05962c-8.45745,-0.14502 -5.79289,-0.89544 -5.79289,-0.89544c0,0 8.10233,-1.06896 27,-0.77207c22.44957,0.35269 10.66667,1.32 10.66667,1.32z" fill="#fdcc8d" stroke="#000000" stroke-width="3" stroke-linecap="round"/><path d="M282.15642,261.744l-0.5,-0.24906l4,-0.52302l6.66667,-0.29887l10.5,-0.2117l14.33333,0.17434l-0.16667,0.18679l-3.66667,-0.01245h-6h-6.5l-4,0.06226l-3.83333,0.11208l-4.16667,0.2117l-2.33333,0.19925l-0.66667,0.41094z" fill="#e5b780" stroke="none" stroke-width="0" stroke-linecap="round"/><path d="M302.15641,260.99683l0.50001,0.2117l-3.33333,0.16189l-0.16667,0.26151l0.5,0.19925l-2.16667,0.53547l-3.33333,-0.07472l0.33333,-0.90906c0,0 1.35379,-0.22507 2.60784,-0.28129c1.24589,-0.05585 5.05882,-0.10475 5.05882,-0.10475z" fill="#e5b780" stroke="none" stroke-width="0" stroke-linecap="round"/><path d="M310.15641,261.42023v0.16189l-6,0.56038l1.83333,0.70981l-5.16667,-0.2366c0,0 -2.2154,-0.19875 -2.24165,-0.31251c-0.02902,-0.12578 2.07499,-0.4222 2.07499,-0.4222l5.16667,-0.46075z" fill="#e5b780" stroke="none" stroke-width="0" stroke-linecap="round"/><path d="M318.65641,261.65683l-4.33333,0.38604l-1,0.26151l0.83333,0.52302l-3.83333,-0.04981c0,0 -0.60334,-0.22654 -0.76668,-0.32591c-0.21248,-0.12927 0.26667,-0.47107 0.26667,-0.47107l4.5,-0.37358z" fill="#e5b780" stroke="none" stroke-width="0" stroke-linecap="round"/><path d="M291.82307,262.25456c0,0 1.81331,-0.08641 2.9466,-0.2098c0.63667,-0.06932 -1.31662,-0.18094 -0.16537,-0.32039c0.61287,-0.07424 -1.9728,-0.44679 0.61825,-0.55532c4.21889,-0.17672 7.60053,-0.18468 7.60053,-0.18468" fill="none" stroke="#000000" stroke-width="3" stroke-linecap="round"/><path d="M298.32308,262.45381c0,0 0.8243,-0.5557 4.05215,-0.77877c3.7495,-0.25912 7.28118,-0.34198 7.28118,-0.34198" fill="none" stroke="#000000" stroke-width="3" stroke-linecap="round"/><path d="M309.98975,262.70287c0,0 -2.75856,-0.46942 0.30027,-0.74207c3.90331,-0.34792 7.53306,-0.40359 7.53306,-0.40359" fill="none" stroke="#000000" stroke-width="3" stroke-linecap="round"/><path d="M315.32308,262.26702l4.33333,0.18679c0,0 1.15752,0.27847 -2.15957,0.39009c-3.76092,0.12656 -7.50709,-0.06632 -7.50709,-0.06632c0,0 -3.9579,0.20599 -5.91667,0.08094c-1.72589,-0.11018 -6.58333,-0.39226 -6.58333,-0.39226c0,0 -1.96343,0.01516 -3.36431,-0.04311c-0.94735,-0.03941 -1.27566,-0.15295 -1.9494,-0.17238c-1.48944,-0.04295 -4.22674,-0.05962 -4.22674,-0.05962c-8.45745,-0.14502 -5.79289,-0.89544 -5.79289,-0.89544c0,0 8.10233,-1.06896 27,-0.77207c22.44957,0.35269 10.66667,1.32 10.66667,1.32z" fill="none" stroke="#000000" stroke-width="2" stroke-linecap="round"/><path d="M204.82308,260.28702l1.83334,-0.04981l1.66666,0.03736l0.83334,0.31132l-2.33334,0.29887l-7.66666,0.09962l-4.33334,-0.37358l2.5,-0.64755l8.33334,-0.22415l9.66666,0.19925l7.33334,0.47321l1.33333,0.27396l-3.16666,0.43585l-6,0.58528l-8.5,0.51057h-6.83334l-0.5,-0.27396l7.16667,-0.51057l6.83333,-0.11208l3.16667,0.09962c0,0 -5.00988,-0.02593 -7.0782,-0.32071c-0.87982,-0.12539 -0.17808,-0.20519 -0.2245,-0.37694c-0.04658,-0.17234 -0.84075,-0.4365 -1.38573,-0.48083c-1.23227,-0.10023 -2.6449,0.04528 -2.6449,0.04528z" fill="#fdcc8d" stroke="#000000" stroke-width="3" stroke-linecap="round"/><path d="M204.48975,260.31193h-2l-0.66666,-0.06226" fill="none" stroke="#000000" stroke-width="2" stroke-linecap="round"/><path d="M198.10398,264.20854c1.85513,0.62676 -8.6548,-4.57543 -18.81077,-4.40761c-10.15597,0.16782 -20.11511,-0.21253 -21.97024,-0.83928c-1.85513,-0.62676 7.87703,4.67505 18.033,4.50724c10.15597,-0.16782 20.89289,0.11291 22.74802,0.73966z" fill="#212121" stroke="#000000" stroke-width="2" stroke-linecap="butt"/><path d="M193.51662,264.1091c1.38435,0.30625 -4.33755,-5.2945 -9.07583,-5.17492c-4.73828,0.11957 -10.70166,-0.00685 -12.08601,-0.3131c-0.64313,-0.14227 2.48482,5.64761 3.63505,5.5093c1.32566,-0.15941 3.90377,-0.29526 6.44079,-0.35928c4.73828,-0.11957 9.70166,0.03176 11.08601,0.338z" fill="#151515" stroke="none" stroke-width="0" stroke-linecap="butt"/><path d="M209.98975,261.24589l-6.66666,0.32377l-7.5,0.28641l-0.5,-0.4483l10.16666,-0.46075z" fill="#fdcc8d" stroke="#000000" stroke-width="3" stroke-linecap="round"/><path d="M188.98975,261.35796l-3.5,-0.31132l8.83334,-0.46075l4.5,0.4234c0,0 -1.34476,0.2693 -2.84208,0.3224c-1.74299,0.0618 -6.99125,0.02628 -6.99125,0.02628z" fill="#fdcc8d" stroke="#000000" stroke-width="3" stroke-linecap="round"/><path d="M207.32307,260.77268l-6.33334,0.14943l-5.16666,-0.17434l0.33334,-0.48566l3.5,-0.31132l1.33333,0.09962l-2.66666,0.38604l3.33334,0.28642l4.33333,-0.08717z" fill="#e1b47d" stroke="none" stroke-width="0" stroke-linecap="round"/><path d="M201.48975,259.66438l17.66667,1.51924l-4.16667,0.4483l-23.5,-0.95887l-7.16666,-0.46075l12.16666,-0.8717z" fill="#515151" stroke="#000000" stroke-width="2" stroke-linecap="round"/><path d="M184.65642,260.10023l11.66666,-0.74717l4,0.26151l-5.33334,0.27396l-4,0.2366l-3.16666,0.2117z" fill="#393939" stroke="none" stroke-width="0" stroke-linecap="round"/><path d="M174.99275,263.69051l-5.33333,0.49811l-5.003,-5.58896l1.33333,0.44l5,0.24906l6.33334,0.06642l6.33334,-0.18264l5.55555,-0.30717l8.86014,5.64114l-5.63792,-5.4834c0,0 -3.32243,0.38303 -5.45532,0.4997c-2.00768,0.10983 -6.98913,0.18105 -6.98913,0.18105c0,0 -4.79231,0.11815 -7.29045,0.10741c-2.64195,-0.01136 -8.154,-0.17382 -8.154,-0.17382c0,0 -3.09885,-0.19909 -4.25157,-0.31939c-1.17997,-0.12315 -2.74843,-0.41117 -2.74843,-0.41117l5.22523,5.14896l7.88889,-0.4649z" fill="#151515" stroke="none" stroke-width="0" stroke-linecap="round"/><path d="M178.88164,264.05579l1.66366,-5.28179" fill="none" stroke="#000000" stroke-width="2" stroke-linecap="round"/><path d="M187.65942,264.51239l-4.77778,-0.57283" fill="none" stroke="#000000" stroke-width="2" stroke-linecap="round"/><path d="M187.43719,263.90636l3.22223,0.4234" fill="none" stroke="#000000" stroke-width="2" stroke-linecap="round"/><path d="M177.10386,264.5207c0,0 4.92433,-0.28187 7.30945,-0.38497c2.04327,-0.08832 6.13499,-0.19616 6.13499,-0.19616" fill="none" stroke="#000000" stroke-width="2" stroke-linecap="round"/><path d="M176.87864,258.774c0,0 6.88109,5.70899 8.98831,5.60855c2.18617,-0.1042 6.90358,-0.27695 6.90358,-0.27695" fill="none" stroke="#000000" stroke-width="2" stroke-linecap="round"/><path d="M198.10398,264.20854c1.85513,0.62676 -8.6548,-4.57543 -18.81077,-4.40761c-10.15597,0.16782 -20.11511,-0.21253 -21.97024,-0.83928c-1.85513,-0.62676 7.87703,4.67505 18.033,4.50724c10.15597,-0.16782 20.89289,0.11291 22.74802,0.73966z" fill="none" stroke="#000000" stroke-width="2" stroke-linecap="butt"/><path d="M201.48975,259.66438l17.66667,1.51924l-4.16667,0.4483l-23.5,-0.95887l-7.16666,-0.46075l12.16666,-0.8717z" fill="none" stroke="#000000" stroke-width="2" stroke-linecap="round"/><path d="M174.32308,259.86362c0,0 8.27931,-0.2468 11.70151,-0.44682c3.46613,-0.20259 8.71515,-0.6677 8.71515,-0.6677l8.25,0.44208l-22.66666,1.35736z" fill="#333333" stroke="#000000" stroke-width="2" stroke-linecap="round"/></g></g></svg>