<svg version="1.1" xmlns="http://www.w3.org/2000/svg" xmlns:xlink="http://www.w3.org/1999/xlink" width="173.99588" height="168.92118" viewBox="0,0,173.99588,168.92118"><g transform="translate(-173.86512,-95.53941)"><g data-paper-data="{&quot;isPaintingLayer&quot;:true}" fill-rule="nonzero" stroke-linejoin="miter" stroke-miterlimit="10" stroke-dasharray="" stroke-dashoffset="0" style="mix-blend-mode: normal"><path d="M239.41978,152.41282l-2.87254,3.40448l-27.44867,-10.10707v-2.55337z" data-paper-data="{&quot;index&quot;:null}" fill="#0a9600" stroke="#000000" stroke-width="0" stroke-linecap="round"/><path d="M269.74098,141.45463l0.42556,3.83004l-15.74575,8.93678l-2.87253,-0.63834l-1.0639,-3.19171z" data-paper-data="{&quot;index&quot;:null}" fill="#0a9600" stroke="none" stroke-width="0" stroke-linecap="round"/><path d="M206.99384,198.83854c0,0 23.9167,1.21336 34.77978,1.48153c10.71424,0.2645 29.32044,-1.25422 29.32044,-1.25422c0,0 7.78473,29.80377 9.90761,41.59363c0.53328,2.96165 -1.08675,8.52505 -3.80903,11.51944c-3.40282,3.74295 -8.14433,4.62259 -8.14433,4.62259c0,0 -7.51011,0.82416 -10.71124,-1.08992c-2.22523,-1.33056 -5.96292,-4.04728 -7.06036,-9.2575c-0.6222,-2.95397 -4.27705,-2.83631 -4.27705,-2.83631c0,0 -4.99703,2.28352 -6.65344,8.82047c-1.10539,4.3624 -5.3498,5.77387 -8.95526,7.1357c-4.00194,1.51159 -7.26476,2.61718 -11.89664,2.35572c-21.00039,-1.18545 -22.27462,-18.08458 -22.27462,-18.08458l9.77414,-45.00654z" data-paper-data="{&quot;index&quot;:null}" fill="#d90000" stroke="#000000" stroke-width="3" stroke-linecap="round"/><path d="M285.64162,156.78698c0,0 0.28883,4.37583 1.96032,9.34825c1.24534,3.70469 3.96609,7.23492 4.11627,12.24079c0.0598,1.99329 -0.91864,4.26109 -1.16248,6.30722c-1.4188,11.90586 -20.3709,13.24607 -20.3709,13.24607c0,0 -19.4056,1.29219 -29.54852,1.25517c-10.59772,-0.03868 -32.73325,-1.48247 -32.73325,-1.48247c0,0 -10.75785,-4.79804 -15.02977,-7.95105c-8.30028,-6.12625 -6.33697,-14.77952 -6.33697,-14.77952l3.18228,-20.23021c0,0 30.88376,3.98098 49.07913,3.15979c16.89075,-0.76231 46.84389,-1.11404 46.84389,-1.11404z" data-paper-data="{&quot;index&quot;:null}" fill="#fdcc8d" stroke="#000000" stroke-width="3" stroke-linecap="round"/><path d="M287.73866,166.40881l-14.33333,-0.5l6.33333,-8.83333l5.5,-0.33333z" data-paper-data="{&quot;index&quot;:null}" fill="#e1b47d" stroke="#000000" stroke-width="0" stroke-linecap="round"/><path d="M249.90533,167.07548l-12.83333,1.83333l3.16667,-10.83333l4.33333,-0.16667z" data-paper-data="{&quot;index&quot;:null}" fill="#e1b47d" stroke="#000000" stroke-width="0" stroke-linecap="round"/><path d="M194.572,168.74215l-6.5,0.5l2,-9.33333z" data-paper-data="{&quot;index&quot;:null}" fill="#e1b47d" stroke="#000000" stroke-width="0" stroke-linecap="round"/><path d="M227.11663,158.65656c-9.71771,-0.31966 -23.73426,-0.70276 -33.63423,-1.69219c-6.67975,-0.6676 -11.38193,-2.10653 -11.38193,-2.10653c0,0 -7.20851,-0.53091 -6.7107,-8.85561c0.28527,-4.77042 6.7107,-10.91998 6.7107,-10.91998c0,0 -5.07048,-4.3015 -5.02633,-13.85743c0.01775,-3.84211 4.11711,-14.10118 4.11711,-14.10118c0,0 19.09555,-10.34163 53.8923,-11.41756c26.31671,-0.81373 47.03145,6.18953 47.03145,6.18953c0,0 5.90413,4.26135 6.01659,15.45462c0.03108,3.09349 -2.7215,7.53312 -4.18269,11.51707c-1.19616,3.26135 -1.15199,6.44226 -1.15199,6.44226c0,0 4.00327,-0.02396 13.21013,2.90679c5.51791,1.75648 2.05839,5.16884 4.24695,7.91296c1.2137,1.52179 -2.18547,6.34865 -6.08617,8.96111c-3.84727,2.57667 -8.18863,2.94971 -8.18863,2.94971c0,0 -40.77786,1.21132 -58.86256,0.61643z" data-paper-data="{&quot;index&quot;:null}" fill="#0cb500" stroke="#000000" stroke-width="3" stroke-linecap="round"/><path d="M295.48917,151.53816l-0.10639,-1.17029l0.63835,-2.65975l-0.85113,-2.44698l-1.91502,-1.91502l-2.1278,-1.80864l-3.51088,-2.44697l-12.76683,-0.31917l-0.42556,-1.59586l12.66044,-0.42556l10.67425,2.1278l1.34784,3.93644l1.43972,5.38341l-3.67392,3.87253z" data-paper-data="{&quot;index&quot;:null}" fill="#0a9c00" stroke="none" stroke-width="0" stroke-linecap="round"/><path d="M270.52718,140.70989l-19.36302,9.36234l-0.21278,-3.19171" data-paper-data="{&quot;index&quot;:null}" fill="none" stroke="#000000" stroke-width="3" stroke-linecap="round"/><path d="M235.27056,145.28467l2.55336,6.17064l-27.87424,-8.93678" data-paper-data="{&quot;index&quot;:null}" fill="none" stroke="#000000" stroke-width="3" stroke-linecap="round"/><path d="M278.90533,156.74216c0,0 -1.14201,12.96642 -18.16666,14c-12.1929,0.74024 -15.83334,-13.16667 -15.83334,-13.16667l34,-0.83334z" data-paper-data="{&quot;index&quot;:null}" fill="#ffffff" stroke="#000000" stroke-width="3" stroke-linecap="round"/><path d="M241.07199,158.07548c0,0 -3.67057,19.28848 -26.83333,19.66667c-21.00455,0.34296 -24.33333,-21.5 -24.33333,-21.5c0,0 16.81214,1.10836 25.3245,1.41336c8.54309,0.3061 25.84217,0.41997 25.84217,0.41997z" data-paper-data="{&quot;index&quot;:null}" fill="#ffffff" stroke="#000000" stroke-width="3" stroke-linecap="round"/><path d="M270.23866,163.07548c-0.73638,0 -1.33334,-0.59695 -1.33334,-1.33333c0,-0.73638 0.59696,-1.33334 1.33334,-1.33334c0.73638,0 1.33333,0.59696 1.33333,1.33334c0,0.73638 -0.59695,1.33333 -1.33333,1.33333z" data-paper-data="{&quot;index&quot;:null}" fill="#000000" stroke="#000000" stroke-width="2" stroke-linecap="butt"/><path d="M229.40533,167.07548c-0.73638,0 -1.33333,-0.74619 -1.33333,-1.66667c0,-0.92047 0.59695,-1.66666 1.33333,-1.66666c0.73638,0 1.33333,0.74618 1.33333,1.66666c0,0.92048 -0.59695,1.66667 -1.33333,1.66667z" data-paper-data="{&quot;index&quot;:null}" fill="#000000" stroke="#000000" stroke-width="2" stroke-linecap="butt"/><path d="M263.73866,179.07548c0,0 -20.99646,12.42576 -39.98386,11.14974c-22.46751,-1.50988 -32.34947,-14.48308 -32.34947,-14.48308" data-paper-data="{&quot;index&quot;:null}" fill="none" stroke="#000000" stroke-width="3" stroke-linecap="round"/><path d="M285.64162,156.78698c0,0 0.28883,4.37583 1.96032,9.34825c1.24534,3.70469 3.96609,7.23492 4.11627,12.24079c0.0598,1.99329 -0.91864,4.26109 -1.16248,6.30722c-1.4188,11.90586 -20.3709,13.24607 -20.3709,13.24607c0,0 -19.4056,1.29219 -29.54852,1.25517c-10.59772,-0.03868 -32.73325,-1.48247 -32.73325,-1.48247c0,0 -10.75785,-4.79804 -15.02977,-7.95105c-8.30028,-6.12625 -6.33697,-14.77952 -6.33697,-14.77952l3.18228,-20.23021c0,0 30.88376,3.98098 49.07913,3.15979c16.89075,-0.76231 46.84389,-1.11404 46.84389,-1.11404z" data-paper-data="{&quot;index&quot;:null}" fill="none" stroke="#000000" stroke-width="2" stroke-linecap="round"/><path d="M209.33367,137.82863l-2.16667,3.33333h-19.33333l-5.5,4.16667l1.16667,3.66666l3.33333,4.66667l1.33333,1.83334l-10.16667,-2.50001l-2.83333,-5.66666l2.33333,-7.83334l7.16667,-3.33333l24,-0.33333z" data-paper-data="{&quot;index&quot;:null}" fill="#0a9600" stroke="#000000" stroke-width="0" stroke-linecap="round"/><path d="M207.00035,135.99529h-17.5l-6.66667,-1.83333l-4.16667,-4l-1.5,-6.66667l0.83333,-9l4.5,-8.16667l5.5,-1.83333l0.33333,1.33333l-3.83333,4.33334l-2.5,4.83333l1.33333,5.33333l3.66667,5.33334l8,5.66667l9.33333,1l4,2z" data-paper-data="{&quot;index&quot;:null}" fill="#0a9600" stroke="#000000" stroke-width="0" stroke-linecap="round"/><path d="M274.16701,135.99529l12.83333,-0.33333" data-paper-data="{&quot;index&quot;:null}" fill="none" stroke="#000000" stroke-width="2" stroke-linecap="round"/><path d="M208.33367,135.82863l-26,-0.33333" data-paper-data="{&quot;index&quot;:null}" fill="none" stroke="#000000" stroke-width="2" stroke-linecap="round"/><path d="M227.11663,158.48989c-9.71771,-0.31966 -23.73426,-0.70276 -33.63423,-1.69219c-6.67975,-0.6676 -11.38193,-2.10653 -11.38193,-2.10653c0,0 -7.20851,-0.53091 -6.7107,-8.85561c0.28527,-4.77042 6.7107,-10.91998 6.7107,-10.91998c0,0 -5.07048,-4.3015 -5.02633,-13.85743c0.01775,-3.84211 4.11711,-14.10118 4.11711,-14.10118c0,0 19.09555,-10.34163 53.8923,-11.41756c26.31671,-0.81373 47.03145,6.18953 47.03145,6.18953c0,0 5.90413,4.26135 6.01659,15.45462c0.03108,3.09349 -2.7215,7.53312 -4.18269,11.51707c-1.19616,3.26135 -1.15199,6.44226 -1.15199,6.44226c0,0 4.00327,-0.02396 13.21013,2.90679c5.51791,1.75648 2.05839,5.16884 4.24695,7.91296c1.2137,1.52179 -2.18547,6.34865 -6.08617,8.96111c-3.84727,2.57667 -8.18863,2.94971 -8.18863,2.94971c0,0 -40.77786,1.21132 -58.86256,0.61643z" data-paper-data="{&quot;index&quot;:null}" fill="none" stroke="#000000" stroke-width="2" stroke-linecap="round"/><path d="M264.40533,200.90881l2.33333,10.83333l6.5,-0.33333l7.83333,28l-2.33333,11.83333l-7,5.33333h-10.16667l-7.5,-4.16667l-4.33333,-8.16667l-5,0.33333l-7.16667,11.66667l-8.83333,4.66667l-13.66667,2l-11.83333,-5.83333l-6.16667,-8.83333l2.83333,-16.83333l3.33333,-13l1.5,-8.33333c0,0 6.604,3.36609 9.88994,4.48879c3.37817,1.15421 10.11006,2.34455 10.11006,2.34455l-2,-14.66667v-3.83333l13.16667,1v17.66667c0,0 6.07677,-3.11853 11.6686,-3.08267c6.41238,0.04112 9.8314,3.24934 9.8314,3.24934l-2.33333,-18l9,-0.5z" data-paper-data="{&quot;index&quot;:null}" fill="#0024dd" stroke="#000000" stroke-width="1.5" stroke-linecap="round"/><path d="M254.90533,199.9088l8,-0.83333l1.83333,4.16667l-4,1l0.66667,9.16667l-4,0.5z" data-paper-data="{&quot;index&quot;:null}" fill="#001eb7" stroke="none" stroke-width="0" stroke-linecap="round"/><path d="M230.072,240.40881l-2.83333,1.5l-2.66667,-4.83333l-0.33333,-5.83333l0.83333,-5l4.5,0.66667z" data-paper-data="{&quot;index&quot;:null}" fill="#001eb7" stroke="none" stroke-width="0" stroke-linecap="round"/><path d="M235.072,204.07548l-7,0.5l-0.16667,12.5l-1.5,4.16667l-8.83333,1.16667l-2.33333,-7.16666l9.66667,2.16666l-2.16667,-18.5l5.32472,0.10931l7.67528,0.89069z" data-paper-data="{&quot;index&quot;:null}" fill="#001eb7" stroke="none" stroke-width="0" stroke-linecap="round"/><path d="M266.90533,236.74215l-3.66667,-0.5l-4,-10l5.83333,-1.16667z" data-paper-data="{&quot;index&quot;:null}" fill="#001eb7" stroke="none" stroke-width="0" stroke-linecap="round"/><path d="M230.072,240.07548l-0.66667,-13.16667l36.16667,-2l1.33333,11" data-paper-data="{&quot;index&quot;:null}" fill="none" stroke="#000000" stroke-width="3" stroke-linecap="round"/><path d="M224.07201,262.24215c0,0 -5.99755,1.07502 -8.59441,0.74668c-2.15264,-0.27218 -5.90559,-2.58002 -5.90559,-2.58002c0,0 -4.42232,-1.89038 -6.31416,-3.54573c-1.62205,-1.41929 -4.35251,-5.78761 -4.35251,-5.78761c0,0 -1.54295,-2.54336 -1.38635,-4.49766c0.21052,-2.62727 0.71968,-10.669 0.71968,-10.669l3.16667,-0.66667l4.33333,-4l1,4.16667l1.16667,7.16667l2.83333,6l6.83333,6.83333l5.83333,3l0.66667,2z" data-paper-data="{&quot;index&quot;:null}" fill="#001eb7" stroke="none" stroke-width="0" stroke-linecap="round"/><path d="M263.48866,217.74215c-0.78241,0 -1.41667,-0.63427 -1.41667,-1.41667c0,-0.78241 0.63427,-1.41667 1.41667,-1.41667c0.78241,0 1.41667,0.63427 1.41667,1.41667c0,0.78241 -0.63427,1.41667 -1.41667,1.41667z" data-paper-data="{&quot;index&quot;:null}" fill="#000000" stroke="#000000" stroke-width="3" stroke-linecap="butt"/><path d="M230.15534,220.90882c-0.7824,0 -1.41667,-0.63426 -1.41667,-1.41667c0,-0.78241 0.63426,-1.41667 1.41667,-1.41667c0.7824,0 1.41666,0.63426 1.41666,1.41667c0,0.78241 -0.63426,1.41667 -1.41666,1.41667z" data-paper-data="{&quot;index&quot;:null}" fill="#000000" stroke="#000000" stroke-width="3" stroke-linecap="butt"/><path d="M264.40533,200.90882l2.33334,10.83334l6.5,-0.33334l7.83333,28l-2.33333,11.83334l-7,5.33333h-10.16667l-7.5,-4.16667l-4.33333,-8.16666l-5,0.33333l-7.16667,11.66667l-8.83333,4.66666l-13.66667,2l-11.83333,-5.83333l-6.16667,-8.83333l2.83333,-16.83334l3.33333,-13l1.5,-8.33333c0,0 6.60399,3.36608 9.88994,4.48878c3.37817,1.15421 10.11006,2.34455 10.11006,2.34455l-2,-14.66666v-3.83334l13.16667,1v17.66667c0,0 6.07676,-3.11853 11.6686,-3.08267c6.41238,0.04112 9.8314,3.24934 9.8314,3.24934l-2.33334,-18l9,-0.5z" data-paper-data="{&quot;index&quot;:null}" fill="none" stroke="#000000" stroke-width="3" stroke-linecap="round"/><path d="M200.13082,216.81078c1.25405,0.75244 2.60784,3.76471 2.60784,3.76471l0.33333,12.16667l-3.33333,1l-2.16667,-7.16667l0.5,-2.66667l-0.16667,-3.5l-3.33333,-2.16666l0.50001,-2.83334c0,0 3.81293,0.65443 5.05882,1.40196z" data-paper-data="{&quot;index&quot;:null}" fill="#e5b780" stroke="none" stroke-width="0" stroke-linecap="round"/><g data-paper-data="{&quot;index&quot;:null}" stroke-linecap="round"><path d="M210.8351,238.11576l4.33333,2.5c0,0 1.15752,3.72699 -2.15957,5.22096c-3.76092,1.69387 -7.50709,-0.88762 -7.50709,-0.88762c0,0 -3.9579,2.75688 -5.91667,1.08333c-1.72589,-1.47458 -6.58333,-5.25 -6.58333,-5.25c0,0 -1.96343,0.20294 -3.36431,-0.57704c-0.94735,-0.52746 -1.27566,-2.04711 -1.9494,-2.30714c-1.48944,-0.57486 -4.22674,-0.798 -4.22674,-0.798c-8.45745,-1.94095 -5.79289,-11.98448 -5.79289,-11.98448c0,0 8.10233,-14.30683 27,-10.33333c22.44957,4.72034 10.66667,17.66667 10.66667,17.66667z" fill="#fdcc8d" stroke="#000000" stroke-width="3"/><path d="M177.66844,231.11577l-0.5,-3.33333l4,-7l6.66667,-4l10.5,-2.83333l14.33333,2.33333l-0.16667,2.5l-3.66667,-0.16667h-6h-6.5l-4,0.83334l-3.83333,1.5l-4.16667,2.83333l-2.33333,2.66667l-0.66667,5.5z" fill="#e5b780" stroke="none" stroke-width="0"/><path d="M205.66843,226.78244v2.16667l-6,7.5l1.83333,9.5l-5.16667,-3.16667c0,0 -2.2154,-2.66007 -2.24165,-4.18261c-0.02902,-1.68348 2.07499,-5.65072 2.07499,-5.65072l5.16667,-6.16667z" fill="#e5b780" stroke="none" stroke-width="0"/><path d="M214.16843,229.94911l-4.33333,5.16666l-1,3.5l0.83333,7l-3.83333,-0.66667c0,0 -0.60334,-3.03197 -0.76668,-4.36199c-0.21248,-1.73018 0.26667,-6.30468 0.26667,-6.30468l4.5,-5z" fill="#e5b780" stroke="none" stroke-width="0"/><path d="M187.33509,237.94912c0,0 1.81331,-1.15652 2.9466,-2.8079c0.63667,-0.92771 -1.31662,-2.42161 -0.16537,-4.28812c0.61287,-0.99365 -1.9728,-5.97974 0.61825,-7.43231c4.21889,-2.36515 7.60053,-2.47168 7.60053,-2.47168" fill="none" stroke="#000000" stroke-width="3"/><path d="M193.8351,240.61579c0,0 0.8243,-7.43743 4.05215,-10.42301c3.7495,-3.46807 7.28118,-4.57699 7.28118,-4.57699" fill="none" stroke="#000000" stroke-width="3"/><path d="M205.50177,243.94912c0,0 -2.75856,-6.28267 0.30027,-9.93175c3.90331,-4.65652 7.53306,-5.40159 7.53306,-5.40159" fill="none" stroke="#000000" stroke-width="3"/><path d="M210.8351,238.11576l4.33333,2.5c0,0 1.15752,3.72699 -2.15957,5.22096c-3.76092,1.69387 -7.50709,-0.88762 -7.50709,-0.88762c0,0 -3.9579,2.75688 -5.91667,1.08333c-1.72589,-1.47458 -6.58333,-5.25 -6.58333,-5.25c0,0 -1.96343,0.20294 -3.36431,-0.57704c-0.94735,-0.52746 -1.27566,-2.04711 -1.9494,-2.30714c-1.48944,-0.57486 -4.22674,-0.798 -4.22674,-0.798c-8.45745,-1.94095 -5.79289,-11.98448 -5.79289,-11.98448c0,0 8.10233,-14.30683 27,-10.33333c22.44957,4.72034 10.66667,17.66667 10.66667,17.66667z" fill="none" stroke="#000000" stroke-width="2"/></g><path d="M303.19433,214.24105v-48.33333h9.33333v48.33333z" fill="#000000" stroke="none" stroke-width="none" stroke-linecap="butt"/><path d="M302.52766,189.57438v-26.33333h45.33333v26.33333z" fill="#000000" stroke="none" stroke-width="0" stroke-linecap="butt"/><g data-paper-data="{&quot;index&quot;:null}" stroke-linecap="round"><path d="M313.64432,224.41179c0,0 -2.49966,17.32616 -20.41771,3.00107c-15.08311,-12.05863 -9.19307,-27.40922 -9.19307,-27.40922c0,0 6.0573,-8.44283 12.93312,-3.14955c0,0 1.91277,1.97076 3.30353,2.75478c0.6291,0.35465 2.01073,-0.35825 3.02021,0.03752c1.49276,0.58524 2.58461,2.22966 2.58461,2.22966c0,0 6.00255,1.34832 8.23806,1.74273c2.53716,0.44763 2.92609,5.25534 2.92609,5.25534c0,0 4.37445,1.24982 5.45856,5.22957c0.95617,3.51009 -2.65635,4.98658 -2.65635,4.98658l-4.68491,-1.75481z" fill="#fdcc8d" stroke="#000000" stroke-width="3"/><path d="M291.63902,198.4885l-3.82099,4.01179l-0.57446,3.49651l0.46267,5.01745l1.27978,3.91236l1.90029,3.61709l4.13312,5.0167l3.81519,4.6308l2.46014,2.72396l-1.82352,1.7183l-10.91492,-9.57879l-4.48981,-9.90552l-1.1519,-7.6888l2.85915,-7.53825l2.8906,-1.73365z" fill="#e5b780" stroke="none" stroke-width="0"/><path d="M300.36867,217.20981l1.47414,-7.90881c0,0 1.72405,-4.1465 3.04182,-5.19457c1.19179,-0.94787 4.65353,-0.92947 4.65353,-0.92947l5.72934,1.97407l-8.49786,4.62575l-1.97332,9.39979l-1.67224,1.37771z" fill="#e5b780" stroke="none" stroke-width="0"/><path d="M307.70301,222.18046l0.99761,-6.65243c0,0 3.22593,-3.27857 4.69639,-4.21474c1.13037,-0.71965 3.85409,-2.18191 3.85409,-2.18191l2.95201,2.53465l-5.93249,3.80789l-2.06544,2.99733l-1.23222,6.62976z" fill="#e5b780" stroke="none" stroke-width="0"/><path d="M293.95891,218.60362c0,0 -2.06804,-2.67769 -2.92526,-7.43775c-0.52646,-2.92341 4.96594,-4.09827 5.34314,-5.20311c0.70853,-2.07538 3.10356,-1.51775 3.41473,-2.59903c0.55392,-1.92473 0.2935,-4.05963 0.2935,-4.05963" fill="none" stroke="#000000" stroke-width="3"/><path d="M301.90573,220.91021c0,0 -1.3898,-3.43088 -1.09732,-8.52997c0.2518,-4.38968 5.46787,-9.75507 5.46787,-9.75507" fill="none" stroke="#000000" stroke-width="3"/><path d="M309.41402,225.30567c0,0 -1.73298,-3.27521 -0.62105,-9.2487c0.87136,-4.68113 7.4744,-6.547 7.4744,-6.547" fill="none" stroke="#000000" stroke-width="3"/><path d="M313.64432,224.41179c0,0 -2.49966,17.32616 -20.41771,3.00107c-15.08311,-12.05863 -9.19307,-27.40922 -9.19307,-27.40922c0,0 6.0573,-8.44283 12.93312,-3.14955c0,0 1.91277,1.97076 3.30353,2.75478c0.6291,0.35465 2.01073,-0.35825 3.02021,0.03752c1.49276,0.58524 2.58461,2.22966 2.58461,2.22966c0,0 6.00255,1.34832 8.23806,1.74273c2.53716,0.44763 2.92609,5.25534 2.92609,5.25534c0,0 4.37445,1.24982 5.45856,5.22957c0.95617,3.51009 -2.65635,4.98658 -2.65635,4.98658l-4.68491,-1.75481z" fill="none" stroke="#000000" stroke-width="2"/></g></g></g></svg>