<svg version="1.1" xmlns="http://www.w3.org/2000/svg" xmlns:xlink="http://www.w3.org/1999/xlink" width="357.82233" height="199.86934" viewBox="0,0,357.82233,199.86934"><g transform="translate(-139.58883,-80.06533)"><g data-paper-data="{&quot;isPaintingLayer&quot;:true}" fill-rule="nonzero" stroke-linejoin="miter" stroke-miterlimit="10" stroke-dasharray="" stroke-dashoffset="0" style="mix-blend-mode: normal"><g stroke="#000000"><g stroke-linecap="butt"><path d="M446.26251,216.3496l14.94628,-52.12601l33.72859,9.67112l-14.94628,52.12601z" fill="#8a8a8a" stroke-width="4"/><path d="M454.4211,206.61586l10.43741,-36.40112l24.1391,6.92149l-10.43742,36.40112z" fill="#006bff" stroke-width="3"/><path d="M467.5044,216.50979c-0.46564,1.62397 -2.15964,2.56298 -3.78361,2.09734c-1.62397,-0.46564 -2.56297,-2.15963 -2.09733,-3.7836c0.46564,-1.62397 2.15962,-2.56297 3.78359,-2.09733c1.62397,0.46564 2.56299,2.15962 2.09735,3.78359z" fill="#8a8a8a" stroke-width="2"/></g><path d="M465.26731,210.44636l0.31064,-0.27769l5.79024,-11.07805l4.22067,-9.60786c0,0 7.75118,0.19651 10.55432,1.03699c2.15619,0.64651 4.83879,3.57842 4.83879,3.57842c0,0 3.19209,1.57182 3.29139,2.53169c0.14406,1.39242 -2.51021,5.01912 -2.51021,5.01912l-11.27791,2.83879l12.54934,4.8103c0,0 1.83726,1.86952 1.46127,2.78991c-0.44629,1.09248 -3.96441,3.33764 -3.96441,3.33764l-12.20816,-0.15239l5.63674,3.67963c0,0 0.58885,1.87901 0.40478,2.62703c-0.2524,1.02574 -1.78002,2.96169 -1.78002,2.96169c0,0 -6.96863,1.78211 -11.10013,1.71134c-4.62214,-0.07919 -15.32632,-2.16408 -15.32632,-2.16408c0,0 -9.3881,-2.55905 -12.62356,-4.58423c-2.92563,-1.83125 -5.95339,-7.04372 -5.95339,-7.04372c0,0 0.86299,-12.1521 2.19419,-17.6952c1.23154,-5.12813 5.51732,-14.41547 5.51732,-14.41547c0,0 12.20359,-1.81374 16.52539,-1.03437c4.11693,0.74242 8.82064,5.60508 8.82064,5.60508c0,0 2.56903,5.32817 1.91666,8.03172c-0.81668,3.38455 -6.43547,10.69541 -6.43547,10.69541c0,0 -3.02165,1.51849 -4.77806,1.59125c-1.75741,0.07281 -5.71424,-1.39969 -5.71424,-1.39969l1.8677,-10.58946l-4.07271,7.59773c0,0 -6.26789,2.75224 -7.70285,3.3173c-1.4255,0.56134 7.8497,-2.77792 7.8497,-2.77792" fill="#fdcc8d" stroke-width="4" stroke-linecap="round"/></g><g><path d="M275.38677,249.76315l-35.91829,2.57095c0,0 0.7271,10.22226 -0.60104,14.14503c-1.25087,3.69455 -5.17932,8.69377 -5.17932,8.69377c0,0 -11.77172,2.88488 -17.21036,2.75768c-4.85455,-0.11353 -13.8687,-3.48452 -13.8687,-3.48452c0,0 -7.60154,-4.42579 -9.55833,-10.68684c-2.71135,-8.67531 -0.02341,-20.72443 0.02675,-28.06487c0.07561,-11.06779 10.02181,-32.99289 10.02181,-32.99289l75.69071,-3.92942l2.93461,17.06084c0,0 -1.88205,0.13955 -2.94742,0.2128c-1.06694,0.07335 -3.44949,0.227 -3.44949,0.227l-3.81832,-13.34448l6.96191,-2.30137c0,0 0.00927,5.70344 0.75442,8.77499c0.73768,3.04073 3.69433,9.56277 3.69433,9.56277c0,0 -1.44386,3.60373 -0.7657,8.46164c1.1225,8.04091 9.53753,18.774 9.78895,23.82141c0.10521,2.11222 0.81454,4.63687 2.29082,7.13479c1.78973,3.02831 -0.51334,6.69912 -0.51334,6.69912c0,0 -1.85161,3.38926 -5.36089,4.87642c-2.42919,1.02945 -6.29434,2.71077 -8.03895,2.95262c-2.34674,0.32531 -6.49598,-0.73198 -9.92012,-1.59635c-3.99563,-1.00865 -7.19394,-4.33791 -7.19394,-4.33791l-6.97455,-14.5762" fill="#0024dd" stroke="#000000" stroke-width="4" stroke-linecap="round"/><path d="M219.81975,205.66954l1.51476,19.20967c0,0 -8.67797,-1.51248 -12.46703,-2.46755c-4.05346,-1.02172 -11.11413,-3.47631 -11.11413,-3.47631l5.67187,-17.82518z" fill="#fa0000" stroke="#000000" stroke-width="4" stroke-linecap="round"/><path d="M256.44071,201.76065c0,0 1.38205,5.049 2.19526,7.73802c1.03231,3.41349 3.49958,11.09288 3.49958,11.09288c0,0 -10.22437,-5.95459 -14.7154,-5.78603c-4.28176,0.16072 -11.63291,6.77499 -11.63291,6.77499c0,0 -1.47444,-7.33398 -1.68983,-10.435c-0.18963,-2.73004 0.46492,-7.20034 0.46492,-7.20034z" fill="#fa0000" stroke="#000000" stroke-width="4" stroke-linecap="round"/><path d="M232.8106,247.77046l-4.23116,-10.43223l46.21994,-4.43682l-1.18049,10.84491" fill="none" stroke="#000000" stroke-width="4" stroke-linecap="round"/><path d="M230.04978,228.06765c-0.04006,-1.45537 1.03026,-2.66553 2.3906,-2.70298c1.36034,-0.03744 2.49561,1.11201 2.53567,2.56737c0.04006,1.45537 -1.03025,2.66554 -2.3906,2.70298c-1.36034,0.03744 -2.49561,-1.11201 -2.53567,-2.56738z" fill="#000000" stroke="none" stroke-width="0.5" stroke-linecap="butt"/><path d="M268.35142,222.53019c-0.04006,-1.45537 1.03026,-2.66554 2.3906,-2.70298c1.36034,-0.03744 2.49561,1.11201 2.53567,2.56738c0.04006,1.45537 -1.03026,2.66553 -2.3906,2.70297c-1.36034,0.03744 -2.49561,-1.11201 -2.53567,-2.56737z" fill="#000000" stroke="none" stroke-width="0.5" stroke-linecap="butt"/><path d="M277.37738,201.18436l4.60078,14.90526l-7.15036,-0.0669l-3.09388,-13.89186z" fill="#fa0000" stroke="#000000" stroke-width="4" stroke-linecap="round"/></g><g fill="#fdcd8e" stroke="#000000" stroke-width="4" stroke-linecap="round"><path d="M145.68205,205.18691c0,0 15.84824,-5.99582 23.42729,-5.67622c7.14529,0.30131 20.82247,7.54218 20.82247,7.54218c0,0 3.08233,9.7546 1.61705,13.94781c-1.06822,3.05695 -6.80144,0.53542 -6.84142,2.03471c-0.04749,1.7811 4.69124,4.00984 4.69124,4.00984c0,0 1.83714,4.92063 1.39816,6.33511c-0.25308,0.81547 -3.79725,1.39528 -3.79725,1.39528c0,0 -5.78621,1.96622 -9.07058,1.87979c-3.45951,-0.09104 -11.18835,-2.41292 -11.18835,-2.41292l2.13252,-13.32824l-2.39908,13.86137c0,0 -5.19357,0.21335 -7.48447,-0.12785c-1.71836,-0.25592 -5.04407,-1.7381 -5.04407,-1.7381l2.13252,-14.3945l-2.93221,14.66107c0,0 -4.0896,0.44343 -6.00043,-0.26758c-1.90993,-0.71067 -5.46186,-3.99746 -5.46186,-3.99746c0,0 0.90743,-8.5473 1.59373,-12.61936c0.64381,-3.81991 2.40475,-11.10492 2.40475,-11.10492z"/><path d="M179.5358,210.78476l2.93221,10.39603l0.53313,9.06321"/></g><g><g stroke="#000000"><g><g><path d="M295.53152,154.39647c0,0 -2.85246,4.58548 -2.77339,7.32468c0.08686,3.00874 3.77339,9.99513 3.77339,9.99513c0,0 5.28285,5.04751 5.43793,7.81473c0.08843,1.57814 -0.81739,7.94455 -4.22193,12.31471c-3.35863,4.31125 -9.216,6.63754 -9.216,6.63754c0,0 -41.25276,7.51851 -60.02495,7.14138c-15.38098,-0.309 -44.47506,-9.24075 -44.47506,-9.24075c0,0 -8.24863,-9.3177 -8.71778,-15.15689c-0.64226,-7.99366 5.21778,-28.40506 5.21778,-28.40506" fill="#fdcc8d" stroke-width="4" stroke-linecap="round"/><path d="M302.03154,96.82196c0,0 6.5277,7.73471 6.8275,12.98128c0.17176,3.0059 1.49995,12.87165 -5.46743,17.11056c-7.50841,4.56807 -23.36007,3.40816 -23.36007,3.40816c0,0 13.25108,-0.91392 23.70036,1.6986c8.19387,2.04862 14.08726,7.42096 14.38634,9.36498c0.6516,4.23538 -15.0867,12.93642 -15.0867,12.93642c0,0 -36.6036,-0.63344 -58.02162,-1.25425c-24.2334,-0.70242 -79.97839,-2.74575 -79.97839,-2.74575c0,0 -0.89609,-12.67149 0.26238,-16.06965c0.63647,-1.86699 6.61555,-5.34731 14.71017,-5.86198c8.69704,-0.55297 19.52744,1.93162 19.52744,1.93162c0,0 -10.94772,-2.14441 -19.85458,-4.81929c-5.68737,-1.70802 -10.54263,-3.63232 -11.18413,-5.35271c-1.96409,-5.26732 1.03871,-22.828 1.03871,-22.828c0,0 6.28357,-7.20081 17.94935,-10.67029c13.73272,-4.0842 33.95946,-4.54069 46.05345,-4.58633c11.02742,-0.04162 28.94361,0.24053 43.45426,3.98571c14.15362,3.65304 25.04293,10.7709 25.04293,10.7709z" fill="#0cb500" stroke-width="4" stroke-linecap="round"/><g><path d="M238.53151,152.82194c0,0 -0.02524,7.47104 -0.97647,9.80588c-0.87587,2.14987 -3.02353,10.19412 -3.02353,10.19412c0,0 -16.90504,4.64032 -24.96742,4.46878c-7.57371,-0.16115 -22.03258,-6.46878 -22.03258,-6.46878c0,0 -2.83334,-8.16666 -3.5,-10.5c-0.66666,-2.33334 -0.5,-9 -0.5,-9z" fill="#ffffff" stroke-width="4" stroke-linecap="round"/><path d="M226.28151,162.32194c0,-2.07107 1.67893,-3.75 3.75,-3.75c2.07107,0 3.75,1.67893 3.75,3.75c0,2.07107 -1.67893,3.75 -3.75,3.75c-2.07107,0 -3.75,-1.67893 -3.75,-3.75z" fill="none" stroke-width="1.5" stroke-linecap="butt"/></g><g><path d="M287.53151,154.82194l-4,14c0,0 -11.80567,2.82716 -17.01611,2.99257c-5.2884,0.16789 -16.98389,-3.99257 -16.98389,-3.99257l-5,-13.5z" fill="#ffffff" stroke-width="4" stroke-linecap="round"/><path d="M276.28151,161.32194c0,-2.07107 1.67893,-3.75 3.75,-3.75c2.07107,0 3.75,1.67893 3.75,3.75c0,2.07107 -1.67893,3.75 -3.75,3.75c-2.07107,0 -3.75,-1.67893 -3.75,-3.75z" fill="none" stroke-width="1.5" stroke-linecap="butt"/></g></g><path d="M234.22479,140.86956l3.94479,7.31718c0,0 -0.71608,0.33129 -1.60967,0.12076c-4.448,-1.04796 -29.48302,-28.49653 -29.48302,-28.49653" fill="none" stroke-width="4" stroke-linecap="round"/><path d="M278.98982,120.41097c0,0 -18.43863,26.18535 -22.94898,27.5295c-1.29666,0.38642 -3.25415,0.24627 -3.25415,0.24627l3.25859,-4.9965" fill="none" stroke-width="4" stroke-linecap="round"/></g><path d="M239.75086,134.37573c0,0 1.87279,2.87315 2.12601,4.51907c0.27783,1.80589 -0.52601,5.88093 -0.52601,5.88093" fill="none" stroke-width="4" stroke-linecap="round"/><path d="M248.95086,142.57574c0,0 -1.3087,-2.65655 -1.5104,-3.96763c-0.19824,-1.28853 0.3104,-3.83237 0.3104,-3.83237" fill="none" stroke-width="4" stroke-linecap="round"/></g><g stroke="#000000"><g data-paper-data="{&quot;index&quot;:null}" fill="#ffffff" stroke-width="4" stroke-linecap="butt"><path d="M242.40585,193.09431c-7.76283,1.17617 -18.01498,4.37447 -18.01498,4.37447c0,0 -9.57203,-2.75751 -14.23488,-3.20633c-3.98007,-0.3831 -12.01956,0.67922 -12.01956,0.67922c0,0 -5.65891,-2.80063 -6.20446,-4.14669c-0.61568,-1.5191 2.69525,-4.51172 2.69525,-4.51172c0,0 10.99052,-4.8496 18.61521,-4.26849c7.01119,0.53435 19.63916,8.67681 32.78818,9.93018c3.44362,0.32825 6.81527,0.48197 9.92723,0.52888c-5.09114,0.32139 -10.71853,0.19118 -13.55199,0.62049z"/><path d="M255.95784,192.47382c0.33812,-0.02134 0.67387,-0.04468 1.00628,-0.07031c0.23692,-0.01826 0.47815,-0.03553 0.72292,-0.05185c0.00802,0.0459 0.01594,0.09183 0.02376,0.13782c-0.57398,-0.00164 -1.15874,-0.0067 -1.75296,-0.01566z"/></g><path d="M193.90651,192.32299l4.5,-4.20336l2.25,2.36439l2.75,-1.83897l5.5,1.83897" fill="none" stroke-width="2" stroke-linecap="round"/></g><path d="M230.54185,162.6445c0,-0.82843 0.67157,-1.5 1.5,-1.5c0.82843,0 1.5,0.67157 1.5,1.5c0,0.82843 -0.67157,1.5 -1.5,1.5c-0.82843,0 -1.5,-0.67157 -1.5,-1.5z" fill="#000000" stroke="none" stroke-width="0.5" stroke-linecap="butt"/><path d="M280.54185,161.4445c0,-0.82843 0.67157,-1.5 1.5,-1.5c0.82843,0 1.5,0.67157 1.5,1.5c0,0.82843 -0.67157,1.5 -1.5,1.5c-0.82843,0 -1.5,-0.67157 -1.5,-1.5z" fill="#000000" stroke="none" stroke-width="0.5" stroke-linecap="butt"/><path d="M223.04186,165.6445c0,0 -1.4,-2.38952 -1.4,-3.4c0,-0.81283 1.4,-2.2 1.4,-2.2" fill="none" stroke="#000000" stroke-width="1" stroke-linecap="round"/><path d="M273.64186,163.84451c0,0 -0.6671,-1.61041 -0.70052,-2.41248c-0.03325,-0.79791 0.50052,-2.38753 0.50052,-2.38753" fill="none" stroke="#000000" stroke-width="1" stroke-linecap="round"/></g></g></g></svg>