<svg version="1.1" xmlns="http://www.w3.org/2000/svg" xmlns:xlink="http://www.w3.org/1999/xlink" width="231.36438" height="104.89515" viewBox="0,0,231.36438,104.89515"><g transform="translate(-65,-124.79983)"><g data-paper-data="{&quot;isPaintingLayer&quot;:true}" fill-rule="nonzero" stroke="#000000" stroke-linecap="butt" stroke-linejoin="miter" stroke-miterlimit="10" stroke-dasharray="" stroke-dashoffset="0" style="mix-blend-mode: normal"><path d="M65.5,186.83333v-3h197.33333v3z" fill="#ff0000" stroke-width="1"/><path d="M290.2628,198.35821c-10.61561,24.99297 -41.4738,35.80216 -68.92371,24.14298c-2.10226,-0.89292 -4.12357,-1.89173 -6.05922,-2.98621c3.97719,-2.55093 7.47608,-6.0117 11.49694,-8.47532c5.76724,-3.53365 15.16057,-5.39209 19.48479,-11.12027c8.46874,-11.2183 3.40488,-22.1345 -4.72742,-32.52891c-3.12861,-3.99887 -5.02799,-9.20696 -8.25336,-12.95852c-3.43642,-3.99704 -6.4025,-7.94652 -9.2832,-12.47321c-1.88276,-2.95855 -4.32809,-7.20936 -7.23358,-10.79401c12.9464,-5.21833 28.46119,-5.35384 43.01755,0.82889c27.44991,11.65917 41.09681,41.37161 30.4812,66.36458z" fill="#ffffff" stroke-width="5"/><path d="" fill="#ffffff" stroke-width="5"/><path d="M241.96442,144.5255c-1.6913,3.98193 -5.74092,6.07223 -9.04507,4.66881c-3.30416,-1.40342 -4.61163,-5.76911 -2.92033,-9.75104c1.6913,-3.98193 5.74092,-6.07223 9.04507,-4.66881c3.30416,1.40342 4.61163,5.76911 2.92033,9.75104z" fill="none" stroke-width="5"/><path d="M259.86538,164.62317c-2.01517,4.74443 -6.67073,7.30699 -10.3985,5.72365c-3.72777,-1.58334 -5.1161,-6.71302 -3.10094,-11.45745c2.01517,-4.74443 6.67073,-7.30699 10.3985,-5.72365c3.72777,1.58334 5.1161,6.71302 3.10094,11.45745z" fill="none" stroke-width="5"/></g></g></svg>