<?xml version="1.0" encoding="utf-8"?>
<!-- Generator: Adobe Illustrator 16.0.0, SVG Export Plug-In . SVG Version: 6.00 Build 0)  -->
<!DOCTYPE svg PUBLIC "-//W3C//DTD SVG 1.1//EN" "http://www.w3.org/Graphics/SVG/1.1/DTD/svg11.dtd">
<svg version="1.1" id="Layer_1" xmlns="http://www.w3.org/2000/svg" xmlns:xlink="http://www.w3.org/1999/xlink" x="0px" y="0px"
	 width="100px" height="100px" viewBox="0 0 100 100" enable-background="new 0 0 100 100" xml:space="preserve">
<g>
	<path fill="#D2D7D5" d="M48.605,93.732c-0.091-0.003-0.182-0.006-0.272-0.009C48.424,93.727,48.515,93.729,48.605,93.732z"/>
	<path fill="#D2D7D5" d="M49.048,93.741c-0.097,0-0.192-0.003-0.289-0.005C48.855,93.738,48.951,93.741,49.048,93.741z"/>
	<path fill="#D2D7D5" d="M48.183,93.718c-0.099-0.003-0.196-0.009-0.293-0.012C47.987,93.709,48.084,93.715,48.183,93.718z"/>
	<path fill="#D2D7D5" d="M45.119,93.464c-0.094-0.011-0.188-0.022-0.28-0.037C44.932,93.441,45.025,93.453,45.119,93.464z"/>
	<path fill="#D2D7D5" d="M44.311,93.351c-0.08-0.013-0.16-0.024-0.239-0.039C44.151,93.326,44.231,93.338,44.311,93.351z"/>
	<path fill="#D2D7D5" d="M44.698,93.408c-0.081-0.013-0.161-0.024-0.241-0.036C44.537,93.384,44.618,93.396,44.698,93.408z"/>
	<path fill="#D2D7D5" d="M43.936,93.288c-0.096-0.016-0.191-0.031-0.288-0.049C43.745,93.257,43.84,93.272,43.936,93.288z"/>
	<path fill="#D2D7D5" d="M43.57,93.225c-0.119-0.02-0.238-0.043-0.355-0.065C43.332,93.182,43.452,93.205,43.57,93.225z"/>
	<path fill="#D2D7D5" d="M49.604,93.747c-0.141,0-0.282-0.002-0.423-0.003C49.322,93.745,49.464,93.747,49.604,93.747z"/>
	<path fill="#D2D7D5" d="M47.768,93.7c-0.137-0.007-0.273-0.014-0.409-0.022C47.495,93.687,47.631,93.693,47.768,93.7z"/>
	<path fill="#D2D7D5" d="M47.291,93.672c-0.112-0.006-0.224-0.015-0.336-0.021C47.066,93.657,47.178,93.666,47.291,93.672z"/>
	<path fill="#D2D7D5" d="M46.815,93.64c-0.089-0.009-0.177-0.014-0.265-0.022C46.638,93.626,46.726,93.631,46.815,93.64z"/>
	<path fill="#D2D7D5" d="M46.399,93.604c-0.086-0.007-0.172-0.016-0.258-0.022C46.227,93.588,46.313,93.597,46.399,93.604z"/>
	<path fill="#D2D7D5" d="M45.605,93.524c-0.129-0.014-0.256-0.03-0.384-0.046C45.349,93.494,45.477,93.511,45.605,93.524z"/>
	<path fill="#D2D7D5" d="M45.999,93.565c-0.096-0.009-0.193-0.02-0.289-0.03C45.806,93.546,45.902,93.557,45.999,93.565z"/>
	<path fill="#D2D7D5" d="M55.09,93.32c-0.118,0.019-0.239,0.037-0.36,0.055C54.851,93.357,54.972,93.339,55.09,93.32z"/>
	<path fill="#D2D7D5" d="M54.666,93.385c-0.138,0.021-0.279,0.042-0.42,0.06C54.387,93.427,54.528,93.406,54.666,93.385z"/>
	<path fill="#D2D7D5" d="M53.156,93.571c-0.121,0.011-0.242,0.024-0.364,0.034C52.914,93.596,53.035,93.582,53.156,93.571z"/>
	<path fill="#D2D7D5" d="M56.026,93.153c-0.133,0.025-0.265,0.049-0.399,0.074C55.762,93.202,55.894,93.179,56.026,93.153z"/>
	<path fill="#D2D7D5" d="M55.56,93.239c-0.115,0.021-0.23,0.041-0.349,0.061C55.329,93.28,55.444,93.26,55.56,93.239z"/>
	<path fill="#D2D7D5" d="M53.677,93.516c-0.144,0.017-0.288,0.032-0.433,0.047C53.389,93.548,53.533,93.532,53.677,93.516z"/>
	<path fill="#D2D7D5" d="M43.099,93.136c-0.081-0.016-0.161-0.031-0.241-0.049C42.938,93.104,43.019,93.12,43.099,93.136z"/>
	<path fill="#D2D7D5" d="M54.126,93.46c-0.111,0.016-0.223,0.028-0.335,0.042C53.903,93.488,54.015,93.476,54.126,93.46z"/>
	<path fill="#D2D7D5" d="M50.08,93.744c-0.157,0-0.315,0.003-0.476,0.003C49.765,93.747,49.923,93.744,50.08,93.744z"/>
	<path fill="#D2D7D5" d="M51.154,93.714c-0.153,0.007-0.307,0.013-0.462,0.016C50.848,93.727,51.001,93.721,51.154,93.714z"/>
	<path fill="#D2D7D5" d="M51.63,93.689c-0.121,0.007-0.243,0.014-0.366,0.02C51.387,93.703,51.509,93.696,51.63,93.689z"/>
	<path fill="#D2D7D5" d="M52.663,93.617c-0.137,0.012-0.273,0.022-0.411,0.033C52.39,93.64,52.526,93.629,52.663,93.617z"/>
	<path fill="#D2D7D5" d="M57.32,92.865c-0.104,0.025-0.209,0.052-0.314,0.076C57.111,92.917,57.217,92.891,57.32,92.865z"/>
	<path fill="#D2D7D5" d="M56.935,92.959c-0.127,0.029-0.256,0.058-0.385,0.086C56.679,93.017,56.808,92.988,56.935,92.959z"/>
	<path fill="#D2D7D5" d="M56.444,93.066c-0.101,0.021-0.205,0.043-0.307,0.063C56.239,93.109,56.344,93.088,56.444,93.066z"/>
	<path fill="#D2D7D5" d="M50.594,93.732c-0.127,0.003-0.254,0.006-0.382,0.009C50.34,93.738,50.467,93.735,50.594,93.732z"/>
	<path fill="#D2D7D5" d="M52.21,93.653c-0.15,0.01-0.301,0.021-0.453,0.03C51.909,93.675,52.06,93.663,52.21,93.653z"/>
	<path fill="#D2D7D5" d="M42.368,92.98c-0.075-0.018-0.149-0.035-0.224-0.052C42.219,92.945,42.293,92.963,42.368,92.98z"/>
	<path fill="#D2D7D5" d="M42.722,93.058c-0.073-0.016-0.146-0.031-0.219-0.047C42.576,93.026,42.649,93.042,42.722,93.058z"/>
	<path fill="#D2D7D5" d="M42.023,92.899c-0.102-0.026-0.202-0.051-0.302-0.076C41.821,92.849,41.922,92.873,42.023,92.899z"/>
	<path fill="#D2D7D5" d="M41.25,92.697c-0.071-0.02-0.142-0.04-0.211-0.06C41.108,92.657,41.179,92.678,41.25,92.697z"/>
	<path fill="#D2D7D5" d="M41.671,92.811c-0.103-0.026-0.206-0.054-0.308-0.081C41.465,92.757,41.568,92.784,41.671,92.811z"/>
	<path fill="#D2D7D5" d="M39.931,92.284c-0.08-0.028-0.16-0.056-0.238-0.085C39.771,92.229,39.851,92.256,39.931,92.284z"/>
	<path fill="#D2D7D5" d="M40.594,92.505c-0.07-0.023-0.139-0.045-0.208-0.068C40.455,92.46,40.524,92.481,40.594,92.505z"/>
	<path fill="#D2D7D5" d="M40.285,92.405c-0.1-0.033-0.199-0.066-0.297-0.101C40.086,92.339,40.185,92.372,40.285,92.405z"/>
	<path fill="#D2D7D5" d="M40.914,92.602c-0.067-0.021-0.133-0.041-0.198-0.06C40.78,92.561,40.847,92.581,40.914,92.602z"/>
</g>
<g>
	<path d="M55.392,51.603c0,1.674-1.356,3.03-3.031,3.03h-6.562c-1.675,0-3.032-1.356-3.032-3.03v-3.678
		c0-1.676,1.356-3.032,3.032-3.032h6.562c1.675,0,3.031,1.356,3.031,3.032V51.603z"/>
	<g>
		<path fill="#FFFFFF" d="M32.118,54.053c-0.546,0.003-0.981,0.44-0.984,0.984v8.607c0.003,0.543,0.438,0.98,0.981,0.983h33.926
			c0.544-0.003,0.983-0.441,0.983-0.98v-8.611c0-0.541-0.439-0.98-0.981-0.981L32.118,54.053z"/>
		<path d="M66.045,49.951l-33.93-0.001c-2.809,0.003-5.084,2.274-5.086,5.083l0.001,8.614c0,2.808,2.275,5.082,5.084,5.084
			l33.928,0.002c2.81-0.003,5.082-2.278,5.082-5.086v-8.614C71.125,52.226,68.851,49.953,66.045,49.951z M67.024,55.036v8.611
			c0,0.539-0.439,0.978-0.983,0.98H32.115c-0.544-0.003-0.979-0.44-0.981-0.983v-8.607c0.003-0.544,0.438-0.981,0.984-0.984
			l33.925,0.002C66.585,54.056,67.024,54.495,67.024,55.036z"/>
	</g>
	<g>
		<path fill="#FFFFFF" d="M15.423,62.86c-0.548,0.002-0.981,0.436-0.983,0.981v25.487c0.001,0.544,0.438,0.981,0.981,0.981
			l67.315,0.001c0.517,0,0.944-0.402,0.981-0.917l0.002-25.55c-0.002-0.547-0.441-0.982-0.98-0.983L15.423,62.86z"/>
		<path d="M82.739,58.759l-67.318-0.003c-2.809,0.004-5.084,2.276-5.084,5.085v25.49c0,2.809,2.276,5.084,5.084,5.084h67.318
			c2.808,0,5.082-2.275,5.082-5.084v-25.49C87.821,61.032,85.547,58.76,82.739,58.759z M83.72,63.845l-0.002,25.55
			c-0.037,0.515-0.465,0.917-0.981,0.917l-67.315-0.001c-0.544,0-0.98-0.438-0.981-0.981V63.842
			c0.002-0.546,0.436-0.979,0.983-0.981l67.316,0.001C83.278,62.862,83.718,63.298,83.72,63.845z"/>
	</g>
	<path d="M81.485,87.204c0,0.645-0.521,1.166-1.165,1.166H17.836c-0.643,0-1.163-0.521-1.163-1.166V70.646
		c0-0.642,0.521-1.164,1.163-1.164H80.32c0.645,0,1.165,0.522,1.165,1.164V87.204z"/>
	<g>
		<path d="M39.705,29.126c0,10.585,4.196,13.912,9.374,13.912c5.179,0,9.375-3.327,9.375-13.912c0-10.585-9.375-24.418-9.375-24.418
			S39.705,18.541,39.705,29.126z"/>
		<path fill="#FFFFFF" d="M44.229,34.896c0,7.165,2.171,9.418,4.851,9.418c2.678,0,4.85-2.253,4.85-9.418
			c0-7.163-4.85-16.521-4.85-16.521S44.229,27.733,44.229,34.896z"/>
		<path d="M48.998,45.99c-0.67-0.01-1.207-0.561-1.197-1.229l0,0l0.132-9.63c0.008-0.671,0.558-1.206,1.227-1.197l0,0
			c0.671,0.01,1.208,0.56,1.198,1.23l0,0l-0.133,9.63c-0.009,0.663-0.548,1.197-1.209,1.197l0,0
			C49.009,45.99,49.003,45.99,48.998,45.99L48.998,45.99z"/>
	</g>
</g>
</svg>
