<svg version="1.1" xmlns="http://www.w3.org/2000/svg" xmlns:xlink="http://www.w3.org/1999/xlink" width="70.70159" height="54.26181" viewBox="0,0,70.70159,54.26181"><g transform="translate(-204.95257,-152.86752)"><g data-paper-data="{&quot;isPaintingLayer&quot;:true}" fill-rule="nonzero" stroke-linecap="butt" stroke-linejoin="miter" stroke-miterlimit="10" stroke-dasharray="" stroke-dashoffset="0" style="mix-blend-mode: normal"><g><path d="M205.95971,173.63673l57.66519,-0.41284l0.09207,12.86004l-57.66519,0.41284z" fill="#8e5c08" stroke="#000000" stroke-width="2"/><path d="M250.36674,154.11193l23.67127,25.56054l-11.20335,5.95534l-23.67127,-25.56054z" fill="#8e5c08" stroke="#000000" stroke-width="2"/><path d="M239.44995,200.09374l23.30288,-25.89684l11.28747,5.79433l-23.30288,25.89684z" data-paper-data="{&quot;index&quot;:null}" fill="#8e5c08" stroke="#000000" stroke-width="2"/><path d="M264.08505,172.51145c2.56697,0.39425 4.5388,2.43187 6.04607,3.85884c2.07412,1.96363 4.40949,4.27446 -0.88079,5.62353c-1.41757,0.3615 -3.38835,-1.74826 -4.06533,-2.39317c-0.11988,-0.11421 -1.32751,-1.36988 -1.34758,-1.33527c-0.08395,0.14477 -0.09771,0.32567 -0.1201,0.49925c-0.39243,1.0182 -1.63058,1.76745 -3.1026,1.77799c-1.79488,0.01285 -3.2578,-1.07746 -3.26752,-2.43527c-0.00043,-0.06034 0.00201,-0.12019 0.00724,-0.17947c-1.67597,-2.90416 0.8975,-6.31232 6.73061,-5.41643z" fill="#8e5c08" stroke="none" stroke-width="0.5"/></g></g></g></svg>