<svg version="1.1" xmlns="http://www.w3.org/2000/svg" xmlns:xlink="http://www.w3.org/1999/xlink" width="85.29322" height="148.00192" viewBox="0,0,85.29322,148.00192"><g transform="translate(-200.39049,-105.19697)"><g data-paper-data="{&quot;isPaintingLayer&quot;:true}" fill-rule="nonzero" stroke-linejoin="miter" stroke-miterlimit="10" stroke-dasharray="" stroke-dashoffset="0" style="mix-blend-mode: normal"><g data-paper-data="{&quot;index&quot;:null}" stroke="#000000" stroke-width="2" stroke-linecap="butt"><path d="M252.53349,202.80676l-1.43055,14.08329c0,0 -6.32026,-2.64807 -12.53989,-3.42313c-4.75184,-0.59215 -7.46422,0.63886 -11.16015,0.63886c-4.30364,0 -7.208,-3.48879 -7.208,-7.79243c0,-4.30364 7.77463,-6.81838 13.83157,-6.62357c4.30142,0.13835 18.50703,3.11697 18.50703,3.11697z" fill="#0611d7"/><path d="M245.13879,235.34158v-28.29627l6.29888,-6.16986l6.29888,6.16986v28.29627l-6.29888,6.16986z" fill="#5c5c57"/></g><g data-paper-data="{&quot;index&quot;:null}" stroke="#000000" stroke-width="2" stroke-linecap="butt"><path d="M275.05016,198.45676l-1.43055,14.08329c0,0 -6.32026,-2.64806 -12.5399,-3.42313c-4.75184,-0.59215 -7.46422,0.63887 -11.16016,0.63887c-4.30364,0 -7.20799,-3.4888 -7.20799,-7.79244c0,-4.30364 7.77462,-6.81838 13.83156,-6.62357c4.30141,0.13835 18.50703,3.11697 18.50703,3.11697z" fill="#0611d7"/><path d="M267.65546,230.99158v-28.29627l6.29888,-6.16986l6.29888,6.16986v28.29627l-6.29888,6.16987z" fill="#5c5c57"/></g><g data-paper-data="{&quot;index&quot;:null}" fill="#a1a1a1" stroke="#000000" stroke-width="2" stroke-linecap="butt"><path d="M256.65024,213.03222c0.39487,0 5.22921,0.03838 5.61305,0.11316c5.38737,1.04967 5.13695,9.27301 5.13695,19.26184c0,9.8787 -0.10205,18.25284 -5.40364,19.44673c-0.44104,0.09933 -4.89039,-0.07173 -5.34636,-0.07173c-5.93706,0 -10.75,-8.67449 -10.75,-19.375c0,-10.70051 4.81294,-19.375 10.75,-19.375z"/><path d="M261.89032,213.11556c5.93706,0 10.75,8.67449 10.75,19.375c0,10.70051 -4.81294,19.375 -10.75,19.375c-5.93706,0 -10.75,-8.67449 -10.75,-19.375c0,-10.70051 4.81294,-19.375 10.75,-19.375z"/></g><g data-paper-data="{&quot;index&quot;:null}" fill="#a1a1a1" stroke="#000000" stroke-width="2" stroke-linecap="butt"><path d="M223.98357,213.36556c0.39487,0 5.22921,0.03837 5.61305,0.11316c5.38737,1.04967 5.13695,9.27301 5.13695,19.26184c0,9.8787 -0.10205,18.25285 -5.40364,19.44674c-0.44104,0.09932 -4.89039,-0.07174 -5.34636,-0.07174c-5.93706,0 -10.75,-8.67449 -10.75,-19.375c0,-10.70051 4.81294,-19.375 10.75,-19.375z"/><path d="M229.22365,213.44889c5.93706,0 10.75,8.67448 10.75,19.375c0,10.70052 -4.81294,19.375 -10.75,19.375c-5.93706,0 -10.75,-8.67448 -10.75,-19.375c0,-10.70052 4.81294,-19.375 10.75,-19.375z"/></g><g data-paper-data="{&quot;index&quot;:null}"><g data-paper-data="{&quot;index&quot;:null}" stroke="#000000" stroke-width="2"><path d="M233.98569,199.45191c-6.11741,7.93884 -13.60366,-0.65496 -13.8036,-4.62174c-0.10292,-2.04181 5.09772,-7.4577 7.09674,-7.55845c4.11936,-0.20762 11.52876,5.38314 7.82076,6.80657c-1.30414,0.50063 -3.75495,-2.19406 -3.54253,-1.17885c0.00772,0.03689 5.83343,2.13389 2.42862,6.55247z" fill="#fcdac0" stroke-linecap="butt"/><path d="M228.03753,167.98527c0,0 -9.55278,10.52913 -10.35541,10.9962c-0.12002,0.06984 11.52588,9.04344 10.92753,9.11729c-0.94832,0.11703 -7.05207,9.71119 -7.75735,9.43939c-0.69079,-0.26622 -19.27476,-18.1332 -19.46181,-18.30457c-0.86377,-0.79134 19.21075,-16.47951 19.21075,-16.47951" fill="#3a3eff" stroke-linecap="round"/></g><path d="M219.04099,162.17533c0,-4.30782 3.49218,-7.8 7.8,-7.8c4.30782,0 7.8,3.49218 7.8,7.8c0,4.30782 -3.49218,7.8 -7.8,7.8c-4.30782,0 -7.8,-3.49218 -7.8,-7.8z" data-paper-data="{&quot;index&quot;:null}" fill="#3a3eff" stroke="#000000" stroke-width="2" stroke-linecap="butt"/><path d="M218.88298,170.34066l-0.13025,-4.76891l4.16912,0.52101l1.34454,4.60504z" data-paper-data="{&quot;index&quot;:null}" fill="#3a3eff" stroke="none" stroke-width="0" stroke-linecap="butt"/></g><path d="M221.39633,209.15895c0,0 3.1403,-11.21626 3.1403,-25.10612c0,-13.02559 -3.1403,-24.14234 -3.1403,-24.14234c0,0 8.98091,-2.11821 19.42476,-2.11821c11.45735,0 18.74191,2.11821 18.74191,2.11821c0,0 -3.86498,12.07138 -3.62342,23.61279c0.25591,12.22715 3.62342,25.63567 3.62342,25.63567c0,0 -10.26498,-1.41214 -19.82626,-1.41214c-8.24197,0 -18.34041,1.41214 -18.34041,1.41214z" data-paper-data="{&quot;index&quot;:null}" fill="#3a3eff" stroke="#000000" stroke-width="2" stroke-linecap="butt"/><path d="M232.87745,148.46969h14.625c0,0 0.47195,7.83967 -0.53099,11.25998c-0.73848,2.51843 -4.16452,2.83346 -6.86398,2.78169c-2.08579,-0.04 -5.72419,-0.17752 -6.54565,-2.84416c-0.81904,-2.65876 -0.68438,-11.19752 -0.68438,-11.19752z" data-paper-data="{&quot;index&quot;:null}" fill="#fc959e" stroke="#000000" stroke-width="2" stroke-linecap="butt"/><g data-paper-data="{&quot;index&quot;:null}" stroke="#000000" stroke-width="2" stroke-linecap="butt"><path d="M240.55186,106.54965c15.37193,0 27.83334,9.51737 27.83334,24.30303c0,14.78566 -12.46141,23.95035 -27.83334,23.95035c-15.37193,0 -27.83333,-9.16469 -27.83333,-23.95035c0,-14.78566 12.4614,-24.30303 27.83333,-24.30303z" fill="#fcdac0"/><path d="M212.71851,130.85268c0,-14.78566 12.46141,-24.65571 27.83334,-24.65571c15.37193,0 27.83334,9.87005 27.83334,24.65571c0,0.27675 -2.72181,-2.17492 -2.59245,0.54093c0.31591,6.63258 -53.07422,-0.24018 -53.07422,-0.54093z" fill="#765035"/></g><g data-paper-data="{&quot;index&quot;:null}"><g stroke="#000000" stroke-width="2"><path d="M265.86502,194.49357c-0.19994,3.96679 -7.68619,12.56058 -13.80359,4.62174c-3.4048,-4.41858 2.4209,-6.51559 2.42862,-6.55247c0.21242,-1.0152 -2.2384,1.67948 -3.54253,1.17885c-3.70799,-1.42342 3.70141,-7.01419 7.82077,-6.80656c1.99902,0.10076 7.19965,5.51664 7.09674,7.55845z" fill="#fcdac0" stroke-linecap="butt"/><path d="M265.44587,162.41748c0,0 20.07452,15.68817 19.21074,16.47951c-0.18705,0.17137 -18.77101,18.03835 -19.4618,18.30457c-0.70528,0.2718 -6.80904,-9.32236 -7.75735,-9.43939c-0.59835,-0.07384 11.04755,-9.04745 10.92753,-9.11729c-0.80263,-0.46707 -10.35541,-10.9962 -10.35541,-10.9962" fill="#3a3eff" stroke-linecap="round"/></g><path d="M259.20612,169.63874c-4.30782,0 -7.8,-3.49218 -7.8,-7.8c0,-4.30782 3.49218,-7.8 7.8,-7.8c4.30782,0 7.8,3.49218 7.8,7.8c0,4.30782 -3.49218,7.8 -7.8,7.8z" fill="#3a3eff" stroke="#000000" stroke-width="2" stroke-linecap="butt"/><path d="M261.78072,170.36121l1.34454,-4.60504l4.16912,-0.52101l-0.13025,4.76891z" fill="#3a3eff" stroke="none" stroke-width="0" stroke-linecap="butt"/></g><g data-paper-data="{&quot;index&quot;:null}" fill="#1d1d1d" stroke="#000000" stroke-linecap="butt"><path d="M211.70297,214.42673v-68.66667h46.33333v68.66667z" data-paper-data="{&quot;index&quot;:null}" stroke-width="4"/><path d="M212.28631,214.42673v-9.66667h58.75v9.66667z" data-paper-data="{&quot;index&quot;:null}" stroke-width="4"/><path d="M211.70297,214.42673v-68.66667h46.33333v68.66667z" data-paper-data="{&quot;index&quot;:null}" stroke-width="0"/><path d="M212.28631,214.42673v-9.66667h58.75v9.66667z" data-paper-data="{&quot;index&quot;:null}" stroke-width="0"/></g></g></g></svg>