<svg version="1.1" xmlns="http://www.w3.org/2000/svg" xmlns:xlink="http://www.w3.org/1999/xlink" width="53.22199" height="69.64878" viewBox="0,0,53.22199,69.64878"><g transform="translate(-214.17727,-152.55922)"><g data-paper-data="{&quot;isPaintingLayer&quot;:true}" fill="#000000" fill-rule="nonzero" stroke="none" stroke-width="1" stroke-linecap="butt" stroke-linejoin="miter" stroke-miterlimit="10" stroke-dasharray="" stroke-dashoffset="0" style="mix-blend-mode: normal"><path d="M257.75504,180.89865c-2.3168,7.41344 -10.30626,14.01298 -13.1768,16.19452c0.16071,9.0126 1.05497,17.95201 3.27868,25.11484h-7.22886c0,0 -1.9906,-12.55463 -2.45046,-26.97894c-3.36063,-3.17923 -8.79699,-8.723 -11.51239,-13.67246c-12.68352,-2.30646 -12.48776,-7.65928 -12.48776,-13.89363c0,-8.34111 6.82226,-15.10375 26.44504,-15.10375c19.62278,0 26.72112,6.76264 26.72112,15.10375c0,5.7005 1.37882,10.66348 -9.58858,13.23567zM238.08452,189.82692c-0.00557,-2.36613 0.04058,-4.74578 0.15276,-7.0952c-2.45444,-0.06842 -4.84125,-0.24345 -7.13339,-0.51396c2.09323,2.64697 4.55086,5.46978 6.98063,7.60916zM253.50731,181.74279c-2.73131,0.4527 -5.62969,0.76537 -8.64185,0.91733c-0.1082,2.03834 -0.19492,4.12362 -0.24902,6.23515c3.57863,-2.30725 6.60113,-4.91365 8.89088,-7.15248z"/></g></g></svg>