<svg version="1.1" xmlns="http://www.w3.org/2000/svg" xmlns:xlink="http://www.w3.org/1999/xlink" width="65.48337" height="147.99905" viewBox="0,0,65.48337,147.99905"><g transform="translate(-209.50389,-105.19696)"><g data-paper-data="{&quot;isPaintingLayer&quot;:true}" fill-rule="nonzero" stroke-linejoin="miter" stroke-miterlimit="10" stroke-dasharray="" stroke-dashoffset="0" style="mix-blend-mode: normal"><g data-paper-data="{&quot;index&quot;:null}" fill="#1d1d1d" stroke="#000000" stroke-linecap="butt"><path d="M211.50389,214.42673v-68.66667h30.98767v68.66667z" data-paper-data="{&quot;index&quot;:null}" stroke-width="4"/><path d="M212.08724,214.42673v-9.66667h58.75v9.66667z" data-paper-data="{&quot;index&quot;:null}" stroke-width="4"/><path d="M211.50389,214.42673v-68.66667h30.98767v68.66667z" data-paper-data="{&quot;index&quot;:null}" stroke-width="0"/><path d="M212.08724,214.42673v-9.66667h58.75v9.66667z" data-paper-data="{&quot;index&quot;:null}" stroke-width="0"/></g><g data-paper-data="{&quot;index&quot;:null}"><g data-paper-data="{&quot;index&quot;:null}" stroke="#000000" stroke-width="2"><path d="M238.30106,198.73816c-3.40481,-4.41858 2.4209,-6.51558 2.42862,-6.55247c0.21242,-1.01521 -2.23839,1.67948 -3.54253,1.17885c-3.708,-1.42343 3.7014,-7.01419 7.82076,-6.80657c1.99902,0.10075 7.19966,5.51664 7.09674,7.55845c-0.19994,3.96678 -7.68619,12.56058 -13.8036,4.62174z" fill="#fcdac0" stroke-linecap="butt"/><path d="M251.6855,162.04032c0,0 7.22698,15.68817 6.36321,16.47951c-0.18705,0.17137 -5.92348,18.03835 -6.61427,18.30457c-0.70528,0.2718 -6.80903,-9.32236 -7.75735,-9.43939c-0.59835,-0.07385 2.12565,-9.04745 2.00563,-9.11729c-0.80263,-0.46707 -1.43351,-10.9962 -1.43351,-10.9962" fill="#3a3eff" stroke-linecap="round"/></g><path d="M245.44575,169.26158c-4.30782,0 -7.8,-3.49218 -7.8,-7.8c0,-4.30782 3.49218,-7.8 7.8,-7.8c4.30782,0 7.8,3.49218 7.8,7.8c0,4.30782 -3.49218,7.8 -7.8,7.8z" data-paper-data="{&quot;index&quot;:null}" fill="#3a3eff" stroke="#000000" stroke-width="2" stroke-linecap="butt"/><path d="M248.02035,169.98405l1.34454,-4.60504l4.16912,-0.52101l-0.13025,4.76891z" data-paper-data="{&quot;index&quot;:null}" fill="#3a3eff" stroke="none" stroke-width="0" stroke-linecap="butt"/></g><g data-paper-data="{&quot;index&quot;:null}" stroke="#000000" stroke-width="2" stroke-linecap="butt"><path d="M268.7842,198.45676l-1.43055,14.08329c0,0 -6.32026,-2.64806 -12.5399,-3.42313c-4.75184,-0.59215 -7.46422,0.63887 -11.16016,0.63887c-4.30364,0 -7.20799,-3.4888 -7.20799,-7.79244c0,-4.30364 7.77462,-6.81838 13.83156,-6.62357c4.30141,0.13835 18.50703,3.11697 18.50703,3.11697z" fill="#0611d7"/><path d="M261.3895,230.99158v-28.29627l6.29888,-6.16986l6.29888,6.16986v28.29627l-6.29888,6.16987z" fill="#5c5c57"/></g><path d="M221.19726,209.15895c0,0 3.1403,-11.21626 3.1403,-25.10612c0,-13.02559 -3.1403,-24.14234 -3.1403,-24.14234c0,0 8.98091,-2.11821 19.42476,-2.11821c11.45735,0 18.74191,2.11821 18.74191,2.11821c0,0 -3.86498,12.07138 -3.62342,23.61279c0.25591,12.22715 3.62342,25.63567 3.62342,25.63567c0,0 -10.26498,-1.41214 -19.82626,-1.41214c-8.24197,0 -18.34041,1.41214 -18.34041,1.41214z" data-paper-data="{&quot;index&quot;:null}" fill="#3a3eff" stroke="#000000" stroke-width="2" stroke-linecap="butt"/><path d="M232.67838,148.46969h14.625c0,0 0.47195,7.83967 -0.53099,11.25998c-0.73848,2.51843 -4.16452,2.83346 -6.86398,2.78169c-2.08579,-0.04 -5.72419,-0.17752 -6.54565,-2.84416c-0.81904,-2.65876 -0.68438,-11.19752 -0.68438,-11.19752z" data-paper-data="{&quot;index&quot;:null}" fill="#fc959e" stroke="#000000" stroke-width="2" stroke-linecap="butt"/><g data-paper-data="{&quot;index&quot;:null}" stroke="#000000" stroke-width="2" stroke-linecap="butt"><path d="M268.17836,130.85268c0,14.78566 -12.4614,23.95035 -27.83333,23.95035c-15.37193,0 -27.83334,-9.16469 -27.83334,-23.95035c0,-14.78566 12.46141,-24.30303 27.83334,-24.30303c15.37193,0 27.83333,9.51737 27.83333,24.30303z" fill="#fcdac0"/><path d="M240.34503,106.19696c12.12971,0 23.87469,5.78871 27.68737,19.57128c-2.00857,-0.0702 -5.15172,-1.74141 -9.96722,-2.30266c-4.49265,-0.52362 -9.08042,-0.76439 -12.06763,1.49258c-1.57002,1.18622 3.82162,12.77385 -6.3906,12.73894c-13.22589,-0.04521 -5.99383,-11.48988 -8.91901,-11.87913c-1.62091,-0.21569 -6.1349,-0.48727 -10.04807,0.045c-4.16723,0.56683 -7.70094,1.94957 -7.95735,2.03502c1.54228,-13.13121 13.33885,-21.70102 27.66252,-21.70102z" fill="#765035"/></g><g data-paper-data="{&quot;index&quot;:null}" stroke="#000000" stroke-width="2" stroke-linecap="butt"><path d="M265.53883,202.80676l-1.43055,14.08329c0,0 -6.32026,-2.64807 -12.53989,-3.42313c-4.75184,-0.59215 -7.46422,0.63886 -11.16015,0.63886c-4.30364,0 -7.208,-3.48879 -7.208,-7.79243c0,-4.30364 7.77463,-6.81838 13.83157,-6.62357c4.30142,0.13835 18.50703,3.11697 18.50703,3.11697z" fill="#0611d7"/><path d="M258.14413,235.34158v-28.29627l6.29888,-6.16986l6.29888,6.16986v28.29627l-6.29888,6.16986z" fill="#5c5c57"/></g><g data-paper-data="{&quot;index&quot;:null}"><g stroke="#000000" stroke-width="2"><path d="M231.75991,195.20733c-0.10291,-2.04181 5.09772,-7.45769 7.09674,-7.55845c4.11936,-0.20763 11.52876,5.38314 7.82077,6.80656c-1.30413,0.50063 -3.75495,-2.19405 -3.54253,-1.17885c0.00772,0.03688 5.83342,2.13389 2.42862,6.55247c-6.1174,7.93884 -13.60365,-0.65495 -13.80359,-4.62174z" fill="#fcdac0" stroke-linecap="butt"/><path d="M239.61536,168.36243c0,0 -9.55278,10.52913 -10.35541,10.9962c-0.12002,0.06984 11.52588,9.04345 10.92753,9.11729c-0.94831,0.11703 -7.05207,9.71119 -7.75735,9.43939c-0.69079,-0.26622 -19.27475,-18.1332 -19.4618,-18.30457c-0.86378,-0.79134 19.21074,-16.47951 19.21074,-16.47951" fill="#3a3eff" stroke-linecap="round"/></g><path d="M230.61882,162.55249c0,-4.30782 3.49218,-7.8 7.8,-7.8c4.30782,0 7.8,3.49218 7.8,7.8c0,4.30782 -3.49218,7.8 -7.8,7.8c-4.30782,0 -7.8,-3.49218 -7.8,-7.8z" fill="#3a3eff" stroke="#000000" stroke-width="2" stroke-linecap="butt"/><path d="M230.46081,170.71782l-0.13025,-4.76891l4.16912,0.52101l1.34454,4.60504z" fill="#3a3eff" stroke="none" stroke-width="0" stroke-linecap="butt"/></g><g data-paper-data="{&quot;index&quot;:null}"><g stroke="#000000" stroke-width="2"><path d="M231.7599,195.20733c-0.10291,-2.04181 5.09772,-7.45769 7.09674,-7.55845c4.11936,-0.20763 11.52876,5.38314 7.82077,6.80656c-1.30413,0.50063 -3.75495,-2.19405 -3.54253,-1.17885c0.00772,0.03688 5.83342,2.13389 2.42862,6.55247c-6.1174,7.93884 -13.60365,-0.65495 -13.80359,-4.62174z" fill="#fcdac0" stroke-linecap="butt"/><path d="M239.61535,168.36243c0,0 -4.19964,10.52913 -5.00227,10.9962c-0.12002,0.06984 6.17274,9.04345 5.57439,9.11729c-0.94831,0.11703 -7.05207,9.71119 -7.75735,9.43939c-0.69079,-0.26622 -10.70973,-18.1332 -10.89678,-18.30457c-0.86378,-0.79134 10.64572,-16.47951 10.64572,-16.47951" fill="#3a3eff" stroke-linecap="round"/></g><path d="M230.61881,162.55249c0,-4.30782 3.49218,-7.8 7.8,-7.8c4.30782,0 7.8,3.49218 7.8,7.8c0,4.30782 -3.49218,7.8 -7.8,7.8c-4.30782,0 -7.8,-3.49218 -7.8,-7.8z" fill="#3a3eff" stroke="#000000" stroke-width="2" stroke-linecap="butt"/><path d="M230.4608,170.71782l-0.13025,-4.76891l4.16912,0.52101l1.34454,4.60504z" fill="#3a3eff" stroke="none" stroke-width="0" stroke-linecap="butt"/></g><g data-paper-data="{&quot;index&quot;:null}"><path d="M264.39285,135.06303c0,3.99372 -3.38339,7.23127 -7.557,7.23127c-4.17362,0 -7.557,-3.23755 -7.557,-7.23127c0,-3.99372 3.38339,-7.23127 7.557,-7.23127c4.17362,0 7.557,3.23755 7.557,7.23127z" fill="#ffffff" stroke="#000000" stroke-width="2" stroke-linecap="butt"/><path d="M257.512,135.12329c0,-1.26468 0.88668,-2.2899 1.98046,-2.2899c1.09378,0 1.98045,1.02522 1.98045,2.2899c0,1.26468 -0.88667,2.28991 -1.98045,2.28991c-1.09378,0 -1.98046,-1.02523 -1.98046,-2.28991z" fill="#000000" stroke="none" stroke-width="0.5" stroke-linecap="butt"/><path d="M258.9796,148.62063c-1.26091,0.02024 -2.68445,-0.02112 -4.27297,-0.15623c-5.63282,-0.47909 -11.49467,-4.0007 -11.49467,-4.0007" fill="none" stroke="#000000" stroke-width="2" stroke-linecap="round"/><path d="M248.96613,121.69823c0,0 1.34091,-1.54214 4.95377,-2.01217c4.43625,-0.57715 5.57392,0.80696 5.57392,0.80696" fill="none" stroke="#000000" stroke-width="2" stroke-linecap="round"/></g><path d="M235.32017,252.19601c-10.84034,0 -19.62817,-8.78784 -19.62817,-19.62818c0,-10.84034 8.78782,-19.62818 19.62817,-19.62818c10.84035,0 19.62818,8.78784 19.62818,19.62818c0,10.84034 -8.78783,19.62818 -19.62818,19.62818z" data-paper-data="{&quot;index&quot;:null}" fill="#a1a1a1" stroke="#000000" stroke-width="2" stroke-linecap="butt"/></g></g></svg>