<svg version="1.1" xmlns="http://www.w3.org/2000/svg" xmlns:xlink="http://www.w3.org/1999/xlink" width="514.4078" height="468.95662" viewBox="0,0,514.4078,468.95662"><g transform="translate(24.76351,103.77268)"><g data-paper-data="{&quot;isPaintingLayer&quot;:true}" fill-rule="nonzero" stroke-linecap="butt" stroke-linejoin="miter" stroke-miterlimit="10" stroke-dasharray="" stroke-dashoffset="0" style="mix-blend-mode: normal"><path d="M-23.51351,363.93393v-376.87688h510.51051v376.87688z" fill="#fcfcfc" stroke="#000000" stroke-width="2.5"/><path d="M157.9019,2.33834c-1.76777,-1.76777 0,-3.53553 0,-3.53553l3.26927,-2.23373c2.69834,0.0743 5.31232,-0.87209 7.54723,-2.53111c1.28626,-0.95481 2.06793,-2.58308 3.50807,-3.2846c1.06766,-0.52007 2.39558,0.07908 3.55926,-0.15802c1.4201,-0.28935 2.74083,-0.94318 4.11439,-1.40549c3.74708,-1.26117 6.42783,-3.28876 9.93781,-4.70539c1.59501,-0.64374 3.3739,-0.7142 5.00041,-1.27362c4.48565,-1.5428 7.63408,-4.93237 11.62456,-7.32507c8.15751,-4.89126 15.51296,-10.77768 22.77352,-17.00102c4.4643,-3.82654 10.45155,-7.59411 13.99073,-12.32851c1.46976,-1.96611 1.96503,-4.5577 3.47621,-6.49215c0.5436,-0.69586 6.43243,-6.36899 7.17802,-7.20248c5.25689,-5.87665 9.06228,-13.50154 15.41414,-18.3861c3.5701,-2.74539 8.60934,-4.58933 12.58424,-6.69369c7.60212,-4.02465 14.73842,-7.55842 22.91455,-10.25696c4.2915,-0.44549 8.85018,-1.35146 13.15353,-1.29502c0.53487,0.00701 9.29572,1.18114 10.05396,1.24552c4.18634,0.35541 8.45375,-0.2236 12.6449,0.08882c5.12469,0.38201 9.69516,1.95639 14.61861,2.94108c1.03847,0.20769 2.14925,-0.22119 3.17693,0.0346c1.12892,0.28099 2.0255,1.1826 3.13383,1.53615c3.40239,1.08534 7.41496,0.80532 10.83709,1.64844c9.09546,2.24088 14.9309,8.84846 20.31303,15.91251c8.40533,11.032 16.224,23.86139 27.11403,32.66947c2.42457,1.96105 5.73546,2.49374 8.41103,4.09548c1.21461,0.72713 1.79207,2.26976 3.003,3.003c1.22857,0.74393 2.76715,0.78562 4.10721,1.30239c4.45632,1.71851 9.01558,2.86797 13.47979,4.49149c2.81781,1.02477 5.07145,3.21327 7.72943,4.60084c1.0186,0.53175 2.23741,0.59153 3.26498,1.10572c2.82303,1.41265 5.41401,3.25599 8.21618,4.70958c3.81239,0 6.19113,1.50019 9.55266,3.20006c3.52223,1.78113 8.36449,5.13066 10.20067,8.78687c0.53298,1.06127 -0.08137,2.39605 0.15802,3.55926c0.31904,1.55023 1.25513,2.94108 1.5015,4.5045c0.73338,4.65388 -0.98429,8.16716 -1.48139,12.65881c-0.47385,4.28156 0.72559,4.34747 -0.02011,9.16312c-0.2422,1.56408 -1.19114,2.95251 -1.5015,4.5045c-0.20767,1.03848 0.22975,2.15141 -0.0346,3.17693c-1.99465,7.73805 -7.64635,15.28396 -15.94664,15.43913c-2.41892,-0.03 -4.71945,1.08003 -7.10705,1.46922c-2.96389,0.48313 -6.04881,-0.50522 -9.00901,0c-1.56016,0.26627 -2.95074,1.20014 -4.5045,1.5015c-0.85827,0.16647 -6.93528,-0.1022 -7.47366,-0.00573c-1.44548,0.25902 -2.69118,1.26351 -4.13901,1.50903c-1.64577,0.27908 -3.36077,-0.23071 -5.00761,0.042c-3.16918,0.52482 -5.5872,3.22173 -8.58124,4.38572c-0.86121,0.33481 -1.94456,-0.49676 -2.77075,-0.08303c-1.10101,0.55135 -1.50076,1.99902 -2.49794,2.72141c-1.16951,0.84723 -2.49842,1.52185 -3.8904,1.90652c-0.89624,0.24767 -1.91689,-0.38369 -2.78884,-0.06074c-1.00819,0.37341 -1.59263,1.46548 -2.5114,2.0238c-6.1452,3.73434 -14.39377,7.64501 -21.41247,9.0867c-4.68434,0.93201 -9.04166,2.26705 -13.54231,3.87959c-1.70744,0.61176 -6.91681,2.90957 -7.89463,3.11043c-1.55773,0.31998 -3.18531,-0.08869 -4.77063,0.03655c-4.52229,0.35727 -9.15767,1.53832 -13.63086,2.28548c-11.49984,1.92082 -22.97382,3.99943 -34.45733,6.01546c-3.31326,0.58167 -6.51602,1.74788 -9.84997,2.19605c-1.69306,0.22759 -3.42209,-0.12383 -5.12484,0.01352c-3.23362,0.26084 -6.39836,1.07625 -9.59854,1.60839c-21.08127,1.12276 -42.08624,2.90468 -63.19075,2.90468c-4.18288,0 -9.28224,0.76705 -13.40346,-0.03228c-1.55377,-0.30136 -2.95252,-1.1911 -4.5045,-1.5015c-0.98156,-0.19631 -2.02285,0.20324 -3.003,0c-2.74541,-0.56929 -6.75206,-2.13079 -9.05497,-3.91582c-1.40669,-1.09035 -2.52788,-2.50607 -3.79182,-3.75911c-3.04598,-3.08262 -5.97182,-6.31774 -7.18281,-10.652c-0.28739,-1.02858 0.21472,-2.20789 -0.184,-3.19865c-0.60726,-1.50897 -2.11777,-2.53747 -2.73072,-4.04414c-0.59719,-1.46792 -0.31897,-3.1795 -0.81974,-4.68305c-1.46966,-4.41266 -4.0322,-8.6484 -5.51985,-13.11071c-2.96647,-8.89818 -4.61793,-18.96545 -8.82089,-27.40686c-1.709,-3.43243 -4.03258,-6.67838 -5.77286,-10.15894c0,0 -1.03108,-2.06216 0.86745,-3.21596c-0.53992,0.05237 -1.08497,0.08315 -1.63439,0.09342l0.26627,0.76927c0,0 -1.76777,1.76777 -3.53553,0z" fill="#ff0000" stroke="none" stroke-width="0.5"/><text transform="translate(186.9018,34.94109) rotate(-1.27003) scale(0.70626,0.66268) skewX(0)" font-size="40" xml:space="preserve" fill="#000000" fill-rule="nonzero" stroke="none" stroke-width="1" stroke-linecap="butt" stroke-linejoin="miter" stroke-miterlimit="10" stroke-dasharray="" stroke-dashoffset="0" font-family="Sans Serif" font-weight="normal" text-anchor="start" style="mix-blend-mode: normal"><tspan x="0" dy="0">BAMBI'S SHOPPINGS!</tspan></text></g></g></svg>