<svg version="1.1" xmlns="http://www.w3.org/2000/svg" xmlns:xlink="http://www.w3.org/1999/xlink" width="167.04115" height="250.22529" viewBox="0,0,167.04115,250.22529"><g transform="translate(-156.31208,-54.64666)"><g data-paper-data="{&quot;isPaintingLayer&quot;:true}" fill-rule="nonzero" stroke-linejoin="miter" stroke-miterlimit="10" stroke-dasharray="" stroke-dashoffset="0" style="mix-blend-mode: normal"><g><path d="M319.84461,271.65671c-2.05645,14.95297 -3.97736,32.85206 -29.79172,30.50671c-36.99098,-3.36079 -21.50081,-34.94118 -48.62007,-40.27839c-40.07612,-7.74906 -19.90771,19.96052 -57.91509,11.20168c-13.92551,-3.20915 -18.9852,-11.16783 -21.39997,-18.52163c-5.02119,-15.29125 7.57661,-34.15012 7.57661,-34.15012c0,0 161.31709,-29.95522 150.15024,51.24175z" fill="#001fdd" stroke="#000000" stroke-width="5" stroke-linecap="round"/><path d="M251.39356,188.65422c12.761,-0.14717 31.27098,6.25903 31.27098,6.25903c0,0 8.11079,5.73419 17.18857,14.50883c6.78592,6.55931 14.53281,15.76399 17.55341,20.40678c5.28964,8.13037 2.91474,28.00449 2.91474,28.00449c0,0 -14.04621,-10.46496 -26.44859,-13.60006c-16.67332,-4.21472 -63.72243,-3.83441 -94.56606,-9.59521c-17.66775,-3.29988 -25.38614,-7.07325 -28.89726,-14.69979c-0.82707,-1.79649 11.86358,-5.44443 18.17439,-9.06597c7.47379,-4.28894 23.77235,-15.00573 23.77235,-15.00573c0,0 26.65669,-7.06957 39.03747,-7.21237z" fill="#ec0a02" stroke="#000000" stroke-width="5" stroke-linecap="round"/><path d="M218.83112,197.26724c0.72987,0.39924 2.17474,-3.49152 2.90461,-3.09228c2.92813,1.23929 5.30227,-2.83306 8.35777,-2.07421c6.0278,1.49705 12.10468,0.31453 18.34875,-1.20295c3.50603,-0.85206 7.35127,1.61529 10.76856,0.53106c2.98391,-0.94672 6.26207,1.36071 9.27444,0.65531c0.7984,-0.18696 5.26787,2.34256 6.52357,2.57021c0.07503,0.01361 0.14986,0.02797 0.22451,0.04304v-0.05314h3.81334c1.38071,0 2.5,1.11929 2.5,2.5c0,0.77134 -0.34932,1.46109 -0.8984,1.91968c3.54627,2.57844 6.87526,5.49791 10.52377,7.92601c2.69899,1.79619 5.98593,2.97629 8.60958,4.78697c2.73786,1.88951 3.98593,5.12079 6.00604,7.64161c4.37805,5.4632 9.26298,9.72783 11.88825,16.35946c0.69387,3.73209 1.9126,7.70263 1.52492,11.54139c-0.16152,1.59931 0.30778,3.75962 -0.97995,4.72172c-1.31338,0.98126 -3.30046,0.0002 -4.90778,-0.32286c-3.21273,-0.64573 -6.3268,-2.38281 -9.28584,-3.66166c-1.92664,-0.83267 -4.14746,-0.71541 -6.15509,-1.32754c-3.00431,-0.91601 -5.87461,-2.70772 -8.99193,-3.55654c-6.86484,-1.86924 -13.98619,-1.9769 -20.9723,-3.04599c-5.89789,-1.07871 -11.74058,-0.21384 -17.66751,-0.68905c-3.07879,-0.24685 -6.06552,-1.34418 -9.11386,-1.67373c-3.00336,-0.32469 -6.12091,0.35771 -9.12514,-0.00821c-3.77263,-0.45952 -7.61464,-0.45414 -11.42707,-0.95164c-4.85012,-0.63291 -9.24338,-2.37143 -14.18733,-2.37143c-4.03871,-0.67204 -7.82961,-1.81981 -11.935,-2.14659c-3.44245,-0.27402 -6.71144,0.0878 -9.87425,-1.77269c-1.57726,-0.92781 -2.57427,-2.65137 -4.12607,-3.62116c-1.94516,-1.21562 -5.55967,-1.56446 -5.43266,-5.0869c0.0678,-1.8804 1.60635,-3.51007 2.98403,-4.79167c0.84098,-0.78234 2.19678,-0.67287 3.28506,-1.04023c2.50031,-0.844 5.17153,-1.60113 7.55705,-2.73924c4.30057,-2.05176 7.22869,-5.26408 11.12799,-7.7497c2.06169,-2.32646 3.57598,-4.83177 6.44477,-6.28078c3.05594,-1.54354 5.61504,-1.60248 8.22626,-0.90565c0.11563,-0.32966 0.32542,-0.67219 0.66794,-1.01471c1.66805,-1.66804 3.3361,-0.18819 3.51898,-0.01592zM275.77695,200.3964c-5.25081,1.51196 -10.3493,-5.85586 -15.62267,-4.41342c-8.83194,2.35217 -16.13774,3.42607 -25.38997,2.70064c-4.85419,-0.3806 -12.40106,2.49321 -16.84647,0.48232c-3.16891,-1.43346 -5.77324,2.79335 -9.24266,4.49905c-2.21968,1.09128 -3.86784,3.87452 -5.47192,5.63591c-5.08034,3.22735 -8.92142,7.34044 -14.81684,9.49584c-1.85111,0.67677 -3.69384,1.38631 -5.58485,1.94193c-0.93124,0.27361 -2.45948,-0.07203 -2.78759,0.84144c-0.07466,0.20786 0.45416,-0.06055 0.66245,0.01289c0.85388,0.30108 1.72153,0.61004 2.48491,1.09689c0.8171,0.5211 1.48053,1.25121 2.20545,1.8944c3.15546,2.79969 5.46267,2.39446 9.53427,2.72177c4.09711,0.32936 7.8841,1.47296 11.89837,2.14342c5.03012,0 9.49341,1.75393 14.41271,2.39524c3.8226,0.49833 7.66257,0.46761 11.45296,0.95503c2.93679,0.37765 6.0381,-0.32182 8.98823,-0.00821c3.00944,0.31991 5.96473,1.42078 8.99951,1.66294c6.07382,0.48466 12.02826,-0.35371 18.08254,0.74095c7.14866,1.10533 14.41649,1.22937 21.4511,3.15069c3.15002,0.86035 6.09962,2.67577 9.12143,3.59347c2.19679,0.66715 4.59454,0.65218 6.71493,1.53247c2.2507,0.93438 5.63746,1.85173 7.97055,3.01735c-0.03509,-0.51754 -0.0041,-1.04998 -0.02574,-1.56514c-0.11505,-2.73914 -0.61761,-5.05917 -1.09675,-7.76364c-1.98292,-4.89044 -5.45091,-7.97163 -8.80093,-11.94644c-0.56258,-0.6675 -3.34965,-4.06309 -3.95925,-4.9569c-0.79727,-1.169 -1.76898,-3.47772 -3.18892,-4.379c-2.71661,-1.72432 -5.83282,-2.93174 -8.55045,-4.74637c-3.96999,-2.65085 -7.56224,-5.87283 -11.47332,-8.60292c0,0 -1.18781,-0.83147 -1.12106,-2.13258z" fill="#fa271f" stroke="none" stroke-width="0.5" stroke-linecap="butt"/><path d="M282.6994,245.01871c0.77728,-2.02417 2.96344,-1.42794 2.96344,-1.42794l2.49896,0.68484c3.83741,0.65421 7.1873,2.28254 10.90764,3.38397c2.72917,0.80799 6.77332,1.52471 9.20525,3.14609c1.10333,0.73559 1.93323,1.8171 2.85403,2.77133c0.40506,0.41977 0.93296,0.7837 1.33908,1.21291c0.41732,0.29328 0.8314,0.59891 1.24214,0.91773l1.77448,1.38015c0.00908,-0.00007 0.01819,-0.0001 0.02734,-0.0001c2.5,0 2.5,2.5 2.5,2.5c0,9.21103 -0.31192,18.73981 -3.22792,27.48781c-1.16222,3.48667 -2.39666,8.6555 -5.93807,10.69429c-0.98637,0.56785 -2.26159,0.2781 -3.37691,0.50492c-2.86408,0.58245 -5.23361,1.22064 -8.1955,1.2288c-4.02081,0.36692 -8.08218,1.32462 -12.12769,0.41236c-1.12714,-0.25417 -3.72796,-1.58674 -4.93981,-1.95417c-6.13701,-1.86072 -11.54577,-4.83233 -14.79836,-10.73004c-1.39137,-2.52288 -1.50719,-5.42665 -2.69376,-8.0093c-2.343,-5.09971 -4.05911,-10.06581 -8.12766,-14.10625c-0.71719,-0.80907 -2.29499,-2.75096 -3.34923,-3.42735c-3.06619,-1.96724 -7.24661,-1.56054 -10.65537,-2.00652c-3.32853,-0.43548 -6.41725,-1.37828 -9.87196,-0.94727c-1.47057,0.18346 -4.87674,1.31351 -6.15021,1.61908c-1.07148,0.2571 -4.0104,0.62529 -5.09266,1.06668c-6.04579,2.46569 -10.03953,8.35543 -16.14185,10.61688c-3.852,0.37326 -7.53345,0.21794 -11.38318,0.05753c-4.06172,-0.16924 -8.53968,0.05494 -12.36238,-1.65204c-3.41558,-1.52518 -5.81835,-4.56127 -8.77814,-6.68979c-3.31727,-2.3856 -6.84481,-4.39747 -8.47258,-8.47255c-1.813,-4.5388 -0.90111,-10.65114 -0.88972,-15.42706c0.58594,-3.85029 0.91678,-7.09906 3.45576,-10.25607c0.50274,-0.62512 1.30878,-0.95466 1.8253,-1.56845c0.81133,-0.96411 0.92483,-2.74338 2.12536,-3.12616c5.26499,-1.67872 7.71788,4.1654 11.3452,6.29937c2.40104,1.41255 5.4111,1.19324 8.00977,1.90606c2.09321,0.57418 2.83497,1.3189 4.84055,1.92858c6.59658,2.00531 13.73549,2.81714 20.52073,3.95475c2.01825,0.14949 3.98793,0.70065 5.99529,0.958c3.86205,0.49512 7.84006,-0.15932 11.74168,0.48597c3.74426,0.61927 7.33844,1.46584 11.15815,1.63948c8.01032,0.36414 16.06194,-0.13751 24.0717,0.23833c2.9395,0.13793 5.59448,0.99024 8.53006,1.20737c2.60005,0.43303 5.1284,0.94666 7.64103,1.49776zM308.54593,258.17262c-5.36976,-3.44005 -11.37024,-4.72018 -17.65892,-6.15691c-5.54212,-1.26617 -10.79923,-2.59187 -16.432,-3.53134c-2.79659,-0.22275 -5.37025,-1.06624 -8.1533,-1.17597c-8.01603,-0.31605 -16.05857,0.12587 -24.0717,-0.23833c-4.00606,-0.18208 -7.79564,-1.03733 -11.72189,-1.6972c-3.85895,-0.64855 -7.77765,0.00171 -11.61503,-0.46736c-1.9842,-0.24254 -3.92711,-0.8119 -5.92139,-0.94867c-7.09028,-1.17515 -14.53553,-2.04937 -21.426,-4.14859c-1.61254,-0.49127 -3.0657,-1.44407 -4.69279,-1.88476c-2.04865,-0.55487 -4.21943,-0.59596 -6.2518,-1.20778c-3.08933,-0.93 -5.38004,-2.89845 -7.65966,-5.10083c-0.5045,-0.4874 -0.94696,-1.03518 -1.42334,-1.5501c-0.19262,-0.2082 -0.40324,-0.83811 -0.58362,-0.61922c-0.35203,0.4272 0.0466,1.17827 -0.25797,1.64051c-0.48796,0.74057 -1.40547,1.09953 -1.98804,1.76823c-1.81379,2.08193 -1.86009,4.78727 -2.26425,7.38063c0.01073,3.93633 -0.95679,9.43874 0.54028,13.17298c1.25187,3.12263 4.277,4.48895 6.78078,6.30414c2.65438,1.92437 4.85684,4.79305 7.90522,6.18023c3.14865,1.43281 7.17675,1.06877 10.51766,1.20797c3.38612,0.14109 6.67462,0.33757 10.06685,0.05753c5.64047,-1.98175 9.61817,-8.01946 15.3182,-10.35648c7.7544,-3.17932 15.67627,-3.11695 23.69191,-2.07485c4.2838,0.55693 8.84547,0.34914 12.70134,2.76015c1.59773,0.99903 3.04739,2.81911 4.27745,4.19932c4.43572,4.46356 6.50663,9.83705 9.03237,15.44713c1.11118,2.46811 1.24619,5.34177 2.54958,7.72072c2.61836,4.77905 7.01159,6.84495 11.89502,8.33666c1.57978,0.48256 2.98363,1.48936 4.59354,1.85917c3.49873,0.80368 7.26938,-0.22538 10.75235,-0.54098c2.79807,0.0084 4.81741,-0.73551 7.53452,-1.15453c0.61495,-0.09484 1.31255,0.31174 1.86643,0.02825c2.07449,-1.06177 2.96291,-5.99866 3.59527,-7.89574c2.54251,-7.62755 2.92254,-15.93272 2.96429,-24.00882l-2.80689,-1.63735l0.04576,-0.07845c-0.12224,-0.04413 -0.24358,-0.09131 -0.36395,-0.14183c-0.04688,-0.01967 -0.62047,-0.65459 -1.33627,-1.44753z" fill="#2f4af0" stroke="none" stroke-width="0.5" stroke-linecap="butt"/></g><g><path d="M287.4961,137.79918c0,0 18.11781,40.25551 0.715,51.48008c-11.20313,7.22588 -29.39674,11.4101 -50.78874,10.98955c-11.83807,-0.23273 -24.49027,-0.38749 -37.8714,-5.74621c-37.56152,-15.0422 -13.31731,-34.01562 -7.38835,-44.80674c6.50474,-11.83906 14.66735,-28.95713 48.61249,-30.64491c43.25424,-2.15064 46.721,18.72823 46.721,18.72823z" fill="#fdd29c" stroke="#000000" stroke-width="5.5" stroke-linecap="round"/><path d="M283.62107,167.17303c0,0 -10.79972,20.37778 -38.18781,20.30354c-31.07645,-0.08424 -43.80543,-16.15508 -43.80543,-16.15508" fill="none" stroke="#000000" stroke-width="4.5" stroke-linecap="round"/><g stroke="#000000"><path d="M237.07811,142.08923c1.86488,-3.39168 5.54792,-5.59775 7.77682,-7.47871c12.81014,-10.81039 26.58039,-1.10584 26.58039,-1.10584c0,0 2.30971,8.27909 -0.28173,15.57862c-0.70634,1.98959 -3.19999,3.77465 -4.15669,5.70246c-1.21714,2.45264 -1.87716,5.11182 -3.50341,7.0164c-1.66155,1.94591 -4.3033,3.11641 -6.87201,3.64376c-10.47496,2.15048 -18.85177,-4.16769 -20.3311,-12.97606c-0.54151,-3.22429 0.78773,-10.38063 0.78773,-10.38063z" fill="#ffffff" stroke-width="4.5" stroke-linecap="round"/><path d="M207.61205,130.3707c7.32538,-2.03806 13.64772,3.69937 13.64772,3.69937c0,0 7.87094,3.70532 6.94019,15.81717c-0.29469,3.83477 -1.64753,6.36344 -3.69987,8.22877c-0.6324,0.57478 -1.91552,0.94051 -2.50989,1.44822c-1.6086,1.37407 -3.6231,2.19828 -5.0901,3.1073c-5.06835,3.14061 -8.8968,3.76341 -13.0715,0.77329c-6.3626,-4.55721 -10.81378,-24.04856 -10.81378,-24.04856c0,0 6.0649,-6.65171 14.59723,-9.02556z" fill="#ffffff" stroke-width="4.5" stroke-linecap="round"/><g fill="#000000" stroke-linecap="butt"><path d="M250.72308,148.81104c0,-1.38209 0.69359,-2.5025 1.54917,-2.5025c0.38572,0 0.73851,0.03155 1.00967,0.4083c0.33032,0.45894 0.5395,1.33519 0.5395,2.0942c0,0.54422 0.28478,1.34211 0.10215,1.75275c-0.28117,0.63222 -1.03456,0.94591 -1.55324,0.94591c-0.55281,0 -1.37318,-0.45156 -1.67632,-1.21338c-0.16603,-0.41724 0.02907,-0.9962 0.02907,-1.48529z" stroke-width="2.5"/><path d="M211.17608,150.12558c0,-1.42622 0.80376,-2.21636 2.09627,-2.21636c1.29251,0 2.46231,1.15618 2.46231,2.5824c0,1.42622 -0.92578,2.21636 -2.21829,2.21636c-1.29251,0 -2.3403,-1.15618 -2.3403,-2.5824z" stroke-width="1.5"/></g></g><g><g fill="#03b500" stroke="#000000" stroke-width="6.5" stroke-linecap="round"><path d="M286.00379,105.16449c0,0 16.57623,1.17485 26.60802,11.70567c9.73949,10.22396 9.83629,19.32967 1.14161,20.86785c-1.64162,0.29043 -7.92785,1.20235 -17.71725,-0.60568c-8.93689,-1.65059 -20.87379,-5.97602 -33.24268,-6.89354c-8.12126,-0.60242 -16.6368,0.09193 -25.09295,0.39878c-22.643,0.82165 -44.06984,13.02557 -58.77896,17.73204c-10.80498,3.45727 -17.98505,3.3199 -19.3595,-10.63159c-1.78111,-8.58135 2.26888,-12.77931 10.2854,-17.20153c8.28864,-4.57234 18.18812,-6.8 18.18812,-6.8"/><path d="M189.72468,113.7365c0,0 -17.6463,1.05746 -22.19969,-10.28638c-3.47572,-8.65907 -3.42165,-16.91657 1.40694,-24.03012c1.49713,-2.2056 3.74094,-5.4787 6.3147,-7.31884c0.43352,-0.23767 10.15482,-7.18803 45.14141,-12.90317c19.25028,-2.13291 23.06561,-1.55993 37.86613,-1.30182c21.30611,0.37157 25.66134,-0.36642 34.98864,12.98043c4.11769,5.89219 4.01183,10.80488 3.35456,15.01357c-0.83156,5.32471 -3.36679,8.0531 -5.52627,11.68202c-2.12246,3.56671 -7.05153,7.49388 -7.05153,7.49388l-12.25256,2.05774"/></g><path d="M290.2088,78.79434c-0.61308,-1.36186 -1.64338,-2.64752 -2.77599,-3.73937c-1.42391,0.43027 -2.51825,-0.8204 -2.51825,-0.8204c-1.38798,-1.59263 -2.70003,-4.3653 -4.49979,-5.5175c-4.99918,-3.20046 -11.67355,-2.19675 -17.3177,-2.44927c-7.36687,-0.32959 -14.63804,-0.71284 -22.06114,-0.71284c-4.41751,-0.04268 -8.82073,0.95333 -13.34669,0.95333c-5.05457,0 -11.12927,-0.92443 -16.04801,0.39459c-5.44037,1.4589 -10.74377,3.51082 -16.18425,4.999l-0.79153,0.0334c-0.36061,0.26461 -0.68024,0.38084 -0.68024,0.38084c-3.94025,1.41539 -7.23324,3.99318 -11.05826,5.66278c-1.77124,0.77314 -3.26537,0.82202 -4.83955,1.92292c-1.04782,0.73279 -4.38951,2.83446 -4.76103,4.23478c-0.61936,2.33446 -0.75295,5.17607 -1.07265,7.59896c-0.53546,4.0581 0.11572,9.62415 4.14951,11.65228c2.89869,0.70099 5.93974,1.07864 8.80618,1.82383c1.6197,0.42107 3.26335,0.7457 4.8843,1.16191c2.2435,0.57606 6.76181,1.97932 7.19409,5.06317c0.20063,1.43132 -1.37103,2.54529 -2.09465,3.79641c-1.44538,2.49904 -1.72435,3.29384 -4.40791,4.81539c-5.31183,3.01175 -12.04915,3.77665 -17.7355,5.87853c-1.58917,0.58741 -2.82685,1.86852 -4.23172,2.81556c-0.58488,0.39428 -1.39697,0.45556 -1.88175,0.96794c-0.71784,0.75871 -0.38709,4.28826 -0.3847,4.49287c0.23509,2.58494 0.969,4.89518 1.37064,7.42528c0.08169,0.51461 -0.35227,1.13735 -0.05081,1.56235c0.64745,0.91278 2.22955,0.43148 3.34251,0.31448c2.73409,-0.28743 5.86772,-1.39194 8.49082,-2.26423c1.91002,-0.63516 3.62232,-1.79119 5.54022,-2.40216c3.05825,-0.97425 6.32708,-0.93962 9.38255,-2.09324c2.67989,-1.01182 5.22436,-2.42702 7.94035,-3.36388c3.74731,-1.2926 7.25553,-1.13465 10.69946,-3.22895c8.4666,-3.09933 16.92437,-4.43665 25.74865,-4.80772c12.34572,-0.51915 24.78727,0.75721 37.14413,0.75293c7.99009,0.58795 15.41017,3.82025 23.11922,5.54515c2.66605,0.59653 5.68714,0.00948 8.38275,0.17671c1.54943,0.09612 3.10309,0.21505 4.63198,0.48427c0.48433,0.08529 0.90087,0.74612 1.36039,0.57093c0.63458,-0.24193 -0.09327,-4.68436 -0.1949,-5.05553c-1.06545,-3.89115 -3.8265,-7.77125 -6.81224,-10.40948c-3.51011,-2.91374 -8.25001,-1.95274 -12.49741,-2.53525c-4.98643,-0.68387 -9.96403,-2.42058 -14.96675,-2.85518c-3.22352,-0.28004 -9.24569,0.87097 -11.84714,-1.50988c-2.5745,-2.3562 -2.91902,-5.97991 -0.34718,-8.53878c0.65879,-0.65547 5.95968,-2.0744 7.23458,-2.29447c2.57476,-0.44445 4.96056,-0.08916 7.48528,-0.76386c1.88975,-1.2997 6.27312,-3.42189 7.02949,-5.73348c0.22637,-0.69182 0.00105,-1.46246 0.12129,-2.18038c0.59878,-3.57512 3.00554,-8.52575 1.34933,-12.20475zM181.34829,72.97746c3.60233,-1.55952 6.7401,-3.86884 10.35348,-5.38646c0.71091,-1.01796 2.08432,-1.01796 2.08432,-1.01796l0.77221,0.08809c5.45247,-1.48228 10.76101,-3.61746 16.22913,-5.01102c5.42599,-1.38282 11.7568,-0.55875 17.31871,-0.55875c4.56267,0 8.86513,-0.91977 13.34669,-0.95333c7.48679,0 14.83776,0.40464 22.26893,0.71716c6.55922,0.27585 14.12273,-0.65447 19.86236,3.27074c1.75264,1.1986 2.94474,3.02519 4.20347,4.74257l1.43683,0.37616c2.33681,1.85667 4.83439,4.3625 6.0157,7.20737c2.04107,4.91538 -0.1675,10.14531 -1.034,14.96529c-0.18186,1.01162 0.03584,2.11249 -0.35537,3.06296c-1.58884,3.86023 -6.32224,6.39181 -9.65387,8.56654c-4.37918,1.20819 -9.09599,0.58868 -13.40352,2.18502c-0.59316,0.21982 0.86595,1.13976 1.49802,1.16505c3.57719,0.14314 7.19181,-0.03154 10.70787,0.75481c3.9298,0.87888 8.11486,1.78134 12.11313,2.33633c5.56258,0.77213 10.36199,0.08497 15.1493,3.66142c4.26119,3.80613 8.7803,10.11969 9.00212,16.11055c0.08364,2.25901 -0.5375,6.16923 -2.66258,7.51116c-1.0682,0.67454 -7.78569,-0.31191 -8.78432,-0.37481c-6.08465,-0.38328 -11.66368,-0.78004 -17.61252,-2.21062c-4.75614,-1.14376 -8.79551,-3.16265 -13.80561,-3.50754c-12.22054,-0.00495 -25.08503,-0.42532 -37.2952,0.07893c-8.07009,0.33328 -15.51455,0.69815 -23.26888,3.49296c-3.66926,2.1746 -7.32185,2.07283 -11.22724,3.44439c-3.7861,1.32966 -7.24726,3.36348 -11.16116,4.34887c-2.07455,0.52231 -4.27617,0.50218 -6.31266,1.15737c-2.82778,0.90976 -5.28271,2.36691 -8.20713,3.12787c-4.11672,1.07121 -10.82723,3.63883 -14.45938,-0.32976c-0.85867,-0.93821 -0.66946,-2.45398 -1.00414,-3.68099c-0.7616,-2.79215 -1.22737,-5.42188 -1.48937,-8.30475c0.02515,-2.93331 -0.44627,-5.3474 1.52197,-7.90048c0.70214,-0.91078 1.95176,-1.21995 2.88492,-1.89206c6.80376,-4.90045 15.0273,-5.17631 22.36284,-8.9426c1.84123,-0.94535 1.97929,-2.64547 3.58949,-3.58173c-0.11126,0.03894 -0.21901,0.0634 -0.28925,0.04939c-1.76554,-0.35221 -3.52476,-0.73758 -5.27604,-1.1549c-3.88415,-0.92557 -7.85014,-1.95778 -11.76557,-2.96209c-1.1479,-0.65172 -2.48591,-1.04683 -3.44369,-1.95516c-2.36758,-2.24533 -1.75643,-3.2999 -2.74926,-5.91645c-0.34081,-0.89819 -1.01403,-1.66314 -1.26091,-2.59155c-1.03298,-3.88466 0.454,-8.05709 1.13432,-11.84359c0.39873,-2.21921 0.82544,-4.68863 2.36252,-6.33825c2.8275,-3.03452 6.63771,-4.41925 10.30333,-6.00616z" fill="#2fcf23" stroke="none" stroke-width="0.5" stroke-linecap="butt"/></g></g></g></g></svg>