<svg version="1.1" xmlns="http://www.w3.org/2000/svg" xmlns:xlink="http://www.w3.org/1999/xlink" width="171.08829" height="172.76383" viewBox="0,0,171.08829,172.76383"><g transform="translate(-155.92731,-94.33095)"><g data-paper-data="{&quot;isPaintingLayer&quot;:true}" fill-rule="nonzero" stroke-linejoin="miter" stroke-miterlimit="10" stroke-dasharray="" stroke-dashoffset="0" style="mix-blend-mode: normal"><path d="M288.12984,144.66218c12.08067,-2.67047 4.18301,0.624 0,2.55337c-4.18301,1.92937 -16.30106,7.64286 -27.44867,10.10707c-11.14761,2.46421 -6.6726,-1.65174 -2.87254,-3.40448c3.80006,-1.75274 18.24054,-6.58549 30.32121,-9.25596z" fill="#0a9600" stroke="#000000" stroke-width="0" stroke-linecap="round"/><path d="M246.74405,151.89672c6.89354,4.5957 1.22434,0.96531 -1.0639,3.19171c-2.28824,2.2264 -1.63554,1.18968 -2.87253,0.63834c-1.23699,-0.55134 -10.31738,-4.41314 -15.74575,-8.93678c-5.42837,-4.52364 -2.21176,-4.51432 0.42556,-3.83004c2.63732,0.68428 12.36308,4.34107 19.25662,8.93677z" fill="#0a9600" stroke="none" stroke-width="0" stroke-linecap="round"/><path d="M290.23457,200.34387c0,0 13.26745,27.37547 9.77414,45.00654c-3.49331,17.63107 -11.28017,13.02389 -22.27462,18.08458c-10.99445,5.06069 -6.84019,-0.05411 -11.89664,-2.35572c-5.05645,-2.30161 -5.80683,-3.91718 -8.95526,-7.1357c-3.14843,-3.21852 -2.8656,-6.74673 -6.65344,-8.82047c-3.78784,-2.07374 -2.56531,1.01037 -4.27705,2.83631c-1.71174,1.82594 -3.13248,6.97051 -7.06036,9.2575c-3.92788,2.28699 -6.5115,1.87676 -10.71124,1.08992c-4.19974,-0.78684 -5.94328,-1.65025 -8.14433,-4.62259c-2.20105,-2.97234 -4.35217,-6.78915 -3.80903,-11.51944c0.54314,-4.73029 -1.72754,-29.62884 9.90761,-41.59363c11.63515,-11.96479 16.80514,1.2986 29.32044,1.25422c12.5153,-0.04438 21.20498,-0.90328 34.77978,-1.48153c13.5748,-0.57825 0,0.00001 0,0.00001z" fill="#d90000" stroke="#000000" stroke-width="3" stroke-linecap="round"/><path d="M258.43068,159.40634c18.28244,-0.38991 30.83167,-9.12006 49.07913,-3.15979c18.24746,5.96027 4.11516,9.87746 3.18228,20.23021c-0.93288,10.35275 -1.94601,10.10829 -6.33697,14.77952c-4.39096,4.67123 -8.46425,6.65432 -15.02977,7.95105c-6.56552,1.29673 -19.93724,1.43577 -32.73325,1.48247c-12.79601,0.0467 -18.46219,1.96533 -29.54852,-1.25517c-11.08633,-3.2205 -13.27838,-6.80574 -20.3709,-13.24607c-7.09252,-6.44033 -1.72399,-2.78126 -1.16248,-6.30722c0.56151,-3.52596 2.74893,-7.38289 4.11627,-12.24079c1.36734,-4.8579 -1.71789,-8.72766 1.96032,-9.34825c3.67821,-0.62059 28.56145,1.50395 46.84389,1.11404z" fill="#fdcc8d" stroke="#000000" stroke-width="3" stroke-linecap="round"/><path d="M211.98975,158.24747c2.53591,-2.95856 3.54017,-1.18484 5.5,0.33333c1.95983,1.51817 9.10189,5.60335 6.33333,8.83333c-2.76856,3.22998 -9.76947,4.03538 -14.33333,0.5c-4.56386,-3.53538 -0.03591,-6.7081 2.5,-9.66666z" fill="#e1b47d" stroke="#000000" stroke-width="0" stroke-linecap="round"/><path d="M252.65641,159.41413c3.0292,-2.82029 3.17805,-1.52774 4.33333,0.16667c1.15528,1.69441 6.39813,7.82472 3.16667,10.83333c-3.23146,3.00861 -9.85721,2.53164 -12.83333,-1.83333c-2.97612,-4.36497 2.30413,-6.34638 5.33333,-9.16667z" fill="#e1b47d" stroke="#000000" stroke-width="0" stroke-linecap="round"/><path d="M307.15641,161.41414c3.85748,0.29673 3.85796,5.68622 2,9.33333c-1.85796,3.64711 -5.87474,2.41789 -6.5,-0.5c-0.62526,-2.91789 0.64252,-9.13006 4.5,-8.83333z" fill="#e1b47d" stroke="#000000" stroke-width="0" stroke-linecap="round"/><path d="M210.67756,158.2923c-22.94071,-1.22011 -2.78289,1.56081 -8.18863,-2.94971c-5.40574,-4.51052 -5.62017,-4.68574 -6.08617,-8.96111c-0.466,-4.27537 1.15009,-5.99355 4.24695,-7.91296c3.09686,-1.91941 9.01698,0.34429 13.21013,-2.90679c4.19315,-3.25108 -0.25338,-3.41707 -1.15199,-6.44226c-0.89861,-3.02519 -4.50713,-6.74544 -4.18269,-11.51707c0.32444,-4.77163 -0.00388,-12.99821 6.01659,-15.45462c6.02047,-2.45641 28.52444,-7.14823 47.03145,-6.18953c18.50701,0.9587 34.18117,2.7465 53.8923,11.41756c19.71113,8.67106 4.39924,5.42569 4.11711,14.10118c-0.28213,8.67549 -5.42344,8.01585 -5.02633,13.85743c0.39711,5.84158 6.7107,5.79509 6.7107,10.91998c0,5.12489 -2.84504,6.51344 -6.7107,8.85561c-3.86566,2.34217 -6.83181,1.72257 -11.38193,2.10653c-4.55012,0.38396 -20.49209,1.53934 -33.63423,1.69219c-13.14214,0.15285 -35.92185,0.60368 -58.86256,-0.61643z" fill="#0cb500" stroke="#000000" stroke-width="3" stroke-linecap="round"/><path d="M199.78451,152.32227c-0.48253,-0.31875 -3.18484,-1.84634 -3.67392,-3.87253c-0.48908,-2.02619 0.80502,-3.26137 1.43972,-5.38341c0.6347,-2.12204 -0.1023,-3.20495 1.34784,-3.93644c1.45014,-0.73149 6.43229,-1.81835 10.67425,-2.1278c4.24196,-0.30945 7.77922,-0.38091 12.66044,0.42556c4.88122,0.80647 1.49508,1.31706 -0.42556,1.59586c-1.92064,0.2788 -7.85201,-0.51603 -12.76683,0.31917c-4.91482,0.8352 -1.95828,1.2752 -3.51088,2.44697c-1.5526,1.17177 -1.32542,1.0696 -2.1278,1.80864c-0.80238,0.73904 -1.3489,1.0223 -1.91502,1.91502c-0.56612,0.89272 -0.80883,1.43187 -0.85113,2.44698c-0.0423,1.01511 0.49063,1.59615 0.63835,2.65975c0.14772,1.0636 0.2046,0.81487 -0.10639,1.17029c-0.31099,0.35542 -0.90054,0.85069 -1.38307,0.53194z" fill="#0a9c00" stroke="none" stroke-width="0" stroke-linecap="round"/><path d="M246.27703,148.38584c0.82206,0.93949 1.0309,3.58374 -0.21278,3.19171c-1.24368,-0.39203 -16.63998,-1.42186 -19.36302,-9.36234" fill="none" stroke="#000000" stroke-width="3" stroke-linecap="round"/><path d="M287.27873,144.02385c-5.22593,10.15828 -16.012,7.64091 -27.87424,8.93678c-11.86224,1.29587 -3.02013,-5.93205 2.55336,-6.17064" fill="none" stroke="#000000" stroke-width="3" stroke-linecap="round"/><path d="M218.32308,158.24747c0,0 23.48674,-7.26863 34,0.83334c10.51326,8.10197 -5.60774,13.4173 -15.83334,13.16667c-10.2256,-0.25063 -10.80573,-8.32735 -18.16666,-14c-7.36093,-5.67265 0,-0.00001 0,-0.00001z" fill="#ffffff" stroke="#000000" stroke-width="3" stroke-linecap="round"/><path d="M256.15641,159.5808c0,0 15.76207,-0.05879 25.84217,-0.41997c10.0801,-0.36118 24.83663,-11.30027 25.3245,-1.41336c0.48787,9.88691 -11.19444,21.02923 -24.33333,21.5c-13.13889,0.47077 -16.0004,-11.72701 -26.83333,-19.66667c-10.83293,-7.93966 -0.00001,0 -0.00001,0z" fill="#ffffff" stroke="#000000" stroke-width="3" stroke-linecap="round"/><path d="M225.65642,163.24747c0,-0.73588 0.56465,-1.33334 1.33333,-1.33334c0.76868,0 1.33334,0.56225 1.33334,1.33334c0,0.77109 -0.56207,1.33333 -1.33334,1.33333c-0.77127,0 -1.33333,-0.59745 -1.33333,-1.33333z" fill="#000000" stroke="#000000" stroke-width="2" stroke-linecap="butt"/><path d="M266.48975,166.91413c0,-0.83297 0.47177,-1.66666 1.33333,-1.66666c0.86156,0 1.33333,0.78506 1.33333,1.66666c0,0.8816 -0.46896,1.66667 -1.33333,1.66667c-0.86437,0 -1.33333,-0.8337 -1.33333,-1.66667z" fill="#000000" stroke="#000000" stroke-width="2" stroke-linecap="butt"/><path d="M305.82308,177.24746c-4.93036,12.92379 -17.91602,13.81794 -32.34947,14.48308c-14.43345,0.66514 -33.14149,3.6578 -39.98386,-11.14974" fill="none" stroke="#000000" stroke-width="3" stroke-linecap="round"/><path d="M258.43068,159.40634c18.28244,-0.38991 30.83167,-9.12006 49.07913,-3.15979c18.24746,5.96027 4.11516,9.87746 3.18228,20.23021c-0.93288,10.35275 -1.94601,10.10829 -6.33697,14.77952c-4.39096,4.67123 -8.46425,6.65432 -15.02977,7.95105c-6.56552,1.29673 -19.93724,1.43577 -32.73325,1.48247c-12.79601,0.0467 -18.46219,1.96533 -29.54852,-1.25517c-11.08633,-3.2205 -13.27838,-6.80574 -20.3709,-13.24607c-7.09252,-6.44033 -1.72399,-2.78126 -1.16248,-6.30722c0.56151,-3.52596 2.74893,-7.38289 4.11627,-12.24079c1.36734,-4.8579 -1.71789,-8.72766 1.96032,-9.34825c3.67821,-0.62059 28.56145,1.50395 46.84389,1.11404z" fill="none" stroke="#000000" stroke-width="2" stroke-linecap="round"/><path d="M287.98975,136.0808c0.82088,-0.05546 14.69684,-0.76116 24,0.33333c9.30316,1.09449 4.92515,0.69856 7.16667,3.33333c2.24152,2.63477 2.4533,4.59407 2.33333,7.83334c-0.11997,3.23927 -0.68961,4.31996 -2.83333,5.66666c-2.14372,1.3467 -6.07663,2.19133 -10.16667,2.50001c-4.09004,0.30868 0.20402,-0.26037 1.33333,-1.83334c1.12931,-1.57297 2.26989,-2.69734 3.33333,-4.66667c1.06344,-1.96933 1.89815,-2.34437 1.16667,-3.66666c-0.73148,-1.32229 -2.82959,-3.71861 -5.5,-4.16667c-2.67041,-0.44806 -11.87399,1.15649 -19.33333,0c-7.45934,-1.15649 -1.41667,-0.66666 -2.16667,-3.33333c-0.75,-2.66667 -0.15421,-1.94454 0.66667,-2z" fill="#0a9600" stroke="#000000" stroke-width="0" stroke-linecap="round"/><path d="M288.32308,134.5808c0.48993,-0.67364 2.28778,-1.61475 4,-2c1.71222,-0.38525 5.91306,0.31549 9.33333,-1c3.42027,-1.31549 5.20271,-3.02923 8,-5.66667c2.79729,-2.63744 2.58554,-3.02693 3.66667,-5.33334c1.08113,-2.30641 1.57898,-3.19264 1.33333,-5.33333c-0.24565,-2.14069 -1.27936,-3.06662 -2.5,-4.83333c-1.22064,-1.76671 -2.6455,-2.41019 -3.83333,-4.33334c-1.18783,-1.92315 -0.51757,-1.40626 0.33333,-1.33333c0.8509,0.07293 3.89858,0.23191 5.5,1.83333c1.60142,1.60142 3.41707,4.68099 4.5,8.16667c1.08293,3.48568 0.98389,5.46194 0.83333,9c-0.15056,3.53806 -0.24313,4.3008 -1.5,6.66667c-1.25687,2.36587 -2.15934,2.91913 -4.16667,4c-2.00733,1.08087 -3.96736,1.62856 -6.66667,1.83333c-2.69931,0.20477 -10.69625,0.6021 -17.5,0c-6.80375,-0.6021 -1.82325,-0.99302 -1.33332,-1.66666z" fill="#0a9600" stroke="#000000" stroke-width="0" stroke-linecap="round"/><path d="M209.65641,135.91413c3.63344,-3.44947 9.9769,-4.05172 12.83333,0.33333" fill="none" stroke="#000000" stroke-width="2" stroke-linecap="round"/><path d="M314.32308,135.74747c-7.08291,7.26688 -19.87435,8.98402 -26,0.33333" fill="none" stroke="#000000" stroke-width="2" stroke-linecap="round"/><path d="M210.67756,158.12563c-22.94071,-1.22011 -2.78289,1.56081 -8.18863,-2.94971c-5.40574,-4.51052 -5.62017,-4.68574 -6.08617,-8.96111c-0.466,-4.27537 1.15009,-5.99355 4.24695,-7.91296c3.09686,-1.91941 9.01698,0.34429 13.21013,-2.90679c4.19315,-3.25108 -0.25338,-3.41707 -1.15199,-6.44226c-0.89861,-3.02519 -4.50713,-6.74544 -4.18269,-11.51707c0.32444,-4.77163 -0.00388,-12.99821 6.01659,-15.45462c6.02047,-2.45641 28.52444,-7.14823 47.03145,-6.18953c18.50701,0.9587 34.18117,2.7465 53.8923,11.41756c19.71113,8.67106 4.39924,5.42569 4.11711,14.10118c-0.28213,8.67549 -5.42344,8.01585 -5.02633,13.85743c0.39711,5.84158 6.7107,5.79509 6.7107,10.91998c0,5.12489 -2.84504,6.51344 -6.7107,8.85561c-3.86566,2.34217 -6.83181,1.72257 -11.38193,2.10653c-4.55012,0.38396 -20.49209,1.53934 -33.63423,1.69219c-13.14214,0.15285 -35.92185,0.60368 -58.86256,-0.61643z" fill="none" stroke="#000000" stroke-width="2" stroke-linecap="round"/><path d="M233.15642,200.24748c0.84219,-0.15039 7.80684,-2.81102 9,0.5c1.19316,3.31102 -5.56191,11.64855 -2.33333,18c3.22858,6.35145 4.80081,-3.21034 9.8314,-3.24934c5.03059,-0.039 8.70637,6.78502 11.6686,3.08267c2.96223,-3.70235 -4.04871,-11.92673 0,-17.66667c4.04871,-5.73994 7.68104,-2.18045 13.16667,-1c5.48563,1.18045 0.27475,1.29192 0,3.83333c-0.27475,2.54141 -5.17603,9.84114 -2,14.66667c3.17603,4.82553 5.70352,-0.83898 10.11006,-2.34455c4.40654,-1.50557 5.8701,-5.84564 9.88994,-4.48879c4.01984,1.35685 0.69176,4.76594 1.5,8.33333c0.80824,3.56739 2.27308,7.8707 3.33333,13c1.06025,5.1293 3.69137,10.22646 2.83333,16.83333c-0.85804,6.60687 -2.76893,6.0648 -6.16667,8.83333c-3.39774,2.76853 -6.72511,5.06543 -11.83333,5.83333c-5.10822,0.7679 -8.46346,-0.45831 -13.66667,-2c-5.20321,-1.54169 -6.08826,-1.86441 -8.83333,-4.66667c-2.74507,-2.80226 -3.35265,-7.90489 -7.16667,-11.66667c-3.81402,-3.76178 -3.15196,-1.88436 -5,-0.33333c-1.84804,1.55103 -1.81976,5.54689 -4.33333,8.16667c-2.51357,2.61978 -4.21299,3.39143 -7.5,4.16667c-3.28701,0.77524 -6.36458,1.18123 -10.16667,0c-3.80209,-1.18123 -5.33797,-2.27638 -7,-5.33333c-1.66203,-3.05695 -2.98013,-7.14891 -2.33333,-11.83333c0.6468,-4.68442 2.61172,-17.92107 7.83333,-28c5.22161,-10.07893 3.52333,3.87164 6.5,0.33333c2.97667,-3.53831 1.44576,-6.50644 2.33333,-10.83333c0.88757,-4.32689 -0.50885,-2.01626 0.33334,-2.16665z" fill="#0024dd" stroke="#000000" stroke-width="1.5" stroke-linecap="round"/><path d="M239.82308,215.41413c-2.40772,5.00066 -3.17422,1.89477 -4,-0.5c-0.82578,-2.39477 1.79258,-5.73265 0.66667,-9.16667c-1.12591,-3.43402 -3.22521,0.84757 -4,-1c-0.77479,-1.84757 0.05457,-3.5637 1.83333,-4.16667c1.77876,-0.60297 6.9016,-2.12902 8,0.83333c1.0984,2.96235 -0.09228,8.99935 -2.5,14.00001z" fill="#001eb7" stroke="none" stroke-width="0" stroke-linecap="round"/><path d="M267.65641,228.41414c1.75468,-4.97159 2.54761,-2.25298 4.5,-0.66667c1.95239,1.58631 0.73686,2.90972 0.83333,5c0.09647,2.09028 0.28452,3.63652 -0.33333,5.83333c-0.61785,2.19681 -0.81518,3.71122 -2.66667,4.83333c-1.85149,1.12211 -2.60941,-0.06054 -2.83333,-1.5c-0.22392,-1.43946 -1.25468,-8.5284 0.5,-13.49999z" fill="#001eb7" stroke="none" stroke-width="0" stroke-linecap="round"/><path d="M261.48974,201.41414c1.33541,-0.96362 4.64535,-0.65762 7.67528,-0.89069c3.02993,-0.23307 4.97276,-2.15895 5.32472,-0.10931c0.35196,2.04964 -5.20286,11.88785 -2.16667,18.5c3.03619,6.61215 5.6468,-4.90747 9.66667,-2.16666c4.01987,2.74081 0.77745,5.4952 -2.33333,7.16666c-3.11078,1.67146 -5.6485,0.47712 -8.83333,-1.16667c-3.18483,-1.64379 -1.30302,-2.19691 -1.5,-4.16667c-0.19698,-1.96976 2.18903,-8.22688 -0.16667,-12.5c-2.3557,-4.27312 -4.27567,1.15829 -7,-0.5c-2.72433,-1.65829 -2.00208,-3.20304 -0.66667,-4.16666z" fill="#001eb7" stroke="none" stroke-width="0" stroke-linecap="round"/><path d="M232.15642,226.5808c2.71787,-3.7223 5.37042,-1.65287 5.83333,1.16667c0.46291,2.81954 -1.49065,6.56328 -4,10c-2.50935,3.43672 -3.36076,2.36328 -3.66667,0.5c-0.30591,-1.86328 -0.88453,-7.94437 1.83334,-11.66667z" fill="#001eb7" stroke="none" stroke-width="0" stroke-linecap="round"/><path d="M230.32308,237.41413c-2.66759,-3.40348 -3.05897,-9.94585 1.33333,-11c4.3923,-1.05415 23.15259,-3.56001 36.16667,2c13.01408,5.56001 6.40458,11.5227 -0.66667,13.16667" fill="none" stroke="#000000" stroke-width="3" stroke-linecap="round"/><path d="M273.15641,261.91413c0.12259,-0.7049 0.01356,-1.49761 0.66667,-2c0.65311,-0.50239 3.8103,-1.42949 5.83333,-3c2.02303,-1.57051 4.56263,-3.81878 6.83333,-6.83333c2.2707,-3.01455 2.07521,-3.50452 2.83333,-6c0.75812,-2.49548 0.63387,-4.37969 1.16667,-7.16667c0.5328,-2.78698 -0.67235,-4.11441 1,-4.16667c1.67235,-0.05226 2.32787,2.75216 4.33333,4c2.00546,1.24784 2.74313,-0.56871 3.16667,0.66667c0.42354,1.23538 0.9031,6.49612 0.71968,10.669c-0.18342,4.17288 -0.46207,2.84115 -1.38635,4.49766c-0.92428,1.65651 -2.22391,3.92509 -4.35251,5.78761c-2.1286,1.86252 -3.77849,2.2746 -6.31416,3.54573c-2.53567,1.27113 -3.40964,2.26444 -5.90559,2.58002c-2.49595,0.31558 -5.36231,0.22359 -8.59441,-0.74668c-3.2321,-0.97027 -0.12258,-1.12844 0.00001,-1.83334z" fill="#001eb7" stroke="none" stroke-width="0" stroke-linecap="round"/><path d="M232.32308,217.8308c0,-0.78188 0.59994,-1.41667 1.41667,-1.41667c0.81673,0 1.41667,0.59739 1.41667,1.41667c0,0.81928 -0.5972,1.41667 -1.41667,1.41667c-0.81947,0 -1.41667,-0.63479 -1.41667,-1.41667z" fill="#000000" stroke="#000000" stroke-width="3" stroke-linecap="butt"/><path d="M265.65641,220.99747c0,-0.78188 0.59994,-1.41667 1.41666,-1.41667c0.81672,0 1.41667,0.59739 1.41667,1.41667c0,0.81928 -0.5972,1.41667 -1.41667,1.41667c-0.81947,0 -1.41666,-0.63479 -1.41666,-1.41667z" fill="#000000" stroke="#000000" stroke-width="3" stroke-linecap="butt"/><path d="M233.15642,200.24748c0.84219,-0.15039 7.80684,-2.81102 9,0.5c1.19316,3.31102 -5.56191,11.64855 -2.33334,18c3.22857,6.35145 4.80081,-3.21034 9.8314,-3.24934c5.03059,-0.039 8.70637,6.78502 11.6686,3.08267c2.96223,-3.70235 -4.04871,-11.92673 0,-17.66667c4.04871,-5.73994 7.68104,-2.18045 13.16667,-1c5.48563,1.18045 0.27475,1.29192 0,3.83334c-0.27475,2.54142 -5.17603,9.84113 -2,14.66666c3.17603,4.82553 5.70352,-0.83898 10.11006,-2.34455c4.40654,-1.50557 5.87011,-5.84563 9.88994,-4.48878c4.01983,1.35685 0.69176,4.76594 1.5,8.33333c0.80824,3.56739 2.27308,7.8707 3.33333,13c1.06025,5.1293 3.69137,10.22647 2.83333,16.83334c-0.85804,6.60687 -2.76893,6.0648 -6.16667,8.83333c-3.39774,2.76853 -6.72511,5.06543 -11.83333,5.83333c-5.10822,0.7679 -8.46346,-0.45831 -13.66667,-2c-5.20321,-1.54169 -6.08826,-1.8644 -8.83333,-4.66666c-2.74507,-2.80226 -3.35265,-7.90489 -7.16667,-11.66667c-3.81402,-3.76178 -3.15196,-1.88436 -5,-0.33333c-1.84804,1.55103 -1.81976,5.54688 -4.33333,8.16666c-2.51357,2.61978 -4.21299,3.39143 -7.5,4.16667c-3.28701,0.77524 -6.36458,1.18123 -10.16667,0c-3.80209,-1.18123 -5.33797,-2.27638 -7,-5.33333c-1.66203,-3.05695 -2.98013,-7.14892 -2.33333,-11.83334c0.6468,-4.68442 2.61172,-17.92108 7.83333,-28c5.22161,-10.07892 3.52333,3.87164 6.5,0.33334c2.97667,-3.5383 1.44577,-6.50644 2.33334,-10.83334c0.88757,-4.3269 -0.50885,-2.01627 0.33334,-2.16666z" fill="none" stroke="#000000" stroke-width="3" stroke-linecap="round"/><path d="M315.32308,233.91412c-0.05762,2.82339 3.73588,0.37791 4.33333,2.5c0.59745,2.12209 -0.07991,4.2887 -2.15957,5.22096c-2.07966,0.93226 -4.513,-0.93127 -7.50709,-0.88762c-2.99409,0.04365 -3.68149,1.82839 -5.91667,1.08333c-2.23518,-0.74506 -3.73116,-3.57928 -6.58333,-5.25c-2.85217,-1.67072 -2.10608,0.1059 -3.36431,-0.57704c-1.25823,-0.68294 -0.87933,-1.76915 -1.9494,-2.30714c-1.07007,-0.53799 -3.18728,0.52809 -4.22674,-0.798c-1.03946,-1.32609 -9.37355,-8.21628 -5.79289,-11.98448c3.58066,-3.7682 15.87461,-12.49934 27,-10.33333c11.12539,2.16601 8.431,9.20738 10.66667,17.66667c2.23567,8.45929 -4.44238,2.84326 -4.5,5.66665z" fill="#fdcc8d" stroke="#000000" stroke-width="3" stroke-linecap="round"/><path d="M282.15642,226.91413c-1.03764,-1.03765 -0.93769,-2.04111 -0.5,-3.33333c0.43769,-1.29222 1.80788,-4.73938 4,-7c2.19212,-2.26062 3.83048,-2.87103 6.66667,-4c2.83619,-1.12897 6.25376,-2.74784 10.5,-2.83333c4.24624,-0.08549 8.96027,0.50017 14.33333,2.33333c5.37306,1.83316 1.73773,1.3408 -0.16667,2.5c-1.9044,1.1592 -2.14995,-0.14052 -3.66667,-0.16667c-1.51672,-0.02615 -3.65839,0 -6,0c-2.34161,0 -3.97124,-0.2007 -6.5,0c-2.52876,0.2007 -2.46668,0.37661 -4,0.83334c-1.53332,0.45673 -2.41994,0.73442 -3.83333,1.5c-1.41339,0.76558 -2.6646,1.56234 -4.16667,2.83333c-1.50207,1.27099 -1.85473,1.36383 -2.33333,2.66667c-0.4786,1.30284 0.80776,3.91215 -0.66667,5.5c-1.47443,1.58785 -2.62902,0.20431 -3.66666,-0.83334z" fill="#e5b780" stroke="none" stroke-width="0" stroke-linecap="round"/><path d="M302.15641,216.91414c1.98396,0.51086 1.16619,1.65772 0.50001,2.83334c-0.66618,1.17562 -2.50609,0.82732 -3.33333,2.16666c-0.82724,1.33934 -0.24239,2.09911 -0.16667,3.5c0.07572,1.40089 0.67738,1.62014 0.5,2.66667c-0.17738,1.04653 -0.2213,4.98549 -2.16667,7.16667c-1.94537,2.18118 -2.95283,0.66997 -3.33333,-1c-0.3805,-1.66997 -0.5299,-7.49084 0.33333,-12.16667c0.86323,-4.67583 0.95623,-2.65167 2.60784,-3.76471c1.65161,-1.11304 3.07486,-1.91282 5.05882,-1.40196z" fill="#e5b780" stroke="none" stroke-width="0" stroke-linecap="round"/><path d="M310.15641,222.5808c1.5126,0.7563 0.54681,1.2857 0,2.16667c-0.54681,0.88097 -5.10756,3.85885 -6,7.5c-0.89244,3.64115 3.61819,6.10877 1.83333,9.5c-1.78486,3.39123 -3.07254,-1.08923 -5.16667,-3.16667c-2.09413,-2.07744 -2.20971,-2.29799 -2.24165,-4.18261c-0.03194,-1.88462 0.83799,-3.63211 2.07499,-5.65072c1.237,-2.01861 2.53014,-4.45524 5.16667,-6.16667c2.63653,-1.71143 2.82073,-0.7563 4.33333,0z" fill="#e5b780" stroke="none" stroke-width="0" stroke-linecap="round"/><path d="M318.65641,225.74747c0,1.71104 -2.9289,2.88446 -4.33333,5.16666c-1.40443,2.2822 -0.97695,2.04802 -1,3.5c-0.02305,1.45198 2.01169,4.51236 0.83333,7c-1.17836,2.48764 -2.56961,0.71481 -3.83333,-0.66667c-1.26372,-1.38148 -0.68342,-2.5858 -0.76668,-4.36199c-0.08326,-1.77619 -0.69053,-4.03458 0.26667,-6.30468c0.9572,-2.2701 2.12351,-3.83418 4.5,-5c2.37649,-1.16582 4.33334,-1.04436 4.33334,0.66668z" fill="#e5b780" stroke="none" stroke-width="0" stroke-linecap="round"/><path d="M291.82307,233.74748c0.03828,-1.588 2.34112,-1.26307 2.9466,-2.8079c0.60548,-1.54483 -0.23092,-2.59177 -0.16537,-4.28812c0.06555,-1.69635 -1.24057,-5.19235 0.61825,-7.43231c1.85882,-2.23996 4.98364,-4.29299 7.60053,-2.47168" fill="none" stroke="#000000" stroke-width="3" stroke-linecap="round"/><path d="M298.32308,236.41415c-1.75809,-3.99453 1.30395,-6.78569 4.05215,-10.42301c2.7482,-3.63732 4.13503,-5.91683 7.28118,-4.57699" fill="none" stroke="#000000" stroke-width="3" stroke-linecap="round"/><path d="M309.98975,239.74748c-2.65788,-2.8236 -1.5425,-6.32462 0.30027,-9.93175c1.84277,-3.60713 4.02501,-6.57042 7.53306,-5.40159" fill="none" stroke="#000000" stroke-width="3" stroke-linecap="round"/><path d="M315.32308,233.91412c-0.05762,2.82339 3.73588,0.37791 4.33333,2.5c0.59745,2.12209 -0.07991,4.2887 -2.15957,5.22096c-2.07966,0.93226 -4.513,-0.93127 -7.50709,-0.88762c-2.99409,0.04365 -3.68149,1.82839 -5.91667,1.08333c-2.23518,-0.74506 -3.73116,-3.57928 -6.58333,-5.25c-2.85217,-1.67072 -2.10608,0.1059 -3.36431,-0.57704c-1.25823,-0.68294 -0.87933,-1.76915 -1.9494,-2.30714c-1.07007,-0.53799 -3.18728,0.52809 -4.22674,-0.798c-1.03946,-1.32609 -9.37355,-8.21628 -5.79289,-11.98448c3.58066,-3.7682 15.87461,-12.49934 27,-10.33333c11.12539,2.16601 8.431,9.20738 10.66667,17.66667c2.23567,8.45929 -4.44238,2.84326 -4.5,5.66665z" fill="none" stroke="#000000" stroke-width="2" stroke-linecap="round"/><path d="M204.82308,207.41414c0.00001,0 1.07288,-0.63045 1.83334,-0.66666c0.76046,-0.03621 1.34225,-0.10557 1.66666,0.5c0.32441,0.60557 1.13343,2.53281 0.83334,4.16666c-0.30009,1.63385 -0.72497,3.1422 -2.33334,4c-1.60837,0.8578 -4.75175,2.224 -7.66666,1.33334c-2.91491,-0.89066 -3.97883,-2.35728 -4.33334,-5c-0.35451,-2.64272 0.08354,-6.06433 2.5,-8.66667c2.41646,-2.60234 4.8113,-2.93478 8.33334,-3c3.52204,-0.06522 6.18794,0.825 9.66666,2.66667c3.47872,1.84167 4.84528,3.4625 7.33334,6.33333c2.48806,2.87083 1.64422,2.05568 1.33333,3.66667c-0.31089,1.61099 -1.71842,3.67414 -3.16666,5.83333c-1.44824,2.15919 -3.29221,5.09441 -6,7.83333c-2.70779,2.73892 -4.60867,5.09916 -8.5,6.83334c-3.89133,1.73418 -4.36738,1.23298 -6.83334,0c-2.46596,-1.23298 -1.41237,-2.22969 -0.5,-3.66667c0.91237,-1.43698 3.84156,-4.8541 7.16667,-6.83333c3.32511,-1.97923 4.05917,-1.45376 6.83333,-1.5c2.77416,-0.04624 4.29848,2.18952 3.16667,1.33333c-1.13181,-0.85619 -5.0875,-1.74701 -7.0782,-4.29234c-1.9907,-2.54533 0.06842,-2.95658 -0.2245,-5.04497c-0.29292,-2.08839 0.07582,-4.32154 -1.38573,-6.43533c-1.46155,-2.11379 -1.27012,0.29101 -2.6449,0.60598c-1.37478,0.31497 -0.00002,-0.00001 -0.00001,-0.00001z" fill="#fdcc8d" stroke="#000000" stroke-width="3" stroke-linecap="round"/><path d="M204.48975,207.74747c-0.55192,0.55192 -1.2218,0.24319 -2,0c-0.7782,-0.24319 -0.90107,-0.44354 -0.66666,-0.83334" fill="none" stroke="#000000" stroke-width="2" stroke-linecap="round"/><path d="M195.10098,180.31956c0,0 -5.97466,18.1535 -15.80777,20.5887c-9.83311,2.4352 -19.74453,-1.4554 -21.97024,-11.23287c-2.22571,-9.77747 5.23097,-16.82861 15.03,-19.25536c9.79903,-2.42675 13.56182,5.90187 22.74802,9.89954c9.1862,3.99767 -0.00001,-0.00001 -0.00001,-0.00001z" fill="#212121" stroke="#000000" stroke-width="2" stroke-linecap="butt"/><path d="M190.51362,178.98867c0,0 -1.64539,8.82487 -6.07283,10.31915c-4.42744,1.49428 -8.21996,-0.80354 -12.08601,-4.19044c-3.86605,-3.3869 -0.92863,-3.49338 0.63205,-5.84395c1.56068,-2.35057 3.27873,-4.75717 6.44079,-4.80854c3.16206,-0.05137 6.72926,2.74595 11.08601,4.52378c4.35675,1.77783 -0.00001,0 -0.00001,0z" fill="#151515" stroke="none" stroke-width="0" stroke-linecap="butt"/><path d="M209.98975,220.24747c-0.59126,2.27409 -3.90899,2.74362 -6.66666,4.33333c-2.75767,1.58971 -4.32652,4.69281 -7.5,3.83333c-3.17348,-0.85948 -2.17562,-3.89103 -0.5,-6c1.67562,-2.10897 5.55647,-5.48561 10.16666,-6.16666c4.61019,-0.68105 5.09126,1.72591 4.5,4z" fill="#fdcc8d" stroke="#000000" stroke-width="3" stroke-linecap="round"/><path d="M188.98975,221.74747c0,0 -4.474,-2.27954 -3.5,-4.16667c0.974,-1.88713 4.60578,-6.00814 8.83334,-6.16667c4.22756,-0.15853 3.98461,2.56373 4.5,5.66667c0.51539,3.10294 -0.8627,3.37552 -2.84208,4.31489c-1.97938,0.93937 -4.23894,0.21329 -6.99125,0.35178c-2.75231,0.13849 -0.00001,0 -0.00001,0z" fill="#fdcc8d" stroke="#000000" stroke-width="3" stroke-linecap="round"/><path d="M207.32307,213.91413c-0.70209,0.53827 -3.73783,2.07523 -6.33334,2c-2.59551,-0.07523 -4.08667,-0.35954 -5.16666,-2.33333c-1.07999,-1.97379 -0.54252,-4.06283 0.33334,-6.5c0.87586,-2.43717 1.64099,-3.0769 3.5,-4.16667c1.85901,-1.08977 1.55259,0.26444 1.33333,1.33334c-0.21926,1.0689 -2.8346,2.89945 -2.66666,5.16666c0.16794,2.26721 1.38688,3.15631 3.33334,3.83334c1.94646,0.67703 2.5306,-1.37875 4.33333,-1.16667c1.80273,0.21208 2.03541,1.29506 1.33332,1.83333z" fill="#e1b47d" stroke="none" stroke-width="0" stroke-linecap="round"/><path d="M201.48975,199.0808c1.74716,1.90132 12.87096,10.97873 17.66667,20.33333c4.79571,9.3546 0.22585,7.0849 -4.16667,6c-4.39252,-1.0849 -14.60439,-7.32192 -23.5,-12.83333c-8.89561,-5.51141 -8.20174,-2.47489 -7.16666,-6.16667c1.03508,-3.69178 6.06044,-9.05818 12.16666,-11.66666c6.10622,-2.60848 3.25284,2.43201 5,4.33333z" fill="#515151" stroke="#000000" stroke-width="2" stroke-linecap="round"/><path d="M184.65642,204.91413c0.94791,-1.46834 6.12238,-7.69971 11.66666,-10c5.54428,-2.30029 4.53475,0.62573 4,3.5c-0.53475,2.87427 -3.18022,2.09028 -5.33334,3.66667c-2.15312,1.57639 -2.47305,1.88829 -4,3.16667c-1.52695,1.27838 -1.51044,2.9205 -3.16666,2.83333c-1.65622,-0.08717 -4.11457,-1.69833 -3.16666,-3.16667z" fill="#393939" stroke="none" stroke-width="0" stroke-linecap="round"/><path d="M171.98975,173.38636c-0.21946,1.75572 -3.52029,3.83723 -5.33333,6.66667c-1.81304,2.82944 -1.87304,2.74644 -2,4.77778c-0.12696,2.03134 -0.00773,3.93612 1.33333,5.88889c1.34106,1.95277 2.77565,2.50465 5,3.33333c2.22435,0.82868 3.84698,1.19423 6.33334,0.88889c2.48636,-0.30534 4.00251,-1.15922 6.33334,-2.44444c2.33083,-1.28522 3.361,-2.53616 5.55555,-4.11111c2.19455,-1.57495 3.52707,-5.60597 5.85714,-4.07936c2.33007,1.52661 -1.08064,3.7163 -2.63492,6.19048c-1.55428,2.47418 -2.73483,4.69617 -5.45532,6.68795c-2.72049,1.99178 -4.17501,1.66232 -6.98913,2.42316c-2.81412,0.76084 -4.39406,1.60425 -7.29045,1.43755c-2.89639,-0.1667 -5.22304,-0.76685 -8.154,-2.32644c-2.93096,-1.55959 -2.86267,-2.33464 -4.25157,-4.27469c-1.3889,-1.94005 -2.67019,-3.09869 -2.74843,-5.50309c-0.07824,-2.4044 0.03395,-7.01151 2.22223,-10.66666c2.18828,-3.65515 4.20231,-4.74758 7.88889,-6.22222c3.68658,-1.47464 4.55279,-0.42241 4.33333,1.33331z" fill="#151515" stroke="none" stroke-width="0" stroke-linecap="round"/><path d="M175.87864,178.27525c3.74076,1.16516 6.57113,5.26638 4.66666,8.88889" fill="none" stroke="#000000" stroke-width="2" stroke-linecap="round"/><path d="M184.65642,184.38635c-3.43414,-0.79721 -6.24626,-4.28955 -4.77778,-7.66666" fill="none" stroke="#000000" stroke-width="2" stroke-linecap="round"/><path d="M184.43419,176.27525c2.45296,0.67456 4.37914,3.27432 3.22223,5.66666" fill="none" stroke="#000000" stroke-width="2" stroke-linecap="round"/><path d="M174.10086,184.49747c0.59526,-3.43894 4.15384,-3.32683 7.30945,-5.15239c3.15561,-1.82556 3.78693,-3.76567 6.13499,-2.62538" fill="none" stroke="#000000" stroke-width="2" stroke-linecap="round"/><path d="M176.87864,187.16413c0.4056,-2.89779 3.40854,-2.87173 5.98531,-4.51553c2.57677,-1.6438 3.99614,-4.65916 6.90358,-3.70669" fill="none" stroke="#000000" stroke-width="2" stroke-linecap="round"/><path d="M195.10098,180.31956c0,0 -5.97466,18.1535 -15.80777,20.5887c-9.83311,2.4352 -19.74453,-1.4554 -21.97024,-11.23287c-2.22571,-9.77747 5.23097,-16.82861 15.03,-19.25536c9.79903,-2.42675 13.56182,5.90187 22.74802,9.89954c9.1862,3.99767 -0.00001,-0.00001 -0.00001,-0.00001z" fill="none" stroke="#000000" stroke-width="2" stroke-linecap="butt"/><path d="M201.48975,199.0808c1.74716,1.90132 12.87096,10.97873 17.66667,20.33333c4.79571,9.3546 0.22585,7.0849 -4.16667,6c-4.39252,-1.0849 -14.60439,-7.32192 -23.5,-12.83333c-8.89561,-5.51141 -8.20174,-2.47489 -7.16666,-6.16667c1.03508,-3.69178 6.06044,-9.05818 12.16666,-11.66666c6.10622,-2.60848 3.25284,2.43201 5,4.33333z" fill="none" stroke="#000000" stroke-width="2" stroke-linecap="round"/><path d="M174.32308,201.74747c1.50623,-4.00151 7.43659,-2.86421 11.70151,-5.98022c4.26492,-3.11601 3.90591,-8.08041 8.71515,-8.93645c4.80924,-0.85604 10.41626,2.29789 8.25,5.91667c-2.16626,3.61878 -11.8277,14.76373 -22.66666,18.16666c-10.83896,3.40293 -7.50623,-5.16515 -6,-9.16666z" fill="#333333" stroke="#000000" stroke-width="2" stroke-linecap="round"/></g></g></svg>