<svg version="1.1" xmlns="http://www.w3.org/2000/svg" xmlns:xlink="http://www.w3.org/1999/xlink" width="440.68074" height="90.56288" viewBox="0,0,440.68074,90.56288"><g transform="translate(-19.65963,-134.71855)"><g data-paper-data="{&quot;isPaintingLayer&quot;:true}" fill="#000000" fill-rule="nonzero" stroke="none" stroke-width="1" stroke-linecap="butt" stroke-linejoin="miter" stroke-miterlimit="10" stroke-dasharray="" stroke-dashoffset="0" style="mix-blend-mode: normal"><path d="M28.68193,145.02976v-1.2889h3.8667v-2.5778h-1.2889v-2.5778h-1.2889v-1.2889h-2.5778v1.2889h-1.2889v1.2889h-1.2889v1.2889h-1.2889v2.5778h-1.2889v1.2889zM19.65963,151.47425v-9.02229h1.2889v-2.5778h1.2889v-1.2889h1.2889v-1.2889h1.2889v-1.2889h1.2889v-1.2889h5.1556v1.2889h1.2889v1.2889h1.2889v2.5778h1.2889v11.60009h-2.5778v-5.1556h-3.8667v1.2889h-6.44449v3.86669z" data-paper-data="{&quot;origPos&quot;:null}"/><path d="M47.23169,148.89646v-1.2889h1.2889v-1.2889h1.2889v-1.2889h-1.2889v-1.2889h-6.4445v1.2889h-2.5778v2.5778h1.2889v1.2889zM42.07609,142.45196v-1.2889h3.8667v-1.2889h1.2889v-1.2889h-1.2889v-1.2889h-5.1556v1.2889h-1.2889v3.8667zM36.9205,151.47425v-16.75569h2.5778v1.2889h1.2889v-1.2889h6.44449v1.2889h1.2889v1.2889h1.2889v3.8667h-1.2889v1.2889h2.5778v1.2889h1.2889v3.8667h-1.2889v1.2889h-1.2889v1.2889h-2.5778v1.2889h-6.44449v-1.2889h-1.2889v1.2889z" data-paper-data="{&quot;origPos&quot;:null}"/><path d="M59.33695,151.47425v-1.2889h-2.5778v-1.2889h-1.2889v-2.5778h-1.2889v-6.4445h1.2889v-2.5778h1.2889v-1.2889h2.5778v-1.2889h6.4445v1.2889h1.2889v1.2889h1.2889v1.2889h-1.2889v1.2889h-1.2889v-1.2889h-1.2889v-1.2889h-3.8667v1.2889h-2.5778v2.5778h-1.2889v3.8667h1.2889v2.5778h2.5778v1.2889h3.8667v-1.2889h2.5778v-1.2889h1.2889v1.2889h1.2889v1.2889h-1.2889v1.2889h-2.5778v1.2889z" data-paper-data="{&quot;origPos&quot;:null}"/><path d="M80.46451,148.89646v-1.2889h1.2889v-1.2889h1.2889v-5.1556h-1.2889v-1.2889h-1.2889v-1.2889h-1.2889v-1.2889h-5.1556v11.60009zM71.44222,151.47425v-16.75569h7.73339v1.2889h2.5778v1.2889h1.2889v1.2889h1.2889v2.5778h1.2889v6.4445h-1.2889v1.2889h-1.2889v1.2889h-2.5778v1.2889z" data-paper-data="{&quot;origPos&quot;:null}"/><path d="M88.7078,151.47425v-6.44449h-1.2889v-9.02229h6.4445v-1.2889h7.7334v2.5778h-7.7334v1.2889h-3.86669v3.8667h5.1556v-1.2889h5.1556v2.5778h-5.1556v1.2889h-3.8667v3.86669h6.4445v-1.2889h5.1556v2.5778h-5.1556v1.2889z" data-paper-data="{&quot;origPos&quot;:null}"/><path d="M105.96866,151.47425v-6.44449h-1.2889v-9.02229h5.1556v-1.2889h9.02229v2.5778h-7.73339v1.2889h-3.8667v5.1556h3.8667v-1.2889h7.73339v2.5778h-6.4445v1.2889h-3.86669v5.1556z" data-paper-data="{&quot;origPos&quot;:null}"/><path d="M124.52314,151.47425v-1.2889h-1.2889v-1.2889h-1.2889v-1.2889h-1.2889v-7.7334h1.2889v-2.5778h1.2889v-1.2889h2.5778v-1.2889h6.44449v1.2889h1.2889v1.2889h1.2889v1.2889h-1.2889v1.2889h-1.2889v-1.2889h-1.2889v-1.2889h-3.8667v1.2889h-2.5778v2.5778h-1.2889v5.1556h1.2889v1.2889h1.2889v1.2889h5.15559v-1.2889h1.2889v-2.5778h-5.1556v-2.5778h9.02229v2.5778h-1.2889v6.44449h-2.5778v-1.2889h-1.2889v1.2889z" data-paper-data="{&quot;origPos&quot;:null}"/><path d="M139.2062,151.47425v-2.5778h-1.2889v-11.60009h1.2889v-2.5778h2.5778v3.8667h-1.2889v3.8667h3.8667v-1.2889h5.1556v-6.4445h2.5778v10.3112h1.2889v6.44449h-2.5778v-5.1556h-1.2889v-2.5778h-5.1556v1.2889h-3.8667v2.5778h1.2889v3.86669z" data-paper-data="{&quot;origPos&quot;:null}"/><path d="M156.46707,151.47425v-2.5778h3.8667v-11.60009h-1.2889v1.2889h-3.8667v-2.5778h3.8667v-1.2889h7.73339v2.5778h-3.8667v10.3112h5.1556v2.5778h-5.1556v1.2889z" data-paper-data="{&quot;origPos&quot;:null}"/><path d="M172.44847,151.47425v-1.2889h-1.2889v-1.2889h-1.2889v-1.2889h1.2889v-1.2889h1.2889v1.2889h1.2889v1.2889h5.1556v-1.2889h1.2889v-5.1556h-1.2889v-5.1556h-2.5778v1.2889h-3.8667v-2.5778h3.8667v-1.2889h9.02229v2.5778h-3.8667v5.1556h1.2889v6.44449h-1.2889v1.2889h-1.2889v1.2889z" data-paper-data="{&quot;origPos&quot;:null}"/><path d="M187.13153,151.47425v-16.75569h2.5778v6.4445h1.2889v-1.2889h1.2889v-1.2889h1.2889v-1.2889h1.2889v-1.2889h1.2889v-1.2889h1.2889v1.2889h1.2889v1.2889h-1.2889v1.2889h-1.2889v1.2889h-1.2889v1.2889h-1.2889v1.2889h-1.2889v1.2889h1.2889v1.2889h1.2889v1.2889h1.2889v1.2889h2.5778v1.2889h2.5778v2.5778h-3.8667v-1.2889h-2.5778v-1.2889h-1.2889v-1.2889h-1.2889v-1.2889h-1.2889v-1.2889h-1.2889v6.44449z" data-paper-data="{&quot;origPos&quot;:null}"/><path d="M204.39712,151.47425v-1.2889h-1.2889v-15.46679h2.5778v12.88899h1.2889v1.2889h5.1556v-1.2889h5.1556v2.5778h-3.8667v1.2889z" data-paper-data="{&quot;origPos&quot;:null}"/><path d="M220.3738,151.47425v-3.86669h-1.2889v-11.60009h1.2889v-1.2889h2.5778v1.2889h1.2889v1.2889h1.2889v1.2889h1.2889v1.2889h2.5778v-1.2889h1.2889v-1.2889h1.2889v-1.2889h1.2889v-1.2889h2.5778v1.2889h1.2889v15.46679h-2.5778v-12.88899h-1.2889v1.2889h-1.2889v1.2889h-1.2889v1.2889h-1.2889v1.2889h-2.5778v-1.2889h-1.2889v-1.2889h-1.2889v-1.2889h-1.2889v-1.2889h-1.2889v7.73339h1.2889v5.1556z" data-paper-data="{&quot;origPos&quot;:null}"/><path d="M238.95188,151.47425v-16.75569h2.5778v1.2889h1.2889v2.5778h1.2889v2.5778h1.2889v1.2889h1.2889v2.5778h1.2889v1.2889h1.2889v1.2889h2.5778v-12.88899h2.5778v15.46679h-1.2889v1.2889h-3.8667v-1.2889h-1.2889v-1.2889h-1.2889v-1.2889h-1.2889v-1.2889h-1.2889v-2.5778h-1.2889v-1.2889h-1.2889v9.02229z" data-paper-data="{&quot;origPos&quot;:null}"/><path d="M266.52394,148.89646v-1.2889h1.2889v-1.2889h1.2889v-5.1556h-1.2889v-2.5778h-1.2889v-1.2889h-5.1556v1.2889h-1.2889v2.5778h-1.2889v3.8667h1.2889v2.5778h1.2889v1.2889zM261.36834,151.47425v-1.2889h-2.5778v-1.2889h-1.2889v-2.5778h-1.2889v-6.4445h1.2889v-2.5778h1.2889v-1.2889h2.5778v-1.2889h6.4445v1.2889h1.2889v1.2889h1.2889v2.5778h1.2889v7.7334h-1.2889v1.2889h-1.2889v1.2889h-1.2889v1.2889z" data-paper-data="{&quot;origPos&quot;:null}"/><path d="M282.4959,145.02976v-1.2889h2.5778v-1.2889h1.2889v-3.8667h-1.2889v-1.2889h-7.73339v7.7334zM274.76251,151.47425v-14.17789h-1.2889v-2.5778h12.88899v1.2889h1.2889v1.2889h1.2889v6.4445h-1.2889v1.2889h-1.2889v1.2889h-2.5778v1.2889h-6.4445v3.86669z" data-paper-data="{&quot;origPos&quot;:null}"/><path d="M301.04566,148.89646v-1.2889h-1.2889v-1.2889h-1.2889v-1.2889h-1.2889v-1.2889h1.2889v-1.2889h1.2889v1.2889h1.2889v1.2889h1.2889v1.2889h1.2889v-5.1556h-1.2889v-2.5778h-1.2889v-1.2889h-5.1556v1.2889h-1.2889v2.5778h-1.2889v3.8667h1.2889v2.5778h1.2889v1.2889zM295.89006,151.47425v-1.2889h-2.5778v-1.2889h-1.2889v-2.5778h-1.2889v-6.4445h1.2889v-2.5778h1.2889v-1.2889h2.5778v-1.2889h6.4445v1.2889h1.2889v1.2889h1.2889v2.5778h1.2889v6.4445h-1.2889v2.5778h1.2889v1.2889h-1.2889v1.2889h-1.2889v-1.2889h-2.5778v1.2889z" data-paper-data="{&quot;origPos&quot;:null}"/><path d="M315.72873,143.74086v-1.2889h2.5778v-1.2889h1.2889v-2.5778h-1.2889v-1.2889h-6.4445v6.4445zM309.28423,151.47425v-14.17789h-1.2889v-2.5778h10.3112v1.2889h2.5778v2.5778h1.2889v3.8667h-1.2889v1.2889h-1.2889v1.2889h-1.2889v1.2889h1.2889v1.2889h1.2889v1.2889h1.2889v1.2889h-1.2889v1.2889h-1.2889v-1.2889h-1.2889v-1.2889h-1.2889v-1.2889h-1.2889v-1.2889h-3.8667v5.1556z" data-paper-data="{&quot;origPos&quot;:null}"/><path d="M327.83871,151.47425v-1.2889h-2.5778v-1.2889h-1.2889v-1.2889h1.2889v-1.2889h1.2889v1.2889h1.2889v1.2889h5.1556v-1.2889h2.5778v-2.5778h-1.2889v-1.2889h-7.73339v-1.2889h-1.2889v-1.2889h-1.2889v-3.8667h1.2889v-1.2889h1.2889v-1.2889h7.73339v1.2889h2.5778v1.2889h1.2889v1.2889h-1.2889v1.2889h-1.2889v-1.2889h-1.2889v-1.2889h-6.44449v1.2889h-1.2889v1.2889h1.2889v1.2889h6.44449v1.2889h2.5778v1.2889h1.2889v5.1556h-1.2889v1.2889h-2.5778v1.2889z" data-paper-data="{&quot;origPos&quot;:null}"/><path d="M346.39319,151.47425v-14.17789h-2.5778v1.2889h-3.8667v-2.5778h3.8667v-1.2889h11.60009v2.5778h-6.4445v14.17789z" data-paper-data="{&quot;origPos&quot;:null}"/><path d="M362.36515,151.47425v-1.2889h-2.5778v-1.2889h-1.2889v-2.5778h-1.2889v-11.60009h2.5778v11.60009h1.2889v1.2889h1.2889v1.2889h5.1556v-1.2889h1.2889v-12.88899h2.5778v14.17789h-1.2889v1.2889h-1.2889v1.2889z" data-paper-data="{&quot;origPos&quot;:null}"/><path d="M379.63073,151.47425v-1.2889h-1.2889v-1.2889h-1.2889v-2.5778h-1.2889v-2.5778h-1.2889v-3.8667h-1.2889v-5.1556h2.5778v3.8667h1.2889v3.8667h1.2889v2.5778h1.2889v2.5778h1.2889v1.2889h1.2889v-1.2889h1.2889v-3.8667h1.2889v-3.8667h1.2889v-5.1556h2.5778v6.4445h-1.2889v3.8667h-1.2889v3.86669h-1.2889v1.2889h-1.2889v1.2889z" data-paper-data="{&quot;origPos&quot;:null}"/><path d="M393.0249,151.47425v-1.2889h-1.2889v-1.2889h-1.2889v-10.31119h1.2889v-3.8667h2.5778v3.8667h-1.2889v9.02229h1.2889v-2.5778h1.2889v-2.5778h1.2889v-1.2889h3.86669v1.2889h1.2889v2.5778h1.2889v2.5778h1.2889v-12.88899h2.5778v14.17789h-1.2889v1.2889h-1.2889v1.2889h-1.2889v-1.2889h-1.2889v-2.5778h-1.2889v-2.5778h-1.2889v-1.2889h-1.2889v1.2889h-1.2889v2.5778h-1.2889v2.5778h-1.2889v1.2889z" data-paper-data="{&quot;origPos&quot;:null}"/><path d="M410.31881,151.47425v-1.2889h-1.2889v-1.2889h1.2889v-1.2889h1.2889v-1.2889h1.2889v-1.2889h1.2889v-1.2889h1.2889v-1.2889h1.2889v-1.2889h-1.2889v-1.2889h-1.2889v-1.2889h-2.5778v-1.2889h-2.5778v-1.2889h1.2889v-1.2889h2.5778v1.2889h2.5778v1.2889h1.2889v1.2889h1.2889v1.2889h1.2889v-1.2889h1.2889v-1.2889h1.2889v-1.2889h1.2889v-1.2889h1.2889v1.2889h1.2889v1.2889h-1.2889v1.2889h-1.2889v1.2889h-1.2889v1.2889h-1.2889v1.2889h1.2889v1.2889h1.2889v1.2889h1.2889v2.5778h1.2889v3.86669h-2.5778v-2.5778h-1.2889v-2.5778h-1.2889v-1.2889h-1.2889v-1.2889h-1.2889v1.2889h-1.2889v1.2889h-1.2889v1.2889h-1.2889v1.2889h-1.2889v1.2889h-1.2889v1.2889z" data-paper-data="{&quot;origPos&quot;:null}"/><path d="M434.05722,151.47425v-5.1556h-2.5778v-1.2889h-1.2889v-1.2889h-1.2889v-2.5778h-1.2889v-6.4445h2.5778v5.1556h1.2889v2.5778h1.2889v1.2889h5.1556v-1.2889h1.2889v-1.2889h1.2889v-6.4445h2.5778v7.7334h-1.2889v1.2889h-1.2889v1.2889h-1.2889v1.2889h-2.5778v5.1556z" data-paper-data="{&quot;origPos&quot;:null}"/><path d="M444.87358,151.47425v-3.86669h1.2889v-1.2889h1.2889v-1.2889h1.2889v-1.2889h1.2889v-1.2889h1.2889v-1.2889h1.2889v-1.2889h1.2889v-1.2889h1.2889v-1.2889h-6.4445v1.2889h-3.8667v-2.5778h2.5778v-1.2889h11.60009v3.8667h-1.2889v1.2889h-1.2889v1.2889h-1.2889v1.2889h-1.2889v1.2889h-1.2889v1.2889h-1.2889v1.2889h-1.2889v1.2889h-1.2889v1.2889h6.4445v-1.2889h5.1556v2.5778h-3.8667v1.2889z" data-paper-data="{&quot;origPos&quot;:null}"/><path d="M24.81523,173.06922v-1.2889h-2.5778v1.2889zM20.94853,175.64701v-1.2889h-1.2889v-3.8667h1.2889v-1.2889h3.8667v-1.2889h-3.8667v-2.5778h5.1556v1.2889h1.2889v9.02229z" data-paper-data="{&quot;origPos&quot;:null}"/><path d="M34.37102,173.06922v-5.1556h-2.5778v5.1556zM29.21543,175.64701v-14.17789h2.5778v3.8667h3.8667v1.2889h1.2889v7.73339h-1.2889v1.2889z" data-paper-data="{&quot;origPos&quot;:null}"/><path d="M40.06012,175.64701v-1.2889h-1.2889v-7.73339h1.2889v-1.2889h5.1556v1.2889h1.2889v2.5778h-2.5778v-1.2889h-2.5778v5.1556h2.5778v-1.2889h2.5778v2.5778h-1.2889v1.2889z" data-paper-data="{&quot;origPos&quot;:null}"/><path d="M53.48261,173.06922v-5.1556h-2.5778v5.1556zM49.61592,175.64701v-1.2889h-1.2889v-7.73339h1.2889v-1.2889h3.86669v-3.8667h2.5778v14.17789z" data-paper-data="{&quot;origPos&quot;:null}"/><path d="M63.03841,170.49142v-2.5778h-2.5778v2.5778zM59.17171,175.64701v-1.2889h-1.2889v-7.73339h1.2889v-1.2889h5.1556v1.2889h1.2889v5.1556h-5.1556v1.2889h3.86669v2.5778z" data-paper-data="{&quot;origPos&quot;:null}"/><path d="M70.0164,175.64701v-5.1556h-2.5778v-2.5778h2.5778v-3.8667h1.2889v-1.2889h3.86669v2.5778h-2.5778v2.5778h2.5778v2.5778h-2.5778v5.1556z" data-paper-data="{&quot;origPos&quot;:null}"/><path d="M82.15,173.06922v-5.1556h-2.5778v5.1556zM78.2833,180.80261v-2.5778h3.8667v-2.5778h-3.8667v-1.2889h-1.2889v-7.73339h1.2889v-1.2889h6.4445v14.17789h-1.2889v1.2889z" data-paper-data="{&quot;origPos&quot;:null}"/><path d="M86.55019,175.64701v-14.17789h2.5778v3.8667h3.8667v1.2889h1.2889v9.02229h-2.5778v-7.73339h-2.5778v7.73339z" data-paper-data="{&quot;origPos&quot;:null}"/><path d="M96.10598,175.64701v-10.31119h2.5778v10.31119zM96.10598,164.04692v-2.5778h2.5778v2.5778z" data-paper-data="{&quot;origPos&quot;:null}"/><path d="M101.7762,179.51371v-1.2889h-1.2889v-2.5778h2.5778v1.2889h1.2889v-11.60009h2.5778v12.88899h-1.2889v1.2889zM104.354,164.04692v-2.5778h2.5778v2.5778z" data-paper-data="{&quot;origPos&quot;:null}"/><path d="M108.72114,175.64701v-14.17789h2.5778v7.7334h1.2889v-1.2889h1.2889v-1.2889h2.5778v1.2889h-1.2889v1.2889h-1.2889v1.2889h-1.2889v1.2889h1.2889v1.2889h1.2889v1.2889h1.2889v1.2889h-2.5778v-1.2889h-1.2889v-1.2889h-1.2889v2.5778z" data-paper-data="{&quot;origPos&quot;:null}"/><path d="M118.27694,175.64701v-14.17789h2.5778v11.60009h1.2889v2.5778z" data-paper-data="{&quot;origPos&quot;:null}"/><path d="M123.94243,175.64701v-10.31119h6.4445v1.2889h1.2889v9.02229h-1.2889v-7.73339h-1.2889v7.73339h-1.2889v-7.73339h-1.2889v7.73339z" data-paper-data="{&quot;origPos&quot;:null}"/><path d="M133.49822,175.64701v-10.31119h2.5778v1.2889h1.2889v-1.2889h2.5778v1.2889h1.2889v9.02229h-2.5778v-7.73339h-1.2889v1.2889h-1.2889v6.44449z" data-paper-data="{&quot;origPos&quot;:null}"/><path d="M148.20961,173.06922v-5.1556h-2.5778v5.1556zM144.34292,175.64701v-1.2889h-1.2889v-7.73339h1.2889v-1.2889h5.1556v1.2889h1.2889v7.73339h-1.2889v1.2889z" data-paper-data="{&quot;origPos&quot;:null}"/><path d="M157.76541,173.06922v-5.1556h-2.5778v5.1556zM152.60981,179.51371v-14.17789h6.4445v1.2889h1.2889v7.73339h-1.2889v1.2889h-3.8667v3.8667z" data-paper-data="{&quot;origPos&quot;:null}"/><path d="M167.3212,173.06922v-5.1556h-2.5778v5.1556zM167.3212,179.51371v-3.8667h-3.8667v-1.2889h-1.2889v-7.73339h1.2889v-1.2889h6.4445v14.17789z" data-paper-data="{&quot;origPos&quot;:null}"/><path d="M171.7214,175.64701v-10.31119h2.5778v2.5778h1.2889v-1.2889h1.2889v-1.2889h2.5778v2.5778h-2.5778v1.2889h-1.2889v1.2889h-1.2889v5.1556z" data-paper-data="{&quot;origPos&quot;:null}"/><path d="M181.27719,175.64701v-2.5778h5.1556v-1.2889h-3.8667v-1.2889h-1.2889v-3.86669h1.2889v-1.2889h5.1556v2.5778h-3.8667v1.2889h3.8667v1.2889h1.2889v3.8667h-1.2889v1.2889z" data-paper-data="{&quot;origPos&quot;:null}"/><path d="M194.69968,175.64701v-1.2889h-1.2889v-6.4445h-2.5778v-2.5778h2.5778v-2.5778h2.5778v2.5778h2.5778v2.5778h-2.5778v5.1556h2.5778v2.5778z" data-paper-data="{&quot;origPos&quot;:null}"/><path d="M201.67768,175.64701v-1.2889h-1.2889v-9.02229h2.5778v7.73339h1.2889v-1.2889h1.2889v-6.4445h2.5778v10.31119h-2.5778v-1.2889h-1.2889v1.2889z" data-paper-data="{&quot;origPos&quot;:null}"/><path d="M212.52237,175.64701v-1.2889h-1.2889v-1.2889h-1.2889v-7.73339h2.5778v7.73339h2.5778v-7.73339h2.5778v7.73339h-1.2889v1.2889h-1.2889v1.2889z" data-paper-data="{&quot;origPos&quot;:null}"/><path d="M220.78927,175.64701v-1.2889h-1.2889v-9.02229h2.5778v7.73339h1.2889v-5.1556h1.2889v5.1556h1.2889v-7.73339h1.2889v9.02229h-1.2889v1.2889h-1.2889v-1.2889h-2.5778v1.2889z" data-paper-data="{&quot;origPos&quot;:null}"/><path d="M229.05616,175.64701v-2.5778h1.2889v-1.2889h1.2889v-2.5778h-1.2889v-1.2889h-1.2889v-2.5778h2.5778v2.5778h2.5778v-2.5778h2.5778v2.5778h-1.2889v1.2889h-1.2889v2.5778h1.2889v1.2889h1.2889v2.5778h-2.5778v-2.5778h-2.5778v2.5778z" data-paper-data="{&quot;origPos&quot;:null}"/><path d="M239.90086,179.51371v-2.5778h3.86669v-2.5778h-3.86669v-1.2889h-1.2889v-7.73339h2.5778v6.4445h2.5778v-6.4445h2.5778v12.88899h-1.2889v1.2889z" data-paper-data="{&quot;origPos&quot;:null}"/><path d="M248.16775,175.64701v-2.5778h1.2889v-1.2889h1.2889v-1.2889h1.2889v-1.2889h1.2889v-1.2889h-5.1556v-2.5778h7.7334v3.8667h-1.2889v1.2889h-1.2889v1.2889h-1.2889v1.2889h3.8667v2.5778z" data-paper-data="{&quot;origPos&quot;:null}"/><path d="M29.97083,197.24197v-1.2889h1.2889v-2.5778h1.2889v-5.1556h-1.2889v-2.5778h-1.2889v-1.2889h-5.1556v1.2889h-1.2889v2.5778h-1.2889v6.4445h1.2889v1.2889h1.2889v1.2889zM23.52633,199.81977v-1.2889h-1.2889v-1.2889h-1.2889v-1.2889h-1.2889v-9.02229h1.2889v-2.5778h1.2889v-1.2889h1.2889v-1.2889h7.7334v1.2889h1.2889v1.2889h1.2889v2.5778h1.2889v7.73339h-1.2889v2.5778h-1.2889v1.2889h-2.5778v1.2889z" data-paper-data="{&quot;origPos&quot;:null}"/><path d="M36.9205,199.81977v-2.5778h3.8667v-3.86669h1.2889v-5.1556h1.2889v-2.5778h-1.2889v-1.2889h-1.2889v1.2889h-1.2889v1.2889h-1.2889v-1.2889h-1.2889v-1.2889h1.2889v-1.2889h1.2889v-1.2889h5.1556v1.2889h1.2889v6.4445h-1.2889v5.1556h-1.2889v2.5778h3.86669v2.5778z" data-paper-data="{&quot;origPos&quot;:null}"/><path d="M50.33354,199.81977v-1.2889h-1.2889v-5.1556h1.2889v-1.2889h2.5778v-1.2889h3.8667v-1.2889h2.5778v-1.2889h1.2889v-2.5778h-1.2889v-1.2889h-9.02229v-2.5778h9.02229v1.2889h2.5778v1.2889h1.2889v5.1556h-1.2889v1.2889h-1.2889v1.2889h-3.8667v1.2889h-3.8667v1.2889h-1.2889v2.5778h11.60009v2.5778z" data-paper-data="{&quot;origPos&quot;:null}"/><path d="M66.31023,199.81977v-1.2889h-1.2889v-1.2889h1.2889v-1.2889h2.5778v1.2889h5.1556v-1.2889h1.2889v-1.2889h-1.2889v-1.2889h-3.8667v-2.5778h5.1556v-1.2889h1.2889v-3.8667h-1.2889v-1.2889h-5.1556v1.2889h-2.5778v1.2889h-1.2889v-1.2889h-1.2889v-1.2889h1.2889v-1.2889h2.5778v-1.2889h7.73339v1.2889h1.2889v1.2889h1.2889v6.4445h-1.2889v1.2889h-1.2889v1.2889h1.2889v3.86669h-1.2889v1.2889h-1.2889v1.2889z" data-paper-data="{&quot;origPos&quot;:null}"/><path d="M88.73141,193.37528v-9.02229h-1.2889v1.2889h-1.2889v1.2889h-1.2889v2.5778h-1.2889v2.5778h1.2889v1.2889zM88.73141,199.81977v-3.86669h-5.1556v-1.2889h-1.2889v-1.2889h-1.2889v-5.1556h1.2889v-2.5778h1.2889v-1.2889h1.2889v-1.2889h2.5778v-1.2889h5.1556v2.5778h-1.2889v9.02229h3.8667v2.5778h-3.8667v3.86669z" data-paper-data="{&quot;origPos&quot;:null}"/><path d="M98.2636,199.81977v-1.2889h-1.2889v-1.2889h1.2889v-1.2889h2.5778v1.2889h5.1556v-1.2889h1.2889v-2.5778h-1.2889v-1.2889h-6.4445v-1.2889h-1.2889v-9.02229h2.5778v1.2889h7.73339v2.5778h-7.73339v3.8667h6.44449v1.2889h1.2889v1.2889h1.2889v5.1556h-1.2889v1.2889h-1.2889v1.2889z" data-paper-data="{&quot;origPos&quot;:null}"/><path d="M121.97839,197.24197v-1.2889h1.2889v-3.8667h-1.2889v-1.2889h-3.8667v1.2889h-2.5778v3.8667h1.2889v1.2889zM116.8228,199.81977v-1.2889h-2.5778v-1.2889h-1.2889v-2.5778h-1.2889v-7.73339h1.2889v-2.5778h1.2889v-1.2889h2.5778v-1.2889h6.44449v1.2889h1.2889v1.2889h1.2889v1.2889h-1.2889v1.2889h-1.2889v-1.2889h-1.2889v-1.2889h-5.1556v1.2889h-1.2889v1.2889h-1.2889v3.8667h1.2889v-1.2889h1.2889v-1.2889h6.44449v1.2889h1.2889v1.2889h1.2889v6.44449h-1.2889v1.2889h-1.2889v1.2889z" data-paper-data="{&quot;origPos&quot;:null}"/><path d="M132.79948,199.81977v-1.2889h-1.2889v-1.2889h1.2889v-1.2889h1.2889v-2.5778h1.2889v-1.2889h1.2889v-2.5778h1.2889v-2.5778h1.2889v-1.2889h-1.2889v-1.2889h-3.8667v1.2889h-3.8667v1.2889h1.2889v3.8667h-2.5778v-2.5778h-1.2889v-6.44449h2.5778v1.2889h3.8667v-1.2889h6.4445v1.2889h1.2889v3.8667h-1.2889v3.8667h-1.2889v2.5778h-1.2889v1.2889h-1.2889v2.5778h-1.2889v1.2889h-1.2889v1.2889z" data-paper-data="{&quot;origPos&quot;:null}"/><path d="M152.64286,197.24197v-1.2889h1.2889v-1.2889h1.2889v-1.2889h-1.2889v-1.2889h-6.4445v1.2889h-1.2889v2.5778h1.2889v1.2889zM153.93176,189.50858v-1.2889h1.2889v-2.5778h-1.2889v-1.2889h-5.1556v1.2889h-1.2889v2.5778h1.2889v1.2889zM147.48726,199.81977v-1.2889h-2.5778v-2.5778h-1.2889v-3.8667h1.2889v-1.2889h1.2889v-1.2889h-1.2889v-3.8667h1.2889v-2.5778h2.5778v-1.2889h6.4445v1.2889h1.2889v1.2889h1.2889v3.86669h-1.2889v1.2889h-1.2889v1.2889h1.2889v1.2889h1.2889v3.8667h-1.2889v1.2889h-1.2889v1.2889h-2.5778v1.2889z" data-paper-data="{&quot;origPos&quot;:null}"/><path d="M168.61954,192.08638v-1.2889h2.5778v-2.5778h1.2889v-2.5778h-1.2889v-1.2889h-6.4445v1.2889h-1.2889v2.5778h-1.2889v2.5778h1.2889v1.2889zM168.61954,199.81977v-5.1556h-6.4445v-1.2889h-1.2889v-1.2889h-1.2889v-5.1556h1.2889v-2.5778h1.2889v-1.2889h1.2889v-1.2889h9.02229v1.2889h1.2889v1.2889h1.2889v5.1556h-1.2889v2.5778h-1.2889v1.2889h-1.2889v6.44449z" data-paper-data="{&quot;origPos&quot;:null}"/><path d="M20.94853,225.28143v-1.2889h-1.2889v-2.5778h2.5778v3.8667z" data-paper-data="{&quot;origPos&quot;:null}"/><path d="M24.04094,223.99253v-2.5778h2.5778v2.5778z" data-paper-data="{&quot;origPos&quot;:null}"/><path d="M33.57786,223.99253v-2.5778h2.5778v2.5778zM33.57786,220.12584v-3.8667h1.2889v-1.2889h2.5778v-1.2889h1.2889v-2.5778h-1.2889v-1.2889h-5.1556v1.2889h-1.2889v2.5778h-2.5778v-2.5778h1.2889v-2.5778h2.5778v-1.2889h5.1556v1.2889h2.5778v2.5778h1.2889v3.8667h-1.2889v1.2889h-2.5778v1.2889h-1.2889v2.5778z" data-paper-data="{&quot;origPos&quot;:null}"/><path d="M43.11477,223.99253v-2.5778h2.5778v2.5778zM44.40367,220.12584v-6.4445h1.2889v-6.4445h2.5778v1.2889h2.5778v3.86669h-1.2889v2.5778h-1.2889v2.5778h-1.2889v2.5778z" data-paper-data="{&quot;origPos&quot;:null}"/><path d="M53.95946,211.10354v-1.2889h-1.2889v-2.5778h2.5778v3.8667z" data-paper-data="{&quot;origPos&quot;:null}"/><path d="M57.05187,223.99253v-1.2889h1.2889v1.2889zM58.34077,222.70364v-1.2889h-1.2889v-2.5778h2.5778v3.8667zM57.05187,213.68134v-2.5778h2.5778v2.5778z" data-paper-data="{&quot;origPos&quot;:null}"/><path d="M61.43318,223.99253v-16.75569h5.1556v2.5778h-2.5778v11.60009h2.5778v2.5778z" data-paper-data="{&quot;origPos&quot;:null}"/><path d="M68.38285,223.99253v-2.5778h2.5778v-11.60009h-2.5778v-2.5778h5.1556v16.75569z" data-paper-data="{&quot;origPos&quot;:null}"/><path d="M76.62142,211.10354v-1.2889h-1.2889v-2.5778h2.5778v3.8667zM80.48812,211.10354v-1.2889h-1.2889v-2.5778h2.5778v3.8667z" data-paper-data="{&quot;origPos&quot;:null}"/><path d="M84.85527,223.99253v-2.5778h1.2889v-1.2889h1.2889v-1.2889h1.2889v-1.2889h-5.1556v-2.5778h3.8667v-1.2889h-1.2889v-1.2889h-1.2889v-2.5778h1.2889v-1.2889h1.2889v-1.2889h6.4445v1.2889h1.2889v2.5778h-2.5778v-1.2889h-3.86669v1.2889h-1.2889v1.2889h1.2889v1.2889h1.2889v1.2889h6.4445v2.5778h-5.1556v1.2889h-1.2889v1.2889h-1.2889v1.2889h7.73339v2.5778z" data-paper-data="{&quot;origPos&quot;:null}"/><path d="M107.28117,221.41473v-1.2889h2.5778v-2.5778h-1.2889v-1.2889h-2.5778v5.1556zM104.70337,213.68134v-3.8667h-2.5778v1.2889h-1.2889v1.2889h1.2889v1.2889zM104.70337,225.28143v-1.2889h-2.5778v-1.2889h-2.5778v-1.2889h-1.2889v-1.2889h1.2889v-1.2889h1.2889v1.2889h1.2889v1.2889h2.5778v-5.1556h-3.8667v-1.2889h-1.2889v-1.2889h-1.2889v-3.8667h1.2889v-1.2889h1.2889v-1.2889h3.8667v-1.2889h1.2889v1.2889h2.5778v1.2889h2.5778v1.2889h1.2889v1.2889h-1.2889v1.2889h-1.2889v-1.2889h-1.2889v-1.2889h-2.5778v3.8667h2.5778v1.2889h2.5778v1.2889h1.2889v5.1556h-1.2889v1.2889h-2.5778v1.2889h-2.5778v1.2889z" data-paper-data="{&quot;origPos&quot;:null}"/><path d="M120.68005,223.99253v-1.2889h-2.5778v-1.2889h-1.2889v-2.5778h-2.5778v-2.5778h1.2889v-1.2889h-1.2889v-2.5778h2.5778v-2.5778h1.2889v-1.2889h2.5778v-1.2889h6.4445v2.5778h-5.1556v1.2889h-2.5778v1.2889h6.44449v2.5778h-6.44449v1.2889h6.44449v2.5778h-6.44449v1.2889h2.5778v1.2889h5.1556v2.5778z" data-paper-data="{&quot;origPos&quot;:null}"/><path d="M141.81705,222.70364v-2.5778h-2.5778v2.5778zM137.95035,223.99253v-1.2889h-1.2889v-2.5778h1.2889v-1.2889h5.1556v1.2889h1.2889v2.5778h-1.2889v1.2889zM134.08366,212.39244v-2.5778h-2.5778v2.5778zM130.21696,213.68134v-1.2889h-1.2889v-2.5778h1.2889v-1.2889h5.1556v1.2889h1.2889v2.5778h-1.2889v1.2889zM128.92806,223.99253v-2.5778h1.2889v-1.2889h1.2889v-1.2889h1.2889v-1.2889h1.2889v-1.2889h1.2889v-1.2889h1.2889v-1.2889h1.2889v-1.2889h1.2889v-1.2889h1.2889v-1.2889h1.2889v-1.2889h2.5778v2.5778h-1.2889v1.2889h-1.2889v1.2889h-1.2889v1.2889h-1.2889v1.2889h-1.2889v1.2889h-1.2889v1.2889h-1.2889v1.2889h-1.2889v1.2889h-1.2889v1.2889h-1.2889v1.2889z" data-paper-data="{&quot;origPos&quot;:null}"/><path d="M146.18892,211.10354v-2.5778h1.2889v-1.2889h1.2889v-1.2889h1.2889v1.2889h1.2889v1.2889h1.2889v2.5778h-1.2889v-1.2889h-1.2889v-1.2889h-1.2889v1.2889h-1.2889v1.2889z" data-paper-data="{&quot;origPos&quot;:null}"/><path d="M163.44506,221.41473v-1.2889h-2.5778v-1.2889h-1.2889v-2.5778h-1.2889v1.2889h-1.2889v3.86669zM162.15616,213.68134v-2.5778h-3.8667v2.5778zM155.71167,223.99253v-1.2889h-1.2889v-5.1556h1.2889v-2.5778h1.2889v-1.2889h-1.2889v-3.8667h1.2889v-1.2889h6.4445v1.2889h1.2889v5.1556h-1.2889v1.2889h-1.2889v1.2889h1.2889v1.2889h2.5778v-2.5778h2.5778v2.5778h-1.2889v2.5778h2.5778v2.5778h-2.5778v-1.2889h-2.5778v1.2889z" data-paper-data="{&quot;origPos&quot;:null}"/><path d="M175.55033,221.41473v-3.86669h-1.2889v1.2889h-1.2889v1.2889h-1.2889v-2.5778h1.2889v-1.2889h1.2889v-1.2889h-1.2889v-1.2889h-1.2889v-2.5778h1.2889v1.2889h1.2889v1.2889h1.2889v-3.8667h1.2889v3.8667h1.2889v-1.2889h1.2889v-1.2889h1.2889v2.5778h-1.2889v1.2889h-1.2889v1.2889h1.2889v1.2889h1.2889v2.5778h-1.2889v-1.2889h-1.2889v-1.2889h-1.2889v3.86669z" data-paper-data="{&quot;origPos&quot;:null}"/><path d="M186.3903,223.99253v-1.2889h-1.2889v-1.2889h-1.2889v-2.5778h-1.2889v-7.73339h1.2889v-2.5778h1.2889v-1.2889h1.2889v-1.2889h1.2889v1.2889h1.2889v1.2889h-1.2889v1.2889h-1.2889v2.5778h-1.2889v5.1556h1.2889v2.5778h1.2889v1.2889h1.2889v1.2889h-1.2889v1.2889z" data-paper-data="{&quot;origPos&quot;:null}"/><path d="M192.04635,223.99253v-1.2889h-1.2889v-1.2889h1.2889v-1.2889h1.2889v-2.5778h1.2889v-5.1556h-1.2889v-2.5778h-1.2889v-1.2889h-1.2889v-1.2889h1.2889v-1.2889h1.2889v1.2889h1.2889v1.2889h1.2889v2.5778h1.2889v7.73339h-1.2889v2.5778h-1.2889v1.2889h-1.2889v1.2889z" data-paper-data="{&quot;origPos&quot;:null}"/><path d="M206.72469,220.12584v-2.5778h-7.73339v-2.5778h10.31119v5.1556z" data-paper-data="{&quot;origPos&quot;:null}"/><path d="M221.42664,218.83694v-5.1556h-5.1556v5.1556zM213.69324,223.99253v-2.5778h-2.5778v-2.5778h2.5778v-5.1556h-2.5778v-2.5778h2.5778v-2.5778h2.5778v2.5778h5.1556v-2.5778h2.5778v2.5778h2.5778v2.5778h-2.5778v5.1556h2.5778v2.5778h-2.5778v2.5778h-2.5778v-2.5778h-5.1556v2.5778z" data-paper-data="{&quot;origPos&quot;:null}"/><path d="M237.3986,216.25914v-1.2889h-2.5778v-1.2889h-3.86669v1.2889h-2.5778v-2.5778h2.5778v-1.2889h3.86669v1.2889h2.5778v1.2889h5.1556v-1.2889h2.5778v2.5778h-2.5778v1.2889z" data-paper-data="{&quot;origPos&quot;:null}"/><path d="M246.95911,223.99253v-1.2889h1.2889v-1.2889h1.2889v-5.1556h1.2889v-1.2889h-1.2889v-5.1556h-1.2889v-1.2889h-1.2889v-1.2889h3.8667v1.2889h1.2889v5.1556h1.2889v1.2889h1.2889v1.2889h-1.2889v1.2889h-1.2889v5.1556h-1.2889v1.2889z" data-paper-data="{&quot;origPos&quot;:null}"/><path d="M260.38161,223.99253v-1.2889h-1.2889v-5.1556h-1.2889v-1.2889h-1.2889v-1.2889h1.2889v-1.2889h1.2889v-5.1556h1.2889v-1.2889h3.86669v1.2889h-1.2889v1.2889h-1.2889v5.1556h-1.2889v1.2889h1.2889v5.1556h1.2889v1.2889h1.2889v1.2889z" data-paper-data="{&quot;origPos&quot;:null}"/><path d="M266.0707,223.99253v-1.2889h1.2889v-1.2889h1.2889v-5.1556h1.2889v-1.2889h-1.2889v-5.1556h-1.2889v-1.2889h-1.2889v-1.2889h3.8667v1.2889h1.2889v5.1556h1.2889v1.2889h1.2889v1.2889h-1.2889v1.2889h-1.2889v5.1556h-1.2889v1.2889z" data-paper-data="{&quot;origPos&quot;:null}"/><path d="M275.62649,221.41473v-2.5778h2.5778v2.5778zM275.62649,213.68134v-2.5778h2.5778v2.5778z" data-paper-data="{&quot;origPos&quot;:null}"/><path d="M290.319,217.54804v-3.8667h-1.2889v1.2889h-1.2889v2.5778zM286.4523,225.28143v-1.2889h-2.5778v-1.2889h-1.2889v-1.2889h-1.2889v-2.5778h-1.2889v-6.4445h1.2889v-2.5778h1.2889v-1.2889h1.2889v-1.2889h2.5778v-1.2889h7.73339v1.2889h2.5778v1.2889h1.2889v2.5778h1.29362v5.1556h-1.29362v1.2889h-1.2889v1.2889h-2.5778v1.2889h-3.8667v-1.2889h-1.2889v1.2889h-2.5778v-1.2889h-1.2889v-5.1556h1.2889v-1.2889h2.5778v-1.2889h2.5778v-1.2889h2.5778v2.5778h-1.2889v5.1556h1.2889v-1.2889h1.2889v-1.2889h1.2889v-3.8667h-1.2889v-1.2889h-1.2889v-1.2889h-6.4445v1.2889h-2.5778v1.2889h-1.2889v2.5778h-1.2889v3.8667h1.2889v2.5778h1.2889v1.2889h2.5778v1.2889h5.1556v-1.2889h2.5778v-1.2889h2.5778v2.5778h-1.2889v1.2889h-2.5778v1.2889z" data-paper-data="{&quot;origPos&quot;:null}"/><path d="M307.60347,223.99253v-1.2889h-1.2889v-1.2889h-1.2889v-1.2889h-1.2889v-1.2889h-1.2889v-1.2889h-1.2889v-3.8667h1.2889v-1.2889h1.2889v-1.2889h1.2889v-1.2889h1.2889v-1.2889h1.2889v-1.2889h2.5778v2.5778h-1.2889v1.2889h-1.2889v1.2889h-1.2889v1.2889h-1.2889v1.2889h-1.2889v1.2889h1.2889v1.2889h1.2889v1.2889h1.2889v1.2889h1.2889v1.2889h1.2889v2.5778z" data-paper-data="{&quot;origPos&quot;:null}"/><path d="M311.99894,223.99253v-2.5778h1.2889v-1.2889h1.2889v-1.2889h1.2889v-1.2889h1.2889v-1.2889h1.2889v-1.2889h-1.2889v-1.2889h-1.2889v-1.2889h-1.2889v-1.2889h-1.2889v-1.2889h-1.2889v-2.5778h2.5778v1.2889h1.2889v1.2889h1.2889v1.2889h1.2889v1.2889h1.2889v1.2889h1.2889v3.8667h-1.2889v1.2889h-1.2889v1.2889h-1.2889v1.2889h-1.2889v1.2889h-1.2889v1.2889z" data-paper-data="{&quot;origPos&quot;:null}"/><path d="M324.12781,223.99253v-1.2889h-1.2889v-1.2889h1.2889v-1.2889h1.2889v-1.2889h1.2889v-1.2889h1.2889v-1.2889h1.2889v-1.2889h1.2889v-1.2889h1.2889v-1.2889h1.2889v-1.2889h1.2889v-1.2889h1.2889v-1.2889h1.2889v1.2889h1.2889v1.2889h-1.2889v1.2889h-1.2889v1.2889h-1.2889v1.2889h-1.2889v1.2889h-1.2889v1.2889h-1.2889v1.2889h-1.2889v1.2889h-1.2889v1.2889h-1.2889v1.2889h-1.2889v1.2889z" data-paper-data="{&quot;origPos&quot;:null}"/><path d="M352.98877,223.99253v-1.2889h-1.2889v-1.2889h-1.2889v-1.2889h-1.2889v-1.2889h-1.2889v-1.2889h-1.2889v-1.2889h-1.2889v-1.2889h-1.2889v-1.2889h-1.2889v-1.2889h-1.2889v-1.2889h-1.2889v-1.2889h1.2889v-1.2889h1.2889v1.2889h1.2889v1.2889h1.2889v1.2889h1.2889v1.2889h1.2889v1.2889h1.2889v1.2889h1.2889v1.2889h1.2889v1.2889h1.2889v1.2889h1.2889v1.2889h1.2889v1.2889h-1.2889v1.2889z" data-paper-data="{&quot;origPos&quot;:null}"/><path d="M357.36064,225.28143v-19.33348h2.5778v19.33348z" data-paper-data="{&quot;origPos&quot;:null}"/></g></g></svg>