<svg version="1.1" xmlns="http://www.w3.org/2000/svg" xmlns:xlink="http://www.w3.org/1999/xlink" width="41" height="41" viewBox="0,0,41,41"><g transform="translate(-219.5,-159.5)"><g data-paper-data="{&quot;isPaintingLayer&quot;:true}" fill-rule="nonzero" stroke-linecap="butt" stroke-linejoin="miter" stroke-miterlimit="10" stroke-dasharray="" stroke-dashoffset="0" style="mix-blend-mode: normal"><path d="M219.5,200.5v-41h41v41z" fill="#893d00" stroke="none" stroke-width="0"/><path d="M239.125,173.125c0,5.86803 -3.69365,10.625 -8.25,10.625c-4.55635,0 -8.25,-4.75697 -8.25,-10.625c0,-5.86803 3.69365,-10.625 8.25,-10.625c4.55635,0 8.25,4.75697 8.25,10.625z" fill="none" stroke="#ffffff" stroke-width="2.5"/><path d="M259.125,174.25c0,6.35127 -3.35786,11.5 -7.5,11.5c-4.14214,0 -7.5,-5.14873 -7.5,-11.5c0,-6.35127 3.35786,-11.5 7.5,-11.5c4.14214,0 7.5,5.14873 7.5,11.5z" fill="none" stroke="#ffffff" stroke-width="2.5"/><path d="M255.375,192c0,3.58985 -6.93959,6.5 -15.5,6.5c-8.56041,0 -15.5,-2.91015 -15.5,-6.5c0,-3.58985 6.93959,-6.5 15.5,-6.5c8.56041,0 15.5,2.91015 15.5,6.5z" fill="none" stroke="#ffffff" stroke-width="2.5"/></g></g></svg>