<svg version="1.1" xmlns="http://www.w3.org/2000/svg" xmlns:xlink="http://www.w3.org/1999/xlink" width="85.29322" height="148.00192" viewBox="0,0,85.29322,148.00192"><g transform="translate(-199.86507,-105.27558)"><g data-paper-data="{&quot;isPaintingLayer&quot;:true}" fill-rule="nonzero" stroke-linejoin="miter" stroke-miterlimit="10" stroke-dasharray="" stroke-dashoffset="0" style="mix-blend-mode: normal"><g data-paper-data="{&quot;index&quot;:null}" fill="#1d1d1d" stroke="#000000" stroke-linecap="butt"><path d="M211.17755,214.50534v-68.66667h46.33333v68.66667z" data-paper-data="{&quot;index&quot;:null}" stroke-width="4"/><path d="M211.76089,214.50534v-9.66667h58.75v9.66667z" data-paper-data="{&quot;index&quot;:null}" stroke-width="4"/><path d="M211.17755,214.50534v-68.66667h46.33333v68.66667z" data-paper-data="{&quot;index&quot;:null}" stroke-width="0"/><path d="M211.76089,214.50534v-9.66667h58.75v9.66667z" data-paper-data="{&quot;index&quot;:null}" stroke-width="0"/></g><g data-paper-data="{&quot;index&quot;:null}" fill="#a1a1a1" stroke="#000000" stroke-width="2" stroke-linecap="butt"><path d="M272.1149,232.48583c0,10.70051 -4.81294,19.375 -10.75,19.375c-0.45597,0 -4.90532,0.17106 -5.34636,0.07173c-5.30159,-1.19389 -5.40364,-9.56803 -5.40364,-19.44673c0,-9.98883 -0.25042,-18.21217 5.13695,-19.26184c0.38384,-0.07478 5.21818,-0.11316 5.61305,-0.11316c5.93706,0 10.75,8.67449 10.75,19.375z"/><path d="M266.87482,232.56917c0,10.70051 -4.81294,19.375 -10.75,19.375c-5.93706,0 -10.75,-8.67449 -10.75,-19.375c0,-10.70051 4.81294,-19.375 10.75,-19.375c5.93706,0 10.75,8.67449 10.75,19.375z"/></g><g data-paper-data="{&quot;index&quot;:null}" fill="#a1a1a1" stroke="#000000" stroke-width="2" stroke-linecap="butt"><path d="M239.44823,232.81917c0,10.70051 -4.81294,19.375 -10.75,19.375c-0.45597,0 -4.90532,0.17106 -5.34636,0.07174c-5.30159,-1.19389 -5.40364,-9.56804 -5.40364,-19.44674c0,-9.98883 -0.25042,-18.21217 5.13695,-19.26184c0.38384,-0.07479 5.21818,-0.11316 5.61305,-0.11316c5.93706,0 10.75,8.67449 10.75,19.375z"/><path d="M234.20815,232.9025c0,10.70052 -4.81294,19.375 -10.75,19.375c-5.93706,0 -10.75,-8.67448 -10.75,-19.375c0,-10.70052 4.81294,-19.375 10.75,-19.375c5.93706,0 10.75,8.67448 10.75,19.375z"/></g><g data-paper-data="{&quot;index&quot;:null}"><g data-paper-data="{&quot;index&quot;:null}" stroke="#000000" stroke-width="2"><path d="M251.536,198.81677c-3.40481,-4.41858 2.4209,-6.51558 2.42862,-6.55247c0.21242,-1.01521 -2.23839,1.67948 -3.54253,1.17885c-3.708,-1.42343 3.7014,-7.01419 7.82076,-6.80657c1.99902,0.10075 7.19966,5.51664 7.09674,7.55845c-0.19994,3.96678 -7.68619,12.56058 -13.8036,4.62174z" fill="#fcdac0" stroke-linecap="butt"/><path d="M264.92044,162.11893c0,0 20.07452,15.68817 19.21075,16.47951c-0.18705,0.17137 -18.77102,18.03835 -19.46181,18.30457c-0.70528,0.2718 -6.80903,-9.32236 -7.75735,-9.43939c-0.59835,-0.07385 11.04755,-9.04745 10.92753,-9.11729c-0.80263,-0.46707 -10.35541,-10.9962 -10.35541,-10.9962" fill="#3a3eff" stroke-linecap="round"/></g><path d="M258.68069,169.34019c-4.30782,0 -7.8,-3.49218 -7.8,-7.8c0,-4.30782 3.49218,-7.8 7.8,-7.8c4.30782,0 7.8,3.49218 7.8,7.8c0,4.30782 -3.49218,7.8 -7.8,7.8z" data-paper-data="{&quot;index&quot;:null}" fill="#3a3eff" stroke="#000000" stroke-width="2" stroke-linecap="butt"/><path d="M261.25529,170.06266l1.34454,-4.60504l4.16912,-0.52101l-0.13025,4.76891z" data-paper-data="{&quot;index&quot;:null}" fill="#3a3eff" stroke="none" stroke-width="0" stroke-linecap="butt"/></g><g data-paper-data="{&quot;index&quot;:null}" stroke="#000000" stroke-width="2" stroke-linecap="butt"><path d="M274.52474,198.53537l-1.43055,14.08329c0,0 -6.32026,-2.64806 -12.5399,-3.42313c-4.75184,-0.59215 -7.46422,0.63887 -11.16016,0.63887c-4.30364,0 -7.20799,-3.4888 -7.20799,-7.79244c0,-4.30364 7.77462,-6.81838 13.83156,-6.62357c4.30141,0.13835 18.50703,3.11697 18.50703,3.11697z" fill="#0611d7"/><path d="M267.13004,231.07019v-28.29627l6.29888,-6.16986l6.29888,6.16986v28.29627l-6.29888,6.16987z" fill="#5c5c57"/></g><path d="M220.87091,209.23756c0,0 3.1403,-11.21626 3.1403,-25.10612c0,-13.02559 -3.1403,-24.14234 -3.1403,-24.14234c0,0 8.98091,-2.11821 19.42476,-2.11821c11.45735,0 18.74191,2.11821 18.74191,2.11821c0,0 -3.86498,12.07138 -3.62342,23.61279c0.25591,12.22715 3.62342,25.63567 3.62342,25.63567c0,0 -10.26498,-1.41214 -19.82626,-1.41214c-8.24197,0 -18.34041,1.41214 -18.34041,1.41214z" data-paper-data="{&quot;index&quot;:null}" fill="#3a3eff" stroke="#000000" stroke-width="2" stroke-linecap="butt"/><path d="M232.35203,148.5483h14.625c0,0 0.47195,7.83967 -0.53099,11.25998c-0.73848,2.51843 -4.16452,2.83346 -6.86398,2.78169c-2.08579,-0.04 -5.72419,-0.17752 -6.54565,-2.84416c-0.81904,-2.65876 -0.68438,-11.19752 -0.68438,-11.19752z" data-paper-data="{&quot;index&quot;:null}" fill="#fc959e" stroke="#000000" stroke-width="2" stroke-linecap="butt"/><g data-paper-data="{&quot;index&quot;:null}" stroke="#000000" stroke-width="2" stroke-linecap="butt"><path d="M267.85201,130.93129c0,14.78566 -12.4614,23.95035 -27.83333,23.95035c-15.37193,0 -27.83334,-9.16469 -27.83334,-23.95035c0,-14.78566 12.46141,-24.30303 27.83334,-24.30303c15.37193,0 27.83333,9.51737 27.83333,24.30303z" fill="#fcdac0"/><path d="M267.85202,130.93129c0,0.30075 0.30165,9.25915 -2.85607,9.05999c-5.15903,-0.32539 1.18161,-7.10223 -3.86122,-12.49446c-2.76557,-2.95718 -6.66038,-3.98254 -14.74979,-3.88755c-6.60937,0.07762 -12.89002,0.2713 -16.02336,2.28732c-7.6945,4.95072 -4.38986,16.7146 -9.9568,16.14965c-2.96937,-0.30134 -5.94289,-3.94144 -5.62698,-10.57402c0.12936,-2.71585 -2.59245,-0.26418 -2.59245,-0.54093c0,-14.78566 12.46141,-24.65571 27.83334,-24.65571c15.37193,0 27.83334,9.87005 27.83334,24.65571z" fill="#765035"/></g><g data-paper-data="{&quot;index&quot;:null}"><path d="M245.50895,135.14164c0,3.99372 -3.38339,7.23127 -7.557,7.23127c-4.17362,0 -7.557,-3.23755 -7.557,-7.23127c0,-3.99372 3.38339,-7.23127 7.557,-7.23127c4.17362,0 7.557,3.23755 7.557,7.23127z" fill="#ffffff" stroke="#000000" stroke-width="2" stroke-linecap="butt"/><path d="M237.2006,135.2019c0,-1.26468 0.88668,-2.2899 1.98046,-2.2899c1.09378,0 1.98045,1.02522 1.98045,2.2899c0,1.26468 -0.88667,2.28991 -1.98045,2.28991c-1.09378,0 -1.98046,-1.02523 -1.98046,-2.28991z" fill="#000000" stroke="none" stroke-width="0.5" stroke-linecap="butt"/><path d="M262.08223,135.26216c0,3.99372 -3.38339,7.23127 -7.557,7.23127c-4.17362,0 -7.557,-3.23755 -7.557,-7.23127c0,-3.99372 3.38339,-7.23127 7.557,-7.23127c4.17363,0 7.557,3.23755 7.557,7.23127z" fill="#ffffff" stroke="#000000" stroke-width="2" stroke-linecap="butt"/><path d="M253.77388,135.32242c0,-1.26468 0.88668,-2.2899 1.98045,-2.2899c1.09378,0 1.98046,1.02522 1.98046,2.2899c0,1.26468 -0.88669,2.28991 -1.98046,2.28991c-1.09378,0 -1.98045,-1.02523 -1.98045,-2.28991z" fill="#000000" stroke="none" stroke-width="0.5" stroke-linecap="butt"/><path d="M253.63924,147.55534c0,0 -3.81843,1.66223 -11.74962,0.98767c-5.63282,-0.47909 -11.49467,-4.0007 -11.49467,-4.0007" fill="none" stroke="#000000" stroke-width="2" stroke-linecap="round"/><path d="M230.08223,121.77684c0,0 1.34091,-1.54214 4.95377,-2.01217c4.43625,-0.57715 5.57392,0.80696 5.57392,0.80696" fill="none" stroke="#000000" stroke-width="2" stroke-linecap="round"/><path d="M251.01788,121.17423c0,0 1.13767,-1.38411 5.57393,-0.80696c3.61286,0.47003 4.95376,2.01217 4.95376,2.01217" data-paper-data="{&quot;index&quot;:null}" fill="none" stroke="#000000" stroke-width="2" stroke-linecap="round"/></g><g data-paper-data="{&quot;index&quot;:null}" stroke="#000000" stroke-width="2" stroke-linecap="butt"><path d="M252.00807,202.88537l-1.43055,14.08329c0,0 -6.32026,-2.64807 -12.53989,-3.42313c-4.75184,-0.59215 -7.46422,0.63886 -11.16015,0.63886c-4.30364,0 -7.208,-3.48879 -7.208,-7.79243c0,-4.30364 7.77463,-6.81838 13.83157,-6.62357c4.30142,0.13835 18.50703,3.11697 18.50703,3.11697z" fill="#0611d7"/><path d="M244.61337,235.42019v-28.29627l6.29888,-6.16986l6.29888,6.16986v28.29627l-6.29888,6.16986z" fill="#5c5c57"/></g><g data-paper-data="{&quot;index&quot;:null}"><g stroke="#000000" stroke-width="2"><path d="M219.65665,195.28594c-0.10291,-2.04181 5.09772,-7.45769 7.09674,-7.55845c4.11936,-0.20763 11.52876,5.38314 7.82077,6.80656c-1.30413,0.50063 -3.75495,-2.19405 -3.54253,-1.17885c0.00772,0.03688 5.83342,2.13389 2.42862,6.55247c-6.1174,7.93884 -13.60365,-0.65495 -13.80359,-4.62174z" fill="#fcdac0" stroke-linecap="butt"/><path d="M227.5121,168.44104c0,0 -9.55278,10.52913 -10.35541,10.9962c-0.12002,0.06984 11.52588,9.04345 10.92753,9.11729c-0.94831,0.11703 -7.05207,9.71119 -7.75735,9.43939c-0.69079,-0.26622 -19.27475,-18.1332 -19.4618,-18.30457c-0.86378,-0.79134 19.21074,-16.47951 19.21074,-16.47951" fill="#3a3eff" stroke-linecap="round"/></g><path d="M218.51556,162.6311c0,-4.30782 3.49218,-7.8 7.8,-7.8c4.30782,0 7.8,3.49218 7.8,7.8c0,4.30782 -3.49218,7.8 -7.8,7.8c-4.30782,0 -7.8,-3.49218 -7.8,-7.8z" fill="#3a3eff" stroke="#000000" stroke-width="2" stroke-linecap="butt"/><path d="M218.35755,170.79643l-0.13025,-4.76891l4.16912,0.52101l1.34454,4.60504z" fill="#3a3eff" stroke="none" stroke-width="0" stroke-linecap="butt"/></g></g></g></svg>