<svg version="1.1" xmlns="http://www.w3.org/2000/svg" xmlns:xlink="http://www.w3.org/1999/xlink" width="147.00001" height="183" viewBox="0,0,147.00001,183"><g transform="translate(-166.5,-88.50001)"><g data-paper-data="{&quot;isPaintingLayer&quot;:true}" fill="#ffffff" fill-rule="nonzero" stroke="#000000" stroke-width="5" stroke-linecap="butt" stroke-linejoin="miter" stroke-miterlimit="10" stroke-dasharray="" stroke-dashoffset="0" style="mix-blend-mode: normal"><path d="M169,269v-65.50926c1.84021,0.19309 3.67934,0.3698 5.51498,0.53381c13.20468,1.17981 27.21229,3.50354 40.47288,1.32329c1.86859,-0.30723 5.3351,-0.667 8.41913,-1.48448c1.20774,-0.2014 2.34223,-0.61925 3.36224,-1.21233c0.53706,-0.27042 1.01895,-0.57007 1.42532,-0.9031c3.05363,-2.50261 3.98488,-5.47682 3.54186,-8.27392c-0.27353,-5.27835 -4.63999,-9.47401 -9.9864,-9.47401c-0.65994,0 -1.30495,0.06393 -1.92918,0.18593c-3.94838,0.69677 -7.96445,1.17753 -12.02485,1.47039c-2.01283,-1.94608 -9.37607,-3.11811 -10.5282,-3.35775c-5.39757,-1.12263 -10.63985,-1.02839 -15.86503,-0.61044c-1.13152,-0.4442 -2.36365,-0.68812 -3.65274,-0.68812c-0.597,0 -1.18177,0.05231 -1.75,0.15261c-0.56823,-0.10029 -1.153,-0.15261 -1.75,-0.15261c-0.74292,0 -1.46692,0.08101 -2.16364,0.23469c-0.80755,0.16151 -1.61698,0.31013 -2.42808,0.44718c-0.21701,-0.04193 -0.43651,-0.07684 -0.65827,-0.1045v-90.57737h142v178z"/></g></g></svg>