<svg version="1.1" xmlns="http://www.w3.org/2000/svg" xmlns:xlink="http://www.w3.org/1999/xlink" width="90.62655" height="149.60606" viewBox="0,0,90.62655,149.60606"><g transform="translate(-194.70027,-105.19697)"><g data-paper-data="{&quot;isPaintingLayer&quot;:true}" fill-rule="nonzero" stroke-linejoin="miter" stroke-miterlimit="10" stroke-dasharray="" stroke-dashoffset="0" style="mix-blend-mode: normal"><path d="M216.92943,214.42673v-68.66667h46.33333v68.66667z" fill="#1d1d1d" stroke="#000000" stroke-width="2" stroke-linecap="butt"/><path d="M253.3539,253.61255v-39h10v39z" fill="#a1a1a1" stroke="#000000" stroke-width="2" stroke-linecap="butt"/><path d="M217.02057,253.80303v-39h10v39z" fill="#a1a1a1" stroke="#000000" stroke-width="2" stroke-linecap="butt"/><path d="M212.92943,214.42673v-9.66667h55v9.66667z" fill="#1d1d1d" stroke="#000000" stroke-width="2" stroke-linecap="butt"/><g data-paper-data="{&quot;index&quot;:null}" stroke="#000000" stroke-width="2"><path d="M251.70454,198.73816c-3.40481,-4.41858 2.4209,-6.51558 2.42862,-6.55247c0.21242,-1.01521 -2.23839,1.67948 -3.54253,1.17885c-3.708,-1.42343 3.7014,-7.01419 7.82076,-6.80657c1.99902,0.10075 7.19966,5.51664 7.09674,7.55845c-0.19994,3.96678 -7.68619,12.56058 -13.8036,4.62174z" fill="#fcdac0" stroke-linecap="butt"/><path d="M265.08898,162.04032c0,0 20.07452,15.68817 19.21075,16.47951c-0.18705,0.17137 -18.77102,18.03835 -19.46181,18.30457c-0.70528,0.2718 -6.80903,-9.32236 -7.75735,-9.43939c-0.59835,-0.07385 11.04755,-9.04745 10.92753,-9.11729c-0.80263,-0.46707 -10.35541,-10.9962 -10.35541,-10.9962" fill="#3a3eff" stroke-linecap="round"/></g><g stroke="#000000" stroke-width="2"><path d="M214.49186,195.20733c-0.10291,-2.04181 5.09772,-7.45769 7.09674,-7.55845c4.11936,-0.20763 11.52876,5.38314 7.82077,6.80656c-1.30413,0.50063 -3.75495,-2.19405 -3.54253,-1.17885c0.00772,0.03688 5.83342,2.13389 2.42862,6.55247c-6.1174,7.93884 -13.60365,-0.65495 -13.80359,-4.62174z" fill="#fcdac0" stroke-linecap="butt"/><path d="M222.34731,168.36243c0,0 -9.55278,10.52913 -10.35541,10.9962c-0.12002,0.06984 11.52588,9.04345 10.92753,9.11729c-0.94831,0.11703 -7.05207,9.71119 -7.75735,9.43939c-0.69079,-0.26622 -19.27475,-18.1332 -19.4618,-18.30457c-0.86378,-0.79134 19.21074,-16.47951 19.21074,-16.47951" fill="#3a3eff" stroke-linecap="round"/></g><path d="M220.70612,209.15895c0,0 3.25,-11.21626 3.25,-25.10612c0,-13.02559 -3.25,-24.14234 -3.25,-24.14234c0,0 9.29465,-2.11821 20.10335,-2.11821c11.8576,0 19.39665,2.11821 19.39665,2.11821c0,0 -4,12.07138 -3.75,23.61279c0.26485,12.22715 3.75,25.63567 3.75,25.63567c0,0 -10.62358,-1.41214 -20.51888,-1.41214c-8.5299,0 -18.98112,1.41214 -18.98112,1.41214z" fill="#3a3eff" stroke="#000000" stroke-width="2" stroke-linecap="butt"/><path d="M232.52057,148.46969h14.625c0,0 0.47195,7.83967 -0.53099,11.25998c-0.73848,2.51843 -4.16452,2.83346 -6.86398,2.78169c-2.08579,-0.04 -5.72419,-0.17752 -6.54565,-2.84416c-0.81904,-2.65876 -0.68438,-11.19752 -0.68438,-11.19752z" fill="#fc959e" stroke="#000000" stroke-width="2" stroke-linecap="butt"/><g><g stroke="#000000" stroke-width="2" stroke-linecap="butt"><path d="M268.02055,130.85268c0,14.78566 -12.4614,23.95035 -27.83333,23.95035c-15.37193,0 -27.83334,-9.16469 -27.83334,-23.95035c0,-14.78566 12.46141,-24.30303 27.83334,-24.30303c15.37193,0 27.83333,9.51737 27.83333,24.30303z" fill="#fcdac0"/><path d="M268.02056,130.85268c0,0.30075 -1.0859,2.73037 -2.56266,3.0119c-1.46389,0.27909 -0.13569,8.74725 -3.29341,8.54809c-5.15903,-0.32539 1.34828,-9.7689 -3.69455,-15.16113c-2.76557,-2.95718 -9.66038,-3.81587 -17.74979,-3.72088c-6.60937,0.07762 -13.89002,1.10463 -17.02336,3.12065c-7.6945,4.95072 -0.05653,15.88127 -5.62347,15.31632c-3.45841,-0.35097 -1.12892,-7.28583 -3.66125,-8.21701c-2.81424,-1.03484 -2.05818,-2.30483 -2.05818,-2.89794c0,-14.78566 12.46141,-24.65571 27.83334,-24.65571c15.37193,0 27.83334,9.87005 27.83334,24.65571z" fill="#765035"/></g><g><path d="M240.08791,135.06303c0,3.99372 -3.91204,7.23127 -8.73779,7.23127c-4.82575,0 -8.73778,-3.23755 -8.73778,-7.23127c0,-3.99372 3.91204,-7.23127 8.73778,-7.23127c4.82575,0 8.73779,3.23755 8.73779,7.23127z" fill="#ffffff" stroke="#000000" stroke-width="2" stroke-linecap="butt"/><path d="M228.93971,135.12329c0,-1.26468 1.02522,-2.2899 2.2899,-2.2899c1.26468,0 2.2899,1.02522 2.2899,2.2899c0,1.26468 -1.02522,2.28991 -2.2899,2.28991c-1.26468,0 -2.2899,-1.02523 -2.2899,-2.28991z" fill="#000000" stroke="none" stroke-width="0.5" stroke-linecap="butt"/><path d="M259.25077,135.18355c0,3.99372 -3.91204,7.23127 -8.73779,7.23127c-4.82575,0 -8.73779,-3.23755 -8.73779,-7.23127c0,-3.99372 3.91204,-7.23127 8.73779,-7.23127c4.82575,0 8.73779,3.23755 8.73779,7.23127z" fill="#ffffff" stroke="#000000" stroke-width="2" stroke-linecap="butt"/><path d="M248.10257,135.24381c0,-1.26468 1.02523,-2.2899 2.2899,-2.2899c1.26468,0 2.2899,1.02522 2.2899,2.2899c0,1.26468 -1.02523,2.28991 -2.2899,2.28991c-1.26468,0 -2.2899,-1.02523 -2.2899,-2.28991z" fill="#000000" stroke="none" stroke-width="0.5" stroke-linecap="butt"/><path d="M249.48856,147.47673c0,0 -4.41505,1.66223 -13.5855,0.98767c-6.51294,-0.47909 -13.29072,-4.0007 -13.29072,-4.0007" fill="none" stroke="#000000" stroke-width="2" stroke-linecap="round"/><path d="M222.25078,121.69823c0,0 1.55043,-1.54214 5.72779,-2.01217c5.12942,-0.57715 6.44485,0.80696 6.44485,0.80696" fill="none" stroke="#000000" stroke-width="2" stroke-linecap="round"/><path d="M246.45762,121.09562c0,0 1.31543,-1.38411 6.44485,-0.80696c4.17736,0.47003 5.72779,2.01217 5.72779,2.01217" data-paper-data="{&quot;index&quot;:null}" fill="none" stroke="#000000" stroke-width="2" stroke-linecap="round"/></g></g><path d="M220.69634,232.16057v-29.05l8.3,-6.33421l8.3,6.33421v29.05l-8.3,6.33421z" fill="#5c5c57" stroke="#000000" stroke-width="2" stroke-linecap="butt"/><path d="M244.29634,230.76057v-29.05l8.3,-6.33421l8.3,6.33421v29.05l-8.3,6.33421z" fill="#5c5c57" stroke="#000000" stroke-width="2" stroke-linecap="butt"/><path d="M213.35077,162.55249c0,-4.30782 3.49218,-7.8 7.8,-7.8c4.30782,0 7.8,3.49218 7.8,7.8c0,4.30782 -3.49218,7.8 -7.8,7.8c-4.30782,0 -7.8,-3.49218 -7.8,-7.8z" fill="#3a3eff" stroke="#000000" stroke-width="2" stroke-linecap="butt"/><path d="M213.19276,170.71782l-0.13025,-4.76891l4.16912,0.52101l1.34454,4.60504z" fill="#3a3eff" stroke="none" stroke-width="0" stroke-linecap="butt"/><path d="M258.84923,169.26158c-4.30782,0 -7.8,-3.49218 -7.8,-7.8c0,-4.30782 3.49218,-7.8 7.8,-7.8c4.30782,0 7.8,3.49218 7.8,7.8c0,4.30782 -3.49218,7.8 -7.8,7.8z" data-paper-data="{&quot;index&quot;:null}" fill="#3a3eff" stroke="#000000" stroke-width="2" stroke-linecap="butt"/><path d="M261.42383,169.98405l1.34454,-4.60504l4.16912,-0.52101l-0.13025,4.76891z" data-paper-data="{&quot;index&quot;:null}" fill="#3a3eff" stroke="none" stroke-width="0" stroke-linecap="butt"/></g></g></svg>