<svg version="1.1" xmlns="http://www.w3.org/2000/svg" xmlns:xlink="http://www.w3.org/1999/xlink" width="168.09048" height="171.57346" viewBox="0,0,168.09048,171.57346"><g transform="translate(-156.32297,-94.39246)"><g data-paper-data="{&quot;isPaintingLayer&quot;:true}" fill-rule="nonzero" stroke-linejoin="miter" stroke-miterlimit="10" stroke-dasharray="" stroke-dashoffset="0" style="mix-blend-mode: normal"><path d="M288.12984,144.66218v2.55337l-27.44867,10.10707l-2.87254,-3.40448z" fill="#0a9600" stroke="#000000" stroke-width="0" stroke-linecap="round"/><path d="M246.74405,151.89672l-1.0639,3.19171l-2.87253,0.63834l-15.74575,-8.93678l0.42556,-3.83004z" fill="#0a9600" stroke="none" stroke-width="0" stroke-linecap="round"/><path d="M290.23457,200.34387l9.77414,45.00654c0,0 -1.27423,16.89913 -22.27462,18.08458c-4.63188,0.26146 -7.8947,-0.84413 -11.89664,-2.35572c-3.60546,-1.36183 -7.84987,-2.7733 -8.95526,-7.1357c-1.65641,-6.53695 -6.65344,-8.82047 -6.65344,-8.82047c0,0 -3.65485,-0.11766 -4.27705,2.83631c-1.09744,5.21022 -4.83513,7.92694 -7.06036,9.2575c-3.20113,1.91408 -10.71124,1.08992 -10.71124,1.08992c0,0 -4.74151,-0.87964 -8.14433,-4.62259c-2.72228,-2.99439 -4.34231,-8.55779 -3.80903,-11.51944c2.12288,-11.78986 9.90761,-41.59363 9.90761,-41.59363c0,0 18.6062,1.51872 29.32044,1.25422c10.86308,-0.26817 34.77978,-1.48153 34.77978,-1.48153z" fill="#d90000" stroke="#000000" stroke-width="3" stroke-linecap="round"/><path d="M258.43068,159.40634c18.19537,0.82119 49.07913,-3.15979 49.07913,-3.15979l3.18228,20.23021c0,0 1.96331,8.65327 -6.33697,14.77952c-4.27192,3.15301 -15.02977,7.95105 -15.02977,7.95105c0,0 -22.13553,1.44379 -32.73325,1.48247c-10.14292,0.03702 -29.54852,-1.25517 -29.54852,-1.25517c0,0 -18.9521,-1.34021 -20.3709,-13.24607c-0.24384,-2.04613 -1.22228,-4.31393 -1.16248,-6.30722c0.15018,-5.00587 2.87093,-8.5361 4.11627,-12.24079c1.67149,-4.97242 1.96032,-9.34825 1.96032,-9.34825c0,0 29.95314,0.35173 46.84389,1.11404z" fill="#fdcc8d" stroke="#000000" stroke-width="3" stroke-linecap="round"/><path d="M211.98975,158.24747l5.5,0.33333l6.33333,8.83333l-14.33333,0.5z" fill="#e1b47d" stroke="#000000" stroke-width="0" stroke-linecap="round"/><path d="M252.65641,159.41413l4.33333,0.16667l3.16667,10.83333l-12.83333,-1.83333z" fill="#e1b47d" stroke="#000000" stroke-width="0" stroke-linecap="round"/><path d="M307.15641,161.41414l2,9.33333l-6.5,-0.5z" fill="#e1b47d" stroke="#000000" stroke-width="0" stroke-linecap="round"/><path d="M210.67756,158.2923c0,0 -4.34136,-0.37304 -8.18863,-2.94971c-3.9007,-2.61246 -7.29987,-7.43932 -6.08617,-8.96111c2.18856,-2.74412 -1.27096,-6.15648 4.24695,-7.91296c9.20686,-2.93075 13.21013,-2.90679 13.21013,-2.90679c0,0 0.04417,-3.18091 -1.15199,-6.44226c-1.46119,-3.98395 -4.21377,-8.42358 -4.18269,-11.51707c0.11246,-11.19327 6.01659,-15.45462 6.01659,-15.45462c0,0 20.71474,-7.00326 47.03145,-6.18953c34.79675,1.07593 53.8923,11.41756 53.8923,11.41756c0,0 4.09936,10.25907 4.11711,14.10118c0.04415,9.55593 -5.02633,13.85743 -5.02633,13.85743c0,0 6.42543,6.14956 6.7107,10.91998c0.49781,8.3247 -6.7107,8.85561 -6.7107,8.85561c0,0 -4.70218,1.43893 -11.38193,2.10653c-9.89997,0.98943 -23.91652,1.37253 -33.63423,1.69219c-18.0847,0.59489 -58.86256,-0.61643 -58.86256,-0.61643z" fill="#0cb500" stroke="#000000" stroke-width="3" stroke-linecap="round"/><path d="M199.78451,152.32227l-3.67392,-3.87253l1.43972,-5.38341l1.34784,-3.93644l10.67425,-2.1278l12.66044,0.42556l-0.42556,1.59586l-12.76683,0.31917l-3.51088,2.44697l-2.1278,1.80864l-1.91502,1.91502l-0.85113,2.44698l0.63835,2.65975l-0.10639,1.17029z" fill="#0a9c00" stroke="none" stroke-width="0" stroke-linecap="round"/><path d="M246.27703,148.38584l-0.21278,3.19171l-19.36302,-9.36234" fill="none" stroke="#000000" stroke-width="3" stroke-linecap="round"/><path d="M287.27873,144.02385l-27.87424,8.93678l2.55336,-6.17064" fill="none" stroke="#000000" stroke-width="3" stroke-linecap="round"/><path d="M218.32308,158.24747l34,0.83334c0,0 -3.64044,13.90691 -15.83334,13.16667c-17.02465,-1.03358 -18.16666,-14 -18.16666,-14z" fill="#ffffff" stroke="#000000" stroke-width="3" stroke-linecap="round"/><path d="M256.15641,159.5808c0,0 17.29908,-0.11387 25.84217,-0.41997c8.51236,-0.305 25.3245,-1.41336 25.3245,-1.41336c0,0 -3.32878,21.84296 -24.33333,21.5c-23.16276,-0.37819 -26.83333,-19.66667 -26.83333,-19.66667z" fill="#ffffff" stroke="#000000" stroke-width="3" stroke-linecap="round"/><path d="M225.65642,163.24747c0,-0.73638 0.59695,-1.33334 1.33333,-1.33334c0.73638,0 1.33334,0.59696 1.33334,1.33334c0,0.73638 -0.59696,1.33333 -1.33334,1.33333c-0.73638,0 -1.33333,-0.59695 -1.33333,-1.33333z" fill="#000000" stroke="#000000" stroke-width="2" stroke-linecap="butt"/><path d="M266.48975,166.91413c0,-0.92048 0.59695,-1.66666 1.33333,-1.66666c0.73638,0 1.33333,0.74619 1.33333,1.66666c0,0.92048 -0.59695,1.66667 -1.33333,1.66667c-0.73638,0 -1.33333,-0.74619 -1.33333,-1.66667z" fill="#000000" stroke="#000000" stroke-width="2" stroke-linecap="butt"/><path d="M305.82308,177.24746c0,0 -9.88196,12.9732 -32.34947,14.48308c-18.9874,1.27602 -39.98386,-11.14974 -39.98386,-11.14974" fill="none" stroke="#000000" stroke-width="3" stroke-linecap="round"/><path d="M258.43068,159.40634c18.19537,0.82119 49.07913,-3.15979 49.07913,-3.15979l3.18228,20.23021c0,0 1.96331,8.65327 -6.33697,14.77952c-4.27192,3.15301 -15.02977,7.95105 -15.02977,7.95105c0,0 -22.13553,1.44379 -32.73325,1.48247c-10.14292,0.03702 -29.54852,-1.25517 -29.54852,-1.25517c0,0 -18.9521,-1.34021 -20.3709,-13.24607c-0.24384,-2.04613 -1.22228,-4.31393 -1.16248,-6.30722c0.15018,-5.00587 2.87093,-8.5361 4.11627,-12.24079c1.67149,-4.97242 1.96032,-9.34825 1.96032,-9.34825c0,0 29.95314,0.35173 46.84389,1.11404z" fill="none" stroke="#000000" stroke-width="2" stroke-linecap="round"/><path d="M287.98975,136.0808l24,0.33333l7.16667,3.33333l2.33333,7.83334l-2.83333,5.66666l-10.16667,2.50001l1.33333,-1.83334l3.33333,-4.66667l1.16667,-3.66666l-5.5,-4.16667h-19.33333l-2.16667,-3.33333z" fill="#0a9600" stroke="#000000" stroke-width="0" stroke-linecap="round"/><path d="M288.32308,134.5808l4,-2l9.33333,-1l8,-5.66667l3.66667,-5.33334l1.33333,-5.33333l-2.5,-4.83333l-3.83333,-4.33334l0.33333,-1.33333l5.5,1.83333l4.5,8.16667l0.83333,9l-1.5,6.66667l-4.16667,4l-6.66667,1.83333h-17.5z" fill="#0a9600" stroke="#000000" stroke-width="0" stroke-linecap="round"/><path d="M209.65641,135.91413l12.83333,0.33333" fill="none" stroke="#000000" stroke-width="2" stroke-linecap="round"/><path d="M314.32308,135.74747l-26,0.33333" fill="none" stroke="#000000" stroke-width="2" stroke-linecap="round"/><path d="M210.67756,158.12563c0,0 -4.34136,-0.37304 -8.18863,-2.94971c-3.9007,-2.61246 -7.29987,-7.43932 -6.08617,-8.96111c2.18856,-2.74412 -1.27096,-6.15648 4.24695,-7.91296c9.20686,-2.93075 13.21013,-2.90679 13.21013,-2.90679c0,0 0.04417,-3.18091 -1.15199,-6.44226c-1.46119,-3.98395 -4.21377,-8.42358 -4.18269,-11.51707c0.11246,-11.19327 6.01659,-15.45462 6.01659,-15.45462c0,0 20.71474,-7.00326 47.03145,-6.18953c34.79675,1.07593 53.8923,11.41756 53.8923,11.41756c0,0 4.09936,10.25907 4.11711,14.10118c0.04415,9.55593 -5.02633,13.85743 -5.02633,13.85743c0,0 6.42543,6.14956 6.7107,10.91998c0.49781,8.3247 -6.7107,8.85561 -6.7107,8.85561c0,0 -4.70218,1.43893 -11.38193,2.10653c-9.89997,0.98943 -23.91652,1.37253 -33.63423,1.69219c-18.0847,0.59489 -58.86256,-0.61643 -58.86256,-0.61643z" fill="none" stroke="#000000" stroke-width="2" stroke-linecap="round"/><path d="M233.15642,200.24748l9,0.5l-2.33333,18c0,0 3.41902,-3.20822 9.8314,-3.24934c5.59183,-0.03586 11.6686,3.08267 11.6686,3.08267v-17.66667l13.16667,-1v3.83333l-2,14.66667c0,0 6.73189,-1.19034 10.11006,-2.34455c3.28594,-1.1227 9.88994,-4.48879 9.88994,-4.48879l1.5,8.33333l3.33333,13l2.83333,16.83333l-6.16667,8.83333l-11.83333,5.83333l-13.66667,-2l-8.83333,-4.66667l-7.16667,-11.66667l-5,-0.33333l-4.33333,8.16667l-7.5,4.16667h-10.16667l-7,-5.33333l-2.33333,-11.83333l7.83333,-28l6.5,0.33333l2.33333,-10.83333z" fill="#0024dd" stroke="#000000" stroke-width="1.5" stroke-linecap="round"/><path d="M239.82308,215.41413l-4,-0.5l0.66667,-9.16667l-4,-1l1.83333,-4.16667l8,0.83333z" fill="#001eb7" stroke="none" stroke-width="0" stroke-linecap="round"/><path d="M267.65641,228.41414l4.5,-0.66667l0.83333,5l-0.33333,5.83333l-2.66667,4.83333l-2.83333,-1.5z" fill="#001eb7" stroke="none" stroke-width="0" stroke-linecap="round"/><path d="M261.48974,201.41414l7.67528,-0.89069l5.32472,-0.10931l-2.16667,18.5l9.66667,-2.16666l-2.33333,7.16666l-8.83333,-1.16667l-1.5,-4.16667l-0.16667,-12.5l-7,-0.5z" fill="#001eb7" stroke="none" stroke-width="0" stroke-linecap="round"/><path d="M232.15642,226.5808l5.83333,1.16667l-4,10l-3.66667,0.5z" fill="#001eb7" stroke="none" stroke-width="0" stroke-linecap="round"/><path d="M230.32308,237.41413l1.33333,-11l36.16667,2l-0.66667,13.16667" fill="none" stroke="#000000" stroke-width="3" stroke-linecap="round"/><path d="M273.15641,261.91413l0.66667,-2l5.83333,-3l6.83333,-6.83333l2.83333,-6l1.16667,-7.16667l1,-4.16667l4.33333,4l3.16667,0.66667c0,0 0.50916,8.04173 0.71968,10.669c0.1566,1.9543 -1.38635,4.49766 -1.38635,4.49766c0,0 -2.73046,4.36832 -4.35251,5.78761c-1.89184,1.65535 -6.31416,3.54573 -6.31416,3.54573c0,0 -3.75295,2.30784 -5.90559,2.58002c-2.59686,0.32834 -8.59441,-0.74668 -8.59441,-0.74668z" fill="#001eb7" stroke="none" stroke-width="0" stroke-linecap="round"/><path d="M232.32308,217.8308c0,-0.7824 0.63426,-1.41667 1.41667,-1.41667c0.7824,0 1.41667,0.63426 1.41667,1.41667c0,0.7824 -0.63426,1.41667 -1.41667,1.41667c-0.7824,0 -1.41667,-0.63426 -1.41667,-1.41667z" fill="#000000" stroke="#000000" stroke-width="3" stroke-linecap="butt"/><path d="M265.65641,220.99747c0,-0.78241 0.63426,-1.41667 1.41666,-1.41667c0.78241,0 1.41667,0.63426 1.41667,1.41667c0,0.78241 -0.63427,1.41667 -1.41667,1.41667c-0.7824,0 -1.41666,-0.63426 -1.41666,-1.41667z" fill="#000000" stroke="#000000" stroke-width="3" stroke-linecap="butt"/><path d="M233.15642,200.24748l9,0.5l-2.33334,18c0,0 3.41902,-3.20822 9.8314,-3.24934c5.59184,-0.03586 11.6686,3.08267 11.6686,3.08267v-17.66667l13.16667,-1v3.83334l-2,14.66666c0,0 6.73189,-1.19034 10.11006,-2.34455c3.28595,-1.1227 9.88994,-4.48878 9.88994,-4.48878l1.5,8.33333l3.33333,13l2.83333,16.83334l-6.16667,8.83333l-11.83333,5.83333l-13.66667,-2l-8.83333,-4.66666l-7.16667,-11.66667l-5,-0.33333l-4.33333,8.16666l-7.5,4.16667h-10.16667l-7,-5.33333l-2.33333,-11.83334l7.83333,-28l6.5,0.33334l2.33334,-10.83334z" fill="none" stroke="#000000" stroke-width="3" stroke-linecap="round"/><path d="M315.32308,233.91412l4.33333,2.5c0,0 1.15752,3.72699 -2.15957,5.22096c-3.76092,1.69387 -7.50709,-0.88762 -7.50709,-0.88762c0,0 -3.9579,2.75688 -5.91667,1.08333c-1.72589,-1.47458 -6.58333,-5.25 -6.58333,-5.25c0,0 -1.96343,0.20294 -3.36431,-0.57704c-0.94735,-0.52746 -1.27566,-2.04711 -1.9494,-2.30714c-1.48944,-0.57486 -4.22674,-0.798 -4.22674,-0.798c-8.45745,-1.94095 -5.79289,-11.98448 -5.79289,-11.98448c0,0 8.10233,-14.30683 27,-10.33333c22.44957,4.72034 10.66667,17.66667 10.66667,17.66667z" fill="#fdcc8d" stroke="#000000" stroke-width="3" stroke-linecap="round"/><path d="M282.15642,226.91413l-0.5,-3.33333l4,-7l6.66667,-4l10.5,-2.83333l14.33333,2.33333l-0.16667,2.5l-3.66667,-0.16667h-6h-6.5l-4,0.83334l-3.83333,1.5l-4.16667,2.83333l-2.33333,2.66667l-0.66667,5.5z" fill="#e5b780" stroke="none" stroke-width="0" stroke-linecap="round"/><path d="M302.15641,216.91414l0.50001,2.83334l-3.33333,2.16666l-0.16667,3.5l0.5,2.66667l-2.16667,7.16667l-3.33333,-1l0.33333,-12.16667c0,0 1.35379,-3.01227 2.60784,-3.76471c1.24589,-0.74753 5.05882,-1.40196 5.05882,-1.40196z" fill="#e5b780" stroke="none" stroke-width="0" stroke-linecap="round"/><path d="M310.15641,222.5808v2.16667l-6,7.5l1.83333,9.5l-5.16667,-3.16667c0,0 -2.2154,-2.66007 -2.24165,-4.18261c-0.02902,-1.68348 2.07499,-5.65072 2.07499,-5.65072l5.16667,-6.16667z" fill="#e5b780" stroke="none" stroke-width="0" stroke-linecap="round"/><path d="M318.65641,225.74747l-4.33333,5.16666l-1,3.5l0.83333,7l-3.83333,-0.66667c0,0 -0.60334,-3.03197 -0.76668,-4.36199c-0.21248,-1.73018 0.26667,-6.30468 0.26667,-6.30468l4.5,-5z" fill="#e5b780" stroke="none" stroke-width="0" stroke-linecap="round"/><path d="M291.82307,233.74748c0,0 1.81331,-1.15652 2.9466,-2.8079c0.63667,-0.92771 -1.31662,-2.42161 -0.16537,-4.28812c0.61287,-0.99365 -1.9728,-5.97974 0.61825,-7.43231c4.21889,-2.36515 7.60053,-2.47168 7.60053,-2.47168" fill="none" stroke="#000000" stroke-width="3" stroke-linecap="round"/><path d="M298.32308,236.41415c0,0 0.8243,-7.43743 4.05215,-10.42301c3.7495,-3.46807 7.28118,-4.57699 7.28118,-4.57699" fill="none" stroke="#000000" stroke-width="3" stroke-linecap="round"/><path d="M309.98975,239.74748c0,0 -2.75856,-6.28267 0.30027,-9.93175c3.90331,-4.65652 7.53306,-5.40159 7.53306,-5.40159" fill="none" stroke="#000000" stroke-width="3" stroke-linecap="round"/><path d="M315.32308,233.91412l4.33333,2.5c0,0 1.15752,3.72699 -2.15957,5.22096c-3.76092,1.69387 -7.50709,-0.88762 -7.50709,-0.88762c0,0 -3.9579,2.75688 -5.91667,1.08333c-1.72589,-1.47458 -6.58333,-5.25 -6.58333,-5.25c0,0 -1.96343,0.20294 -3.36431,-0.57704c-0.94735,-0.52746 -1.27566,-2.04711 -1.9494,-2.30714c-1.48944,-0.57486 -4.22674,-0.798 -4.22674,-0.798c-8.45745,-1.94095 -5.79289,-11.98448 -5.79289,-11.98448c0,0 8.10233,-14.30683 27,-10.33333c22.44957,4.72034 10.66667,17.66667 10.66667,17.66667z" fill="none" stroke="#000000" stroke-width="2" stroke-linecap="round"/><path d="M204.82308,207.41414l1.83334,-0.66666l1.66666,0.5l0.83334,4.16666l-2.33334,4l-7.66666,1.33334l-4.33334,-5l2.5,-8.66667l8.33334,-3l9.66666,2.66667l7.33334,6.33333l1.33333,3.66667l-3.16666,5.83333l-6,7.83333l-8.5,6.83334h-6.83334l-0.5,-3.66667l7.16667,-6.83333l6.83333,-1.5l3.16667,1.33333c0,0 -5.00988,-0.34707 -7.0782,-4.29234c-0.87982,-1.67824 -0.17808,-2.74625 -0.2245,-5.04497c-0.04658,-2.3066 -0.84075,-5.84206 -1.38573,-6.43533c-1.23227,-1.34146 -2.6449,0.60598 -2.6449,0.60598z" fill="#fdcc8d" stroke="#000000" stroke-width="3" stroke-linecap="round"/><path d="M204.48975,207.74747h-2l-0.66666,-0.83334" fill="none" stroke="#000000" stroke-width="2" stroke-linecap="round"/><path d="M195.10098,180.31956c1.85513,8.38841 -5.6518,18.34267 -15.80777,20.5887c-10.15597,2.24603 -20.11511,-2.84446 -21.97024,-11.23287c-1.85513,-8.38841 4.87403,-17.00933 15.03,-19.25536c10.15597,-2.24603 20.89289,1.51113 22.74802,9.89954z" fill="#212121" stroke="#000000" stroke-width="2" stroke-linecap="butt"/><path d="M190.51362,178.98867c1.38435,4.09876 -1.33455,8.7188 -6.07283,10.31915c-4.73828,1.60035 -10.70166,-0.09168 -12.08601,-4.19044c-0.64313,-1.90417 -0.51818,-3.99277 0.63205,-5.84395c1.32566,-2.13352 3.90377,-3.95166 6.44079,-4.80854c4.73828,-1.60035 9.70166,0.42502 11.08601,4.52378z" fill="#151515" stroke="none" stroke-width="0" stroke-linecap="butt"/><path d="M209.98975,220.24747l-6.66666,4.33333l-7.5,3.83333l-0.5,-6l10.16666,-6.16666z" fill="#fdcc8d" stroke="#000000" stroke-width="3" stroke-linecap="round"/><path d="M188.98975,221.74747l-3.5,-4.16667l8.83334,-6.16667l4.5,5.66667c0,0 -1.34476,3.60429 -2.84208,4.31489c-1.74299,0.82718 -6.99125,0.35178 -6.99125,0.35178z" fill="#fdcc8d" stroke="#000000" stroke-width="3" stroke-linecap="round"/><path d="M207.32307,213.91413l-6.33334,2l-5.16666,-2.33333l0.33334,-6.5l3.5,-4.16667l1.33333,1.33334l-2.66666,5.16666l3.33334,3.83334l4.33333,-1.16667z" fill="#e1b47d" stroke="none" stroke-width="0" stroke-linecap="round"/><path d="M201.48975,199.0808l17.66667,20.33333l-4.16667,6l-23.5,-12.83333l-7.16666,-6.16667l12.16666,-11.66666z" fill="#515151" stroke="#000000" stroke-width="2" stroke-linecap="round"/><path d="M184.65642,204.91413l11.66666,-10l4,3.5l-5.33334,3.66667l-4,3.16667l-3.16666,2.83333z" fill="#393939" stroke="none" stroke-width="0" stroke-linecap="round"/><path d="M171.98975,173.38636l-5.33333,6.66667l-2,4.77778l1.33333,5.88889l5,3.33333l6.33334,0.88889l6.33334,-2.44444l5.55555,-4.11111l5.85714,-4.07936l-2.63492,6.19048c0,0 -3.32243,5.12637 -5.45532,6.68795c-2.00768,1.46991 -6.98913,2.42316 -6.98913,2.42316c0,0 -4.79231,1.58133 -7.29045,1.43755c-2.64195,-0.15206 -8.154,-2.32644 -8.154,-2.32644c0,0 -3.09885,-2.66453 -4.25157,-4.27469c-1.17997,-1.64822 -2.74843,-5.50309 -2.74843,-5.50309l2.22223,-10.66666l7.88889,-6.22222z" fill="#151515" stroke="none" stroke-width="0" stroke-linecap="round"/><path d="M180.5453,187.16414l-4.66666,-8.88889" fill="none" stroke="#000000" stroke-width="2" stroke-linecap="round"/><path d="M179.87864,176.71969l4.77778,7.66666" fill="none" stroke="#000000" stroke-width="2" stroke-linecap="round"/><path d="M184.43419,176.27525l3.22223,5.66666" fill="none" stroke="#000000" stroke-width="2" stroke-linecap="round"/><path d="M174.10086,184.49747c0,0 4.92433,-3.77257 7.30945,-5.15239c2.04327,-1.18206 6.13499,-2.62538 6.13499,-2.62538" fill="none" stroke="#000000" stroke-width="2" stroke-linecap="round"/><path d="M176.87864,187.16413c0,0 3.87809,-3.17126 5.98531,-4.51553c2.18617,-1.39462 6.90358,-3.70669 6.90358,-3.70669" fill="none" stroke="#000000" stroke-width="2" stroke-linecap="round"/><path d="M195.10098,180.31956c1.85513,8.38841 -5.6518,18.34267 -15.80777,20.5887c-10.15597,2.24603 -20.11511,-2.84446 -21.97024,-11.23287c-1.85513,-8.38841 4.87403,-17.00933 15.03,-19.25536c10.15597,-2.24603 20.89289,1.51113 22.74802,9.89954z" fill="none" stroke="#000000" stroke-width="2" stroke-linecap="butt"/><path d="M201.48975,199.0808l17.66667,20.33333l-4.16667,6l-23.5,-12.83333l-7.16666,-6.16667l12.16666,-11.66666z" fill="none" stroke="#000000" stroke-width="2" stroke-linecap="round"/><path d="M174.32308,201.74747c0,0 8.27931,-3.30318 11.70151,-5.98022c3.46613,-2.71141 8.71515,-8.93645 8.71515,-8.93645l8.25,5.91667l-22.66666,18.16666z" fill="#333333" stroke="#000000" stroke-width="2" stroke-linecap="round"/></g></g></svg>