<svg version="1.1" xmlns="http://www.w3.org/2000/svg" xmlns:xlink="http://www.w3.org/1999/xlink" width="15" height="12.99852" viewBox="0,0,15,12.99852"><g transform="translate(-240.20745,-166.16032)"><g data-paper-data="{&quot;isPaintingLayer&quot;:true}" fill="#003cff" fill-rule="evenodd" stroke="none" stroke-width="1" stroke-linecap="butt" stroke-linejoin="miter" stroke-miterlimit="10" stroke-dasharray="" stroke-dashoffset="0" style="mix-blend-mode: normal"><path d="M247.20808,174.15849h0.99895v3.00084h-0.99995v-2.99984h-2.99984v-0.99995h3.00084zM251.20666,166.16032h3.00084v0.99995h0.99995v2.99984h-0.99995v0.99895h-1.00095v0.99995h-0.99995v0.99995h-1.99989v0.99995h-0.99995v-0.99995h-0.99995v-0.99995h-0.99995v-1.99889h0.99995v-0.99995h0.99995v-0.99995h0.99995v-0.99995h0.99995zM243.20699,174.15909h0.99995v1.00095h1.00095v0.99995h0.99995v0.99995h0.99995v0.99995h-0.99995v0.99895h-4.00079v-0.99895h-0.99995v-1.99989h1.99989zM240.20745,176.15938v-0.99995h0.99995v0.99995z"/></g></g></svg>