<svg version="1.1" xmlns="http://www.w3.org/2000/svg" xmlns:xlink="http://www.w3.org/1999/xlink" width="109.75628" height="111.37636" viewBox="0,0,109.75628,111.37636"><g transform="translate(-192.31995,-104.64922)"><g data-paper-data="{&quot;isPaintingLayer&quot;:true}" fill-rule="nonzero" stroke-linejoin="miter" stroke-miterlimit="10" stroke-dasharray="" stroke-dashoffset="0" style="mix-blend-mode: normal"><path d="M216.6715,169.34887c0.44652,-6.12919 2.5779,-12.20699 3.33702,-18.3256c0.37535,-3.02537 0.19536,-6.19567 0.07285,-9.30495c-1.63576,0.30296 -3.34397,-0.58186 -5.02358,-0.79207c-3.87921,-0.48551 -7.6861,-0.41647 -11.52992,-0.80175c-0.96067,-0.09629 -1.90167,-0.31568 -2.82026,-0.56525c-0.37445,-0.10173 -0.69286,-0.65073 -1.02797,-0.48027c-0.37953,0.19304 -0.07453,0.73106 -0.16827,1.08872c-0.71228,2.7177 -1.03298,4.79643 -1.17963,7.54971c-0.19154,3.59604 -1.55946,7.97389 -0.70519,11.56924c0.75444,3.1752 1.83683,6.48625 2.69186,9.69318c0.0168,2.7084 0.01382,5.36111 0.31123,8.05922c0.04429,0.40179 -0.1561,0.86599 0.10701,1.20709c0.57923,0.75093 2.16907,0.05094 3.25203,0.10295c4.35615,0.20922 8.92594,0.92979 13.00967,2.23586c-0.03463,-3.74796 -0.59979,-7.48951 -0.32685,-11.23607zM225,138.36602c0,4.25772 0.50235,8.7526 -0.00852,12.99488c-0.73349,6.09093 -2.89854,12.146 -3.32965,18.24232c-0.26699,3.77555 0.33816,7.55421 0.33816,11.33441v1.35349c0.30625,0.37418 0.4745,0.89224 0.25869,1.59896c-0.18318,0.59986 -0.53237,0.97319 -0.93055,1.20212c-0.06022,3.6331 -0.61289,7.55525 -0.0213,11.10322c0.45857,2.75021 1.95628,5.71128 3.18716,8.2824c0.80472,1.68094 0.80072,3.7116 2.19733,5.10884c0.65003,0.65032 3.80948,0.65979 4.21847,0.71485c3.80779,0.51254 6.84677,1.25921 10.76819,1.06785c0.89422,-0.04364 1.77349,-0.329 2.66667,-0.27289c0.43846,0.02754 1.00885,0.85116 1.16072,0.5133c0.35687,-0.79388 -0.16966,-1.68616 -0.25449,-2.52924c-0.32691,-2.08917 -2.69074,-8.56197 -0.62508,-10.39477c1.1512,-1.02143 3.26923,-1.02989 4.96295,-0.93571c1.32327,0.07358 2.30915,1.11805 3.58625,1.41111c1.10149,0.25276 6.69228,0.22824 7.5338,0.19942c4.06094,-0.13909 8.05739,-1.00613 12.0879,-1.34448c1.55555,-0.13059 3.27899,-0.68424 4.68844,-0.12982c4.12328,1.62192 5.00197,6.97951 6.33482,10.12399c0.20593,0.48583 0.01225,1.12802 0.44781,1.49856c0.40302,0.34286 1.13737,0.19925 1.69744,0.32643c3.11667,0.70776 5.90586,1.5308 9.13055,1.81435c0.56012,0.20247 1.14361,0.84862 1.68035,0.60742c0.47364,-0.21285 -0.07353,-0.883 -0.08294,-1.32528c-0.0258,-1.212 -0.08443,-2.42537 -0.02267,-3.6365c0.13683,-2.68353 0.67427,-5.42299 0.34444,-8.12323c-0.22197,-1.81715 -0.97096,-3.56731 -1.3194,-5.37111c-2.22387,-11.51276 -1.11411,-22.96495 -2.00095,-34.53975c-0.66943,-6.70749 -0.69458,-13.35103 -0.69458,-20.07646c0,-3.11428 0.4978,-6.92789 -0.28822,-9.98296c-0.44126,-1.71506 -1.57311,-3.26208 -2.25015,-4.92483c-1.18824,-2.9182 -1.86346,-6.08585 -3.72515,-8.7924c-2.03793,-2.96278 -6.66167,-5.19626 -10.43945,-6.22946c-15.10593,-1.31158 -33.26977,-0.88876 -43.51152,9.64952c-1.43349,1.475 -3.31098,2.69236 -4.42493,4.34196c-1.33847,1.98209 -0.51667,4.39098 -0.69874,6.51402c-0.2281,2.65974 -1.31188,4.48062 -2.89885,6.74636c-0.08742,0.18532 -0.17431,0.37898 -0.26279,0.57812c0.4998,0.5812 0.4998,1.28098 0.4998,1.28098zM216.33226,184.77476c-3.93275,-1.37908 -8.37579,-2.10874 -12.65427,-2.34016c-2.56226,-0.13859 -4.64569,0.43881 -6.74797,-1.53441c-2.69212,-2.52686 -1.60485,-8.44262 -1.58176,-11.4737c-0.85334,-3.08309 -1.95911,-6.3413 -2.64148,-9.40947c-1.03463,-4.65206 0.29666,-10.26546 0.63038,-14.9418c0.18751,-2.62755 0.77468,-8.09055 3.9832,-9.6053c1.97792,-0.93378 4.83761,0.38418 6.81844,0.59184c3.92169,0.41113 7.87296,0.0545 11.80341,0.83562c0.97151,0.19308 1.79966,0.91781 2.79849,0.8831c0.45477,-0.0158 0.43555,-0.65623 0.60697,-1.00144c0.32807,-0.66066 0.59289,-1.3412 0.88934,-2.0118c0.5068,-0.72853 1.8762,-2.54171 2.18334,-3.48599c1.11431,-3.42588 -0.58181,-6.60031 1.5524,-9.99733c1.1854,-1.8868 3.28438,-3.28295 4.9084,-4.93646c11.55836,-11.76827 31.41736,-12.70344 48.48848,-11.0905c5.0849,1.38545 10.81848,4.10561 13.62136,8.07723c2.16548,3.06844 2.10526,4.16524 3.23506,7.24637c0.94042,2.56465 2.7303,5.25925 3.39549,7.84711c0.85387,3.32188 0.37844,7.37692 0.37844,10.75706c0,6.62788 0.02228,13.17234 0.68164,19.78214c0.65077,8.55412 0.0781,17.14187 0.64859,25.68936c0.38916,5.83066 2.65959,11.47992 2.66977,17.29434c0.00481,2.74845 0.31763,6.95756 -0.35983,9.57564c-0.37724,1.45786 -0.60904,3.25815 -2.08294,4.13262c-1.346,0.79859 -3.32421,0.04108 -4.98632,0.06163c-3.4987,-0.32731 -6.88833,-0.99505 -10.20279,-2.00618c-1.24094,-0.37857 -2.69187,-0.55058 -3.63589,-1.31093c-1.72363,-1.38828 -2.64553,-5.26815 -3.2992,-7.15159c-0.13183,-0.37986 -1.09387,-3.30344 -1.91818,-3.60324c-0.62218,-0.22628 -1.31317,0.29675 -1.97822,0.41597c-1.14735,0.20568 -2.28892,0.45741 -3.45696,0.55836c-4.51552,0.39029 -9.08184,1.0014 -13.68357,0.82688c-1.5286,-0.05797 -3.09221,-0.02533 -4.57111,-0.34714c-1.11967,-0.24364 -2.08894,-0.82717 -3.08041,-1.31784c-0.17211,-0.08518 -0.44355,-0.54328 -0.37039,-0.38992c1.22151,2.56073 1.46158,4.86466 1.87666,7.67237c-0.4743,1.86718 -0.02621,4.07521 -1.42291,5.60153c-0.03092,0.03379 -5.97909,0.74529 -6.83928,0.78619c-4.28244,0.20364 -7.75135,-0.54213 -11.89848,-1.11531c-2.87718,-0.39766 -4.74546,0.00418 -7.11486,-2.0141c-1.9332,-1.64672 -2.12077,-4.22537 -3.136,-6.35275c-1.36193,-2.85385 -2.97146,-6.13004 -3.4795,-9.18287c-0.64172,-3.85609 -0.05612,-8.09334 -0.02757,-12.01509z" fill="#000000" stroke="none" stroke-width="0.5" stroke-linecap="butt"/><path d="M217.01374,180.62389c-4.08374,-1.30606 -8.67929,-2.02554 -13.03544,-2.23476c-1.08296,-0.05201 -2.67927,0.64647 -3.2585,-0.10446c-0.26311,-0.3411 -0.06396,-0.80568 -0.10825,-1.20747c-0.29741,-2.69812 -0.30653,-5.35635 -0.32333,-8.06475c-0.85503,-3.20693 -1.95715,-6.55298 -2.7116,-9.72818c-0.85427,-3.59534 0.53468,-8.00425 0.72622,-11.60028c0.14665,-2.75328 0.4782,-4.83677 1.19049,-7.55447c0.09374,-0.35766 -0.21016,-0.89602 0.16937,-1.08906c0.33512,-0.17045 0.65492,0.37815 1.02937,0.47988c0.91859,0.24957 1.86442,0.46789 2.8251,0.56418c3.84382,0.38528 7.6745,0.31673 11.55371,0.80223c1.6796,0.21021 3.39745,1.09808 5.03321,0.79512c0.12251,3.10927 0.31587,6.28772 -0.05948,9.31309c-0.75912,6.11861 -2.8986,12.25861 -3.34511,18.38781c-0.27294,3.74656 0.27959,7.49316 0.31422,11.24112z" data-paper-data="{&quot;noHover&quot;:false,&quot;origItem&quot;:[&quot;Path&quot;,{&quot;applyMatrix&quot;:true,&quot;selected&quot;:true,&quot;segments&quot;:[[[216.6715,169.34887],[-0.27294,3.74656],[0.44652,-6.12919],7],[[220.00852,151.02327],[-0.75912,6.11861],[0.37535,-3.02537],7],[[220.08137,141.71832],[0.12251,3.10927],[-1.63576,0.30296],7],[[215.05779,140.92625],[1.6796,0.21021],[-3.87921,-0.48551],7],[[203.52788,140.12451],[3.84382,0.38528],[-0.96067,-0.09629],7],[[200.70762,139.55925],[0.91859,0.24957],[-0.37445,-0.10173],7],[[199.67964,139.07898],[0.33512,-0.17045],[-0.37953,0.19304],7],[[199.51138,140.1677],[0.09374,-0.35766],[-0.71228,2.7177],7],[[198.33174,147.71741],[0.14665,-2.75328],[-0.19154,3.59604],7],[[197.62655,159.28665],[-0.85427,-3.59534],[0.75444,3.1752],7],[[200.31841,168.97982],[-0.85503,-3.20693],[0.0168,2.7084],7],[[200.62964,177.03905],[-0.29741,-2.69812],[0.04429,0.40179],7],[[200.73665,178.24613],[-0.26311,-0.3411],[0.57923,0.75093],7],[[203.98868,178.34909],[-1.08296,-0.05201],[4.35615,0.20922],7],[[216.99835,180.58494],[-4.08374,-1.30606],[-0.03463,-3.74796],7]],&quot;closed&quot;:true}]}" fill="#ff0000" stroke="none" stroke-width="0.5" stroke-linecap="butt"/><path d="M224.46168,137.05894c0.08848,-0.19914 0.17588,-0.3933 0.2633,-0.57861c1.58697,-2.26573 2.67669,-4.09142 2.90478,-6.75116c0.18207,-2.12304 -0.63563,-4.53446 0.70285,-6.51655c1.11395,-1.6496 2.99643,-2.86939 4.42993,-4.34439c10.24175,-10.53828 28.44182,-10.96421 43.54775,-9.65263c3.77778,1.0332 8.41072,3.26958 10.44865,6.23236c1.86169,2.70655 2.54337,5.87737 3.73161,8.79558c0.67704,1.66274 1.81299,3.21242 2.25425,4.92748c0.78603,3.05507 0.29486,6.87449 0.29486,9.98876c0,6.72543 0.03544,13.39209 0.70488,20.09958c0.88684,11.57479 -0.23941,23.05921 1.98446,34.57197c0.34843,1.8038 1.09529,3.55546 1.31725,5.37261c0.32984,2.70024 -0.21144,5.44198 -0.34827,8.12552c-0.06176,1.21113 -0.00454,2.42524 0.02126,3.63724c0.00941,0.44227 0.55613,1.11265 0.08249,1.3255c-0.53674,0.24121 -1.12087,-0.40464 -1.68099,-0.60711c-3.22469,-0.28356 -6.01847,-1.10468 -9.13515,-1.81243c-0.56007,-0.12718 -1.2954,0.01677 -1.69842,-0.32609c-0.43556,-0.37054 -0.28089,-1.08811 -0.48682,-1.57394c-1.33285,-3.14448 -2.17322,-8.42646 -6.2965,-10.04837c-1.40946,-0.55442 -3.13725,0.00049 -4.6928,0.13107c-4.03051,0.33835 -8.03959,1.20709 -12.10053,1.34618c-0.84152,0.02882 -6.44023,0.05304 -7.54172,-0.19971c-1.2771,-0.29305 -2.26699,-1.33807 -3.59026,-1.41165c-1.69371,-0.09418 -3.81633,-0.0867 -4.96754,0.93473c-2.06566,1.83281 0.32432,8.22664 0.65124,10.31581c0.08483,0.84308 0.58939,1.81523 0.23252,2.60911c-0.15188,0.33786 -0.72324,-0.48594 -1.1617,-0.51348c-0.89318,-0.0561 -1.77434,0.22886 -2.66856,0.27249c-3.92142,0.19136 -6.96793,-0.55758 -10.77572,-1.07012c-0.409,-0.05505 -3.57119,-0.06565 -4.22123,-0.71598c-1.39661,-1.39724 -1.39591,-3.4295 -2.20064,-5.11044c-1.23088,-2.57112 -2.73427,-5.53568 -3.19284,-8.28588c-0.59159,-3.54797 -0.04531,-7.47558 0.01491,-11.10868c0.39818,-0.22893 0.747,-0.60266 0.93018,-1.20252c0.21581,-0.70672 0.04645,-1.22601 -0.2598,-1.60019l-0.00086,-1.3545c0,-3.7802 -0.6116,-7.57006 -0.34461,-11.34562c0.43111,-6.09633 2.59658,-12.17579 3.33007,-18.26673c0.51087,-4.24228 0.01687,-8.74985 0.01687,-13.00757c0,0 0.00064,-0.70043 -0.49916,-1.28163z" data-paper-data="{&quot;noHover&quot;:false,&quot;origItem&quot;:[&quot;Path&quot;,{&quot;applyMatrix&quot;:true,&quot;selected&quot;:true,&quot;segments&quot;:[[[225,138.36602],[0,0],[0,4.25772],7],[[224.99148,151.3609],[0.51087,-4.24228],[-0.73349,6.09093],7],[[221.66184,169.60322],[0.43111,-6.09633],[-0.26699,3.77555],7],[[222,180.93763],[0,-3.7802],[0,0],7],[[222,182.29113],[0,0],[0.30625,0.37418],7],[[222.25869,183.89009],[0.21581,-0.70672],[-0.18318,0.59986],7],[[221.32814,185.09221],[0.39818,-0.22893],[-0.06022,3.6331],7],[[221.30683,196.19544],[-0.59159,-3.54797],[0.45857,2.75021],7],[[224.494,204.47784],[-1.23088,-2.57112],[0.80472,1.68094],7],[[226.69133,209.58668],[-1.39661,-1.39724],[0.65003,0.65032],7],[[230.9098,210.30153],[-0.409,-0.05505],[3.80779,0.51254],7],[[241.67799,211.36938],[-3.92142,0.19136],[0.89422,-0.04364],7],[[244.34466,211.09648],[-0.89318,-0.0561],[0.43846,0.02754],7],[[245.50538,211.60978],[-0.15188,0.33786],[0.35687,-0.79388],7],[[245.25089,209.08054],[0.08483,0.84308],[-0.32691,-2.08917],7],[[244.6258,198.68576],[-2.06566,1.83281],[1.1512,-1.02143],7],[[249.58875,197.75006],[-1.69371,-0.09418],[1.32327,0.07358],7],[[253.175,199.16116],[-1.2771,-0.29305],[1.10149,0.25276],7],[[260.7088,199.36058],[-0.84152,0.02882],[4.06094,-0.13909],7],[[272.7967,198.0161],[-4.03051,0.33835],[1.55555,-0.13059],7],[[277.48514,197.88628],[-1.40946,-0.55442],[4.12328,1.62192],7],[[283.81996,208.01027],[-1.33285,-3.14448],[0.20593,0.48583],7],[[284.26777,209.50883],[-0.43556,-0.37054],[0.40302,0.34286],7],[[285.96521,209.83527],[-0.56007,-0.12718],[3.11667,0.70776],7],[[295.09576,211.64962],[-3.22469,-0.28356],[0.56012,0.20247],7],[[296.77611,212.25704],[-0.53674,0.24121],[0.47364,-0.21285],7],[[296.69317,210.93176],[0.00941,0.44227],[-0.0258,-1.212],7],[[296.67049,207.29526],[-0.06176,1.21113],[0.13683,-2.68353],7],[[297.01493,199.17203],[0.32984,2.70024],[-0.22197,-1.81715],7],[[295.69553,193.80092],[0.34843,1.8038],[-2.22387,-11.51276],7],[[293.69458,159.26117],[0.88684,11.57479],[-0.66943,-6.70749],7],[[293,139.18471],[0,6.72543],[0,-3.11428],7],[[292.71178,129.20175],[0.78603,3.05507],[-0.44126,-1.71506],7],[[290.46163,124.27692],[0.67704,1.66274],[-1.18824,-2.9182],7],[[286.73648,115.48453],[1.86169,2.70655],[-2.03793,-2.96278],7],[[276.29702,109.25506],[3.77778,1.0332],[-15.10593,-1.31158],7],[[232.78551,118.90458],[10.24175,-10.53828],[-1.43349,1.475],7],[[228.36057,123.24654],[1.11395,-1.6496],[-1.33847,1.98209],7],[[227.66184,129.76056],[0.18207,-2.12304],[-0.2281,2.65974],7],[[224.76299,136.50692],[1.58697,-2.26573],[-0.08742,0.18532],7],[[224.5002,137.08504],[0.08848,-0.19914],[0.4998,0.5812],7]],&quot;closed&quot;:true}]}" fill="#ff0000" stroke="none" stroke-width="0.5" stroke-linecap="butt"/><path d="M283.41668,132.6479c-0.15416,0.01877 -0.25001,0.01877 -0.25001,0.01877c-4.72028,0 -9.92232,0.58501 -14.61622,-0.01606c-4.4093,-0.56463 -8.56822,-1.99164 -13.05044,-1.98394c-3.69973,0.00635 -6.68288,0.28383 -10.25687,0.63285c-0.61301,0.05986 -1.30269,-0.49313 -1.83811,-0.18869c-0.37176,0.21138 -0.12699,0.85509 -0.0818,1.28035c0.14661,1.37961 0.45489,2.7374 0.65465,4.11032c0.70564,4.84979 0.69165,9.6527 0.68568,14.54063c0.08577,0.94461 0.20293,1.8869 0.2573,2.83384c0.01665,0.28999 -0.3309,0.82102 -0.04464,0.87026c0.90139,0.15504 1.79831,-0.40164 2.71289,-0.41131c2.75014,-0.02906 5.49392,0.33225 8.24422,0.33174c6.85988,-0.00127 13.48819,0.29942 20.20762,-0.95749c2.4393,-0.45629 4.83415,-1.12536 7.2593,-1.65168c1.04197,-0.22613 2.05706,-0.69399 3.12328,-0.69035c0.5099,0.00174 1.36092,1.21553 1.35722,0.70564c-0.00575,-0.79109 -1.05862,-1.21181 -1.36619,-1.94069c-0.49253,-1.1672 -0.67774,-2.44148 -1,-3.66667c-1.04045,-3.95569 -1.74462,-7.71121 -1.74307,-11.81009zM285.56113,129.3481c2.44598,-0.28025 2.7529,2.17515 2.7529,2.17515l0.34781,2.82141c0.00194,5.1893 1.74629,9.4991 2.59027,14.52324c0.33643,2.00273 1.59797,4.27199 0.63381,6.05931c-0.76618,1.4203 -3.08401,0.95455 -4.64278,1.37231c-2.4751,0.66335 -5.01244,1.06846 -7.5113,1.63576c-9.10103,2.06616 -18.30264,2.10167 -27.65428,1.7298c-0.4423,-0.01759 -9.89869,-0.71303 -9.95378,-0.74464c-2.26652,-1.30077 -2.23827,-5.6094 -2.454,-7.62924c-0.0043,-3.86423 0.06386,-7.68069 -0.32299,-11.5323c-0.14013,-1.39515 -1.02353,-7.65479 -1.00334,-7.81675c0.21008,-1.68514 0.66654,-3.57197 1.9182,-4.71965c1.04389,-0.95717 2.77614,-0.5628 4.16189,-0.85535c2.10297,-0.44397 4.26048,-0.69644 6.4098,-0.70048c6.4367,-0.0121 11.97601,1.17666 18.28289,2.01606c4.49347,0.59805 9.52854,-0.01606 14.05044,-0.01606c0,0 1.91911,0 2.39446,1.68143z" fill="#000000" stroke="none" stroke-width="0.5" stroke-linecap="butt"/><path d="M283.7172,134.63507c-0.00156,4.09888 0.70605,7.88391 1.7465,11.8396c0.32226,1.22519 0.50546,2.50693 0.99799,3.67412c0.30757,0.72888 1.35942,1.15225 1.36517,1.94334c0.0037,0.50989 -0.84722,-0.70416 -1.35711,-0.7059c-1.06621,-0.00364 -2.08324,0.46834 -3.12521,0.69447c-2.42516,0.52632 -4.82966,1.20824 -7.26896,1.66453c-6.71943,1.25692 -13.4138,0.95904 -20.27368,0.96031c-2.7503,0.00051 -5.50459,-0.37247 -8.25473,-0.34341c-0.91458,0.00966 -1.81274,0.56433 -2.71413,0.40929c-0.28626,-0.04924 0.06052,-0.58163 0.04387,-0.87162c-0.05437,-0.94694 -0.17401,-1.89451 -0.25978,-2.83912c0.00597,-4.88793 0.01836,-9.72328 -0.68729,-14.57307c-0.19976,-1.37292 -0.50533,-2.73795 -0.65194,-4.11755c-0.04519,-0.42526 -0.2889,-1.07111 0.08286,-1.2825c0.53542,-0.30444 1.22581,0.24725 1.83881,0.18739c3.57398,-0.34902 6.56878,-0.64043 10.26851,-0.64678c4.48223,-0.00769 8.68759,1.40997 13.09688,1.9746c4.6939,0.60107 9.92487,0.03918 14.64515,0.03918c0,0 0.09598,0.00023 0.25014,-0.01854z" data-paper-data="{&quot;noHover&quot;:false,&quot;origItem&quot;:[&quot;Path&quot;,{&quot;applyMatrix&quot;:true,&quot;segments&quot;:[[[283.41668,132.6479],[0,0],[-0.15416,0.01877]],[[283.16667,132.66667],[0,0],[-4.72028,0]],[[268.55044,132.65061],[4.6939,0.60107],[-4.4093,-0.56463]],[[255.5,130.66667],[4.48223,-0.00769],[-3.69973,0.00635]],[[245.24313,131.29952],[3.57398,-0.34902],[-0.61301,0.05986]],[[243.40503,131.11083],[0.53542,-0.30444],[-0.37176,0.21138]],[[243.32323,132.39118],[-0.04519,-0.42526],[0.14661,1.37961]],[[243.97788,136.5015],[-0.19976,-1.37292],[0.70564,4.84979]],[[244.66356,151.04213],[0.00597,-4.88793],[0.08577,0.94461]],[[244.92086,153.87597],[-0.05437,-0.94694],[0.01665,0.28999]],[[244.87623,154.74623],[-0.28626,-0.04924],[0.90139,0.15504]],[[247.58912,154.33492],[-0.91458,0.00966],[2.75014,-0.02906]],[[255.83333,154.66667],[-2.7503,0.00051],[6.85988,-0.00127]],[[276.04095,153.70917],[-6.71943,1.25692],[2.4393,-0.45629]],[[283.30026,152.0575],[-2.42516,0.52632],[1.04197,-0.22613]],[[286.42353,151.36715],[-1.06621,-0.00364],[0.5099,0.00174]],[[287.78075,152.07279],[0.0037,0.50989],[-0.00575,-0.79109]],[[286.41456,150.1321],[0.30757,0.72888],[-0.49253,-1.1672]],[[285.41456,146.46544],[0.32226,1.22519],[-1.04045,-3.95569]],[[283.6715,134.65534],[-0.00156,4.09888],[0,0]]],&quot;closed&quot;:true}]}" fill="#00bfff" stroke="none" stroke-width="0.5" stroke-linecap="butt"/><path d="M261.5,130.83333l-3,6.66667l12,3" fill="none" stroke="#000000" stroke-width="1.5" stroke-linecap="round"/></g></g></svg>