<svg version="1.1" xmlns="http://www.w3.org/2000/svg" xmlns:xlink="http://www.w3.org/1999/xlink" width="132.26974" height="168.92118" viewBox="0,0,132.26974,168.92118"><g transform="translate(-191.18981,-97.04473)"><g data-paper-data="{&quot;isPaintingLayer&quot;:true}" fill-rule="nonzero" stroke-linejoin="miter" stroke-miterlimit="10" stroke-dasharray="" stroke-dashoffset="0" style="mix-blend-mode: normal"><path d="M256.74446,153.91814l-2.87254,3.40448l-27.44867,-10.10707v-2.55337z" data-paper-data="{&quot;index&quot;:null}" fill="#0a9600" stroke="#000000" stroke-width="0" stroke-linecap="round"/><path d="M287.06566,142.95995l0.42556,3.83004l-15.74575,8.93678l-2.87253,-0.63834l-1.0639,-3.19171z" data-paper-data="{&quot;index&quot;:null}" fill="#0a9600" stroke="none" stroke-width="0" stroke-linecap="round"/><path d="M224.31852,200.34386c0,0 23.9167,1.21336 34.77978,1.48153c10.71424,0.2645 29.32044,-1.25422 29.32044,-1.25422c0,0 7.78473,29.80377 9.90761,41.59363c0.53328,2.96165 -1.08675,8.52505 -3.80903,11.51944c-3.40282,3.74295 -8.14433,4.62259 -8.14433,4.62259c0,0 -7.51011,0.82416 -10.71124,-1.08992c-2.22523,-1.33056 -5.96292,-4.04728 -7.06036,-9.2575c-0.6222,-2.95397 -4.27705,-2.83631 -4.27705,-2.83631c0,0 -4.99703,2.28352 -6.65344,8.82047c-1.10539,4.3624 -5.3498,5.77387 -8.95526,7.1357c-4.00194,1.51159 -7.26476,2.61718 -11.89664,2.35572c-21.00039,-1.18545 -22.27462,-18.08458 -22.27462,-18.08458l9.77414,-45.00654z" data-paper-data="{&quot;index&quot;:null}" fill="#d90000" stroke="#000000" stroke-width="3" stroke-linecap="round"/><path d="M302.9663,158.2923c0,0 0.28883,4.37583 1.96032,9.34825c1.24534,3.70469 3.96609,7.23492 4.11627,12.24079c0.0598,1.99329 -0.91864,4.26109 -1.16248,6.30722c-1.4188,11.90586 -20.3709,13.24607 -20.3709,13.24607c0,0 -19.4056,1.29219 -29.54852,1.25517c-10.59772,-0.03868 -32.73325,-1.48247 -32.73325,-1.48247c0,0 -10.75785,-4.79804 -15.02977,-7.95105c-8.30028,-6.12625 -6.33697,-14.77952 -6.33697,-14.77952l3.18228,-20.23021c0,0 30.88376,3.98098 49.07913,3.15979c16.89075,-0.76231 46.84389,-1.11404 46.84389,-1.11404z" data-paper-data="{&quot;index&quot;:null}" fill="#fdcc8d" stroke="#000000" stroke-width="3" stroke-linecap="round"/><path d="M305.06334,167.91413l-14.33333,-0.5l6.33333,-8.83333l5.5,-0.33333z" data-paper-data="{&quot;index&quot;:null}" fill="#e1b47d" stroke="#000000" stroke-width="0" stroke-linecap="round"/><path d="M267.23001,168.5808l-12.83333,1.83333l3.16667,-10.83333l4.33333,-0.16667z" data-paper-data="{&quot;index&quot;:null}" fill="#e1b47d" stroke="#000000" stroke-width="0" stroke-linecap="round"/><path d="M211.89668,170.24747l-6.5,0.5l2,-9.33333z" data-paper-data="{&quot;index&quot;:null}" fill="#e1b47d" stroke="#000000" stroke-width="0" stroke-linecap="round"/><path d="M244.44131,160.16188c-9.71771,-0.31966 -23.73426,-0.70276 -33.63423,-1.69219c-6.67975,-0.6676 -11.38193,-2.10653 -11.38193,-2.10653c0,0 -7.20851,-0.53091 -6.7107,-8.85561c0.28527,-4.77042 6.7107,-10.91998 6.7107,-10.91998c0,0 -5.07048,-4.3015 -5.02633,-13.85743c0.01775,-3.84211 4.11711,-14.10118 4.11711,-14.10118c0,0 19.09555,-10.34163 53.8923,-11.41756c26.31671,-0.81373 47.03145,6.18953 47.03145,6.18953c0,0 5.90413,4.26135 6.01659,15.45462c0.03108,3.09349 -2.7215,7.53312 -4.18269,11.51707c-1.19616,3.26135 -1.15199,6.44226 -1.15199,6.44226c0,0 4.00327,-0.02396 13.21013,2.90679c5.51791,1.75648 2.05839,5.16884 4.24695,7.91296c1.2137,1.52179 -2.18547,6.34865 -6.08617,8.96111c-3.84727,2.57667 -8.18863,2.94971 -8.18863,2.94971c0,0 -40.77786,1.21132 -58.86256,0.61643z" data-paper-data="{&quot;index&quot;:null}" fill="#0cb500" stroke="#000000" stroke-width="3" stroke-linecap="round"/><path d="M312.81385,153.04348l-0.10639,-1.17029l0.63835,-2.65975l-0.85113,-2.44698l-1.91502,-1.91502l-2.1278,-1.80864l-3.51088,-2.44697l-12.76683,-0.31917l-0.42556,-1.59586l12.66044,-0.42556l10.67425,2.1278l1.34784,3.93644l1.43972,5.38341l-3.67392,3.87253z" data-paper-data="{&quot;index&quot;:null}" fill="#0a9c00" stroke="none" stroke-width="0" stroke-linecap="round"/><path d="M287.85186,142.21521l-19.36302,9.36234l-0.21278,-3.19171" data-paper-data="{&quot;index&quot;:null}" fill="none" stroke="#000000" stroke-width="3" stroke-linecap="round"/><path d="M252.59524,146.78999l2.55336,6.17064l-27.87424,-8.93678" data-paper-data="{&quot;index&quot;:null}" fill="none" stroke="#000000" stroke-width="3" stroke-linecap="round"/><path d="M296.23001,158.24748c0,0 -1.14201,12.96642 -18.16666,14c-12.1929,0.74024 -15.83334,-13.16667 -15.83334,-13.16667l34,-0.83334z" data-paper-data="{&quot;index&quot;:null}" fill="#ffffff" stroke="#000000" stroke-width="3" stroke-linecap="round"/><path d="M258.39667,159.5808c0,0 -3.67057,19.28848 -26.83333,19.66667c-21.00455,0.34296 -24.33333,-21.5 -24.33333,-21.5c0,0 16.81214,1.10836 25.3245,1.41336c8.54309,0.3061 25.84217,0.41997 25.84217,0.41997z" data-paper-data="{&quot;index&quot;:null}" fill="#ffffff" stroke="#000000" stroke-width="3" stroke-linecap="round"/><path d="M287.56334,164.5808c-0.73638,0 -1.33334,-0.59695 -1.33334,-1.33333c0,-0.73638 0.59696,-1.33334 1.33334,-1.33334c0.73638,0 1.33333,0.59696 1.33333,1.33334c0,0.73638 -0.59695,1.33333 -1.33333,1.33333z" data-paper-data="{&quot;index&quot;:null}" fill="#000000" stroke="#000000" stroke-width="2" stroke-linecap="butt"/><path d="M246.73001,168.5808c-0.73638,0 -1.33333,-0.74619 -1.33333,-1.66667c0,-0.92047 0.59695,-1.66666 1.33333,-1.66666c0.73638,0 1.33333,0.74618 1.33333,1.66666c0,0.92048 -0.59695,1.66667 -1.33333,1.66667z" data-paper-data="{&quot;index&quot;:null}" fill="#000000" stroke="#000000" stroke-width="2" stroke-linecap="butt"/><path d="M281.06334,180.5808c0,0 -20.99646,12.42576 -39.98386,11.14974c-22.46751,-1.50988 -32.34947,-14.48308 -32.34947,-14.48308" data-paper-data="{&quot;index&quot;:null}" fill="none" stroke="#000000" stroke-width="3" stroke-linecap="round"/><path d="M302.9663,158.2923c0,0 0.28883,4.37583 1.96032,9.34825c1.24534,3.70469 3.96609,7.23492 4.11627,12.24079c0.0598,1.99329 -0.91864,4.26109 -1.16248,6.30722c-1.4188,11.90586 -20.3709,13.24607 -20.3709,13.24607c0,0 -19.4056,1.29219 -29.54852,1.25517c-10.59772,-0.03868 -32.73325,-1.48247 -32.73325,-1.48247c0,0 -10.75785,-4.79804 -15.02977,-7.95105c-8.30028,-6.12625 -6.33697,-14.77952 -6.33697,-14.77952l3.18228,-20.23021c0,0 30.88376,3.98098 49.07913,3.15979c16.89075,-0.76231 46.84389,-1.11404 46.84389,-1.11404z" data-paper-data="{&quot;index&quot;:null}" fill="none" stroke="#000000" stroke-width="2" stroke-linecap="round"/><path d="M226.65835,139.33395l-2.16667,3.33333h-19.33333l-5.5,4.16667l1.16667,3.66666l3.33333,4.66667l1.33333,1.83334l-10.16667,-2.50001l-2.83333,-5.66666l2.33333,-7.83334l7.16667,-3.33333l24,-0.33333z" data-paper-data="{&quot;index&quot;:null}" fill="#0a9600" stroke="#000000" stroke-width="0" stroke-linecap="round"/><path d="M224.32503,137.50061h-17.5l-6.66667,-1.83333l-4.16667,-4l-1.5,-6.66667l0.83333,-9l4.5,-8.16667l5.5,-1.83333l0.33333,1.33333l-3.83333,4.33334l-2.5,4.83333l1.33333,5.33333l3.66667,5.33334l8,5.66667l9.33333,1l4,2z" data-paper-data="{&quot;index&quot;:null}" fill="#0a9600" stroke="#000000" stroke-width="0" stroke-linecap="round"/><path d="M291.49169,137.50061l12.83333,-0.33333" data-paper-data="{&quot;index&quot;:null}" fill="none" stroke="#000000" stroke-width="2" stroke-linecap="round"/><path d="M199.65835,137.00062l26,0.33333" data-paper-data="{&quot;index&quot;:null}" fill="none" stroke="#000000" stroke-width="2" stroke-linecap="round"/><path d="M244.44131,159.99521c-9.71771,-0.31966 -23.73426,-0.70276 -33.63423,-1.69219c-6.67975,-0.6676 -11.38193,-2.10653 -11.38193,-2.10653c0,0 -7.20851,-0.53091 -6.7107,-8.85561c0.28527,-4.77042 6.7107,-10.91998 6.7107,-10.91998c0,0 -5.07048,-4.3015 -5.02633,-13.85743c0.01775,-3.84211 4.11711,-14.10118 4.11711,-14.10118c0,0 19.09555,-10.34163 53.8923,-11.41756c26.31671,-0.81373 47.03145,6.18953 47.03145,6.18953c0,0 5.90413,4.26135 6.01659,15.45462c0.03108,3.09349 -2.7215,7.53312 -4.18269,11.51707c-1.19616,3.26135 -1.15199,6.44226 -1.15199,6.44226c0,0 4.00327,-0.02396 13.21013,2.90679c5.51791,1.75648 2.05839,5.16884 4.24695,7.91296c1.2137,1.52179 -2.18547,6.34865 -6.08617,8.96111c-3.84727,2.57667 -8.18863,2.94971 -8.18863,2.94971c0,0 -40.77786,1.21132 -58.86256,0.61643z" data-paper-data="{&quot;index&quot;:null}" fill="none" stroke="#000000" stroke-width="2" stroke-linecap="round"/><path d="M281.73001,202.41413l2.33333,10.83333l6.5,-0.33333l7.83333,28l-2.33333,11.83333l-7,5.33333h-10.16667l-7.5,-4.16667l-4.33333,-8.16667l-5,0.33333l-7.16667,11.66667l-8.83333,4.66667l-13.66667,2l-11.83333,-5.83333l-6.16667,-8.83333l2.83333,-16.83333l3.33333,-13l1.5,-8.33333c0,0 6.604,3.36609 9.88994,4.48879c3.37817,1.15421 10.11006,2.34455 10.11006,2.34455l-2,-14.66667v-3.83333l13.16667,1v17.66667c0,0 6.07677,-3.11853 11.6686,-3.08267c6.41238,0.04112 9.8314,3.24934 9.8314,3.24934l-2.33333,-18l9,-0.5z" data-paper-data="{&quot;index&quot;:null}" fill="#0024dd" stroke="#000000" stroke-width="1.5" stroke-linecap="round"/><path d="M272.23001,201.41412l8,-0.83333l1.83333,4.16667l-4,1l0.66667,9.16667l-4,0.5z" data-paper-data="{&quot;index&quot;:null}" fill="#001eb7" stroke="none" stroke-width="0" stroke-linecap="round"/><path d="M247.39668,241.91413l-2.83333,1.5l-2.66667,-4.83333l-0.33333,-5.83333l0.83333,-5l4.5,0.66667z" data-paper-data="{&quot;index&quot;:null}" fill="#001eb7" stroke="none" stroke-width="0" stroke-linecap="round"/><path d="M252.39668,205.5808l-7,0.5l-0.16667,12.5l-1.5,4.16667l-8.83333,1.16667l-2.33333,-7.16666l9.66667,2.16666l-2.16667,-18.5l5.32472,0.10931l7.67528,0.89069z" data-paper-data="{&quot;index&quot;:null}" fill="#001eb7" stroke="none" stroke-width="0" stroke-linecap="round"/><path d="M284.23001,238.24747l-3.66667,-0.5l-4,-10l5.83333,-1.16667z" data-paper-data="{&quot;index&quot;:null}" fill="#001eb7" stroke="none" stroke-width="0" stroke-linecap="round"/><path d="M247.39668,241.5808l-0.66667,-13.16667l36.16667,-2l1.33333,11" data-paper-data="{&quot;index&quot;:null}" fill="none" stroke="#000000" stroke-width="3" stroke-linecap="round"/><path d="M241.39669,263.74747c0,0 -5.99755,1.07502 -8.59441,0.74668c-2.15264,-0.27218 -5.90559,-2.58002 -5.90559,-2.58002c0,0 -4.42232,-1.89038 -6.31416,-3.54573c-1.62205,-1.41929 -4.35251,-5.78761 -4.35251,-5.78761c0,0 -1.54295,-2.54336 -1.38635,-4.49766c0.21052,-2.62727 0.71968,-10.669 0.71968,-10.669l3.16667,-0.66667l4.33333,-4l1,4.16667l1.16667,7.16667l2.83333,6l6.83333,6.83333l5.83333,3l0.66667,2z" data-paper-data="{&quot;index&quot;:null}" fill="#001eb7" stroke="none" stroke-width="0" stroke-linecap="round"/><path d="M280.81334,219.24747c-0.78241,0 -1.41667,-0.63427 -1.41667,-1.41667c0,-0.78241 0.63427,-1.41667 1.41667,-1.41667c0.78241,0 1.41667,0.63427 1.41667,1.41667c0,0.78241 -0.63427,1.41667 -1.41667,1.41667z" data-paper-data="{&quot;index&quot;:null}" fill="#000000" stroke="#000000" stroke-width="3" stroke-linecap="butt"/><path d="M247.48002,222.41414c-0.7824,0 -1.41667,-0.63426 -1.41667,-1.41667c0,-0.78241 0.63426,-1.41667 1.41667,-1.41667c0.7824,0 1.41666,0.63426 1.41666,1.41667c0,0.78241 -0.63426,1.41667 -1.41666,1.41667z" data-paper-data="{&quot;index&quot;:null}" fill="#000000" stroke="#000000" stroke-width="3" stroke-linecap="butt"/><path d="M281.73001,202.41414l2.33334,10.83334l6.5,-0.33334l7.83333,28l-2.33333,11.83334l-7,5.33333h-10.16667l-7.5,-4.16667l-4.33333,-8.16666l-5,0.33333l-7.16667,11.66667l-8.83333,4.66666l-13.66667,2l-11.83333,-5.83333l-6.16667,-8.83333l2.83333,-16.83334l3.33333,-13l1.5,-8.33333c0,0 6.60399,3.36608 9.88994,4.48878c3.37817,1.15421 10.11006,2.34455 10.11006,2.34455l-2,-14.66666v-3.83334l13.16667,1v17.66667c0,0 6.07676,-3.11853 11.6686,-3.08267c6.41238,0.04112 9.8314,3.24934 9.8314,3.24934l-2.33334,-18l9,-0.5z" data-paper-data="{&quot;index&quot;:null}" fill="none" stroke="#000000" stroke-width="3" stroke-linecap="round"/><path d="M217.4555,218.3161c1.25405,0.75244 2.60784,3.76471 2.60784,3.76471l0.33333,12.16667l-3.33333,1l-2.16667,-7.16667l0.5,-2.66667l-0.16667,-3.5l-3.33333,-2.16666l0.50001,-2.83334c0,0 3.81293,0.65443 5.05882,1.40196z" data-paper-data="{&quot;index&quot;:null}" fill="#e5b780" stroke="none" stroke-width="0" stroke-linecap="round"/><g data-paper-data="{&quot;index&quot;:null}" stroke-linecap="round"><path d="M228.15978,239.62108l4.33333,2.5c0,0 1.15752,3.72699 -2.15957,5.22096c-3.76092,1.69387 -7.50709,-0.88762 -7.50709,-0.88762c0,0 -3.9579,2.75688 -5.91667,1.08333c-1.72589,-1.47458 -6.58333,-5.25 -6.58333,-5.25c0,0 -1.96343,0.20294 -3.36431,-0.57704c-0.94735,-0.52746 -1.27566,-2.04711 -1.9494,-2.30714c-1.48944,-0.57486 -4.22674,-0.798 -4.22674,-0.798c-8.45745,-1.94095 -5.79289,-11.98448 -5.79289,-11.98448c0,0 8.10233,-14.30683 27,-10.33333c22.44957,4.72034 10.66667,17.66667 10.66667,17.66667z" fill="#fdcc8d" stroke="#000000" stroke-width="3"/><path d="M194.99312,232.62109l-0.5,-3.33333l4,-7l6.66667,-4l10.5,-2.83333l14.33333,2.33333l-0.16667,2.5l-3.66667,-0.16667h-6h-6.5l-4,0.83334l-3.83333,1.5l-4.16667,2.83333l-2.33333,2.66667l-0.66667,5.5z" fill="#e5b780" stroke="none" stroke-width="0"/><path d="M222.99311,228.28776v2.16667l-6,7.5l1.83333,9.5l-5.16667,-3.16667c0,0 -2.2154,-2.66007 -2.24165,-4.18261c-0.02902,-1.68348 2.07499,-5.65072 2.07499,-5.65072l5.16667,-6.16667z" fill="#e5b780" stroke="none" stroke-width="0"/><path d="M231.49311,231.45443l-4.33333,5.16666l-1,3.5l0.83333,7l-3.83333,-0.66667c0,0 -0.60334,-3.03197 -0.76668,-4.36199c-0.21248,-1.73018 0.26667,-6.30468 0.26667,-6.30468l4.5,-5z" fill="#e5b780" stroke="none" stroke-width="0"/><path d="M204.65977,239.45444c0,0 1.81331,-1.15652 2.9466,-2.8079c0.63667,-0.92771 -1.31662,-2.42161 -0.16537,-4.28812c0.61287,-0.99365 -1.9728,-5.97974 0.61825,-7.43231c4.21889,-2.36515 7.60053,-2.47168 7.60053,-2.47168" fill="none" stroke="#000000" stroke-width="3"/><path d="M211.15978,242.12111c0,0 0.8243,-7.43743 4.05215,-10.42301c3.7495,-3.46807 7.28118,-4.57699 7.28118,-4.57699" fill="none" stroke="#000000" stroke-width="3"/><path d="M222.82645,245.45444c0,0 -2.75856,-6.28267 0.30027,-9.93175c3.90331,-4.65652 7.53306,-5.40159 7.53306,-5.40159" fill="none" stroke="#000000" stroke-width="3"/><path d="M228.15978,239.62108l4.33333,2.5c0,0 1.15752,3.72699 -2.15957,5.22096c-3.76092,1.69387 -7.50709,-0.88762 -7.50709,-0.88762c0,0 -3.9579,2.75688 -5.91667,1.08333c-1.72589,-1.47458 -6.58333,-5.25 -6.58333,-5.25c0,0 -1.96343,0.20294 -3.36431,-0.57704c-0.94735,-0.52746 -1.27566,-2.04711 -1.9494,-2.30714c-1.48944,-0.57486 -4.22674,-0.798 -4.22674,-0.798c-8.45745,-1.94095 -5.79289,-11.98448 -5.79289,-11.98448c0,0 8.10233,-14.30683 27,-10.33333c22.44957,4.72034 10.66667,17.66667 10.66667,17.66667z" fill="none" stroke="#000000" stroke-width="2"/></g><g data-paper-data="{&quot;index&quot;:null}" stroke-linecap="round"><path d="M283.89475,235.38758c0,0 -11.7829,-12.94633 10.66667,-17.66667c18.89767,-3.9735 27,10.33333 27,10.33333c0,0 2.66456,10.04353 -5.79289,11.98448c0,0 -2.7373,0.22314 -4.22674,0.798c-0.67374,0.26003 -1.00205,1.77968 -1.9494,2.30714c-1.40088,0.77998 -3.36431,0.57704 -3.36431,0.57704c0,0 -4.85744,3.77542 -6.58333,5.25c-1.95877,1.67355 -5.91667,-1.08333 -5.91667,-1.08333c0,0 -3.74617,2.58149 -7.50709,0.88762c-3.31709,-1.49397 -2.15957,-5.22096 -2.15957,-5.22096l4.33333,-2.5z" fill="#fdcc8d" stroke="#000000" stroke-width="3"/><path d="M317.89475,234.88758l-0.66667,-5.5l-2.33333,-2.66667l-4.16667,-2.83333l-3.83333,-1.5l-4,-0.83334h-6.5h-6l-3.66667,0.16667l-0.16667,-2.5l14.33333,-2.33333l10.5,2.83333l6.66667,4l4,7l-0.5,3.33333z" fill="#e5b780" stroke="none" stroke-width="0"/><path d="M297.89475,229.72091l5.16667,6.16667c0,0 2.10401,3.96724 2.07499,5.65072c-0.02625,1.52254 -2.24165,4.18261 -2.24165,4.18261l-5.16667,3.16667l1.83333,-9.5l-6,-7.5v-2.16667z" fill="#e5b780" stroke="none" stroke-width="0"/><path d="M289.39476,232.2209l4.5,5c0,0 0.47915,4.5745 0.26667,6.30468c-0.16334,1.33002 -0.76668,4.36199 -0.76668,4.36199l-3.83333,0.66667l0.83333,-7l-1,-3.5l-4.33333,-5.16666z" fill="#e5b780" stroke="none" stroke-width="0"/><path d="M300.89475,223.88758c0,0 3.38164,0.10653 7.60053,2.47168c2.59105,1.45257 0.00538,6.43866 0.61825,7.43231c1.15125,1.86651 -0.80204,3.36041 -0.16537,4.28812c1.13329,1.65138 2.9466,2.8079 2.9466,2.8079" fill="none" stroke="#000000" stroke-width="3"/><path d="M294.06142,228.55426c0,0 3.53168,1.10892 7.28118,4.57699c3.22785,2.98558 4.05215,10.42301 4.05215,10.42301" fill="none" stroke="#000000" stroke-width="3"/><path d="M285.89475,231.55425c0,0 3.62975,0.74507 7.53306,5.40159c3.05883,3.64908 0.30027,9.93175 0.30027,9.93175" fill="none" stroke="#000000" stroke-width="3"/><path d="M283.89475,235.38758c0,0 -11.7829,-12.94633 10.66667,-17.66667c18.89767,-3.9735 27,10.33333 27,10.33333c0,0 2.66456,10.04353 -5.79289,11.98448c0,0 -2.7373,0.22314 -4.22674,0.798c-0.67374,0.26003 -1.00205,1.77968 -1.9494,2.30714c-1.40088,0.77998 -3.36431,0.57704 -3.36431,0.57704c0,0 -4.85744,3.77542 -6.58333,5.25c-1.95877,1.67355 -5.91667,-1.08333 -5.91667,-1.08333c0,0 -3.74617,2.58149 -7.50709,0.88762c-3.31709,-1.49397 -2.15957,-5.22096 -2.15957,-5.22096l4.33333,-2.5z" fill="none" stroke="#000000" stroke-width="2"/></g></g></g></svg>