<svg version="1.1" xmlns="http://www.w3.org/2000/svg" xmlns:xlink="http://www.w3.org/1999/xlink" width="347.12507" height="199.86868" viewBox="0,0,347.12507,199.86868"><g transform="translate(11.8924,-81.06191)"><g data-paper-data="{&quot;isPaintingLayer&quot;:true}" fill-rule="nonzero" stroke-linejoin="miter" stroke-miterlimit="10" stroke-dasharray="" stroke-dashoffset="0" style="mix-blend-mode: normal"><g data-paper-data="{&quot;index&quot;:null}" stroke="#000000"><g stroke-linecap="butt"><path d="M5.52766,215.02072l-14.94628,-52.12601l33.72859,-9.67112l14.94628,52.12601z" fill="#8a8a8a" stroke-width="4"/><path d="M6.95857,202.53735l-10.43742,-36.40112l24.1391,-6.92149l10.43741,36.40112z" fill="#006bff" stroke-width="3"/><path d="M20.11171,201.7262c1.62397,-0.46564 3.31795,0.47336 3.78359,2.09733c0.46564,1.62397 -0.47336,3.31796 -2.09733,3.7836c-1.62397,0.46564 -3.31797,-0.47337 -3.78361,-2.09734c-0.46564,-1.62397 0.47338,-3.31795 2.09735,-3.78359z" fill="#8a8a8a" stroke-width="2"/></g><path d="M31.94911,190.38727c0,0 9.2752,3.33926 7.8497,2.77792c-1.43496,-0.56506 -7.70285,-3.3173 -7.70285,-3.3173l-4.07271,-7.59773l1.8677,10.58946c0,0 -3.95683,1.4725 -5.71424,1.39969c-1.75641,-0.07276 -4.77806,-1.59125 -4.77806,-1.59125c0,0 -5.61879,-7.31086 -6.43547,-10.69541c-0.65237,-2.70355 1.91666,-8.03172 1.91666,-8.03172c0,0 4.70371,-4.86266 8.82064,-5.60508c4.3218,-0.77937 16.52539,1.03437 16.52539,1.03437c0,0 4.28578,9.28734 5.51732,14.41547c1.3312,5.5431 2.19419,17.6952 2.19419,17.6952c0,0 -3.02776,5.21247 -5.95339,7.04372c-3.23546,2.02518 -12.62356,4.58423 -12.62356,4.58423c0,0 -10.70418,2.08489 -15.32632,2.16408c-4.1315,0.07077 -11.10013,-1.71134 -11.10013,-1.71134c0,0 -1.52762,-1.93595 -1.78002,-2.96169c-0.18407,-0.74802 0.40478,-2.62703 0.40478,-2.62703l5.63674,-3.67963l-12.20816,0.15239c0,0 -3.51812,-2.24516 -3.96441,-3.33764c-0.37599,-0.92039 1.46127,-2.78991 1.46127,-2.78991l12.54934,-4.8103l-11.27791,-2.83879c0,0 -2.65427,-3.6267 -2.51021,-5.01912c0.0993,-0.95987 3.29139,-2.53169 3.29139,-2.53169c0,0 2.6826,-2.93191 4.83879,-3.57842c2.80314,-0.84048 10.55432,-1.03699 10.55432,-1.03699l4.22067,9.60786l5.79024,11.07805l0.31064,0.27769" fill="#fdcc8d" stroke-width="4" stroke-linecap="round"/></g><g data-paper-data="{&quot;index&quot;:null}"><path d="M218.58919,253.40013l-6.97455,14.5762c0,0 -3.19831,3.32926 -7.19394,4.33791c-3.42414,0.86437 -7.57338,1.92166 -9.92012,1.59635c-1.74461,-0.24185 -5.60976,-1.92317 -8.03895,-2.95262c-3.50928,-1.48716 -5.36089,-4.87642 -5.36089,-4.87642c0,0 -2.30307,-3.67081 -0.51334,-6.69912c1.47628,-2.49792 2.18561,-5.02257 2.29082,-7.13479c0.25142,-5.04741 8.66645,-15.7805 9.78895,-23.82141c0.67816,-4.85791 -0.7657,-8.46164 -0.7657,-8.46164c0,0 2.95665,-6.52204 3.69433,-9.56277c0.74515,-3.07155 0.75442,-8.77499 0.75442,-8.77499l6.96191,2.30137l-3.81832,13.34448c0,0 -2.38255,-0.15365 -3.44949,-0.227c-1.06537,-0.07325 -2.94742,-0.2128 -2.94742,-0.2128l2.93461,-17.06084l75.69071,3.92942c0,0 9.9462,21.9251 10.02181,32.99289c0.05016,7.34044 2.7381,19.38956 0.02675,28.06487c-1.95679,6.26105 -9.55833,10.68684 -9.55833,10.68684c0,0 -9.01415,3.37099 -13.8687,3.48452c-5.43864,0.1272 -17.21036,-2.75768 -17.21036,-2.75768c0,0 -3.92845,-4.99922 -5.17932,-8.69377c-1.32814,-3.92277 -0.60104,-14.14503 -0.60104,-14.14503l-35.91829,-2.57095" fill="#0024dd" stroke="#000000" stroke-width="4" stroke-linecap="round"/><path d="M271.39629,202.11017l5.67187,17.82518c0,0 -7.06067,2.45459 -11.11413,3.47631c-3.78906,0.95507 -12.46703,2.46755 -12.46703,2.46755l1.51476,-19.20967z" fill="#fa0000" stroke="#000000" stroke-width="4" stroke-linecap="round"/><path d="M240.25918,204.94517c0,0 0.65455,4.4703 0.46492,7.20034c-0.21539,3.10102 -1.68983,10.435 -1.68983,10.435c0,0 -7.35115,-6.61427 -11.63291,-6.77499c-4.49103,-0.16856 -14.7154,5.78603 -14.7154,5.78603c0,0 2.46727,-7.67939 3.49958,-11.09288c0.81321,-2.68902 2.19526,-7.73802 2.19526,-7.73802z" fill="#fa0000" stroke="#000000" stroke-width="4" stroke-linecap="round"/><path d="M201.20262,244.74632l-1.18049,-10.84491l46.21994,4.43682l-4.23116,10.43223" fill="none" stroke="#000000" stroke-width="4" stroke-linecap="round"/><path d="M244.77173,229.06764c-0.04006,1.45537 -1.17533,2.60482 -2.53567,2.56738c-1.36035,-0.03744 -2.43066,-1.24761 -2.3906,-2.70298c0.04006,-1.45536 1.17533,-2.60481 2.53567,-2.56737c1.36034,0.03745 2.43066,1.24761 2.3906,2.70298z" fill="#000000" stroke="none" stroke-width="0.5" stroke-linecap="butt"/><path d="M203.93442,226.09756c-1.36034,-0.03744 -2.43066,-1.2476 -2.3906,-2.70297c0.04006,-1.45537 1.17533,-2.60482 2.53567,-2.56738c1.36034,0.03744 2.43066,1.24761 2.3906,2.70298c-0.04006,1.45536 -1.17533,2.60481 -2.53567,2.56737z" fill="#000000" stroke="none" stroke-width="0.5" stroke-linecap="butt"/><path d="M203.08759,203.13086l-3.09388,13.89186l-7.15036,0.0669l4.60078,-14.90526z" fill="#fa0000" stroke="#000000" stroke-width="4" stroke-linecap="round"/></g><g data-paper-data="{&quot;index&quot;:null}" fill="#fdcd8e" stroke="#000000" stroke-width="4" stroke-linecap="round"><path d="M329.13945,206.18692c0,0 1.76094,7.28501 2.40475,11.10492c0.6863,4.07206 1.59373,12.61936 1.59373,12.61936c0,0 -3.55193,3.28679 -5.46186,3.99746c-1.91083,0.71101 -6.00043,0.26758 -6.00043,0.26758l-2.93221,-14.66107l2.13252,14.3945c0,0 -3.32571,1.48218 -5.04407,1.7381c-2.2909,0.3412 -7.48447,0.12785 -7.48447,0.12785l-2.39908,-13.86137l2.13252,13.32824c0,0 -7.72884,2.32188 -11.18835,2.41292c-3.28437,0.08643 -9.07058,-1.87979 -9.07058,-1.87979c0,0 -3.54417,-0.57981 -3.79725,-1.39528c-0.43898,-1.41448 1.39816,-6.33511 1.39816,-6.33511c0,0 4.73873,-2.22874 4.69124,-4.00984c-0.03998,-1.49929 -5.7732,1.02224 -6.84142,-2.03471c-1.46528,-4.19321 1.61705,-13.94781 1.61705,-13.94781c0,0 13.67718,-7.24087 20.82247,-7.54218c7.57905,-0.3196 23.42729,5.67622 23.42729,5.67622z"/><path d="M291.82037,231.244l0.53313,-9.06321l2.93221,-10.39603"/></g><g data-paper-data="{&quot;index&quot;:null}"><g stroke="#000000"><g><g><path d="M294.29,153.82194c0,0 5.86004,20.4114 5.21778,28.40506c-0.46915,5.83919 -8.71778,15.15689 -8.71778,15.15689c0,0 -29.09408,8.93175 -44.47506,9.24075c-18.77219,0.37713 -60.02495,-7.14138 -60.02495,-7.14138c0,0 -5.85737,-2.32629 -9.216,-6.63754c-3.40454,-4.37016 -4.31036,-10.73657 -4.22193,-12.31471c0.15508,-2.76722 5.43793,-7.81473 5.43793,-7.81473c0,0 3.68653,-6.98639 3.77339,-9.99513c0.07907,-2.7392 -2.77339,-7.32468 -2.77339,-7.32468" fill="#fdcc8d" stroke-width="4" stroke-linecap="round"/><path d="M172.79,97.82194c0,0 10.88931,-7.11786 25.04293,-10.7709c14.51065,-3.74518 32.42684,-4.02733 43.45426,-3.98571c12.09399,0.04564 32.32073,0.50213 46.05345,4.58633c11.66578,3.46948 17.94935,10.67029 17.94935,10.67029c0,0 3.0028,17.56068 1.03871,22.828c-0.6415,1.72039 -5.49676,3.64469 -11.18413,5.35271c-8.90686,2.67488 -19.85458,4.81929 -19.85458,4.81929c0,0 10.8304,-2.48459 19.52744,-1.93162c8.09462,0.51467 14.0737,3.99499 14.71017,5.86198c1.15847,3.39816 0.26238,16.06965 0.26238,16.06965c0,0 -55.74499,2.04333 -79.97839,2.74575c-21.41802,0.62081 -58.02162,1.25425 -58.02162,1.25425c0,0 -15.7383,-8.70104 -15.0867,-12.93642c0.29908,-1.94402 6.19247,-7.31636 14.38634,-9.36498c10.44928,-2.61252 23.70036,-1.6986 23.70036,-1.6986c0,0 -15.85166,1.15991 -23.36007,-3.40816c-6.96738,-4.23891 -5.63919,-14.10466 -5.46743,-17.11056c0.2998,-5.24657 6.8275,-12.98128 6.8275,-12.98128z" fill="#0cb500" stroke-width="4" stroke-linecap="round"/><g><path d="M291.29,152.32194c0,0 0.16666,6.66666 -0.5,9c-0.66666,2.33334 -3.5,10.5 -3.5,10.5c0,0 -14.45887,6.30763 -22.03258,6.46878c-8.06238,0.17154 -24.96742,-4.46878 -24.96742,-4.46878c0,0 -2.14766,-8.04425 -3.02353,-10.19412c-0.95123,-2.33484 -0.97647,-9.80588 -0.97647,-9.80588z" fill="#ffffff" stroke-width="4" stroke-linecap="round"/><path d="M244.79,167.07194c-2.07107,0 -3.75,-1.67893 -3.75,-3.75c0,-2.07107 1.67893,-3.75 3.75,-3.75c2.07107,0 3.75,1.67893 3.75,3.75c0,2.07107 -1.67893,3.75 -3.75,3.75z" fill="none" stroke-width="1.5" stroke-linecap="butt"/></g><g><path d="M230.29,155.32194l-5,13.5c0,0 -11.69549,4.16046 -16.98389,3.99257c-5.21044,-0.16541 -17.01611,-2.99257 -17.01611,-2.99257l-4,-14z" fill="#ffffff" stroke-width="4" stroke-linecap="round"/><path d="M194.79,166.07194c-2.07107,0 -3.75,-1.67893 -3.75,-3.75c0,-2.07107 1.67893,-3.75 3.75,-3.75c2.07107,0 3.75,1.67893 3.75,3.75c0,2.07107 -1.67893,3.75 -3.75,3.75z" fill="none" stroke-width="1.5" stroke-linecap="butt"/></g></g><path d="M267.74462,120.81097c0,0 -25.03502,27.44857 -29.48302,28.49653c-0.89359,0.21053 -1.60967,-0.12076 -1.60967,-0.12076l3.94479,-7.31718" fill="none" stroke-width="4" stroke-linecap="round"/><path d="M218.77623,144.19024l3.25859,4.9965c0,0 -1.95749,0.14015 -3.25415,-0.24627c-4.51035,-1.34415 -22.94898,-27.5295 -22.94898,-27.5295" fill="none" stroke-width="4" stroke-linecap="round"/></g><path d="M233.47065,145.77573c0,0 -0.80384,-4.07504 -0.52601,-5.88093c0.25322,-1.64592 2.12601,-4.51907 2.12601,-4.51907" fill="none" stroke-width="4" stroke-linecap="round"/><path d="M227.07065,135.77574c0,0 0.50864,2.54384 0.3104,3.83237c-0.2017,1.31108 -1.5104,3.96763 -1.5104,3.96763" fill="none" stroke-width="4" stroke-linecap="round"/></g><g stroke="#000000"><g data-paper-data="{&quot;index&quot;:null}" fill="#ffffff" stroke-width="4" stroke-linecap="butt"><path d="M232.41566,194.09432c-2.83346,-0.42931 -8.46085,-0.2991 -13.55199,-0.62049c3.11196,-0.04691 6.48361,-0.20063 9.92723,-0.52888c13.14902,-1.25337 25.77699,-9.39583 32.78818,-9.93018c7.62469,-0.58111 18.61521,4.26849 18.61521,4.26849c0,0 3.31093,2.99262 2.69525,4.51172c-0.54555,1.34606 -6.20446,4.14669 -6.20446,4.14669c0,0 -8.03949,-1.06232 -12.01956,-0.67922c-4.66285,0.44882 -14.23488,3.20633 -14.23488,3.20633c0,0 -10.25215,-3.1983 -18.01498,-4.37447z"/><path d="M217.11071,193.48948c0.00782,-0.04599 0.01574,-0.09192 0.02376,-0.13782c0.24477,0.01632 0.486,0.03359 0.72292,0.05185c0.33241,0.02563 0.66816,0.04897 1.00628,0.07031c-0.59422,0.00896 -1.17898,0.01402 -1.75296,0.01566z"/></g><path d="M265.915,191.48402l5.5,-1.83897l2.75,1.83897l2.25,-2.36439l4.5,4.20336" fill="none" stroke-width="2" stroke-linecap="round"/></g><path d="M242.77966,165.1445c-0.82843,0 -1.5,-0.67157 -1.5,-1.5c0,-0.82843 0.67157,-1.5 1.5,-1.5c0.82843,0 1.5,0.67157 1.5,1.5c0,0.82843 -0.67157,1.5 -1.5,1.5z" fill="#000000" stroke="none" stroke-width="0.5" stroke-linecap="butt"/><path d="M192.77966,163.9445c-0.82843,0 -1.5,-0.67157 -1.5,-1.5c0,-0.82843 0.67157,-1.5 1.5,-1.5c0.82843,0 1.5,0.67157 1.5,1.5c0,0.82843 -0.67157,1.5 -1.5,1.5z" fill="#000000" stroke="none" stroke-width="0.5" stroke-linecap="butt"/><path d="M251.77965,161.0445c0,0 1.4,1.38717 1.4,2.2c0,1.01048 -1.4,3.4 -1.4,3.4" fill="none" stroke="#000000" stroke-width="1" stroke-linecap="round"/><path d="M201.37965,160.0445c0,0 0.53377,1.58962 0.50052,2.38753c-0.03342,0.80207 -0.70052,2.41248 -0.70052,2.41248" fill="none" stroke="#000000" stroke-width="1" stroke-linecap="round"/></g></g></g></svg>