<svg version="1.1" xmlns="http://www.w3.org/2000/svg" xmlns:xlink="http://www.w3.org/1999/xlink" width="167.29231" height="171.5284" viewBox="0,0,167.29231,171.5284"><g transform="translate(-155.78965,-94.43752)"><g data-paper-data="{&quot;isPaintingLayer&quot;:true}" fill-rule="nonzero" stroke-linejoin="miter" stroke-miterlimit="10" stroke-dasharray="" stroke-dashoffset="0" style="mix-blend-mode: normal"><path d="M288.12984,144.66219v2.55337l-27.44867,10.10707l-2.87254,-3.40448z" fill="#0a9600" stroke="#000000" stroke-width="0" stroke-linecap="round"/><path d="M246.74405,151.89673l-1.0639,3.19171l-2.87253,0.63834l-15.74575,-8.93678l0.42556,-3.83004z" fill="#0a9600" stroke="none" stroke-width="0" stroke-linecap="round"/><path d="M290.23457,200.34388l9.77414,45.00654l-22.27462,18.08458l-11.89664,-2.35572l-8.95526,-7.1357l-6.65344,-8.82047l-4.27705,2.83631l-7.06036,9.2575l-10.71124,1.08992l-8.14433,-4.62259l-3.80903,-11.51944l9.90761,-41.59363l29.32044,1.25422l34.77978,-1.48153z" fill="#d90000" stroke="#000000" stroke-width="3" stroke-linecap="round"/><path d="M258.43068,159.40634l49.07913,-3.15979l3.18228,20.23021l-6.33697,14.77952l-15.02977,7.95105l-32.73325,1.48247l-29.54852,-1.25517l-20.3709,-13.24607l-1.16248,-6.30722l4.11627,-12.24079l1.96032,-9.34825z" fill="#fdcc8d" stroke="#000000" stroke-width="3" stroke-linecap="round"/><path d="M211.98975,158.24748l5.5,0.33333l6.33333,8.83333l-14.33333,0.5z" fill="#e1b47d" stroke="#000000" stroke-width="0" stroke-linecap="round"/><path d="M252.65641,159.41413l4.33333,0.16667l3.16667,10.83333l-12.83333,-1.83333z" fill="#e1b47d" stroke="#000000" stroke-width="0" stroke-linecap="round"/><path d="M307.15641,161.41414l2,9.33333l-6.5,-0.5z" fill="#e1b47d" stroke="#000000" stroke-width="0" stroke-linecap="round"/><path d="M210.67756,158.29231l-8.18863,-2.94971l-6.08617,-8.96111l4.24695,-7.91296l13.21013,-2.90679l-1.15199,-6.44226l-4.18269,-11.51707l6.01659,-15.45462l47.03145,-6.18953l53.8923,11.41756l4.11711,14.10118l-5.02633,13.85743l6.7107,10.91998l-6.7107,8.85561l-11.38193,2.10653l-33.63423,1.69219z" fill="#0cb500" stroke="#000000" stroke-width="3" stroke-linecap="round"/><path d="M199.78451,152.32227l-3.67392,-3.87253l1.43972,-5.38341l1.34784,-3.93644l10.67425,-2.1278l12.66044,0.42556l-0.42556,1.59586l-12.76683,0.31917l-3.51088,2.44697l-2.1278,1.80864l-1.91502,1.91502l-0.85113,2.44698l0.63835,2.65975l-0.10639,1.17029z" fill="#0a9c00" stroke="none" stroke-width="0" stroke-linecap="round"/><path d="M246.27703,148.38584l-0.21278,3.19171l-19.36302,-9.36234" fill="none" stroke="#000000" stroke-width="3" stroke-linecap="round"/><path d="M287.27873,144.02386l-27.87424,8.93678l2.55336,-6.17064" fill="none" stroke="#000000" stroke-width="3" stroke-linecap="round"/><path d="M218.32308,158.24748l34,0.83334l-15.83334,13.16667l-18.16666,-14z" fill="#ffffff" stroke="#000000" stroke-width="3" stroke-linecap="round"/><path d="M256.15641,159.58081l25.84217,-0.41997l25.3245,-1.41336l-24.33333,21.5l-26.83333,-19.66667z" fill="#ffffff" stroke="#000000" stroke-width="3" stroke-linecap="round"/><path d="M225.65642,163.24748l1.33333,-1.33334l1.33334,1.33334l-1.33334,1.33333z" fill="#000000" stroke="#000000" stroke-width="2" stroke-linecap="butt"/><path d="M266.48975,166.91413l1.33333,-1.66666l1.33333,1.66666l-1.33333,1.66667z" fill="#000000" stroke="#000000" stroke-width="2" stroke-linecap="butt"/><path d="M305.82308,177.24747l-32.34947,14.48308l-39.98386,-11.14974" fill="none" stroke="#000000" stroke-width="3" stroke-linecap="round"/><path d="M258.43068,159.40634l49.07913,-3.15979l3.18228,20.23021l-6.33697,14.77952l-15.02977,7.95105l-32.73325,1.48247l-29.54852,-1.25517l-20.3709,-13.24607l-1.16248,-6.30722l4.11627,-12.24079l1.96032,-9.34825z" fill="none" stroke="#000000" stroke-width="2" stroke-linecap="round"/><path d="M287.98975,136.08081l24,0.33333l7.16667,3.33333l2.33333,7.83334l-2.83333,5.66666l-10.16667,2.50001l1.33333,-1.83334l3.33333,-4.66667l1.16667,-3.66666l-5.5,-4.16667h-19.33333l-2.16667,-3.33333z" fill="#0a9600" stroke="#000000" stroke-width="0" stroke-linecap="round"/><path d="M288.32308,134.58081l4,-2l9.33333,-1l8,-5.66667l3.66667,-5.33334l1.33333,-5.33333l-2.5,-4.83333l-3.83333,-4.33334l0.33333,-1.33333l5.5,1.83333l4.5,8.16667l0.83333,9l-1.5,6.66667l-4.16667,4l-6.66667,1.83333h-17.5z" fill="#0a9600" stroke="#000000" stroke-width="0" stroke-linecap="round"/><path d="M209.65641,135.91413l12.83333,0.33333" fill="none" stroke="#000000" stroke-width="2" stroke-linecap="round"/><path d="M314.32308,135.74748l-26,0.33333" fill="none" stroke="#000000" stroke-width="2" stroke-linecap="round"/><path d="M210.67756,158.12563l-8.18863,-2.94971l-6.08617,-8.96111l4.24695,-7.91296l13.21013,-2.90679l-1.15199,-6.44226l-4.18269,-11.51707l6.01659,-15.45462l47.03145,-6.18953l53.8923,11.41756l4.11711,14.10118l-5.02633,13.85743l6.7107,10.91998l-6.7107,8.85561l-11.38193,2.10653l-33.63423,1.69219z" fill="none" stroke="#000000" stroke-width="2" stroke-linecap="round"/><path d="M233.15642,200.24749l9,0.5l-2.33333,18l9.8314,-3.24934l11.6686,3.08267v-17.66667l13.16667,-1v3.83333l-2,14.66667l10.11006,-2.34455l9.88994,-4.48879l1.5,8.33333l3.33333,13l2.83333,16.83333l-6.16667,8.83333l-11.83333,5.83333l-13.66667,-2l-8.83333,-4.66667l-7.16667,-11.66667l-5,-0.33333l-4.33333,8.16667l-7.5,4.16667h-10.16667l-7,-5.33333l-2.33333,-11.83333l7.83333,-28l6.5,0.33333l2.33333,-10.83333z" fill="#0024dd" stroke="#000000" stroke-width="1.5" stroke-linecap="round"/><path d="M239.82308,215.41414l-4,-0.5l0.66667,-9.16667l-4,-1l1.83333,-4.16667l8,0.83333z" fill="#001eb7" stroke="none" stroke-width="0" stroke-linecap="round"/><path d="M267.65641,228.41415l4.5,-0.66667l0.83333,5l-0.33333,5.83333l-2.66667,4.83333l-2.83333,-1.5z" fill="#001eb7" stroke="none" stroke-width="0" stroke-linecap="round"/><path d="M261.48974,201.41415l7.67528,-0.89069l5.32472,-0.10931l-2.16667,18.5l9.66667,-2.16666l-2.33333,7.16666l-8.83333,-1.16667l-1.5,-4.16667l-0.16667,-12.5l-7,-0.5z" fill="#001eb7" stroke="none" stroke-width="0" stroke-linecap="round"/><path d="M232.15642,226.58081l5.83333,1.16667l-4,10l-3.66667,0.5z" fill="#001eb7" stroke="none" stroke-width="0" stroke-linecap="round"/><path d="M230.32308,237.41414l1.33333,-11l36.16667,2l-0.66667,13.16667" fill="none" stroke="#000000" stroke-width="3" stroke-linecap="round"/><path d="M273.15641,261.91414l0.66667,-2l5.83333,-3l6.83333,-6.83333l2.83333,-6l1.16667,-7.16667l1,-4.16667l4.33333,4l3.16667,0.66667l0.71968,10.669l-1.38635,4.49766l-4.35251,5.78761l-6.31416,3.54573l-5.90559,2.58002l-8.59441,-0.74668z" fill="#001eb7" stroke="none" stroke-width="0" stroke-linecap="round"/><path d="M232.32308,217.83081l1.41667,-1.41667l1.41667,1.41667l-1.41667,1.41667z" fill="#000000" stroke="#000000" stroke-width="3" stroke-linecap="butt"/><path d="M265.65641,220.99748l1.41666,-1.41667l1.41667,1.41667l-1.41667,1.41667z" fill="#000000" stroke="#000000" stroke-width="3" stroke-linecap="butt"/><path d="M233.15642,200.24749l9,0.5l-2.33334,18l9.8314,-3.24934l11.6686,3.08267v-17.66667l13.16667,-1v3.83334l-2,14.66666l10.11006,-2.34455l9.88994,-4.48878l1.5,8.33333l3.33333,13l2.83333,16.83334l-6.16667,8.83333l-11.83333,5.83333l-13.66667,-2l-8.83333,-4.66666l-7.16667,-11.66667l-5,-0.33333l-4.33333,8.16666l-7.5,4.16667h-10.16667l-7,-5.33333l-2.33333,-11.83334l7.83333,-28l6.5,0.33334l2.33334,-10.83334z" fill="none" stroke="#000000" stroke-width="3" stroke-linecap="round"/><path d="M315.32308,233.91413l4.33333,2.5l-2.15957,5.22096l-7.50709,-0.88762l-5.91667,1.08333l-6.58333,-5.25l-3.36431,-0.57704l-1.9494,-2.30714l-4.22674,-0.798l-5.79289,-11.98448l27,-10.33333l10.66667,17.66667z" fill="#fdcc8d" stroke="#000000" stroke-width="3" stroke-linecap="round"/><path d="M282.15642,226.91414l-0.5,-3.33333l4,-7l6.66667,-4l10.5,-2.83333l14.33333,2.33333l-0.16667,2.5l-3.66667,-0.16667h-6h-6.5l-4,0.83334l-3.83333,1.5l-4.16667,2.83333l-2.33333,2.66667l-0.66667,5.5z" fill="#e5b780" stroke="none" stroke-width="0" stroke-linecap="round"/><path d="M302.15641,216.91415l0.50001,2.83334l-3.33333,2.16666l-0.16667,3.5l0.5,2.66667l-2.16667,7.16667l-3.33333,-1l0.33333,-12.16667l2.60784,-3.76471z" fill="#e5b780" stroke="none" stroke-width="0" stroke-linecap="round"/><path d="M310.15641,222.58081v2.16667l-6,7.5l1.83333,9.5l-5.16667,-3.16667l-2.24165,-4.18261l2.07499,-5.65072l5.16667,-6.16667z" fill="#e5b780" stroke="none" stroke-width="0" stroke-linecap="round"/><path d="M318.65641,225.74748l-4.33333,5.16666l-1,3.5l0.83333,7l-3.83333,-0.66667l-0.76668,-4.36199l0.26667,-6.30468l4.5,-5z" fill="#e5b780" stroke="none" stroke-width="0" stroke-linecap="round"/><path d="M291.82307,233.74749l2.9466,-2.8079l-0.16537,-4.28812l0.61825,-7.43231l7.60053,-2.47168" fill="none" stroke="#000000" stroke-width="3" stroke-linecap="round"/><path d="M298.32308,236.41416l4.05215,-10.42301l7.28118,-4.57699" fill="none" stroke="#000000" stroke-width="3" stroke-linecap="round"/><path d="M309.98975,239.74749l0.30027,-9.93175l7.53306,-5.40159" fill="none" stroke="#000000" stroke-width="3" stroke-linecap="round"/><path d="M315.32308,233.91413l4.33333,2.5l-2.15957,5.22096l-7.50709,-0.88762l-5.91667,1.08333l-6.58333,-5.25l-3.36431,-0.57704l-1.9494,-2.30714l-4.22674,-0.798l-5.79289,-11.98448l27,-10.33333l10.66667,17.66667z" fill="none" stroke="#000000" stroke-width="2" stroke-linecap="round"/><path d="M204.82308,207.41415l1.83334,-0.66666l1.66666,0.5l0.83334,4.16666l-2.33334,4l-7.66666,1.33334l-4.33334,-5l2.5,-8.66667l8.33334,-3l9.66666,2.66667l7.33334,6.33333l1.33333,3.66667l-3.16666,5.83333l-6,7.83333l-8.5,6.83334h-6.83334l-0.5,-3.66667l7.16667,-6.83333l6.83333,-1.5l3.16667,1.33333l-7.0782,-4.29234l-0.2245,-5.04497l-1.38573,-6.43533l-2.6449,0.60598z" fill="#fdcc8d" stroke="#000000" stroke-width="3" stroke-linecap="round"/><path d="M204.48975,207.74748h-2l-0.66666,-0.83334" fill="none" stroke="#000000" stroke-width="2" stroke-linecap="round"/><path d="M195.10098,180.31957l-15.80777,20.5887l-21.97024,-11.23287l15.03,-19.25536l22.74802,9.89954z" fill="#212121" stroke="#000000" stroke-width="2" stroke-linecap="butt"/><path d="M190.51362,178.98868l-6.07283,10.31915l-12.08601,-4.19044l0.63205,-5.84395l6.44079,-4.80854l11.08601,4.52378z" fill="#151515" stroke="none" stroke-width="0" stroke-linecap="butt"/><path d="M209.98975,220.24748l-6.66666,4.33333l-7.5,3.83333l-0.5,-6l10.16666,-6.16666z" fill="#fdcc8d" stroke="#000000" stroke-width="3" stroke-linecap="round"/><path d="M188.98975,221.74748l-3.5,-4.16667l8.83334,-6.16667l4.5,5.66667l-2.84208,4.31489l-6.99125,0.35178z" fill="#fdcc8d" stroke="#000000" stroke-width="3" stroke-linecap="round"/><path d="M207.32307,213.91414l-6.33334,2l-5.16666,-2.33333l0.33334,-6.5l3.5,-4.16667l1.33333,1.33334l-2.66666,5.16666l3.33334,3.83334l4.33333,-1.16667z" fill="#e1b47d" stroke="none" stroke-width="0" stroke-linecap="round"/><path d="M201.48975,199.08081l17.66667,20.33333l-4.16667,6l-23.5,-12.83333l-7.16666,-6.16667l12.16666,-11.66666z" fill="#515151" stroke="#000000" stroke-width="2" stroke-linecap="round"/><path d="M184.65642,204.91414l11.66666,-10l4,3.5l-5.33334,3.66667l-4,3.16667l-3.16666,2.83333z" fill="#393939" stroke="none" stroke-width="0" stroke-linecap="round"/><path d="M171.98975,173.38637l-5.33333,6.66667l-2,4.77778l1.33333,5.88889l5,3.33333l6.33334,0.88889l6.33334,-2.44444l5.55555,-4.11111l5.85714,-4.07936l-2.63492,6.19048l-5.45532,6.68795l-6.98913,2.42316l-7.29045,1.43755l-8.154,-2.32644l-4.25157,-4.27469l-2.74843,-5.50309l2.22223,-10.66666l7.88889,-6.22222z" fill="#151515" stroke="none" stroke-width="0" stroke-linecap="round"/><path d="M175.87864,178.27526l4.66666,8.88889" fill="none" stroke="#000000" stroke-width="2" stroke-linecap="round"/><path d="M184.65642,184.38636l-4.77778,-7.66666" fill="none" stroke="#000000" stroke-width="2" stroke-linecap="round"/><path d="M184.43419,176.27526l3.22223,5.66666" fill="none" stroke="#000000" stroke-width="2" stroke-linecap="round"/><path d="M174.10086,184.49748l7.30945,-5.15239l6.13499,-2.62538" fill="none" stroke="#000000" stroke-width="2" stroke-linecap="round"/><path d="M176.87864,187.16414l5.98531,-4.51553l6.90358,-3.70669" fill="none" stroke="#000000" stroke-width="2" stroke-linecap="round"/><path d="M195.10098,180.31957l-15.80777,20.5887l-21.97024,-11.23287l15.03,-19.25536l22.74802,9.89954z" fill="none" stroke="#000000" stroke-width="2" stroke-linecap="butt"/><path d="M201.48975,199.08081l17.66667,20.33333l-4.16667,6l-23.5,-12.83333l-7.16666,-6.16667l12.16666,-11.66666z" fill="none" stroke="#000000" stroke-width="2" stroke-linecap="round"/><path d="M174.32308,201.74748l11.70151,-5.98022l8.71515,-8.93645l8.25,5.91667l-22.66666,18.16666z" fill="#333333" stroke="#000000" stroke-width="2" stroke-linecap="round"/></g></g></svg>