<svg version="1.1" xmlns="http://www.w3.org/2000/svg" xmlns:xlink="http://www.w3.org/1999/xlink" width="147" height="183" viewBox="0,0,147,183"><g transform="translate(-166.5,-88.5)"><g data-paper-data="{&quot;isPaintingLayer&quot;:true}" fill="#ffffff" fill-rule="nonzero" stroke="#000000" stroke-width="5" stroke-linecap="butt" stroke-linejoin="miter" stroke-miterlimit="10" stroke-dasharray="" stroke-dashoffset="0" style="mix-blend-mode: normal"><path d="M169,269l0,-67.23653c1.18261,-0.10027 2.3558,-0.19837 3.51696,-0.29292c1.10435,-0.08993 2.34556,-0.28753 3.56869,-0.60842c0.54128,0.09068 1.0973,0.13788 1.66435,0.13788c5.52285,0 10,-4.47715 10,-10c0,-5.52285 -4.47715,-10 -10,-10c-0.597,0 -1.18177,0.05231 -1.75,0.15261c-0.56823,-0.10029 -1.153,-0.15261 -1.75,-0.15261c-0.74292,0 -1.46692,0.08101 -2.16364,0.23469c-0.80755,0.16151 -1.61698,0.31013 -2.42808,0.44718c-0.21701,-0.04193 -0.43651,-0.07684 -0.65827,-0.1045v-90.57737h142v178z"/></g></g></svg>