<svg version="1.1" xmlns="http://www.w3.org/2000/svg" xmlns:xlink="http://www.w3.org/1999/xlink" width="85.29322" height="148.00192" viewBox="0,0,85.29322,148.00192"><g transform="translate(-194.68047,-105.19697)"><g data-paper-data="{&quot;isPaintingLayer&quot;:true}" fill-rule="nonzero" stroke-linejoin="miter" stroke-miterlimit="10" stroke-dasharray="" stroke-dashoffset="0" style="mix-blend-mode: normal"><g data-paper-data="{&quot;index&quot;:null}" stroke="#000000" stroke-width="2" stroke-linecap="butt"><path d="M227.80358,202.80675c0,0 14.20561,-2.97862 18.50703,-3.11697c6.05694,-0.19481 13.83157,2.31993 13.83157,6.62357c0,4.30364 -2.90436,7.79243 -7.208,7.79243c-3.69593,0 -6.40831,-1.23101 -11.16015,-0.63886c-6.21963,0.77506 -12.53989,3.42313 -12.53989,3.42313l-1.43055,-14.08329z" fill="#0611d7"/><path d="M228.89941,241.51144l-6.29888,-6.16986v-28.29627l6.29888,-6.16986l6.29888,6.16986v28.29627z" fill="#5c5c57"/></g><g data-paper-data="{&quot;index&quot;:null}" stroke="#000000" stroke-width="2" stroke-linecap="butt"><path d="M205.28693,198.45675c0,0 14.20562,-2.97862 18.50703,-3.11697c6.05694,-0.19481 13.83156,2.31993 13.83156,6.62357c0,4.30364 -2.90435,7.79244 -7.20799,7.79244c-3.69594,0 -6.40832,-1.23102 -11.16016,-0.63887c-6.21964,0.77507 -12.5399,3.42313 -12.5399,3.42313l-1.43055,-14.08329z" fill="#0611d7"/><path d="M206.38274,237.16145l-6.29888,-6.16987v-28.29627l6.29888,-6.16986l6.29888,6.16986v28.29627z" fill="#5c5c57"/></g><g data-paper-data="{&quot;index&quot;:null}" fill="#a1a1a1" stroke="#000000" stroke-width="2" stroke-linecap="butt"><path d="M234.43684,232.40722c0,10.70051 -4.81294,19.375 -10.75,19.375c-0.45597,0 -4.90532,0.17106 -5.34636,0.07173c-5.30159,-1.19389 -5.40364,-9.56803 -5.40364,-19.44673c0,-9.98883 -0.25042,-18.21217 5.13695,-19.26184c0.38384,-0.07478 5.21818,-0.11316 5.61305,-0.11316c5.93706,0 10.75,8.67449 10.75,19.375z"/><path d="M229.19676,232.49056c0,10.70051 -4.81294,19.375 -10.75,19.375c-5.93706,0 -10.75,-8.67449 -10.75,-19.375c0,-10.70051 4.81294,-19.375 10.75,-19.375c5.93706,0 10.75,8.67449 10.75,19.375z"/></g><g data-paper-data="{&quot;index&quot;:null}" fill="#a1a1a1" stroke="#000000" stroke-width="2" stroke-linecap="butt"><path d="M267.10351,232.74056c0,10.70051 -4.81294,19.375 -10.75,19.375c-0.45597,0 -4.90532,0.17106 -5.34636,0.07174c-5.30159,-1.19389 -5.40364,-9.56804 -5.40364,-19.44674c0,-9.98883 -0.25042,-18.21217 5.13695,-19.26184c0.38384,-0.07479 5.21818,-0.11316 5.61305,-0.11316c5.93706,0 10.75,8.67449 10.75,19.375z"/><path d="M261.86343,232.82389c0,10.70052 -4.81294,19.375 -10.75,19.375c-5.93706,0 -10.75,-8.67448 -10.75,-19.375c0,-10.70052 4.81294,-19.375 10.75,-19.375c5.93706,0 10.75,8.67448 10.75,19.375z"/></g><g data-paper-data="{&quot;index&quot;:null}"><g data-paper-data="{&quot;index&quot;:null}" stroke="#000000" stroke-width="2"><path d="M246.3514,199.45191c-3.40481,-4.41858 2.4209,-6.51558 2.42862,-6.55247c0.21242,-1.01521 -2.23839,1.67948 -3.54253,1.17885c-3.708,-1.42343 3.7014,-7.01419 7.82076,-6.80657c1.99902,0.10075 7.19966,5.51664 7.09674,7.55845c-0.19994,3.96678 -7.68619,12.56058 -13.8036,4.62174z" fill="#fcdac0" stroke-linecap="butt"/><path d="M259.73584,162.75407c0,0 20.07452,15.68817 19.21075,16.47951c-0.18705,0.17137 -18.77102,18.03835 -19.46181,18.30457c-0.70528,0.2718 -6.80903,-9.32236 -7.75735,-9.43939c-0.59835,-0.07385 11.04755,-9.04745 10.92753,-9.11729c-0.80263,-0.46707 -10.35541,-10.9962 -10.35541,-10.9962" fill="#3a3eff" stroke-linecap="round"/></g><path d="M253.49609,169.97533c-4.30782,0 -7.8,-3.49218 -7.8,-7.8c0,-4.30782 3.49218,-7.8 7.8,-7.8c4.30782,0 7.8,3.49218 7.8,7.8c0,4.30782 -3.49218,7.8 -7.8,7.8z" data-paper-data="{&quot;index&quot;:null}" fill="#3a3eff" stroke="#000000" stroke-width="2" stroke-linecap="butt"/><path d="M256.07069,170.6978l1.34454,-4.60504l4.16912,-0.52101l-0.13025,4.76891z" data-paper-data="{&quot;index&quot;:null}" fill="#3a3eff" stroke="none" stroke-width="0" stroke-linecap="butt"/></g><path d="M240.60034,207.74681c-9.56128,0 -19.82626,1.41214 -19.82626,1.41214c0,0 3.36751,-13.40852 3.62342,-25.63567c0.24156,-11.54141 -3.62342,-23.61279 -3.62342,-23.61279c0,0 7.28456,-2.11821 18.74191,-2.11821c10.44385,0 19.42476,2.11821 19.42476,2.11821c0,0 -3.1403,11.11675 -3.1403,24.14234c0,13.88986 3.1403,25.10612 3.1403,25.10612c0,0 -10.09844,-1.41214 -18.34041,-1.41214z" data-paper-data="{&quot;index&quot;:null}" fill="#3a3eff" stroke="#000000" stroke-width="2" stroke-linecap="butt"/><path d="M247.45963,148.46968c0,0 0.13466,8.53876 -0.68438,11.19752c-0.82146,2.66664 -4.45986,2.80416 -6.54565,2.84416c-2.69946,0.05177 -6.1255,-0.26326 -6.86398,-2.78169c-1.00294,-3.42031 -0.53099,-11.25998 -0.53099,-11.25998h14.625z" data-paper-data="{&quot;index&quot;:null}" fill="#fc959e" stroke="#000000" stroke-width="2" stroke-linecap="butt"/><g data-paper-data="{&quot;index&quot;:null}" stroke="#000000" stroke-width="2" stroke-linecap="butt"><path d="M267.61855,130.85268c0,14.78566 -12.4614,23.95035 -27.83333,23.95035c-15.37193,0 -27.83334,-9.16469 -27.83334,-23.95035c0,-14.78566 12.46141,-24.30303 27.83334,-24.30303c15.37193,0 27.83333,9.51737 27.83333,24.30303z" fill="#fcdac0"/><path d="M267.61856,130.85268c0,0.30075 -53.39013,7.17351 -53.07422,0.54093c0.12936,-2.71585 -2.59245,-0.26418 -2.59245,-0.54093c0,-14.78566 12.46141,-24.65571 27.83334,-24.65571c15.37193,0 27.83334,9.87005 27.83334,24.65571z" fill="#765035"/></g><g data-paper-data="{&quot;index&quot;:null}"><g stroke="#000000" stroke-width="2"><path d="M214.47205,194.49358c-0.10291,-2.04181 5.09772,-7.45769 7.09674,-7.55845c4.11936,-0.20763 11.52876,5.38314 7.82077,6.80656c-1.30413,0.50063 -3.75495,-2.19405 -3.54253,-1.17885c0.00772,0.03688 5.83342,2.13389 2.42862,6.55247c-6.1174,7.93884 -13.60365,-0.65495 -13.80359,-4.62174z" fill="#fcdac0" stroke-linecap="butt"/><path d="M222.3275,167.64868c0,0 -9.55278,10.52913 -10.35541,10.9962c-0.12002,0.06984 11.52588,9.04345 10.92753,9.11729c-0.94831,0.11703 -7.05207,9.71119 -7.75735,9.43939c-0.69079,-0.26622 -19.27475,-18.1332 -19.4618,-18.30457c-0.86378,-0.79134 19.21074,-16.47951 19.21074,-16.47951" fill="#3a3eff" stroke-linecap="round"/></g><path d="M213.33096,161.83874c0,-4.30782 3.49218,-7.8 7.8,-7.8c4.30782,0 7.8,3.49218 7.8,7.8c0,4.30782 -3.49218,7.8 -7.8,7.8c-4.30782,0 -7.8,-3.49218 -7.8,-7.8z" fill="#3a3eff" stroke="#000000" stroke-width="2" stroke-linecap="butt"/><path d="M213.17295,170.00407l-0.13025,-4.76891l4.16912,0.52101l1.34454,4.60504z" fill="#3a3eff" stroke="none" stroke-width="0" stroke-linecap="butt"/></g><g fill="#1d1d1d" stroke="#000000" stroke-linecap="butt"><path d="M222.30078,214.42673v-68.66667h46.33333v68.66667z" data-paper-data="{&quot;index&quot;:null}" stroke-width="4"/><path d="M209.30077,214.42673v-9.66667h58.75v9.66667z" data-paper-data="{&quot;index&quot;:null}" stroke-width="4"/><path d="M222.30078,214.42673v-68.66667h46.33333v68.66667z" data-paper-data="{&quot;index&quot;:null}" stroke-width="0"/><path d="M209.30077,214.42673v-9.66667h58.75v9.66667z" data-paper-data="{&quot;index&quot;:null}" stroke-width="0"/></g></g></g></svg>