<svg version="1.1" xmlns="http://www.w3.org/2000/svg" xmlns:xlink="http://www.w3.org/1999/xlink" width="158.84026" height="150.56679" viewBox="0,0,158.84026,150.56679"><g transform="translate(-177.17288,-104.71661)"><g data-paper-data="{&quot;isPaintingLayer&quot;:true}" fill-rule="nonzero" stroke-linejoin="miter" stroke-miterlimit="10" stroke-dasharray="" stroke-dashoffset="0" style="mix-blend-mode: normal"><g><path d="M210.57924,197.11149c0,0 21.13565,1.07227 30.73556,1.30926c9.46838,0.23374 25.91104,-1.10838 25.91104,-1.10838c0,0 6.87952,26.33816 8.75555,36.75709c0.47127,2.61727 -0.96038,7.53375 -3.36611,10.17995c-3.00714,3.30772 -7.1973,4.08507 -7.1973,4.08507c0,0 -6.63683,0.72833 -9.46573,-0.96318c-1.96648,-1.17584 -5.26955,-3.57666 -6.23938,-8.18103c-0.54985,-2.61048 -3.77971,-2.5065 -3.77971,-2.5065c0,0 -4.41597,2.01799 -5.87977,7.79482c-0.97685,3.85514 -4.72772,5.10248 -7.91394,6.30596c-3.53659,1.33582 -6.42001,2.31285 -10.51329,2.08179c-18.55845,-1.0476 -19.68451,-15.98169 -19.68451,-15.98169l8.6376,-39.77314z" data-paper-data="{&quot;index&quot;:null}" fill="#d90000" stroke="#000000" stroke-width="3" stroke-linecap="round"/><path d="M261.31487,198.94103l2.06201,9.57362l5.74417,-0.29457l6.92246,24.74414l-2.06201,10.45734l-6.18603,4.71317h-8.98448l-6.62789,-3.68217l-3.82945,-7.21704l-4.4186,0.29457l-6.33332,10.31006l-7.80618,4.12403l-12.0775,1.76744l-10.45734,-5.15503l-5.4496,-7.80618l2.50387,-14.87594l2.94573,-11.48835l1.32558,-7.36432c0,0 5.83608,2.97468 8.73993,3.96683c2.98535,1.02 8.93445,2.07192 8.93445,2.07192l-1.76744,-12.96122v-3.38759l11.63564,0.88372v15.61238c0,0 5.37016,-2.7559 10.31177,-2.72421c5.66674,0.03634 8.6882,2.8715 8.6882,2.8715l-2.06201,-15.90695l7.95347,-0.44186z" data-paper-data="{&quot;index&quot;:null}" fill="#0024dd" stroke="#000000" stroke-width="1.5" stroke-linecap="round"/><path d="M252.91954,198.0573l7.06975,-0.73643l1.62015,3.68217l-3.53488,0.88372l0.58915,8.10076l-3.53488,0.44186z" data-paper-data="{&quot;index&quot;:null}" fill="#001eb7" stroke="none" stroke-width="0" stroke-linecap="round"/><path d="M230.97385,233.84794l-2.50387,1.32558l-2.35659,-4.27131l-0.29457,-5.15503l0.73643,-4.4186l3.97674,0.58915z" data-paper-data="{&quot;index&quot;:null}" fill="#001eb7" stroke="none" stroke-width="0" stroke-linecap="round"/><path d="M235.39245,201.73947l-6.18603,0.44186l-0.14729,11.04649l-1.32558,3.68217l-7.80618,1.03101l-2.06201,-6.33331l8.54262,1.91472l-1.91473,-16.34881l4.70556,0.0966l6.78279,0.78712z" data-paper-data="{&quot;index&quot;:null}" fill="#001eb7" stroke="none" stroke-width="0" stroke-linecap="round"/><path d="M263.52417,230.60764l-3.24031,-0.44186l-3.53488,-8.83719l5.15503,-1.03101z" data-paper-data="{&quot;index&quot;:null}" fill="#001eb7" stroke="none" stroke-width="0" stroke-linecap="round"/><path d="M230.97385,233.55337l-0.58915,-11.63564l31.96118,-1.76744l1.17829,9.72091" data-paper-data="{&quot;index&quot;:null}" fill="none" stroke="#000000" stroke-width="3" stroke-linecap="round"/><path d="M225.67154,253.14248c0,0 -5.30015,0.95002 -7.59505,0.65986c-1.90233,-0.24053 -5.21888,-2.28001 -5.21888,-2.28001c0,0 -3.90809,-1.67057 -5.57994,-3.13343c-1.43344,-1.25425 -3.8464,-5.11462 -3.8464,-5.11462c0,0 -1.36353,-2.24762 -1.22514,-3.97467c0.18604,-2.32177 0.636,-9.4284 0.636,-9.4284l2.79845,-0.58915l3.82945,-3.53488l0.88372,3.68217l1.03101,6.33332l2.50387,5.30232l6.03874,6.03874l5.15503,2.65116l0.58915,1.76744z" data-paper-data="{&quot;index&quot;:null}" fill="#001eb7" stroke="none" stroke-width="0" stroke-linecap="round"/><path d="M260.50479,213.81697c-0.69143,0 -1.25194,-0.56052 -1.25194,-1.25194c0,-0.69143 0.56052,-1.25194 1.25194,-1.25194c0.69143,0 1.25194,0.56052 1.25194,1.25194c0,0.69143 -0.56052,1.25194 -1.25194,1.25194z" data-paper-data="{&quot;index&quot;:null}" fill="#000000" stroke="#000000" stroke-width="3" stroke-linecap="butt"/><path d="M231.0475,216.61542c-0.69142,0 -1.25194,-0.56051 -1.25194,-1.25194c0,-0.69143 0.56051,-1.25194 1.25194,-1.25194c0.69142,0 1.25193,0.56051 1.25193,1.25194c0,0.69143 -0.56051,1.25194 -1.25193,1.25194z" data-paper-data="{&quot;index&quot;:null}" fill="#000000" stroke="#000000" stroke-width="3" stroke-linecap="butt"/><path d="M261.31487,198.94104l2.06202,9.57363l5.74417,-0.29458l6.92246,24.74414l-2.06201,10.45735l-6.18603,4.71317h-8.98448l-6.62789,-3.68217l-3.82945,-7.21703l-4.4186,0.29457l-6.33332,10.31006l-7.80618,4.12402l-12.0775,1.76744l-10.45734,-5.15503l-5.4496,-7.80618l2.50387,-14.87595l2.94573,-11.48835l1.32558,-7.36432c0,0 5.83607,2.97467 8.73993,3.96682c2.98535,1.02 8.93445,2.07192 8.93445,2.07192l-1.76744,-12.96121v-3.3876l11.63564,0.88372v15.61238c0,0 5.37015,-2.7559 10.31177,-2.72421c5.66674,0.03634 8.6882,2.8715 8.6882,2.8715l-2.06202,-15.90695l7.95347,-0.44186z" data-paper-data="{&quot;index&quot;:null}" fill="none" stroke="#000000" stroke-width="3" stroke-linecap="round"/></g><path d="M239.23466,156.08418l-2.53852,3.0086l-24.25692,-8.93181v-2.25646z" data-paper-data="{&quot;index&quot;:null}" fill="#0a9600" stroke="#000000" stroke-width="0" stroke-linecap="round"/><path d="M266.03009,146.40022l0.37608,3.38468l-13.91482,7.8976l-2.53851,-0.56411l-0.94019,-2.82058z" data-paper-data="{&quot;index&quot;:null}" fill="#0a9600" stroke="none" stroke-width="0" stroke-linecap="round"/><path d="M280.08179,159.94972c0,0 0.25524,3.867 1.73237,8.26123c1.10053,3.27391 3.50491,6.39364 3.63763,10.81742c0.05285,1.76151 -0.81182,3.76561 -1.02731,5.57381c-1.25382,10.52144 -18.00216,11.70581 -18.00216,11.70581c0,0 -17.1491,1.14193 -26.11259,1.10922c-9.36541,-0.03418 -28.927,-1.31009 -28.927,-1.31009c0,0 -9.50692,-4.24012 -13.2821,-7.0265c-7.33512,-5.41388 -5.6001,-13.06095 -5.6001,-13.06095l2.81224,-17.87782c0,0 27.29257,3.51807 43.37217,2.79237c14.92668,-0.67367 41.39684,-0.9845 41.39684,-0.9845z" data-paper-data="{&quot;index&quot;:null}" fill="#fdcc8d" stroke="#000000" stroke-width="3" stroke-linecap="round"/><path d="M281.93498,168.45272l-12.66664,-0.44186l5.59689,-7.80618l4.86046,-0.29457z" data-paper-data="{&quot;index&quot;:null}" fill="#e1b47d" stroke="#000000" stroke-width="0" stroke-linecap="round"/><path d="M248.50094,169.04186l-11.34106,1.62015l2.79845,-9.57362l3.82945,-0.14729z" data-paper-data="{&quot;index&quot;:null}" fill="#e1b47d" stroke="#000000" stroke-width="0" stroke-linecap="round"/><path d="M199.60182,170.51473l-5.74417,0.44186l1.76744,-8.24804z" data-paper-data="{&quot;index&quot;:null}" fill="#e1b47d" stroke="#000000" stroke-width="0" stroke-linecap="round"/><path d="M228.86732,160.49446c-8.58773,-0.28249 -20.97442,-0.62104 -29.72321,-1.49542c-5.90302,-0.58997 -10.05843,-1.86158 -10.05843,-1.86158c0,0 -6.3703,-0.46918 -5.93037,-7.82587c0.2521,-4.21571 5.93037,-9.6502 5.93037,-9.6502c0,0 -4.48088,-3.80132 -4.44186,-12.24608c0.01569,-3.39535 3.63837,-12.46148 3.63837,-12.46148c0,0 16.8751,-9.1391 47.62566,-10.08992c23.25658,-0.71911 41.56259,5.46981 41.56259,5.46981c0,0 5.21759,3.76584 5.31698,13.65754c0.02747,2.73378 -2.40504,6.65716 -3.69632,10.17786c-1.05707,2.88212 -1.01804,5.69315 -1.01804,5.69315c0,0 3.53777,-0.02117 11.67405,2.56879c4.87628,1.55224 1.81904,4.5678 3.75311,6.99283c1.07257,1.34484 -1.93134,5.61042 -5.37847,7.9191c-3.39991,2.27705 -7.23645,2.60672 -7.23645,2.60672c0,0 -36.03618,1.07047 -52.01797,0.54475z" data-paper-data="{&quot;index&quot;:null}" fill="#0cb500" stroke="#000000" stroke-width="3" stroke-linecap="round"/><path d="M289.28945,154.2038l-0.09402,-1.03421l0.56412,-2.35047l-0.75216,-2.16244l-1.69234,-1.69234l-1.88038,-1.59833l-3.10263,-2.16243l-11.28229,-0.28206l-0.37608,-1.41029l11.18827,-0.37608l9.43304,1.88038l1.19111,3.47871l1.27231,4.75742l-3.24671,3.42223z" data-paper-data="{&quot;index&quot;:null}" fill="#0a9c00" stroke="none" stroke-width="0" stroke-linecap="round"/><path d="M274.1288,159.9101c0,0 -1.00922,11.45867 -16.05423,12.37207c-10.7751,0.65416 -13.99223,-11.63564 -13.99223,-11.63564l30.04645,-0.73644z" data-paper-data="{&quot;index&quot;:null}" fill="#ffffff" stroke="#000000" stroke-width="3" stroke-linecap="round"/><path d="M240.69475,161.08839c0,0 -3.24375,17.0456 -23.71313,17.37981c-18.56212,0.30308 -21.50383,-18.99996 -21.50383,-18.99996c0,0 14.85721,0.97948 22.37975,1.24901c7.54969,0.27051 22.83722,0.37114 22.83722,0.37114z" data-paper-data="{&quot;index&quot;:null}" fill="#ffffff" stroke="#000000" stroke-width="3" stroke-linecap="round"/><path d="M266.4699,165.50698c-0.65075,0 -1.1783,-0.52754 -1.1783,-1.17829c0,-0.65075 0.52755,-1.1783 1.1783,-1.1783c0.65075,0 1.17829,0.52755 1.17829,1.1783c0,0.65075 -0.52754,1.17829 -1.17829,1.17829z" data-paper-data="{&quot;index&quot;:null}" fill="#000000" stroke="#000000" stroke-width="2" stroke-linecap="butt"/><path d="M230.3847,169.04186c-0.65075,0 -1.17829,-0.65942 -1.17829,-1.47287c0,-0.81344 0.52754,-1.47286 1.17829,-1.47286c0.65075,0 1.17829,0.65941 1.17829,1.47286c0,0.81345 -0.52754,1.47287 -1.17829,1.47287z" data-paper-data="{&quot;index&quot;:null}" fill="#000000" stroke="#000000" stroke-width="2" stroke-linecap="butt"/><path d="M198.70211,184.34445c0,0 20.24644,-4.5622 36.5389,-1.99641c19.27863,3.03605 25.77416,10.95392 25.77416,10.95392" data-paper-data="{&quot;index&quot;:null}" fill="none" stroke="#000000" stroke-width="3" stroke-linecap="round"/><path d="M280.08179,159.94972c0,0 0.25524,3.867 1.73237,8.26123c1.10053,3.27391 3.50491,6.39364 3.63763,10.81742c0.05285,1.76151 -0.81182,3.76561 -1.02731,5.57381c-1.25382,10.52144 -18.00216,11.70581 -18.00216,11.70581c0,0 -17.1491,1.14193 -26.11259,1.10922c-9.36541,-0.03418 -28.927,-1.31009 -28.927,-1.31009c0,0 -9.50692,-4.24012 -13.2821,-7.0265c-7.33512,-5.41388 -5.6001,-13.06095 -5.6001,-13.06095l2.81224,-17.87782c0,0 27.29257,3.51807 43.37217,2.79237c14.92668,-0.67367 41.39684,-0.9845 41.39684,-0.9845z" data-paper-data="{&quot;index&quot;:null}" fill="none" stroke="#000000" stroke-width="2" stroke-linecap="round"/><path d="M213.15218,142.08843l-1.91473,2.94573h-17.08523l-4.86046,3.68217l1.03101,3.2403l2.94573,4.12403l1.17829,1.62016l-8.98448,-2.20931l-2.50387,-5.00774l2.06201,-6.92247l6.33332,-2.94573l21.20926,-0.29457z" data-paper-data="{&quot;index&quot;:null}" fill="#0a9600" stroke="#000000" stroke-width="0" stroke-linecap="round"/><path d="M211.09018,140.46826h-15.46509l-5.89146,-1.62015l-3.68217,-3.53488l-1.32558,-5.89146l0.73643,-7.95347l3.97674,-7.21704l4.86046,-1.62015l0.29457,1.17829l-3.38759,3.82946l-2.2093,4.27131l1.17829,4.71317l3.24031,4.71317l7.06975,5.00775l8.24804,0.88372l3.53488,1.76744z" data-paper-data="{&quot;index&quot;:null}" fill="#0a9600" stroke="#000000" stroke-width="0" stroke-linecap="round"/><path d="M270.44664,140.46826l11.34106,-0.29457" data-paper-data="{&quot;index&quot;:null}" fill="none" stroke="#000000" stroke-width="2" stroke-linecap="round"/><path d="M212.26846,140.32099l-22.9767,-0.29457" data-paper-data="{&quot;index&quot;:null}" fill="none" stroke="#000000" stroke-width="2" stroke-linecap="round"/><path d="M228.86732,160.34717c-8.58773,-0.28249 -20.97442,-0.62104 -29.72321,-1.49542c-5.90302,-0.58997 -10.05843,-1.86158 -10.05843,-1.86158c0,0 -6.3703,-0.46918 -5.93037,-7.82587c0.2521,-4.21571 5.93037,-9.6502 5.93037,-9.6502c0,0 -4.48088,-3.80132 -4.44186,-12.24608c0.01569,-3.39535 3.63837,-12.46148 3.63837,-12.46148c0,0 16.8751,-9.1391 47.62566,-10.08992c23.25658,-0.71911 41.56259,5.46981 41.56259,5.46981c0,0 5.21759,3.76584 5.31698,13.65754c0.02747,2.73378 -2.40504,6.65716 -3.69632,10.17786c-1.05707,2.88212 -1.01804,5.69315 -1.01804,5.69315c0,0 3.53777,-0.02117 11.67405,2.56879c4.87628,1.55224 1.81904,4.5678 3.75311,6.99283c1.07257,1.34484 -1.93134,5.61042 -5.37847,7.9191c-3.39991,2.27705 -7.23645,2.60672 -7.23645,2.60672c0,0 -36.03618,1.07047 -52.01797,0.54475z" data-paper-data="{&quot;index&quot;:null}" fill="none" stroke="#000000" stroke-width="2" stroke-linecap="round"/><g data-paper-data="{&quot;index&quot;:null}" stroke-linecap="round"><path d="M208.33474,229.25829l3.82945,2.2093c0,0 1.02292,3.29361 -1.90845,4.61386c-3.3236,1.49691 -6.63416,-0.78441 -6.63416,-0.78441c0,0 -3.49767,2.43631 -5.22867,0.95736c-1.5252,-1.30311 -5.81782,-4.63953 -5.81782,-4.63953c0,0 -1.73512,0.17934 -2.97311,-0.50994c-0.83719,-0.46613 -1.12733,-1.80907 -1.72272,-2.03886c-1.31625,-0.50801 -3.73525,-0.70521 -3.73525,-0.70521c-7.47401,-1.71525 -5.11929,-10.59091 -5.11929,-10.59091c0,0 7.16018,-12.64322 23.86042,-9.13176c19.83912,4.17146 9.42634,15.61238 9.42634,15.61238z" fill="#fdcc8d" stroke="#000000" stroke-width="3"/><path d="M179.02473,223.07228l-0.44186,-2.94573l3.53488,-6.18603l5.89146,-3.53488l9.27905,-2.50387l12.66664,2.06201l-0.14729,2.2093l-3.24031,-0.14729h-5.30232h-5.74417l-3.53488,0.73644l-3.38759,1.32558l-3.68217,2.50387l-2.06201,2.35659l-0.58915,4.86046z" fill="#e5b780" stroke="none" stroke-width="0"/><path d="M203.76886,219.24283v1.91473l-5.30232,6.62789l1.62015,8.39533l-4.56589,-2.79845c0,0 -1.95779,-2.35075 -1.98099,-3.69625c-0.02565,-1.48772 1.83371,-4.99365 1.83371,-4.99365l4.56589,-5.4496z" fill="#e5b780" stroke="none" stroke-width="0"/><path d="M211.28047,222.04128l-3.82945,4.56588l-0.88372,3.09302l0.73643,6.18603l-3.38759,-0.58915c0,0 -0.53318,-2.67941 -0.67753,-3.85477c-0.18777,-1.52899 0.23566,-5.57157 0.23566,-5.57157l3.97674,-4.4186z" fill="#e5b780" stroke="none" stroke-width="0"/><path d="M187.56733,229.11104c0,0 1.60246,-1.02204 2.60397,-2.4814c0.56264,-0.81984 -1.16352,-2.14002 -0.14614,-3.78949c0.5416,-0.87811 -1.7434,-5.28441 0.54636,-6.56807c3.72831,-2.09013 6.71673,-2.18427 6.71673,-2.18427" fill="none" stroke="#000000" stroke-width="3"/><path d="M193.31152,231.46763c0,0 0.72845,-6.5726 3.58096,-9.21101c3.31351,-3.0648 6.43452,-4.04477 6.43452,-4.04477" fill="none" stroke="#000000" stroke-width="3"/><path d="M203.62158,234.41336c0,0 -2.43779,-5.55212 0.26535,-8.77688c3.44943,-4.11506 6.65711,-4.77349 6.65711,-4.77349" fill="none" stroke="#000000" stroke-width="3"/><path d="M208.33474,229.25829l3.82945,2.2093c0,0 1.02292,3.29361 -1.90845,4.61386c-3.3236,1.49691 -6.63416,-0.78441 -6.63416,-0.78441c0,0 -3.49767,2.43631 -5.22867,0.95736c-1.5252,-1.30311 -5.81782,-4.63953 -5.81782,-4.63953c0,0 -1.73512,0.17934 -2.97311,-0.50994c-0.83719,-0.46613 -1.12733,-1.80907 -1.72272,-2.03886c-1.31625,-0.50801 -3.73525,-0.70521 -3.73525,-0.70521c-7.47401,-1.71525 -5.11929,-10.59091 -5.11929,-10.59091c0,0 7.16018,-12.64322 23.86042,-9.13176c19.83912,4.17146 9.42634,15.61238 9.42634,15.61238z" fill="none" stroke="#000000" stroke-width="2"/></g><g data-paper-data="{&quot;index&quot;:null}" stroke-linecap="round"><path d="M332.65033,197.50095c0,0 7.123,13.73256 -13.12183,12.6657c-17.04176,-0.89807 -20.71245,-14.9567 -20.71245,-14.9567c0,0 0.00522,-9.1827 7.66901,-8.91969c0,0 2.38843,0.43107 3.79103,0.27836c0.63446,-0.06907 1.25995,-1.29236 2.18881,-1.52769c1.37354,-0.34799 3.00431,0.27121 3.00431,0.27121c0,0 5.00583,-2.12125 6.8147,-2.98866c2.05293,-0.98445 4.80706,2.26887 4.80706,2.26887c0,0 3.78563,-1.35396 6.61294,0.94677c2.49366,2.02921 0.65869,4.94934 0.65869,4.94934l-4.26858,1.15102z" fill="#fdcc8d" stroke="#000000" stroke-width="3"/><path d="M303.49938,190.20668l-0.67967,4.84863l1.38717,2.80734l2.91508,3.36602l2.93317,2.15161l3.22692,1.62009l5.55127,1.47613l5.12425,1.36258l3.16935,0.69034l-0.4254,2.17296l-12.77115,-1.26229l-8.32399,-4.8043l-4.78522,-4.93015l-1.82649,-6.88667l1.18401,-2.73326z" fill="#e5b780" stroke="none" stroke-width="0"/><path d="M319.40688,199.16118l-3.01213,-6.43993c0,0 -0.89595,-3.866 -0.48886,-5.29717c0.36818,-1.29435 2.86432,-3.06305 2.86432,-3.06305l5.1317,-1.53114l-3.72316,7.69705l3.42102,7.76789l-0.49205,1.85043z" fill="#e5b780" stroke="none" stroke-width="0"/><path d="M327.23395,198.9564l-2.7077,-5.29215c0,0 0.62964,-4.01562 1.20403,-5.44502c0.44155,-1.09879 1.64537,-3.55121 1.64537,-3.55121l3.42523,0.30118l-2.30138,5.78904l0.0592,3.21625l2.52751,5.39663z" fill="#e5b780" stroke="none" stroke-width="0"/><path d="M315.52002,203.46178c0,0 -2.86387,-0.85894 -5.92985,-3.83697c-1.88299,-1.82897 1.45761,-5.5001 1.15984,-6.4879c-0.55933,-1.85552 1.44812,-2.68779 1.11505,-3.62467c-0.59285,-1.66771 -1.87886,-3.06723 -1.87886,-3.06723" fill="none" stroke="#000000" stroke-width="3"/><path d="M322.41575,201.02808c0,0 -2.76436,-1.74909 -5.17901,-5.56247c-2.0787,-3.28284 -1.09366,-9.82191 -1.09366,-9.82191" fill="none" stroke="#000000" stroke-width="3"/><path d="M330.07172,200.32059c0,0 -2.93076,-1.46062 -5.20686,-6.32391c-1.78368,-3.81112 1.99904,-8.55031 1.99904,-8.55031" fill="none" stroke="#000000" stroke-width="3"/><path d="M332.65033,197.50095c0,0 7.123,13.73256 -13.12183,12.6657c-17.04176,-0.89807 -20.71245,-14.9567 -20.71245,-14.9567c0,0 0.00522,-9.1827 7.66901,-8.91969c0,0 2.38843,0.43107 3.79103,0.27836c0.63446,-0.06907 1.25995,-1.29236 2.18881,-1.52769c1.37354,-0.34799 3.00431,0.27121 3.00431,0.27121c0,0 5.00583,-2.12125 6.8147,-2.98866c2.05293,-0.98445 4.80706,2.26887 4.80706,2.26887c0,0 3.78563,-1.35396 6.61294,0.94677c2.49366,2.02921 0.65869,4.94934 0.65869,4.94934l-4.26858,1.15102z" fill="none" stroke="#000000" stroke-width="2"/></g></g></g></svg>