<svg version="1.1" xmlns="http://www.w3.org/2000/svg" xmlns:xlink="http://www.w3.org/1999/xlink" width="17.21037" height="17.00284" viewBox="0,0,17.21037,17.00284"><g transform="translate(-231.50021,-171.50064)"><g data-paper-data="{&quot;isPaintingLayer&quot;:true}" fill="#ffffff" fill-rule="nonzero" stroke="#000000" stroke-width="1" stroke-linecap="butt" stroke-linejoin="miter" stroke-miterlimit="10" stroke-dasharray="" stroke-dashoffset="0" style="mix-blend-mode: normal"><path d="M236.54211,184.87736c0,0.79832 -0.64542,1.44573 -1.43015,1.44573c-0.79562,0 -1.44105,-0.64741 -1.44105,-1.44573c0,-0.79066 0.64542,-1.43698 1.44105,-1.43698c0.78474,0 1.43015,0.64632 1.43015,1.43698zM238.63401,183.58364c0.19591,-0.19575 0.19591,-0.51508 0,-0.71302l-1.52484,-1.53213c-0.197,-0.19794 -0.51481,-0.19794 -0.71072,0l-0.52134,0.52274c-0.24162,-0.06999 -0.50284,-0.1017 -0.76514,-0.1017c-1.72185,0 -3.11174,1.3976 -3.11174,3.12767c0,1.95425 1.79477,3.49075 3.83226,3.03581c1.53682,-0.34339 2.51529,-1.76615 2.36727,-3.34092c-0.01524,-0.16076 -0.04353,-0.31823 -0.08707,-0.47462zM236.54211,175.11618c0,0.79942 -0.64542,1.44682 -1.43015,1.44682c-0.79562,0 -1.44105,-0.6474 -1.44105,-1.44682c0,-0.78958 0.64542,-1.43588 1.44105,-1.43588c0.78474,0 1.43015,0.64631 1.43015,1.43588M248.0022,186.17064l-0.0653,0.06453c-1.01003,1.01486 -2.64917,1.01486 -3.66029,0l-6.39762,-6.42813c-0.16979,-0.17169 -0.16979,-0.44837 0,-0.61898l1.27887,-1.28606c0.16979,-0.1706 0.44515,-0.1706 0.61495,0zM248.0022,173.82935l-5.59764,5.62435l-1.89381,-1.90504l3.76586,-3.78383c1.01112,-1.01486 2.65026,-1.01486 3.66029,0zM238.63401,176.41865c0.19591,0.19684 0.19591,0.51727 0,0.71411l-1.52484,1.53212c-0.197,0.19794 -0.51481,0.19794 -0.71072,0l-0.52134,-0.52274c-0.24162,0.06999 -0.50284,0.10061 -0.76514,0.10061c-1.72185,0 -3.11174,-1.39651 -3.11174,-3.12658c0,-1.95425 1.79477,-3.49075 3.83226,-3.03472c1.53682,0.3423 2.51529,1.76506 2.36727,3.33983c-0.01524,0.16185 -0.04353,0.31714 -0.08707,0.47462zM240.39298,180.04478c0,0.22966 -0.18503,0.41666 -0.41468,0.41666c-0.22857,0 -0.41468,-0.187 -0.41468,-0.41666c0,-0.23075 0.18612,-0.41666 0.41468,-0.41666c0.22965,0 0.41468,0.18591 0.41468,0.41666z"/></g></g></svg>