<svg version="1.1" xmlns="http://www.w3.org/2000/svg" xmlns:xlink="http://www.w3.org/1999/xlink" width="127.87239" height="166.50963" viewBox="0,0,127.87239,166.50963"><g transform="translate(-147.92048,-88.47579)"><g data-paper-data="{&quot;isPaintingLayer&quot;:true}" fill-rule="nonzero" stroke-linejoin="miter" stroke-miterlimit="10" stroke-dasharray="" stroke-dashoffset="0" style="mix-blend-mode: normal"><g data-paper-data="{&quot;index&quot;:null}"><path d="M182.63267,184.61705c0,0 23.9167,1.30311 34.77978,1.59111c10.71424,0.28407 29.32044,-1.34699 29.32044,-1.34699c0,0 7.78473,32.0081 9.90761,44.66997c0.53328,3.18071 -1.08675,9.15558 -3.80903,12.37144c-3.40282,4.0198 -8.14433,4.96449 -8.14433,4.96449c0,0 -7.51011,0.88511 -10.71124,-1.17054c-2.22523,-1.42898 -5.96292,-4.34663 -7.06036,-9.9422c-0.6222,-3.17246 -4.27705,-3.0461 -4.27705,-3.0461c0,0 -4.99703,2.45242 -6.65344,9.47285c-1.10539,4.68506 -5.3498,6.2009 -8.95526,7.66346c-4.00194,1.62339 -7.26476,2.81075 -11.89664,2.52995c-21.00039,-1.27313 -22.27462,-19.42216 -22.27462,-19.42216l9.77414,-48.33532z" fill="#d90000" stroke="#000000" stroke-width="3" stroke-linecap="round"/><path d="M240.04416,186.84037l2.33333,11.6346l6.5,-0.35798l7.83333,30.07093l-2.33333,12.70855l-7,5.7278h-10.16667l-7.5,-4.47484l-4.33333,-8.77068l-5,0.35798l-7.16667,12.52957l-8.83333,5.01182l-13.66667,2.14793l-11.83333,-6.26477l-6.16667,-9.48666l2.83333,-18.07835l3.33333,-13.96151l1.5,-8.94968c0,0 6.604,3.61505 9.88994,4.82079c3.37817,1.23957 10.11006,2.51795 10.11006,2.51795l-2,-15.75144v-4.11685l13.16667,1.07397v18.97333c0,0 6.07677,-3.34918 11.6686,-3.31068c6.41238,0.04417 9.8314,3.48967 9.8314,3.48967l-2.33333,-19.33132l9,-0.53698z" fill="#0024dd" stroke="#000000" stroke-width="1.5" stroke-linecap="round"/><path d="M230.54416,185.76644l8,-0.89495l1.83333,4.47484l-4,1.07396l0.66667,9.84465l-4,0.53698z" fill="#001eb7" stroke="none" stroke-width="0" stroke-linecap="round"/><path d="M205.71085,229.26191l-2.83333,1.61095l-2.66667,-5.19082l-0.33333,-6.26477l0.83333,-5.36982l4.5,0.71598z" fill="#001eb7" stroke="none" stroke-width="0" stroke-linecap="round"/><path d="M210.71083,190.24128l-7,0.53698l-0.16667,13.42454l-1.5,4.47484l-8.83333,1.25296l-2.33333,-7.69672l9.66667,2.32689l-2.16667,-19.86829l5.32472,0.1174l7.67528,0.95658z" fill="#001eb7" stroke="none" stroke-width="0" stroke-linecap="round"/><path d="M242.54416,225.32405l-3.66667,-0.53698l-4,-10.73962l5.83333,-1.25295z" fill="#001eb7" stroke="none" stroke-width="0" stroke-linecap="round"/><path d="M205.71083,228.90392l-0.66667,-14.14049l36.16667,-2.14793l1.33333,11.8136" fill="none" stroke="#000000" stroke-width="3" stroke-linecap="round"/><path d="M199.71086,252.71009c0,0 -5.99755,1.15454 -8.59441,0.80191c-2.15264,-0.29232 -5.90559,-2.77085 -5.90559,-2.77085c0,0 -4.42232,-2.03021 -6.31416,-3.80798c-1.62205,-1.52427 -4.35251,-6.21566 -4.35251,-6.21566c0,0 -1.54295,-2.73147 -1.38635,-4.83031c0.21052,-2.82157 0.71968,-11.45809 0.71968,-11.45809l3.16667,-0.71598l4.33333,-4.29584l1,4.47484l1.16667,7.69673l2.83333,6.44378l6.83333,7.33874l5.83333,3.22189l0.66667,2.14792z" fill="#001eb7" stroke="none" stroke-width="0" stroke-linecap="round"/><path d="M239.12749,204.91878c-0.78241,0 -1.41667,-0.68117 -1.41667,-1.52144c0,-0.84027 0.63427,-1.52144 1.41667,-1.52144c0.78241,0 1.41667,0.68117 1.41667,1.52144c0,0.84027 -0.63427,1.52144 -1.41667,1.52144z" fill="#000000" stroke="#000000" stroke-width="3" stroke-linecap="butt"/><path d="M205.79419,208.31967c-0.7824,0 -1.41667,-0.68117 -1.41667,-1.52145c0,-0.84027 0.63426,-1.52144 1.41667,-1.52144c0.7824,0 1.41666,0.68116 1.41666,1.52144c0,0.84029 -0.63426,1.52145 -1.41666,1.52145z" fill="#000000" stroke="#000000" stroke-width="3" stroke-linecap="butt"/><path d="M240.04416,186.84037l2.33334,11.6346l6.5,-0.35799l7.83333,30.07095l-2.33333,12.70855l-7,5.7278h-10.16667l-7.5,-4.47485l-4.33333,-8.77066l-5,0.35798l-7.16667,12.52957l-8.83333,5.01182l-13.66667,2.14793l-11.83333,-6.26477l-6.16667,-9.48666l2.83333,-18.07837l3.33333,-13.96151l1.5,-8.94968c0,0 6.60399,3.61504 9.88994,4.82078c3.37817,1.23957 10.11006,2.51795 10.11006,2.51795l-2,-15.75143v-4.11686l13.16667,1.07397v18.97333c0,0 6.07676,-3.34918 11.6686,-3.31068c6.41238,0.04417 9.8314,3.48967 9.8314,3.48967l-2.33334,-19.33132l9,-0.53698z" fill="none" stroke="#000000" stroke-width="3" stroke-linecap="round"/></g><g><g stroke-linecap="round"><path d="M241.1184,135.15762l0.14146,2.51483l-26.84658,11.45456l-3.05674,-3.19612z" fill="#0a9600" stroke="#000000" stroke-width="0"/><path d="M200.19696,144.54463l-0.88544,3.20169l-2.83275,0.78569l-16.21667,-7.94144l0.21272,-3.79549z" fill="#0a9600" stroke="none" stroke-width="0"/><path d="M212.28167,151.30227c18.21292,-0.18555 48.8287,-5.79419 48.8287,-5.79419l4.29815,19.751c0,0 2.43969,8.41539 -5.50845,14.90278c-4.09068,3.33887 -14.5662,8.6524 -14.5662,8.6524c0,0 -22.02155,2.63167 -32.60085,3.24892c-10.12529,0.59074 -29.57268,0.37854 -29.57268,0.37854c0,0 -18.99724,-0.28429 -21.07345,-11.93293c-0.35682,-2.00193 -1.4594,-4.18203 -1.51012,-6.14851c-0.12738,-4.93853 2.39362,-8.56417 3.4318,-12.28101c1.39345,-4.98872 1.43941,-9.3143 1.43941,-9.3143c0,0 29.92662,-1.29046 46.83367,-1.46271z" fill="#fdcc8d" stroke="#000000" stroke-width="3"/><path d="M165.84787,152.69879l5.51002,0.02774l6.81297,8.35393l-14.28362,1.27574z" fill="#e1b47d" stroke="#000000" stroke-width="0"/><path d="M165.81544,153.60616l94.87729,-6.26311l3.55391,11.24914l-100.00349,4.15615z" fill="#e1b47d" stroke="#000000" stroke-width="0"/><path d="M261.04381,150.61699l2.514,9.08318l-6.51772,-0.13724z" fill="#e1b47d" stroke="#000000" stroke-width="0"/><path d="M164.54018,152.81466c0,0 -4.35536,-0.13016 -8.33947,-2.4577c-4.03944,-2.35987 -7.7008,-6.92812 -6.57327,-8.49328c2.03317,-2.8223 -1.61008,-5.99412 3.80205,-8.02563c9.03036,-3.38966 13.02881,-3.58483 13.02881,-3.58483c0,0 -0.13212,-3.13532 -1.50712,-6.28208c-1.67966,-3.84397 -4.67397,-8.06619 -4.81432,-11.11469c-0.50782,-11.0305 5.15116,-15.55019 5.15116,-15.55019c0,0 20.29494,-8.0296 46.61632,-8.6663c34.80292,-0.84189 54.44207,8.30014 54.44207,8.30014c0,0 4.66142,9.88022 4.892,13.66338c0.57348,9.40931 -4.2509,13.92299 -4.2509,13.92299c0,0 6.75625,5.70561 7.30536,10.38845c0.95824,8.17187 -6.20979,9.08869 -6.20979,9.08869c0,0 -4.61524,1.67417 -11.24775,2.69674c-9.82995,1.51551 -23.80375,2.6588 -33.48883,3.5047c-18.02397,1.57421 -58.80631,2.6096 -58.80631,2.6096z" fill="#0cb500" stroke="#000000" stroke-width="3"/><path d="M153.33312,147.53001l-3.88282,-3.61332l1.13927,-5.38084l1.12769,-3.95069l10.53998,-2.67901l12.66457,-0.27274l-0.3365,1.59504l-12.72954,1.01204l-3.36993,2.60191l-2.02433,1.89762l-1.80599,1.99077l-0.71426,2.45656l0.78472,2.58473l-0.04139,1.15845z" fill="#0a9c00" stroke="none" stroke-width="0"/><path d="M212.28167,151.30227c18.21292,-0.18555 48.8287,-5.79419 48.8287,-5.79419l4.29815,19.751c0,0 2.43969,8.41539 -5.50845,14.90278c-4.09068,3.33887 -14.5662,8.6524 -14.5662,8.6524c0,0 -22.02155,2.63167 -32.60085,3.24892c-10.12529,0.59074 -29.57268,0.37854 -29.57268,0.37854c0,0 -18.99724,-0.28429 -21.07345,-11.93293c-0.35682,-2.00193 -1.4594,-4.18203 -1.51012,-6.14851c-0.12738,-4.93853 2.39362,-8.56417 3.4318,-12.28101c1.39345,-4.98872 1.43941,-9.3143 1.43941,-9.3143c0,0 29.92662,-1.29046 46.83367,-1.46271z" fill="none" stroke="#000000" stroke-width="2"/><path d="M240.50309,126.7134l23.98161,-0.98326l7.34033,2.89138l2.76372,7.58761l-2.51504,5.73597l-10.01255,3.01787l1.22971,-1.87853l3.06968,-4.7784l0.96174,-3.67508l-5.72239,-3.80323l-19.30364,1.05653l-2.34801,-3.16463z" fill="#0a9600" stroke="#000000" stroke-width="0"/><path d="M240.75282,125.21779l3.88306,-2.18841l9.2636,-1.49496l7.67378,-6.01834l3.36557,-5.45322l1.03581,-5.32571l-2.76393,-4.62377l-4.06751,-4.05847l0.25895,-1.33143l5.59312,1.5051l4.94552,7.79751l1.33065,8.81864l-1.12836,6.64803l-3.93867,4.16733l-6.55486,2.16998l-17.47312,0.95634z" fill="#0a9600" stroke="#000000" stroke-width="0"/><path d="M162.28084,130.83l12.83209,-0.37301" fill="none" stroke="#000000" stroke-width="2"/><path d="M240.83593,126.69518l25.9416,-1.74915" fill="none" stroke="#000000" stroke-width="2"/><path d="M164.53094,152.65049c0,0 -4.35536,-0.13016 -8.33947,-2.4577c-4.03944,-2.35987 -7.7008,-6.92812 -6.57327,-8.49328c2.03317,-2.8223 -1.61008,-5.99412 3.80205,-8.02563c9.03036,-3.38966 13.02881,-3.58483 13.02881,-3.58483c0,0 -0.13212,-3.13532 -1.50712,-6.28208c-1.67966,-3.84397 -4.67397,-8.06619 -4.81432,-11.11469c-0.50782,-11.0305 5.15116,-15.55019 5.15116,-15.55019c0,0 20.29494,-8.0296 46.61632,-8.6663c34.80292,-0.84189 54.44207,8.30014 54.44207,8.30014c0,0 4.66142,9.88022 4.892,13.66338c0.57348,9.40931 -4.2509,13.92299 -4.2509,13.92299c0,0 6.75625,5.70561 7.30536,10.38845c0.95824,8.17187 -6.20979,9.08869 -6.20979,9.08869c0,0 -4.61524,1.67417 -11.24775,2.69674c-9.82995,1.51551 -23.80375,2.6588 -33.48883,3.5047c-18.02397,1.57421 -58.80631,2.6096 -58.80631,2.6096z" fill="none" stroke="#000000" stroke-width="2"/></g><path d="M207.10504,137.82452l-2.25,3.94569l-20.86727,5.34597" fill="none" stroke="#000000" stroke-width="3" stroke-linecap="round"/><path d="M215.73004,166.68097c0,6.80983 -5.37258,12.3303 -12,12.3303c-6.62742,0 -12,-5.52046 -12,-12.3303c0,-6.80983 5.37258,-12.3303 12,-12.3303c6.62742,0 12,5.52046 12,12.3303z" fill="#ffffff" stroke="#000000" stroke-width="3" stroke-linecap="butt"/><path d="M251.06336,161.42005c0,6.80983 -5.37258,12.3303 -12,12.3303c-6.62741,0 -12,-5.52046 -12,-12.3303c0,-6.80983 5.37259,-12.3303 12,-12.3303c6.62742,0 12,5.52046 12,12.3303z" fill="#ffffff" stroke="#000000" stroke-width="3" stroke-linecap="butt"/><path d="M164.57507,180.71448c0,0 7.01517,-3.69017 13.40407,-3.25842c6.38889,0.43176 10.00163,4.84017 10.00163,4.84017c0,0 8.0437,-1.45209 12.65069,0.84193c4.60699,2.29402 1.42612,6.16751 1.42612,6.16751z" fill="#ffffff" stroke="#000000" stroke-width="3" stroke-linecap="round"/><path d="M237.45805,159.44395c0.70477,-0.71104 1.70108,-0.21965 1.70108,-0.21965l1.44473,1.08106c0.81762,2.02563 0.6485,7.45185 -3.62479,4.89006c-1.55538,-0.93243 -0.91444,-3.24833 -0.72035,-4.52104c0,0 0.18541,-1.09736 1.19933,-1.23043z" fill="#000000" stroke="none" stroke-width="0.5" stroke-linecap="butt"/><path d="M206.61959,166.89404c0,1.63436 -1.11929,2.95927 -2.5,2.95927c-1.38071,0 -2.5,-1.32491 -2.5,-2.95927c0,-1.63436 1.11929,-2.95927 2.5,-2.95927c1.38071,0 2.5,1.32491 2.5,2.95927z" fill="#000000" stroke="none" stroke-width="0" stroke-linecap="butt"/><path d="M254.29254,166.24941c1.5,0 1.5,1.47963 1.5,1.47963l-0.15836,2.01804c-1.95281,3.75131 -5.67633,5.73465 -9.08438,8.1797c0,0 -1.2131,0.87029 -2.09536,-0.32636c-0.88226,-1.19663 0.33085,-2.06691 0.33085,-2.06691c2.8821,-2.06751 6.58888,-3.88834 8.16562,-7.10986l-0.15836,-0.69462c0,0 0,-1.47963 1.5,-1.47963z" fill="#000000" stroke="none" stroke-width="0.5" stroke-linecap="butt"/></g><g stroke-linecap="round"><path d="M179.22957,215.77226l-4.82247,-1.37252c0,0 -2.05685,-3.42011 0.77843,-5.77079c3.21465,-2.66521 7.48928,-1.05921 7.48928,-1.05921c0,0 3.13821,-3.77727 5.45464,-2.61439c2.04104,1.02463 7.69127,3.53439 7.69127,3.53439c0,0 1.84945,-0.71131 3.40137,-0.29576c1.04949,0.28101 1.7491,1.71275 2.46657,1.79772c1.5861,0.18786 4.29165,-0.29868 4.29165,-0.29868c8.67381,-0.25409 8.61834,10.46113 8.61834,10.46113c0,0 -4.24755,16.37956 -23.53735,17.31007c-22.91541,1.10539 -14.76351,-14.86988 -14.76351,-14.86988z" fill="#fdcc8d" stroke="#000000" stroke-width="3"/><path d="M213.09104,214.16534l1.32152,3.19755l-2.11281,8.02339l-5.44772,5.71995l-9.45122,5.54871l-14.45977,1.38495l-0.46684,-2.53853l3.59091,-0.78372l5.80751,-1.55467l6.29147,-1.68422l3.66228,-1.86823l3.33345,-2.49047l3.32108,-3.90767l1.58843,-3.26629l-0.73668,-5.66249z" fill="#e5b780" stroke="none" stroke-width="0"/><path d="M196.24536,229.3289l-1.19589,-2.69849l2.68198,-3.02632l-0.71811,-3.53666l-1.15401,-2.53214l0.29641,-7.71472l3.47766,0.13443l2.73445,12.23035c0,0 -0.55347,3.35743 -1.57823,4.43341c-1.01809,1.06896 -4.54426,2.71015 -4.54426,2.71015z" fill="#e5b780" stroke="none" stroke-width="0"/><path d="M187.07817,225.74571l-0.54441,-2.16263l3.923,-9.04069l-4.16154,-9.00726l5.79659,1.82203c0,0 2.81272,2.08107 3.22069,3.59397c0.4511,1.67282 -0.58858,6.17784 -0.58858,6.17784l-3.45144,7.49391z" fill="#e5b780" stroke="none" stroke-width="0"/><path d="M178.0552,224.78738l2.8961,-6.27985l0.08848,-3.75258l-2.56546,-6.77102l3.87786,-0.32783c0,0 1.34582,2.86999 1.83811,4.1552c0.6404,1.6719 1.32604,6.36202 1.32604,6.36202l-3.0993,6.15668z" fill="#e5b780" stroke="none" stroke-width="0"/><path d="M202.01753,209.84947c0,0 -1.46454,1.62421 -2.14654,3.56616c-0.38314,1.09095 1.88285,2.07594 1.23753,4.23728c-0.34354,1.1506 3.41201,5.45742 1.26908,7.57865c-3.48926,3.45389 -6.73564,4.43646 -6.73564,4.43646" fill="none" stroke="#000000" stroke-width="3"/><path d="M195.056,208.872c0,0 1.07093,7.63715 -1.30319,11.45353c-2.7578,4.43314 -5.89754,6.45509 -5.89754,6.45509" fill="none" stroke="#000000" stroke-width="3"/><path d="M182.92607,208.56785c0,0 4.24868,5.55618 2.20489,9.99104c-2.60806,5.65923 -5.93414,7.34341 -5.93414,7.34341" fill="none" stroke="#000000" stroke-width="3"/><path d="M179.22957,215.77226l-4.82247,-1.37252c0,0 -2.05685,-3.42011 0.77843,-5.77079c3.21465,-2.66521 7.48928,-1.05921 7.48928,-1.05921c0,0 3.13821,-3.77727 5.45464,-2.61439c2.04104,1.02463 7.69127,3.53439 7.69127,3.53439c0,0 1.84945,-0.71131 3.40137,-0.29576c1.04949,0.28101 1.7491,1.71275 2.46657,1.79772c1.5861,0.18786 4.29165,-0.29868 4.29165,-0.29868c8.67381,-0.25409 8.61834,10.46113 8.61834,10.46113c0,0 -4.24755,16.37956 -23.53735,17.31007c-22.91541,1.10539 -14.76351,-14.86988 -14.76351,-14.86988z" fill="none" stroke="#000000" stroke-width="2"/></g><g data-paper-data="{&quot;index&quot;:null}" stroke-linecap="round"><path d="M269.65801,205.86893c0,0 8.15189,15.49164 -14.76351,14.41971c-19.2898,-0.90233 -23.53736,-16.78602 -23.53736,-16.78602c0,0 -0.05547,-10.39082 8.61835,-10.14443c0,0 2.70556,0.47181 4.29165,0.28964c0.71746,-0.08239 1.41707,-1.4708 2.46656,-1.7433c1.55192,-0.40297 3.40137,0.2868 3.40137,0.2868c0,0 5.65023,-2.43377 7.69127,-3.42739c2.31644,-1.12768 5.45465,2.53525 5.45465,2.53525c0,0 4.27463,-1.55738 7.48928,1.02714c2.83528,2.27952 0.77843,5.59608 0.77843,5.59608l-4.82247,1.33097z" fill="#fdcc8d" stroke="#000000" stroke-width="3"/><path d="M236.62316,197.80981l-0.73668,5.49106l1.58843,3.16741l3.32107,3.78937l3.33345,2.41507l3.66228,1.81168l6.29147,1.63323l5.80751,1.5076l3.59091,0.75999l-0.46685,2.46168l-14.45977,-1.34302l-9.45122,-5.38073l-5.44772,-5.54678l-2.1128,-7.78049l1.32152,-3.10075z" fill="#e5b780" stroke="none" stroke-width="0"/><path d="M249.71045,212.39961c0,0 -3.52617,-1.5915 -4.54426,-2.6281c-1.02476,-1.0434 -1.57824,-4.29919 -1.57824,-4.29919l2.73445,-11.86009l3.47766,-0.13036l0.29641,7.48117l-1.15401,2.45548l-0.71811,3.42959l2.68198,2.93471l-1.1959,2.6168z" fill="#e5b780" stroke="none" stroke-width="0"/><path d="M254.68331,207.83608l-3.45144,-7.26704c0,0 -1.03968,-4.36863 -0.58858,-5.9908c0.40797,-1.46711 3.22069,-3.48517 3.22069,-3.48517l5.79659,-1.76687l-4.16154,8.73457l3.923,8.76699l-0.5444,2.09716z" fill="#e5b780" stroke="none" stroke-width="0"/><path d="M263.53877,207.55205l-3.0993,-5.97029c0,0 0.68564,-4.54814 1.32604,-6.16942c0.49229,-1.24631 1.83811,-4.02941 1.83811,-4.02941l3.87787,0.31791l-2.56546,6.56603l0.08848,3.63898l2.89609,6.08973z" fill="#e5b780" stroke="none" stroke-width="0"/><path d="M250.31383,212.72845c0,0 -3.24638,-0.95281 -6.73564,-4.30214c-2.14294,-2.05701 1.61262,-6.23344 1.26908,-7.34921c-0.64532,-2.0959 1.62068,-3.05107 1.23753,-4.109c-0.68199,-1.88317 -2.14653,-3.4582 -2.14653,-3.4582" fill="none" stroke="#000000" stroke-width="3"/><path d="M258.10053,209.92848c0,0 -3.13973,-1.96075 -5.89753,-6.25968c-2.37412,-3.70084 -1.30319,-11.10679 -1.30319,-11.10679" fill="none" stroke="#000000" stroke-width="3"/><path d="M266.75897,209.07674c0,0 -3.32608,-1.6332 -5.93414,-7.1211c-2.0438,-4.30059 2.20489,-9.68857 2.20489,-9.68857" fill="none" stroke="#000000" stroke-width="3"/><path d="M269.65801,205.86893c0,0 8.15189,15.49164 -14.76351,14.41971c-19.2898,-0.90233 -23.53736,-16.78602 -23.53736,-16.78602c0,0 -0.05547,-10.39082 8.61835,-10.14443c0,0 2.70556,0.47181 4.29165,0.28964c0.71746,-0.08239 1.41707,-1.4708 2.46656,-1.7433c1.55192,-0.40297 3.40137,0.2868 3.40137,0.2868c0,0 5.65023,-2.43377 7.69127,-3.42739c2.31644,-1.12768 5.45465,2.53525 5.45465,2.53525c0,0 4.27463,-1.55738 7.48928,1.02714c2.83528,2.27952 0.77843,5.59608 0.77843,5.59608l-4.82247,1.33097z" fill="none" stroke="#000000" stroke-width="2"/></g></g></g></svg>