<svg version="1.1" xmlns="http://www.w3.org/2000/svg" xmlns:xlink="http://www.w3.org/1999/xlink" width="153.85718" height="154.56515" viewBox="0,0,153.85718,154.56515"><g transform="translate(-182.15597,-101.71743)"><g data-paper-data="{&quot;isPaintingLayer&quot;:true}" fill-rule="nonzero" stroke-linejoin="miter" stroke-miterlimit="10" stroke-dasharray="" stroke-dashoffset="0" style="mix-blend-mode: normal"><path d="M210.10168,194.13889c0,0 21.13565,1.14735 30.73556,1.40094c9.46838,0.25011 25.91104,-1.18599 25.91104,-1.18599c0,0 6.87952,28.18238 8.75555,39.33086c0.47127,2.80053 -0.96038,8.06127 -3.36611,10.89276c-3.00714,3.53933 -7.1973,4.37111 -7.1973,4.37111c0,0 -6.63683,0.77933 -9.46573,-1.03062c-1.96648,-1.25817 -5.26955,-3.8271 -6.23938,-8.75387c-0.54985,-2.79327 -3.77971,-2.68201 -3.77971,-2.68201c0,0 -4.41597,2.15929 -5.87977,8.34062c-0.97685,4.12508 -4.72772,5.45976 -7.91394,6.74751c-3.53659,1.42936 -6.42001,2.4748 -10.51329,2.22756c-18.55845,-1.12095 -19.68451,-17.10074 -19.68451,-17.10074l8.6376,-42.5581z" data-paper-data="{&quot;index&quot;:null}" fill="#d90000" stroke="#000000" stroke-width="3" stroke-linecap="round"/><path d="M260.83731,196.09654l2.06201,10.24397l5.74417,-0.3152l6.92246,26.47675l-2.06201,11.18957l-6.18603,5.04319h-8.98448l-6.62789,-3.94l-3.82945,-7.72238l-4.4186,0.3152l-6.33332,11.03198l-7.80618,4.4128l-12.0775,1.8912l-10.45734,-5.51599l-5.4496,-8.35278l2.50387,-15.91757l2.94573,-12.29278l1.32558,-7.87998c0,0 5.83608,3.18297 8.73993,4.24459c2.98535,1.09142 8.93445,2.217 8.93445,2.217l-1.76744,-13.86878v-3.62479l11.63564,0.9456v16.70557c0,0 5.37016,-2.94887 10.31177,-2.91496c5.66674,0.03888 8.6882,3.07257 8.6882,3.07257l-2.06201,-17.02077l7.95347,-0.4728z" data-paper-data="{&quot;index&quot;:null}" fill="#0024dd" stroke="#000000" stroke-width="1.5" stroke-linecap="round"/><path d="M252.44198,195.15093l7.06975,-0.788l1.62015,3.94l-3.53488,0.9456l0.58915,8.66798l-3.53488,0.4728z" data-paper-data="{&quot;index&quot;:null}" fill="#001eb7" stroke="none" stroke-width="0" stroke-linecap="round"/><path d="M230.49629,233.44765l-2.50387,1.4184l-2.35659,-4.57039l-0.29457,-5.51599l0.73643,-4.72799l3.97674,0.6304z" data-paper-data="{&quot;index&quot;:null}" fill="#001eb7" stroke="none" stroke-width="0" stroke-linecap="round"/><path d="M234.91489,199.09093l-6.18603,0.4728l-0.14729,11.81998l-1.32558,3.94l-7.80618,1.1032l-2.06201,-6.77677l8.54262,2.04879l-1.91473,-17.49357l4.70556,0.10336l6.78279,0.84223z" data-paper-data="{&quot;index&quot;:null}" fill="#001eb7" stroke="none" stroke-width="0" stroke-linecap="round"/><path d="M263.04661,229.98047l-3.24031,-0.4728l-3.53488,-9.45598l5.15503,-1.1032z" data-paper-data="{&quot;index&quot;:null}" fill="#001eb7" stroke="none" stroke-width="0" stroke-linecap="round"/><path d="M230.49629,233.13247l-0.58915,-12.45038l31.96118,-1.8912l1.17829,10.40158" data-paper-data="{&quot;index&quot;:null}" fill="none" stroke="#000000" stroke-width="3" stroke-linecap="round"/><path d="M225.19398,254.09323c0,0 -5.30015,1.01654 -7.59505,0.70606c-1.90233,-0.25737 -5.21888,-2.43966 -5.21888,-2.43966c0,0 -3.90809,-1.78754 -5.57994,-3.35284c-1.43344,-1.34207 -3.8464,-5.47275 -3.8464,-5.47275c0,0 -1.36353,-2.405 -1.22514,-4.25298c0.18604,-2.48434 0.636,-10.08859 0.636,-10.08859l2.79845,-0.6304l3.82945,-3.7824l0.88372,3.94l1.03101,6.77679l2.50387,5.67359l6.03874,6.46158l5.15503,2.8368l0.58915,1.8912z" data-paper-data="{&quot;index&quot;:null}" fill="#001eb7" stroke="none" stroke-width="0" stroke-linecap="round"/><path d="M260.02723,212.01409c-0.69143,0 -1.25194,-0.59977 -1.25194,-1.3396c0,-0.73984 0.56052,-1.3396 1.25194,-1.3396c0.69143,0 1.25194,0.59977 1.25194,1.3396c0,0.73984 -0.56052,1.3396 -1.25194,1.3396z" data-paper-data="{&quot;index&quot;:null}" fill="#000000" stroke="#000000" stroke-width="3" stroke-linecap="butt"/><path d="M230.56994,215.00851c-0.69142,0 -1.25194,-0.59976 -1.25194,-1.3396c0,-0.73984 0.56051,-1.3396 1.25194,-1.3396c0.69142,0 1.25193,0.59976 1.25193,1.3396c0,0.73984 -0.56051,1.3396 -1.25193,1.3396z" data-paper-data="{&quot;index&quot;:null}" fill="#000000" stroke="#000000" stroke-width="3" stroke-linecap="butt"/><path d="M260.83731,196.09655l2.06202,10.24399l5.74417,-0.31521l6.92246,26.47675l-2.06201,11.18958l-6.18603,5.04319h-8.98448l-6.62789,-3.94l-3.82945,-7.72237l-4.4186,0.3152l-6.33332,11.03198l-7.80618,4.41279l-12.0775,1.8912l-10.45734,-5.51599l-5.4496,-8.35278l2.50387,-15.91758l2.94573,-12.29278l1.32558,-7.87998c0,0 5.83607,3.18296 8.73993,4.24458c2.98535,1.09142 8.93445,2.217 8.93445,2.217l-1.76744,-13.86877v-3.6248l11.63564,0.9456v16.70557c0,0 5.37015,-2.94887 10.31177,-2.91496c5.66674,0.03888 8.6882,3.07257 8.6882,3.07257l-2.06202,-17.02077l7.95347,-0.4728z" data-paper-data="{&quot;index&quot;:null}" fill="none" stroke="#000000" stroke-width="3" stroke-linecap="round"/><path d="M239.7571,153.085l-2.53852,3.0086l-24.25692,-8.93181v-2.25646z" data-paper-data="{&quot;index&quot;:null}" fill="#0a9600" stroke="#000000" stroke-width="0" stroke-linecap="round"/><path d="M266.55253,143.40104l0.37608,3.38468l-13.91482,7.8976l-2.53851,-0.56411l-0.94019,-2.82058z" data-paper-data="{&quot;index&quot;:null}" fill="#0a9600" stroke="none" stroke-width="0" stroke-linecap="round"/><path d="M280.60423,156.95053c0,0 0.25524,3.867 1.73237,8.26123c1.10053,3.27391 3.50491,6.39364 3.63763,10.81742c0.05285,1.76151 -0.81182,3.76561 -1.02731,5.57381c-1.25382,10.52144 -18.00216,11.70581 -18.00216,11.70581c0,0 -17.1491,1.14193 -26.11259,1.10922c-9.36541,-0.03418 -28.927,-1.31009 -28.927,-1.31009c0,0 -9.50692,-4.24012 -13.2821,-7.0265c-7.33512,-5.41388 -5.6001,-13.06095 -5.6001,-13.06095l2.81224,-17.87782c0,0 27.29257,3.51807 43.37217,2.79237c14.92668,-0.67367 41.39684,-0.9845 41.39684,-0.9845z" data-paper-data="{&quot;index&quot;:null}" fill="#fdcc8d" stroke="#000000" stroke-width="3" stroke-linecap="round"/><path d="M282.45742,165.45352l-12.66664,-0.44186l5.59689,-7.80618l4.86046,-0.29457z" data-paper-data="{&quot;index&quot;:null}" fill="#e1b47d" stroke="#000000" stroke-width="0" stroke-linecap="round"/><path d="M249.02338,166.04266l-11.34106,1.62015l2.79845,-9.57362l3.82945,-0.14729z" data-paper-data="{&quot;index&quot;:null}" fill="#e1b47d" stroke="#000000" stroke-width="0" stroke-linecap="round"/><path d="M200.12426,167.51553l-5.74417,0.44186l1.76744,-8.24804z" data-paper-data="{&quot;index&quot;:null}" fill="#e1b47d" stroke="#000000" stroke-width="0" stroke-linecap="round"/><path d="M229.38976,157.49528c-8.58773,-0.28249 -20.97442,-0.62104 -29.72321,-1.49542c-5.90302,-0.58997 -10.05843,-1.86158 -10.05843,-1.86158c0,0 -6.3703,-0.46918 -5.93037,-7.82587c0.2521,-4.21571 5.93037,-9.6502 5.93037,-9.6502c0,0 -4.48088,-3.80132 -4.44186,-12.24608c0.01569,-3.39535 3.63837,-12.46148 3.63837,-12.46148c0,0 16.8751,-9.1391 47.62566,-10.08992c23.25658,-0.71911 41.56259,5.46981 41.56259,5.46981c0,0 5.21759,3.76584 5.31698,13.65754c0.02747,2.73378 -2.40504,6.65716 -3.69632,10.17786c-1.05707,2.88212 -1.01804,5.69315 -1.01804,5.69315c0,0 3.53777,-0.02117 11.67405,2.56879c4.87628,1.55224 1.81904,4.5678 3.75311,6.99283c1.07257,1.34484 -1.93134,5.61042 -5.37847,7.9191c-3.39991,2.27705 -7.23645,2.60672 -7.23645,2.60672c0,0 -36.03618,1.07047 -52.01797,0.54475z" data-paper-data="{&quot;index&quot;:null}" fill="#0cb500" stroke="#000000" stroke-width="3" stroke-linecap="round"/><path d="M289.81189,151.20458l-0.09402,-1.03421l0.56412,-2.35047l-0.75216,-2.16244l-1.69234,-1.69234l-1.88038,-1.59833l-3.10263,-2.16243l-11.28229,-0.28206l-0.37608,-1.41029l11.18827,-0.37608l9.43304,1.88038l1.19111,3.47871l1.27231,4.75742l-3.24671,3.42223z" data-paper-data="{&quot;index&quot;:null}" fill="#0a9c00" stroke="none" stroke-width="0" stroke-linecap="round"/><path d="M274.65124,156.9109c0,0 -1.00922,11.45867 -16.05423,12.37207c-10.7751,0.65416 -13.99223,-11.63564 -13.99223,-11.63564l30.04645,-0.73644z" data-paper-data="{&quot;index&quot;:null}" fill="#ffffff" stroke="#000000" stroke-width="3" stroke-linecap="round"/><path d="M241.21719,158.0892c0,0 -3.24375,17.0456 -23.71313,17.37981c-18.56212,0.30308 -21.50383,-18.99996 -21.50383,-18.99996c0,0 14.85721,0.97948 22.37975,1.24901c7.54969,0.27051 22.83722,0.37114 22.83722,0.37114z" data-paper-data="{&quot;index&quot;:null}" fill="#ffffff" stroke="#000000" stroke-width="3" stroke-linecap="round"/><path d="M269.24234,161.25778c-0.65075,0 -1.1783,-0.52754 -1.1783,-1.17829c0,-0.65075 0.52755,-1.1783 1.1783,-1.1783c0.65075,0 1.17829,0.52755 1.17829,1.1783c0,0.65075 -0.52754,1.17829 -1.17829,1.17829z" data-paper-data="{&quot;index&quot;:null}" fill="#000000" stroke="#000000" stroke-width="2" stroke-linecap="butt"/><path d="M204.0738,167.126c-0.65075,0 -1.17829,-0.65942 -1.17829,-1.47287c0,-0.81344 0.52754,-1.47286 1.17829,-1.47286c0.65075,0 1.17829,0.65941 1.17829,1.47286c0,0.81345 -0.52754,1.47287 -1.17829,1.47287z" data-paper-data="{&quot;index&quot;:null}" fill="#000000" stroke="#000000" stroke-width="2" stroke-linecap="butt"/><path d="M280.60423,156.95053c0,0 0.25524,3.867 1.73237,8.26123c1.10053,3.27391 3.50491,6.39364 3.63763,10.81742c0.05285,1.76151 -0.81182,3.76561 -1.02731,5.57381c-1.25382,10.52144 -18.00216,11.70581 -18.00216,11.70581c0,0 -17.1491,1.14193 -26.11259,1.10922c-9.36541,-0.03418 -28.927,-1.31009 -28.927,-1.31009c0,0 -9.50692,-4.24012 -13.2821,-7.0265c-7.33512,-5.41388 -5.6001,-13.06095 -5.6001,-13.06095l2.81224,-17.87782c0,0 27.29257,3.51807 43.37217,2.79237c14.92668,-0.67367 41.39684,-0.9845 41.39684,-0.9845z" data-paper-data="{&quot;index&quot;:null}" fill="none" stroke="#000000" stroke-width="2" stroke-linecap="round"/><path d="M213.67462,139.08924l-1.91473,2.94573h-17.08523l-4.86046,3.68217l1.03101,3.2403l2.94573,4.12403l1.17829,1.62016l-8.98448,-2.20931l-2.50387,-5.00774l2.06201,-6.92247l6.33332,-2.94573l21.20926,-0.29457z" data-paper-data="{&quot;index&quot;:null}" fill="#0a9600" stroke="#000000" stroke-width="0" stroke-linecap="round"/><path d="M211.61262,137.46908h-15.46509l-5.89146,-1.62015l-3.68217,-3.53488l-1.32558,-5.89146l0.73643,-7.95347l3.97674,-7.21704l4.86046,-1.62015l0.29457,1.17829l-3.38759,3.82946l-2.2093,4.27131l1.17829,4.71317l3.24031,4.71317l7.06975,5.00775l8.24804,0.88372l3.53488,1.76744z" data-paper-data="{&quot;index&quot;:null}" fill="#0a9600" stroke="#000000" stroke-width="0" stroke-linecap="round"/><path d="M282.31014,137.1745l-11.34106,0.29457" data-paper-data="{&quot;index&quot;:null}" fill="none" stroke="#000000" stroke-width="2" stroke-linecap="round"/><path d="M212.7909,137.32179l-22.9767,-0.29457" data-paper-data="{&quot;index&quot;:null}" fill="none" stroke="#000000" stroke-width="2" stroke-linecap="round"/><path d="M229.38976,157.34798c-8.58773,-0.28249 -20.97442,-0.62104 -29.72321,-1.49542c-5.90302,-0.58997 -10.05843,-1.86158 -10.05843,-1.86158c0,0 -6.3703,-0.46918 -5.93037,-7.82587c0.2521,-4.21571 5.93037,-9.6502 5.93037,-9.6502c0,0 -4.48088,-3.80132 -4.44186,-12.24608c0.01569,-3.39535 3.63837,-12.46148 3.63837,-12.46148c0,0 16.8751,-9.1391 47.62566,-10.08992c23.25658,-0.71911 41.56259,5.46981 41.56259,5.46981c0,0 5.21759,3.76584 5.31698,13.65754c0.02747,2.73378 -2.40504,6.65716 -3.69632,10.17786c-1.05707,2.88212 -1.01804,5.69315 -1.01804,5.69315c0,0 3.53777,-0.02117 11.67405,2.56879c4.87628,1.55224 1.81904,4.5678 3.75311,6.99283c1.07257,1.34484 -1.93134,5.61042 -5.37847,7.9191c-3.39991,2.27705 -7.23645,2.60672 -7.23645,2.60672c0,0 -36.03618,1.07047 -52.01797,0.54475z" data-paper-data="{&quot;index&quot;:null}" fill="none" stroke="#000000" stroke-width="2" stroke-linecap="round"/><path d="M204.03669,213.99471c1.10823,0.66495 2.3046,3.32695 2.3046,3.32695l0.29457,10.75192l-2.94573,0.88372l-1.91473,-6.33332l0.44186,-2.35659l-0.14729,-3.09302l-2.94573,-1.91472l0.44187,-2.50388c0,0 3.36956,0.57833 4.47058,1.23894z" data-paper-data="{&quot;index&quot;:null}" fill="#e5b780" stroke="none" stroke-width="0" stroke-linecap="round"/><g data-paper-data="{&quot;index&quot;:null}" stroke-linecap="round"><path d="M213.49627,232.82233l3.82945,2.2093c0,0 1.02292,3.29361 -1.90845,4.61386c-3.3236,1.49691 -6.63416,-0.78441 -6.63416,-0.78441c0,0 -3.49767,2.43631 -5.22867,0.95736c-1.5252,-1.30311 -5.81782,-4.63953 -5.81782,-4.63953c0,0 -1.73512,0.17934 -2.97311,-0.50994c-0.83719,-0.46613 -1.12733,-1.80907 -1.72272,-2.03886c-1.31625,-0.50801 -3.73525,-0.70521 -3.73525,-0.70521c-7.47401,-1.71525 -5.11929,-10.59091 -5.11929,-10.59091c0,0 7.16018,-12.64322 23.86042,-9.13176c19.83912,4.17146 9.42634,15.61238 9.42634,15.61238z" fill="#fdcc8d" stroke="#000000" stroke-width="3"/><path d="M184.18626,226.63631l-0.44186,-2.94573l3.53488,-6.18603l5.89146,-3.53488l9.27905,-2.50387l12.66664,2.06201l-0.14729,2.2093l-3.24031,-0.14729h-5.30232h-5.74417l-3.53488,0.73644l-3.38759,1.32558l-3.68217,2.50387l-2.06201,2.35659l-0.58915,4.86046z" fill="#e5b780" stroke="none" stroke-width="0"/><path d="M208.93039,222.80686v1.91473l-5.30232,6.62789l1.62015,8.39533l-4.56589,-2.79845c0,0 -1.95779,-2.35075 -1.98099,-3.69625c-0.02565,-1.48772 1.83371,-4.99365 1.83371,-4.99365l4.56589,-5.4496z" fill="#e5b780" stroke="none" stroke-width="0"/><path d="M216.442,225.60531l-3.82945,4.56588l-0.88372,3.09302l0.73643,6.18603l-3.38759,-0.58915c0,0 -0.53318,-2.67941 -0.67753,-3.85477c-0.18777,-1.52899 0.23566,-5.57157 0.23566,-5.57157l3.97674,-4.4186z" fill="#e5b780" stroke="none" stroke-width="0"/><path d="M192.72886,232.67507c0,0 1.60246,-1.02204 2.60397,-2.4814c0.56264,-0.81984 -1.16352,-2.14002 -0.14614,-3.78949c0.5416,-0.87811 -1.7434,-5.28441 0.54636,-6.56807c3.72831,-2.09013 6.71673,-2.18427 6.71673,-2.18427" fill="none" stroke="#000000" stroke-width="3"/><path d="M198.47305,235.03165c0,0 0.72845,-6.5726 3.58096,-9.21101c3.31351,-3.0648 6.43452,-4.04477 6.43452,-4.04477" fill="none" stroke="#000000" stroke-width="3"/><path d="M208.78311,237.97739c0,0 -2.43779,-5.55212 0.26535,-8.77688c3.44943,-4.11506 6.65711,-4.77349 6.65711,-4.77349" fill="none" stroke="#000000" stroke-width="3"/><path d="M213.49627,232.82233l3.82945,2.2093c0,0 1.02292,3.29361 -1.90845,4.61386c-3.3236,1.49691 -6.63416,-0.78441 -6.63416,-0.78441c0,0 -3.49767,2.43631 -5.22867,0.95736c-1.5252,-1.30311 -5.81782,-4.63953 -5.81782,-4.63953c0,0 -1.73512,0.17934 -2.97311,-0.50994c-0.83719,-0.46613 -1.12733,-1.80907 -1.72272,-2.03886c-1.31625,-0.50801 -3.73525,-0.70521 -3.73525,-0.70521c-7.47401,-1.71525 -5.11929,-10.59091 -5.11929,-10.59091c0,0 7.16018,-12.64322 23.86042,-9.13176c19.83912,4.17146 9.42634,15.61238 9.42634,15.61238z" fill="none" stroke="#000000" stroke-width="2"/></g><path d="M239.04263,151.1838l-2.87254,3.40448l-27.44867,-10.10707v-2.55337z" data-paper-data="{&quot;index&quot;:null}" fill="#0a9600" stroke="#000000" stroke-width="0" stroke-linecap="round"/><path d="M269.36383,140.22561l0.42556,3.83004l-15.74575,8.93678l-2.87253,-0.63834l-1.0639,-3.19171z" data-paper-data="{&quot;index&quot;:null}" fill="#0a9600" stroke="none" stroke-width="0" stroke-linecap="round"/><path d="M270.15003,139.48086l-19.36302,9.36234l-0.21278,-3.19171" data-paper-data="{&quot;index&quot;:null}" fill="none" stroke="#000000" stroke-width="3" stroke-linecap="round"/><path d="M234.89341,144.05565l2.55336,6.17064l-27.87424,-8.93678" data-paper-data="{&quot;index&quot;:null}" fill="none" stroke="#000000" stroke-width="3" stroke-linecap="round"/><path d="M199.22455,181.34526c0,0 20.24644,-4.5622 36.5389,-1.99641c19.27863,3.03605 25.77416,10.95392 25.77416,10.95392z" data-paper-data="{&quot;index&quot;:null}" fill="#000000" stroke="#000000" stroke-width="2" stroke-linecap="round"/><g data-paper-data="{&quot;index&quot;:null}" stroke-linecap="round"><path d="M332.65034,197.50096c0,0 7.123,13.73256 -13.12183,12.6657c-17.04176,-0.89807 -20.71245,-14.9567 -20.71245,-14.9567c0,0 0.00522,-9.1827 7.66901,-8.91969c0,0 2.38843,0.43107 3.79103,0.27836c0.63446,-0.06907 1.25995,-1.29236 2.18881,-1.52769c1.37354,-0.34799 3.00431,0.27121 3.00431,0.27121c0,0 5.00583,-2.12125 6.8147,-2.98866c2.05293,-0.98445 4.80706,2.26887 4.80706,2.26887c0,0 3.78563,-1.35396 6.61294,0.94677c2.49366,2.02921 0.65869,4.94934 0.65869,4.94934l-4.26858,1.15102z" fill="#fdcc8d" stroke="#000000" stroke-width="3"/><path d="M303.49939,190.20669l-0.67967,4.84863l1.38717,2.80734l2.91508,3.36602l2.93317,2.15161l3.22692,1.62009l5.55127,1.47613l5.12425,1.36258l3.16935,0.69034l-0.4254,2.17296l-12.77115,-1.26229l-8.32399,-4.8043l-4.78522,-4.93015l-1.82649,-6.88667l1.18401,-2.73326z" fill="#e5b780" stroke="none" stroke-width="0"/><path d="M319.40689,199.16119l-3.01213,-6.43993c0,0 -0.89595,-3.866 -0.48886,-5.29717c0.36818,-1.29435 2.86432,-3.06305 2.86432,-3.06305l5.1317,-1.53114l-3.72316,7.69705l3.42102,7.76789l-0.49205,1.85043z" fill="#e5b780" stroke="none" stroke-width="0"/><path d="M327.23395,198.95641l-2.7077,-5.29215c0,0 0.62964,-4.01562 1.20403,-5.44502c0.44155,-1.09879 1.64537,-3.55121 1.64537,-3.55121l3.42523,0.30118l-2.30138,5.78904l0.0592,3.21625l2.52751,5.39663z" fill="#e5b780" stroke="none" stroke-width="0"/><path d="M315.52002,203.46179c0,0 -2.86387,-0.85894 -5.92985,-3.83697c-1.88299,-1.82897 1.45761,-5.5001 1.15984,-6.4879c-0.55933,-1.85552 1.44812,-2.68779 1.11505,-3.62467c-0.59285,-1.66771 -1.87886,-3.06723 -1.87886,-3.06723" fill="none" stroke="#000000" stroke-width="3"/><path d="M322.41576,201.02809c0,0 -2.76436,-1.74909 -5.17901,-5.56247c-2.0787,-3.28284 -1.09366,-9.82191 -1.09366,-9.82191" fill="none" stroke="#000000" stroke-width="3"/><path d="M330.07173,200.3206c0,0 -2.93076,-1.46062 -5.20686,-6.32391c-1.78368,-3.81112 1.99904,-8.55031 1.99904,-8.55031" fill="none" stroke="#000000" stroke-width="3"/><path d="M332.65034,197.50096c0,0 7.123,13.73256 -13.12183,12.6657c-17.04176,-0.89807 -20.71245,-14.9567 -20.71245,-14.9567c0,0 0.00522,-9.1827 7.66901,-8.91969c0,0 2.38843,0.43107 3.79103,0.27836c0.63446,-0.06907 1.25995,-1.29236 2.18881,-1.52769c1.37354,-0.34799 3.00431,0.27121 3.00431,0.27121c0,0 5.00583,-2.12125 6.8147,-2.98866c2.05293,-0.98445 4.80706,2.26887 4.80706,2.26887c0,0 3.78563,-1.35396 6.61294,0.94677c2.49366,2.02921 0.65869,4.94934 0.65869,4.94934l-4.26858,1.15102z" fill="none" stroke="#000000" stroke-width="2"/></g></g></g></svg>