<svg version="1.1" xmlns="http://www.w3.org/2000/svg" xmlns:xlink="http://www.w3.org/1999/xlink" width="595.01038" height="313.16666" viewBox="0,0,595.01038,313.16666"><g transform="translate(35.51037,-124.83334)"><g data-paper-data="{&quot;isPaintingLayer&quot;:true}" fill-rule="nonzero" stroke-width="2" stroke-linecap="butt" stroke-linejoin="miter" stroke-miterlimit="10" stroke-dasharray="" stroke-dashoffset="0" style="mix-blend-mode: normal"><path d="M-33.5,437l-1,-83l593,-92v175z" fill="#000000" stroke="#000000"/><path d="M8.5,362v-86l52,17l-19,69z" fill="#000000" stroke="#000000"/><path d="M209.13809,150v-10h51.18199c0.14704,0.07117 0.28831,0.15571 0.4226,0.2565c0.75405,0.56595 1.17774,1.53871 2,2c5.19524,2.91454 12.93175,4.67728 18.85913,3.36437c2.29862,-0.50914 4.55035,-1.31021 6.65549,-2.36437c0.73275,-0.36693 0.9347,-1.44205 1.66968,-1.80451c0.94705,-0.46705 2.46014,0.2687 3.11855,-0.55686c0.23505,-0.29472 0.46468,-0.59323 0.68943,-0.89514l0.76503,0l0.047,0.0705l0.10575,-0.0705h30.46127c2.75732,1.75 5.88598,1.75 5.88598,1.75c4.53328,0 9.95549,-0.84585 14.39818,-0.12913c1.04064,0.16788 1.95735,0.84513 3,1c1.05817,0.15717 6.02793,0.12913 7.60182,0.12913h3c0,0 4.22884,0 7.18653,-2.75h26.92749c2.75732,1.75 5.88598,1.75 5.88598,1.75c6.01978,0 12.03927,-0.38823 17.98538,-1.04867c0.90136,-0.10011 1.98318,-0.38128 3.1357,-0.70133h115.37892v10z" fill="#ff0000" stroke="#ff0000"/><path d="M467.08952,125.83334v12.83333h-38.02314c2.57729,-0.32769 8.93361,-1.94402 8.93361,-9.91667c0,-1.08586 -0.11791,-2.05381 -0.32812,-2.91666z" fill="#000000" stroke="#000000"/><path d="M367.34526,138.66667c0.98852,-1.42064 1.65474,-3.33555 1.65474,-5.91667c0,-3.24424 -1.05251,-5.43598 -2.47461,-6.91666h24.12935c-0.98852,1.42064 -1.65473,3.33554 -1.65473,5.91666c0,3.24426 1.05252,5.43599 2.47463,6.91667z" fill="#000000" stroke="#000000"/><path d="M296.65275,138.66667l0.7652,-0.51014c2.75701,-1.78054 4.58205,-4.88041 4.58205,-8.40654c0,-1.39003 -0.28361,-2.71382 -0.79613,-3.91666h21.45086c-0.98852,1.42064 -1.65473,3.33554 -1.65473,5.91666c0,3.24426 1.05252,5.43599 2.47463,6.91667z" fill="#000000" stroke="#000000"/><path d="M206,138.66667v-12.83333h34.13422c-0.08734,0.59414 -0.13422,1.23196 -0.13422,1.91666c0,10 10,10 10,10l1.39818,-0.12913c1.20778,0.51679 1.74139,0.76273 2.56488,1.0458z" fill="#000000" stroke="#000000"/><path d="M102.00235,242.23982l38.47741,-35.90945l11.04592,11.92981l-38.47741,35.90945z" fill="#000000" stroke="#000000"/><path d="M168.00236,160.22226l38.47742,-14.89189l11.04591,4.94737l-38.47741,14.89189z" fill="#000000" stroke="#000000"/></g></g></svg>